<?xml version="1.0" encoding="UTF-8"?>
<svg id="Layer_1" data-name="Layer 1" xmlns="http://www.w3.org/2000/svg" viewBox="0 0 432 107.74">
  <defs>
    <style>
      .cls-1 {
        fill: #fff;
      }
    </style>
  </defs>
  <path class="cls-1" d="m97.35,62.35h-8.68l.21-49.46h8.47v49.46Z"/>
  <path class="cls-1" d="m150.72,62.95h-8.23l-1-2.21c-.86-1.91-2.5-5.56-4.98-10.98-2.86-6.25-5.15-10.03-6.75-11.24-1.65-1.24-3.75-1.85-6.4-1.85l-8.99-.43-.31-7.31,13.16-.05c4.1,0,7.26-.75,9.39-2.22,1.7-1.21,2.59-3.57,2.59-6.95s-.89-5.84-2.7-7.14c-2.16-1.44-5.44-2.19-9.66-2.19h-19.1V2.6h19.1c5.84,0,10.55,1.24,14.01,3.69,3.75,2.74,5.65,7.26,5.65,13.42,0,5.15-1.33,9.17-3.97,11.95-1.62,1.65-3.48,2.89-5.54,3.71.43.55.87,1.15,1.33,1.82,1.46,2.34,3.32,6.08,5.77,11.5,2.36,5.19,3.89,8.62,4.63,10.31l2.01,3.95h-.02Z"/>
  <path class="cls-1" d="m241.68,63.1c-13.85,0-21.38-7.09-22.76-8.5l-1.59-1.65,5.62-5.44,1.59,1.67c.6.63,6.16,6.14,17.14,6.14,8.52,0,14.03-3.06,14.03-7.81,0-4.14-2.73-6.6-10.8-9.73l-7.83-3.11c-8.65-3.43-16.66-7.84-16.66-16.86s8.61-15.04,20.94-15.04c8.49,0,16.37,3.26,20.59,8.5l1.44,1.79-6.02,4.86-1.44-1.75c-2.68-3.25-8.81-5.62-14.55-5.62-7.75,0-13.16,2.99-13.16,7.26,0,3.06,1.98,5.74,11.78,9.65l7.8,3.11c8.16,3.22,15.72,7.51,15.72,16.96s-8.76,15.59-21.81,15.59l-.02-.02Z"/>
  <rect class="cls-1" x="273.21" y="2.76" width="42.67" height="7.78"/>
  <rect class="cls-1" x="273.21" y="55.32" width="43.47" height="7.78"/>
  <rect class="cls-1" x="273.21" y="29.04" width="37.89" height="7.78"/>
  <polygon class="cls-1" points="376.9 63.1 369.87 63.1 335.48 16.79 335.48 63.1 327.7 63.1 327.7 2.76 334.73 2.76 369.12 49.09 369.12 2.76 376.9 2.76 376.9 63.1"/>
  <path class="cls-1" d="m409.19,63.1c-13.85,0-21.4-7.09-22.76-8.5l-1.59-1.65,5.62-5.44,1.59,1.67c.6.63,6.16,6.14,17.14,6.14,8.52,0,14.03-3.06,14.03-7.81,0-4.14-2.73-6.6-10.8-9.73l-7.83-3.11c-8.65-3.43-16.66-7.84-16.66-16.86s8.61-15.04,20.94-15.04c8.49,0,16.37,3.26,20.59,8.5l1.44,1.79-6.02,4.86-1.44-1.75c-2.68-3.25-8.81-5.62-14.55-5.62-7.75,0-13.16,2.99-13.16,7.26,0,3.06,1.98,5.74,11.78,9.65l7.8,3.11c8.16,3.22,15.7,7.51,15.7,16.96s-8.76,15.59-21.81,15.59v-.02Z"/>
  <g>
    <path class="cls-1" d="m.58,3.26c4.5-.08,11.27,1.52,18.66,3.78,8.61,2.63,14.89,6.71,18.73,9.65,4.03-3.03,10.14-6.92,18.26-9.71,9.96-3.43,16.07-3.89,21.63-3.68.05,19.62-.05,39.35,0,58.97-3.84-.05-4.73.05-8.58,0,0-16.01-.17-32.13-.17-48.14-2.86.06-7.8.51-13.22,2.93-1.84.81-5.88,2.82-9.83,6.63-.08.08-.15.15-.2.18,2.59,3.63,5.59,8.65,7.93,15.06,3.43,9.39,4.73,17.91,4.63,23.37h-9.16c.08-4.5-1.07-15.45-6.39-25.38-2.44-4.55-4.41-6.51-7.08-9.34-3.09-3.28-6.43-5.51-7.29-6.13C18.21,14.3,4.96,12.31.58,12.28V3.26Z"/>
    <path class="cls-1" d="m15.78,62.22c.03-1.15-.03-2.8-.44-4.73-.31-1.47-.72-3.32-1.99-5.27-1.68-2.53-3.89-3.74-5.02-4.35-2.97-1.59-6.17-1.72-7.73-1.72.02-2.8-.03-5.68,0-8.49,2.65.08,6.6.57,10.22,2.39,8.67,4.37,12.82,14.17,13.13,22.16"/>
    <path class="cls-1" d="m.58,21.43c3.75.2,9.22.92,14.98,3.25,3.32,1.35,9.6,3.97,15.18,10.23,4.43,4.96,10.26,14.06,10.6,27.37h-8.68c-.17-2.79-1.12-12.79-9.19-21.35C14.48,31.38,3.11,30.42.58,30.26"/>
  </g>
  <polygon class="cls-1" points="213.78 63.13 205.31 63.13 179.76 2.85 187.82 2.85 213.78 63.13"/>
  <polygon class="cls-1" points="155.4 63.13 163.92 63.13 179.76 22.33 175.7 12.88 155.4 63.13"/>
  <path class="cls-1" d="m97.35,7.11h-8.68l.21-4.52h8.47v4.52Z"/>
  <g>
    <path class="cls-1" d="m3.01,90.13c.25,3.74,3.12,6.18,7.36,6.18s6.79-1.94,6.79-5.17c0-3.67-3.52-4.46-7.47-5.14-4.03-.68-8.12-1.76-8.12-6.54,0-4.27,3.34-6.97,8.44-6.97s8.41,2.84,8.76,7.15h-1.97c-.43-3.27-3.02-5.39-6.79-5.39s-6.5,1.83-6.5,5.1c0,3.59,3.34,4.24,7.19,4.89,4.17.72,8.41,1.94,8.41,6.72,0,4.24-3.49,7.11-8.77,7.11-5.64,0-9.09-3.2-9.34-7.94h2.01Z"/>
    <path class="cls-1" d="m22.27,88.62c0-5.39,3.41-9.2,8.41-9.2s8.23,3.16,8.41,8.59c0,.22-.04.5-.04.75h-14.87v.33c.07,4.24,2.62,7.33,6.68,7.33,2.98,0,5.39-1.76,6.11-4.6h1.87c-.79,3.67-3.84,6.25-7.83,6.25-5.17,0-8.73-3.74-8.73-9.45Zm14.84-1.4c-.29-3.99-2.84-6.18-6.39-6.18-3.34,0-6.11,2.48-6.39,6.18h12.79Z"/>
    <path class="cls-1" d="m58.3,87.65v10.2h-1.83v-10.13c0-4.31-2.12-6.61-5.64-6.61-3.88,0-6.29,3.02-6.29,7.76v8.98h-1.83v-18.21h1.58l.29,3.88c1.04-2.37,3.2-4.1,6.54-4.1,4.13,0,7.19,2.48,7.19,8.23Z"/>
    <path class="cls-1" d="m63.4,92.25c.14,2.62,2.41,4.24,5.89,4.24,2.98,0,5.24-1.37,5.24-3.52,0-2.69-2.48-3.09-5.53-3.52-3.74-.5-7.11-1.19-7.11-4.85,0-3.13,2.91-5.21,6.97-5.17,3.95,0,6.86,1.8,7.18,5.35h-1.87c-.32-2.37-2.41-3.77-5.32-3.77-3.09,0-5.14,1.36-5.14,3.45,0,2.55,2.51,2.87,5.35,3.27,3.92.54,7.29,1.29,7.29,5.14,0,3.23-3.16,5.21-7.08,5.21-4.56,0-7.62-2.05-7.76-5.82h1.87Z"/>
    <path class="cls-1" d="m79.5,74.5c0-.75.58-1.29,1.29-1.29s1.29.54,1.29,1.29-.58,1.29-1.29,1.29-1.29-.54-1.29-1.29Zm.36,5.14h1.83v18.21h-1.83v-18.21Z"/>
    <path class="cls-1" d="m101.59,87.65v10.2h-1.83v-10.13c0-4.31-2.12-6.61-5.64-6.61-3.88,0-6.29,3.02-6.29,7.76v8.98h-1.83v-18.21h1.58l.29,3.88c1.04-2.37,3.2-4.1,6.54-4.1,4.13,0,7.19,2.48,7.19,8.23Z"/>
    <path class="cls-1" d="m120.77,79.64h1.58v17.1c0,5.71-2.77,8.51-8.66,8.51-4.42,0-7.54-2.08-8.12-5.96h1.9c.58,2.76,2.94,4.31,6.36,4.31,4.38,0,6.68-2.08,6.68-6.93v-3.23c-1.15,2.84-3.56,4.63-6.97,4.63-4.99,0-8.59-3.59-8.59-9.34s3.59-9.3,8.59-9.3c3.38,0,5.82,1.76,6.93,4.45l.29-4.24Zm-.22,9.12c0-4.56-2.8-7.72-6.86-7.72s-6.86,3.16-6.86,7.69,2.8,7.69,6.86,7.69,6.86-3.16,6.86-7.65Z"/>
    <path class="cls-1" d="m134.93,72.7h19.18v1.8h-8.62v23.35h-1.94v-23.35h-8.62v-1.8Z"/>
    <path class="cls-1" d="m153.07,88.73c0-5.5,3.59-9.3,8.73-9.3s8.77,3.81,8.77,9.3-3.63,9.34-8.77,9.34-8.73-3.81-8.73-9.34Zm15.59,0c0-4.49-2.8-7.69-6.86-7.69s-6.86,3.2-6.86,7.69,2.8,7.69,6.86,7.69,6.86-3.16,6.86-7.69Z"/>
    <path class="cls-1" d="m201.25,87.29v10.56h-1.87v-10.49c0-4.13-1.9-6.25-5.06-6.25-3.41,0-5.57,2.66-5.68,6.83v9.91h-1.83v-10.31c0-4.2-1.98-6.43-5.14-6.43-3.49,0-5.64,3.02-5.64,7.47v9.27h-1.83v-18.21h1.58l.29,3.88c.94-2.26,2.8-4.1,5.93-4.1,2.87,0,5.14,1.54,6,4.56,1.04-2.69,3.2-4.56,6.54-4.56,3.81,0,6.72,2.37,6.72,7.87Z"/>
    <path class="cls-1" d="m204.34,88.73c0-5.5,3.59-9.3,8.73-9.3s8.77,3.81,8.77,9.3-3.63,9.34-8.77,9.34-8.73-3.81-8.73-9.34Zm15.59,0c0-4.49-2.8-7.69-6.86-7.69s-6.86,3.2-6.86,7.69,2.8,7.69,6.86,7.69,6.86-3.16,6.86-7.69Z"/>
    <path class="cls-1" d="m233.87,79.64v1.76h-1.33c-4.27,0-5.24,3.52-5.24,7.22v9.23h-1.83v-18.21h1.58l.29,3.63c.76-2.01,2.19-3.63,5.57-3.63h.97Z"/>
    <path class="cls-1" d="m245.01,79.64v1.76h-1.33c-4.27,0-5.24,3.52-5.24,7.22v9.23h-1.83v-18.21h1.58l.29,3.63c.76-2.01,2.19-3.63,5.57-3.63h.97Z"/>
    <path class="cls-1" d="m245.76,88.73c0-5.5,3.59-9.3,8.73-9.3s8.77,3.81,8.77,9.3-3.63,9.34-8.77,9.34-8.73-3.81-8.73-9.34Zm15.59,0c0-4.49-2.8-7.69-6.86-7.69s-6.86,3.2-6.86,7.69,2.8,7.69,6.86,7.69,6.86-3.16,6.86-7.69Z"/>
    <path class="cls-1" d="m264.55,79.64h1.94l5.32,16.02,5.5-16.02h1.69l5.21,16.02,5.6-16.02h1.87l-6.46,18.21h-1.98l-5.14-15.3-5.39,15.3h-1.98l-6.18-18.21Z"/>
    <path class="cls-1" d="m306.91,98.32c0,2.37-1.54,4.02-4.02,4.13v-1.08c1.83-.07,2.69-1.47,2.69-2.84,0-.32-.07-.68-.32-.93-.18.29-.54.43-.9.43-.68,0-1.26-.43-1.26-1.29,0-.79.61-1.4,1.58-1.4,1.29,0,2.23,1.33,2.23,2.98Z"/>
    <path class="cls-1" d="m318.8,72.7h19.18v1.8h-8.62v23.35h-1.94v-23.35h-8.62v-1.8Z"/>
    <path class="cls-1" d="m336.94,88.73c0-5.5,3.59-9.3,8.73-9.3s8.77,3.81,8.77,9.3-3.63,9.34-8.77,9.34-8.73-3.81-8.73-9.34Zm15.59,0c0-4.49-2.8-7.69-6.86-7.69s-6.86,3.2-6.86,7.69,2.8,7.69,6.86,7.69,6.86-3.16,6.86-7.69Z"/>
    <path class="cls-1" d="m372.94,72.7h1.83v25.15h-1.58l-.29-4.17c-1.15,2.55-3.52,4.38-6.93,4.38-4.99,0-8.59-3.59-8.59-9.34s3.59-9.3,8.59-9.3c3.41,0,5.85,1.72,6.97,4.31v-11.03Zm.04,16.06c0-4.53-2.8-7.72-6.86-7.72s-6.86,3.2-6.86,7.69,2.8,7.69,6.86,7.69,6.86-3.16,6.86-7.65Z"/>
    <path class="cls-1" d="m395.79,96.16v1.69h-1.08c-2.16,0-3.05-.93-2.98-3.09v-.65c-1.11,2.26-3.3,3.95-7.01,3.95s-6.43-1.97-6.43-5.21c0-3.41,2.51-5.42,7.19-5.42h6.18v-1.58c0-3.02-1.94-4.81-5.35-4.81-3.09,0-5.03,1.47-5.5,3.7h-1.83c.47-3.3,3.23-5.32,7.4-5.32,4.56,0,7.11,2.33,7.11,6.5v8.48c0,1.4.54,1.76,1.62,1.76h.68Zm-4.13-7.15h-6.32c-3.38,0-5.17,1.33-5.17,3.74,0,2.26,1.8,3.74,4.71,3.74,4.31,0,6.79-2.52,6.79-6v-1.47Z"/>
    <path class="cls-1" d="m395.79,79.64h1.98l6.32,15.84,6.21-15.84h1.98l-8.73,21.59c-1.15,2.87-1.72,3.81-4.17,3.81h-2.8v-1.69h2.3c1.87,0,2.19-.54,3.02-2.55l1.19-2.95-7.29-18.21Z"/>
    <path class="cls-1" d="m424.31,96.02c0-1.29.9-2.23,2.12-2.23,1.29,0,2.12.93,2.12,2.23s-.83,2.23-2.12,2.23-2.12-.97-2.12-2.23Zm.9-5.14l-.5-17.24h3.45l-.5,17.24h-2.44Z"/>
  </g>
</svg>