<?xml version="1.0" encoding="UTF-8"?>
<svg id="Layer_1" data-name="Layer 1" xmlns="http://www.w3.org/2000/svg" xmlns:xlink="http://www.w3.org/1999/xlink" viewBox="0 0 101 101">
  <defs>
    <style>
      .cls-1 {
        fill: url(#New_Gradient_Swatch);
      }
    </style>
    <linearGradient id="New_Gradient_Swatch" data-name="New Gradient Swatch" x1="14.43" y1="7.25" x2="86.03" y2="78.85" gradientTransform="translate(0 101.28) scale(1 -1)" gradientUnits="userSpaceOnUse">
      <stop offset="0" stop-color="#67447e"/>
      <stop offset=".2" stop-color="#3e224a"/>
      <stop offset=".89" stop-color="#34ad88"/>
      <stop offset="1" stop-color="#5eeaa7"/>
    </linearGradient>
  </defs>
  <path class="cls-1" d="m95.45,61.08c-.15-.62-.7-1.06-1.34-1.08-11.13-.29-17.2,3.78-19.18,7.68-1.22,2.41-1.09,5.02.32,7.28-.35.49-.69.99-1.02,1.52-.7-3.05-1.7-5.86-2.94-8.28,1.73-2.12,2.18-4.75,1.2-7.32-1.54-4.09-7.15-8.8-18.24-9.71-.64-.05-1.23.33-1.45.93-.22.6-.01,1.27.51,1.64,1.39.99,2.12,3.83,2.82,6.58.98,3.82,2.09,8.16,5.51,9.74.86.4,1.8.6,2.84.6,1.31,0,2.76-.32,4.38-.96,1.51,3.03,2.65,6.76,3.22,10.79-.2.45-.39.91-.58,1.38-1.97-1.76-4.53-2.77-7.24-2.77-1.64,0-3.24.36-4.69,1.06-2.25-2.74-5.6-4.35-9.2-4.35s-7.03,1.64-9.28,4.45c-1.51-.77-3.18-1.16-4.9-1.16-2.7,0-5.27,1.02-7.24,2.77-.18-.47-.38-.93-.58-1.38.57-4.03,1.71-7.76,3.22-10.79,1.62.64,3.07.96,4.38.96,1.04,0,1.98-.2,2.84-.6,3.42-1.59,4.53-5.92,5.51-9.74.7-2.75,1.43-5.59,2.82-6.58.52-.37.73-1.04.51-1.64-.22-.6-.81-.98-1.45-.93-11.09.92-16.69,5.62-18.24,9.71-.97,2.57-.53,5.21,1.2,7.32-1.24,2.42-2.24,5.22-2.94,8.28-.33-.52-.67-1.03-1.02-1.52,1.41-2.26,1.54-4.87.32-7.28-1.98-3.9-8.06-7.97-19.18-7.68-.64.02-1.19.46-1.34,1.08s.13,1.27.68,1.58c1.49.83,2.52,3.58,3.52,6.24,1.39,3.69,2.96,7.88,6.53,9.09.66.22,1.35.33,2.07.33,1.56,0,3.28-.51,5.21-1.54,1.32,1.89,2.53,4.12,3.47,6.62-.57-.1-1.15-.15-1.73-.15-5.66,0-10.26,4.6-10.26,10.26,0,.78.64,1.42,1.42,1.42h68.61c.78,0,1.42-.64,1.42-1.42,0-5.66-4.6-10.26-10.26-10.26-.58,0-1.16.05-1.73.15.93-2.5,2.15-4.73,3.47-6.62,1.93,1.03,3.65,1.54,5.21,1.54.73,0,1.41-.11,2.07-.33,3.57-1.21,5.14-5.39,6.53-9.09,1-2.66,2.03-5.41,3.52-6.24.56-.31.84-.96.69-1.58h0Zm-32.61,6.41c-2.2-1.02-3.09-4.5-3.95-7.87-.48-1.88-.95-3.7-1.65-5.22,7.64,1.31,11.55,4.72,12.59,7.48.48,1.27.43,2.5-.14,3.61-1.64-2.44-3.56-4.28-5.65-5.32-.7-.35-1.55-.06-1.9.64s-.06,1.55.64,1.9c1.69.84,3.27,2.41,4.65,4.5-1.94.7-3.48.8-4.6.28h0Zm-32.2-5.61c1.04-2.77,4.95-6.17,12.59-7.48-.7,1.52-1.16,3.34-1.65,5.22-.86,3.37-1.76,6.85-3.95,7.87-1.12.52-2.66.42-4.6-.28,1.38-2.09,2.97-3.66,4.65-4.5.7-.35.99-1.2.64-1.9s-1.2-.99-1.9-.64c-2.08,1.04-4,2.88-5.65,5.32-.57-1.11-.62-2.34-.14-3.61h0Zm-13.97,13.42c-2.29-.77-3.56-4.14-4.78-7.4-.68-1.81-1.34-3.57-2.2-5.01,7.74.48,11.99,3.44,13.33,6.07.61,1.2.69,2.41.27,3.57-2.09-2.33-4.3-3.94-6.2-4.64-.74-.27-1.55.11-1.82.84-.27.74.11,1.55.84,1.82,1.54.57,3.38,1.94,5.15,3.95-1.87.92-3.4,1.19-4.58.79Zm66.32,16.79H17.48c.66-3.42,3.68-6.01,7.29-6.01.94,0,1.85.17,2.71.51.66.26,1.4,0,1.75-.62,1.43-2.49,4.1-4.04,6.97-4.04,1.61,0,3.17.48,4.5,1.38.32.22.71.29,1.09.22.38-.08.71-.31.91-.63,1.67-2.66,4.54-4.25,7.68-4.25s5.92,1.54,7.6,4.13c.43.65,1.3.84,1.96.42,1.29-.83,2.79-1.27,4.33-1.27,2.87,0,5.54,1.55,6.97,4.04.35.61,1.09.87,1.75.62.86-.34,1.78-.51,2.71-.51,3.61,0,6.62,2.59,7.29,6.01h0Zm5.6-24.19c-1.22,3.26-2.49,6.62-4.78,7.4-1.18.4-2.71.13-4.58-.79,1.78-2,3.61-3.38,5.15-3.95.74-.27,1.11-1.09.84-1.82-.27-.74-1.09-1.11-1.82-.84-1.91.7-4.11,2.31-6.2,4.64-.43-1.16-.34-2.37.27-3.57,1.34-2.64,5.59-5.6,13.33-6.07-.86,1.44-1.52,3.19-2.2,5.01h0ZM8.72,39.23c.26.43.72.7,1.22.7h7.5v1.3c0,1.37,1.11,2.48,2.48,2.48h2.22c1.37,0,2.48-1.11,2.48-2.48v-1.3h51.2v1.3c0,1.37,1.11,2.48,2.48,2.48h2.22c1.37,0,2.48-1.11,2.48-2.48v-1.3h7.5c.5,0,.97-.27,1.22-.7l3.55-6.05c.26-.44.26-.98,0-1.42-.25-.44-.72-.71-1.23-.71H6.4c-.51,0-.98.27-1.23.71-.25.44-.25.98,0,1.42l3.55,6.05Zm13.07,1.65h-1.51v-.95h1.51v.95Zm58.38,0h-1.51v-.95h1.51v.95Zm11.41-7l-1.88,3.21H10.76l-1.88-3.21h82.71Zm-74.45,14.82c0,.78-.64,1.42-1.42,1.42s-1.42-.64-1.42-1.42v-1.77c0-.78.64-1.42,1.42-1.42s1.42.64,1.42,1.42v1.77Zm5.33,5.83v1.77c0,.78-.64,1.42-1.42,1.42s-1.42-.64-1.42-1.42v-1.77c0-.78.64-1.42,1.42-1.42s1.42.64,1.42,1.42Zm-5.33,0v1.77c0,.78-.64,1.42-1.42,1.42s-1.42-.64-1.42-1.42v-1.77c0-.78.64-1.42,1.42-1.42s1.42.64,1.42,1.42Zm5.33-5.83c0,.78-.64,1.42-1.42,1.42s-1.42-.64-1.42-1.42v-1.77c0-.78.64-1.42,1.42-1.42s1.42.64,1.42,1.42v1.77Zm5.33,5.83v1.77c0,.78-.64,1.42-1.42,1.42s-1.42-.64-1.42-1.42v-1.77c0-.78.64-1.42,1.42-1.42s1.42.64,1.42,1.42Zm0-5.83c0,.78-.64,1.42-1.42,1.42s-1.42-.64-1.42-1.42v-1.77c0-.78.64-1.42,1.42-1.42s1.42.64,1.42,1.42v1.77Zm47.73,0c0,.78-.64,1.42-1.42,1.42s-1.42-.64-1.42-1.42v-1.77c0-.78.64-1.42,1.42-1.42s1.42.64,1.42,1.42v1.77Zm5.33,5.83v1.77c0,.78-.64,1.42-1.42,1.42s-1.42-.64-1.42-1.42v-1.77c0-.78.64-1.42,1.42-1.42s1.42.64,1.42,1.42Zm-5.33,0v1.77c0,.78-.64,1.42-1.42,1.42s-1.42-.64-1.42-1.42v-1.77c0-.78.64-1.42,1.42-1.42s1.42.64,1.42,1.42Zm10.65,0v1.77c0,.78-.64,1.42-1.42,1.42s-1.42-.64-1.42-1.42v-1.77c0-.78.64-1.42,1.42-1.42s1.42.64,1.42,1.42Zm-5.33-5.83c0,.78-.64,1.42-1.42,1.42s-1.42-.64-1.42-1.42v-1.77c0-.78.64-1.42,1.42-1.42s1.42.64,1.42,1.42v1.77Zm5.33,0c0,.78-.64,1.42-1.42,1.42s-1.42-.64-1.42-1.42v-1.77c0-.78.64-1.42,1.42-1.42s1.42.64,1.42,1.42v1.77ZM35.3,12.62c-.55-.55-.55-1.45,0-2.01,8.24-8.24,21.63-8.24,29.87,0,.55.55.55,1.45,0,2.01-.28.28-.64.42-1,.42s-.73-.14-1-.42c-7.13-7.13-18.73-7.13-25.85,0-.55.55-1.45.55-2.01,0h0Zm24.15,3.71c-5.08-5.08-13.34-5.08-18.42,0-.55.55-1.45.55-2.01,0-.55-.55-.55-1.45,0-2.01,6.19-6.19,16.25-6.19,22.44,0,.55.55.55,1.45,0,2.01-.28.28-.64.42-1,.42s-.73-.14-1-.42Zm-3.71,3.71c-3.03-3.03-7.96-3.03-10.99,0-.55.55-1.45.55-2.01,0-.55-.55-.55-1.45,0-2.01,4.14-4.14,10.87-4.14,15.01,0,.55.55.55,1.45,0,2.01-.28.28-.64.42-1,.42s-.73-.14-1-.42Zm-9.68,4.32c0,2.3,1.88,4.18,4.18,4.18s4.18-1.88,4.18-4.18-1.88-4.18-4.18-4.18-4.18,1.88-4.18,4.18Zm5.52,0c0,.74-.6,1.34-1.34,1.34s-1.34-.6-1.34-1.34.6-1.34,1.34-1.34,1.34.6,1.34,1.34Z"/>
</svg>