<?xml version="1.0" encoding="UTF-8"?>
<svg id="Layer_1" data-name="Layer 1" xmlns="http://www.w3.org/2000/svg" xmlns:xlink="http://www.w3.org/1999/xlink" viewBox="0 0 101 101">
  <defs>
    <style>
      .cls-1 {
        fill: url(#linear-gradient);
      }
    </style>
    <linearGradient id="linear-gradient" x1="10.11" y1="35.93" x2="106.86" y2="71.15" gradientTransform="translate(0 101.28) scale(1 -1)" gradientUnits="userSpaceOnUse">
      <stop offset="0" stop-color="#67447e"/>
      <stop offset=".2" stop-color="#3e224a"/>
      <stop offset=".74" stop-color="#34ad88"/>
      <stop offset="1" stop-color="#5eeaa7"/>
    </linearGradient>
  </defs>
  <path class="cls-1" d="m92.21,19.67h-37.2c-3.27,0-5.94,2.51-5.94,5.6v27.21c-3.38.34-6.45,2-8.57,4.65-1.6-.81-3.37-1.23-5.19-1.23-2.87,0-5.59,1.08-7.67,2.94-.2-.5-.4-.98-.61-1.46.6-4.27,1.81-8.22,3.41-11.44,1.72.68,3.26,1.01,4.64,1.01,1.1,0,2.1-.21,3.01-.63,3.62-1.68,4.8-6.27,5.84-10.32.75-2.92,1.52-5.93,2.99-6.98.55-.39.77-1.11.54-1.74-.23-.64-.86-1.04-1.54-.98-11.75.97-17.69,5.96-19.33,10.3-1.03,2.72-.56,5.51,1.27,7.75-1.33,2.61-2.38,5.59-3.11,8.78-.35-.56-.71-1.09-1.08-1.61,1.5-2.4,1.63-5.16.34-7.71-2.1-4.14-8.54-8.45-20.33-8.14-.68.02-1.26.49-1.42,1.14-.16.66.13,1.34.73,1.67,1.58.88,2.67,3.8,3.73,6.61,1.47,3.92,3.14,8.35,6.92,9.63.7.23,1.43.35,2.19.35,1.65,0,3.48-.54,5.52-1.64,1.4,2,2.68,4.37,3.67,7.01-.6-.1-1.22-.15-1.83-.15-6,0-10.88,4.88-10.88,10.88,0,.83.67,1.5,1.5,1.5h35.24v19.56c0,3.09,2.66,5.6,5.94,5.6h37.2c3.27,0,5.94-2.51,5.94-5.6V25.27c0-3.09-2.66-5.6-5.94-5.6h0Zm-62.8,17.98c1.11-2.93,5.25-6.54,13.35-7.93-.74,1.61-1.23,3.54-1.74,5.53-.91,3.57-1.86,7.26-4.19,8.34-1.19.55-2.82.45-4.87-.29,1.47-2.22,3.15-3.88,4.93-4.77.74-.37,1.05-1.27.68-2.02-.37-.74-1.27-1.05-2.02-.68-2.2,1.09-4.23,3.01-5.99,5.62-.59-1.17-.64-2.46-.14-3.8h0Zm-14.8,14.22c-2.43-.82-3.77-4.39-5.07-7.84-.72-1.92-1.42-3.79-2.33-5.31,8.2.51,12.71,3.64,14.13,6.44.64,1.27.73,2.55.28,3.78-2.22-2.47-4.55-4.17-6.57-4.92-.78-.29-1.64.11-1.93.89-.29.78.11,1.64.89,1.93,1.64.6,3.58,2.06,5.46,4.18-1.98.98-3.61,1.26-4.86.84Zm.87,17.8c.7-3.62,3.9-6.36,7.72-6.36.99,0,1.96.18,2.87.54.7.27,1.48,0,1.86-.65,1.51-2.64,4.34-4.28,7.38-4.28,1.71,0,3.36.51,4.77,1.46.34.23.75.31,1.15.23.4-.08.75-.33.97-.67,1.54-2.45,4.05-4.04,6.87-4.42v14.16H15.48ZM55.01,22.68h37.2c1.61,0,2.93,1.16,2.93,2.6v3.29h-43.06v-3.29c0-1.43,1.31-2.6,2.93-2.6Zm-2.93,8.9h43.06v49.38h-43.06V31.57Zm40.13,63.26h-37.2c-1.61,0-2.93-1.16-2.93-2.6v-8.27h43.06v8.27c0,1.43-1.31,2.6-2.93,2.6Zm-23.34-69.22c0-.83.67-1.5,1.5-1.5h6.47c.83,0,1.5.67,1.5,1.5s-.67,1.5-1.5,1.5h-6.47c-.83,0-1.5-.67-1.5-1.5Zm7.26,60.12h-5.05c-2.02,0-3.67,1.64-3.67,3.67s1.64,3.67,3.67,3.67h5.05c2.02,0,3.67-1.64,3.67-3.67s-1.64-3.67-3.67-3.67h0Zm0,4.32h-5.05c-.36,0-.66-.3-.66-.66s.3-.66.66-.66h5.05c.36,0,.66.3.66.66s-.3.66-.66.66h0ZM6.2,13.64c.27.46.76.74,1.3.74h7.95v1.38c0,1.45,1.18,2.63,2.63,2.63h2.35c1.45,0,2.63-1.18,2.63-2.63v-1.38h52.38v1.38c0,1.45,1.18,2.63,2.63,2.63h2.35c1.45,0,2.63-1.18,2.63-2.63v-1.38h9.83c.53,0,1.03-.28,1.3-.74l3.76-6.41c.27-.47.28-1.04,0-1.51-.27-.47-.77-.76-1.31-.76H3.73c-.54,0-1.04.29-1.31.76-.27.47-.27,1.04,0,1.51l3.76,6.41Zm13.85,1.75h-1.6v-1h1.6v1Zm60,0h-1.6v-1h1.6v1Zm13.97-7.41l-2,3.4H8.36l-2-3.4h87.66ZM26.4,29.87v1.87c0,.83-.67,1.5-1.5,1.5s-1.5-.67-1.5-1.5v-1.87c0-.83.67-1.5,1.5-1.5s1.5.67,1.5,1.5Zm0-6.18c0,.83-.67,1.5-1.5,1.5s-1.5-.67-1.5-1.5v-1.87c0-.83.67-1.5,1.5-1.5s1.5.67,1.5,1.5v1.87Zm-5.64,0c0,.83-.67,1.5-1.5,1.5s-1.5-.67-1.5-1.5v-1.87c0-.83.67-1.5,1.5-1.5s1.5.67,1.5,1.5v1.87Zm0,6.18v1.87c0,.83-.67,1.5-1.5,1.5s-1.5-.67-1.5-1.5v-1.87c0-.83.67-1.5,1.5-1.5s1.5.67,1.5,1.5Zm-5.64-6.18c0,.83-.67,1.5-1.5,1.5s-1.5-.67-1.5-1.5v-1.87c0-.83.67-1.5,1.5-1.5s1.5.67,1.5,1.5v1.87Zm0,6.18v1.87c0,.83-.67,1.5-1.5,1.5s-1.5-.67-1.5-1.5v-1.87c0-.83.67-1.5,1.5-1.5s1.5.67,1.5,1.5Zm77.21,21.29c-.29.29-.68.44-1.06.44s-.77-.15-1.06-.44c-9.14-9.14-24.02-9.14-33.16,0-.59.59-1.54.59-2.13,0-.59-.59-.59-1.54,0-2.13,10.32-10.32,27.1-10.32,37.42,0,.59.59.59,1.54,0,2.13Zm-4.71,2.58c.59.59.59,1.54,0,2.13-.29.29-.68.44-1.06.44s-.77-.15-1.06-.44c-6.55-6.55-17.2-6.55-23.75,0-.59.59-1.54.59-2.13,0-.59-.59-.59-1.54,0-2.13,7.72-7.72,20.29-7.72,28.01,0Zm-4.71,4.71c.59.59.59,1.54,0,2.13-.59.59-1.54.59-2.13,0-1.92-1.92-4.46-2.97-7.17-2.97s-5.25,1.05-7.17,2.97c-.29.29-.68.44-1.06.44s-.77-.15-1.06-.44c-.59-.59-.59-1.54,0-2.13,2.48-2.48,5.79-3.85,9.3-3.85s6.81,1.37,9.3,3.85h0Zm-9.3,2.8c-2.76,0-5,2.24-5,5s2.24,5,5,5,5-2.24,5-5-2.24-5-5-5Zm0,6.99c-1.1,0-1.99-.89-1.99-1.99s.89-1.99,1.99-1.99,1.99.89,1.99,1.99-.89,1.99-1.99,1.99Z"/>
</svg>