<?xml version="1.0" encoding="UTF-8"?>
<svg id="Layer_1" data-name="Layer 1" xmlns="http://www.w3.org/2000/svg" xmlns:xlink="http://www.w3.org/1999/xlink" viewBox="0 0 101 101">
  <defs>
    <style>
      .cls-1 {
        fill: url(#New_Gradient_Swatch_1-3);
      }

      .cls-2 {
        fill: url(#New_Gradient_Swatch_1-5);
      }

      .cls-3 {
        fill: url(#New_Gradient_Swatch_1-7);
      }

      .cls-4 {
        fill: url(#New_Gradient_Swatch_1-6);
      }

      .cls-5 {
        fill: url(#New_Gradient_Swatch_1);
      }

      .cls-6 {
        fill: url(#New_Gradient_Swatch_1-2);
      }

      .cls-7 {
        fill: url(#New_Gradient_Swatch_1-8);
      }

      .cls-8 {
        fill: url(#New_Gradient_Swatch_1-4);
      }
    </style>
    <linearGradient id="New_Gradient_Swatch_1" data-name="New Gradient Swatch 1" x1="3.13" y1="55.21" x2="98.28" y2="55.21" gradientUnits="userSpaceOnUse">
      <stop offset="0" stop-color="#67447e"/>
      <stop offset=".2" stop-color="#3e224a"/>
      <stop offset=".89" stop-color="#34ad88"/>
      <stop offset="1" stop-color="#5eeaa7"/>
    </linearGradient>
    <linearGradient id="New_Gradient_Swatch_1-2" data-name="New Gradient Swatch 1" x1="14.95" y1="88.19" x2="89.24" y2="88.19" xlink:href="#New_Gradient_Swatch_1"/>
    <linearGradient id="New_Gradient_Swatch_1-3" data-name="New Gradient Swatch 1" x1="13.35" y1="33.18" x2="92.79" y2="33.18" xlink:href="#New_Gradient_Swatch_1"/>
    <linearGradient id="New_Gradient_Swatch_1-4" data-name="New Gradient Swatch 1" x1="10.25" y1="35.36" x2="89.23" y2="35.36" xlink:href="#New_Gradient_Swatch_1"/>
    <linearGradient id="New_Gradient_Swatch_1-5" data-name="New Gradient Swatch 1" x1="11.74" y1="12.81" x2="85.15" y2="12.81" xlink:href="#New_Gradient_Swatch_1"/>
    <linearGradient id="New_Gradient_Swatch_1-6" data-name="New Gradient Swatch 1" x1="9.08" y1="45.79" x2="92.73" y2="45.79" xlink:href="#New_Gradient_Swatch_1"/>
    <linearGradient id="New_Gradient_Swatch_1-7" data-name="New Gradient Swatch 1" x1="2.43" y1="67.84" x2="90.92" y2="67.84" xlink:href="#New_Gradient_Swatch_1"/>
    <linearGradient id="New_Gradient_Swatch_1-8" data-name="New Gradient Swatch 1" x1="6.59" y1="66.2" x2="91.26" y2="66.2" xlink:href="#New_Gradient_Swatch_1"/>
  </defs>
  <path class="cls-5" d="m44.76,80.34h-1.57v-6.28c0-4.6-3.32-8.52-7.85-9.29v-8.9c11.74-3.5,18.37-15.93,14.7-27.65-3.54-11.3-15.57-17.8-26.96-14.58S4.48,29.34,7.98,41.08c.81,2.71,2.14,5.25,3.9,7.46.18.22.36.44.55.66l-6.09,6.09c-4.29,4.3-4.29,11.25,0,15.55l8.57,8.57v.94h-1.57c-.87,0-1.57.7-1.57,1.57v14.25c0,.8.65,1.45,1.45,1.45h.02c.92,0,1.66-.75,1.66-1.66v-12.47h28.27v12.67c0,.81.65,1.46,1.46,1.46h0c.93,0,1.68-.75,1.68-1.68v-14.02c0-.87-.7-1.57-1.57-1.57h0ZM10.21,34.8c0-10.41,8.44-18.85,18.85-18.85s18.85,8.44,18.85,18.85c.02,4.28-1.44,8.44-4.13,11.78-2.2,2.74-5.12,4.82-8.43,5.99v-2.06c0-3.48-2.82-6.29-6.29-6.29h-.02c-3.47.01-6.27,2.83-6.28,6.29v2.05c-3.3-1.18-6.21-3.25-8.41-5.98-2.69-3.33-4.15-7.49-4.13-11.78Zm7.39,42.85l-9.03-9.03c-3.06-3.07-3.06-8.04,0-11.1l6.1-6.1c2.35,2.04,5.11,3.55,8.09,4.45v8.77c0,.87.7,1.57,1.57,1.57h0c.87,0,1.57-.7,1.57-1.57v-14.14c0-1.74,1.41-3.15,3.14-3.15h0c1.74,0,3.15,1.41,3.15,3.15v15.71c0,.87.7,1.57,1.57,1.57,3.47,0,6.28,2.81,6.28,6.28v6.28h-21.99v-1.59c0-.42-.17-.82-.46-1.11Z"/>
  <path class="cls-6" d="m38.48,86.62h0c.87,0,1.57.7,1.57,1.57h0c0,.87-.7,1.57-1.57,1.57h0c-.87,0-1.57-.7-1.57-1.57h0c0-.87.7-1.57,1.57-1.57Z"/>
  <path class="cls-1" d="m21.16,46.61c.5-.74.35-1.73-.33-2.31-4.88-4.21-5.85-11.6-1.87-16.98,3.73-5.05,10.73-6.57,16.21-3.5,6.47,3.63,8.37,11.91,4.33,17.95-.64.96-1.41,1.82-2.28,2.57-.65.55-.78,1.5-.31,2.21h0c.49.73,1.51.88,2.18.32,6.21-5.15,7.57-14.33,2.8-21.12s-14.22-8.69-21.25-4.23c-7.47,4.74-9.54,14.67-4.65,21.99.86,1.28,1.89,2.42,3.08,3.4.65.53,1.62.39,2.09-.31h0Z"/>
  <path class="cls-8" d="m34.65,30.12l-7.16,7.16-2.54-2.54c-.59-.59-1.54-.59-2.13,0h0c-.64.64-.64,1.67,0,2.31l3.56,3.56c.61.61,1.61.61,2.22,0h0s8.35-8.35,8.35-8.35c.59-.59.59-1.55,0-2.15h0c-.63-.63-1.66-.63-2.3,0Z"/>
  <path class="cls-2" d="m60.46,11.24h0c.87,0,1.57.7,1.57,1.57h0c0,.87-.7,1.57-1.57,1.57h0c-.87,0-1.57-.7-1.57-1.57h0c0-.87.7-1.57,1.57-1.57Z"/>
  <path class="cls-4" d="m92.59,30.17l-8.57-8.57v-.94h1.57c.87,0,1.57-.7,1.57-1.57V4.87c0-.82-.66-1.48-1.48-1.48h0c-.92,0-1.66.74-1.66,1.66v12.47h-28.27V4.85c0-.81-.66-1.46-1.46-1.46h0c-.93,0-1.68.75-1.68,1.68v14.03c0,.87.7,1.57,1.57,1.57h1.57v6.28c0,4.6,3.32,8.52,7.85,9.29v8.9c-11.74,3.5-18.37,15.93-14.7,27.65,3.54,11.3,15.57,17.8,26.96,14.58,11.82-3.35,18.59-15.7,15.09-27.44-.81-2.71-2.14-5.25-3.9-7.46-.18-.22-.36-.44-.55-.66l6.09-6.09c4.29-4.3,4.29-11.25,0-15.55h0Zm-3.86,36.03c0,10.41-8.44,18.85-18.85,18.85s-18.85-8.44-18.85-18.85c-.02-4.28,1.44-8.44,4.13-11.78,2.2-2.74,5.12-4.82,8.43-5.99v2.06c0,3.48,2.82,6.29,6.29,6.29h.02c3.47-.01,6.27-2.83,6.28-6.29v-2.05c3.3,1.18,6.21,3.25,8.41,5.98,2.69,3.33,4.15,7.49,4.13,11.78h0Zm-4.45-16.61c-2.35-2.04-5.11-3.55-8.09-4.45v-8.75c0-.88-.71-1.59-1.59-1.59h0c-.86,0-1.55.69-1.55,1.55v14.16c0,1.74-1.41,3.15-3.14,3.15h0c-1.74,0-3.15-1.41-3.15-3.15v-15.71c0-.87-.7-1.57-1.57-1.57-3.47,0-6.28-2.81-6.28-6.28v-6.28h21.99v1.59c0,.42.17.82.46,1.11l9.03,9.03c3.06,3.07,3.06,8.04,0,11.1l-6.1,6.1Z"/>
  <g>
    <path class="cls-3" d="m78.04,56.65c4.83,4.12,5.89,11.32,2.18,16.69s-11.17,7.04-16.82,3.63c-6.18-3.73-7.93-11.81-3.97-17.74.68-1.02,1.51-1.93,2.45-2.71.56-.46.67-1.28.26-1.89h0c-.56-.84-1.74-.99-2.51-.33-6.04,5.18-7.32,14.24-2.6,20.95,4.79,6.82,14.22,8.69,21.25,4.23,7.47-4.74,9.54-14.67,4.65-21.99-.84-1.26-1.85-2.38-3.01-3.35-.68-.57-1.7-.41-2.2.33h0c-.47.7-.33,1.64.31,2.19Z"/>
    <path class="cls-7" d="m67.55,66.32l-4.02,4.02c-.57.57-.57,1.5,0,2.08l.1.1c.6.6,1.57.6,2.16,0l3.97-3.97c.06-.06.17-.06.23,0l3.87,3.87c.65.65,1.71.65,2.36,0h0c.57-.57.57-1.5,0-2.08l-4.02-4.02c-.06-.06-.06-.17,0-.23l3.96-3.96c.6-.6.6-1.58,0-2.18h0c-.62-.62-1.64-.62-2.26,0l-3.92,3.92c-.06.06-.17.06-.23,0l-4.01-4.01c-.58-.58-1.52-.58-2.1,0h0c-.65.65-.65,1.7,0,2.35l3.88,3.88c.06.06.06.17,0,.23Z"/>
  </g>
</svg>