<?xml version="1.0" encoding="UTF-8"?>
<svg id="Layer_1" data-name="Layer 1" xmlns="http://www.w3.org/2000/svg" xmlns:xlink="http://www.w3.org/1999/xlink" viewBox="0 0 101 101">
  <defs>
    <style>
      .cls-1 {
        fill: url(#New_Gradient_Swatch);
      }
    </style>
    <linearGradient id="New_Gradient_Swatch" data-name="New Gradient Swatch" x1="10.76" y1="4.86" x2="95.5" y2="89.6" gradientTransform="translate(0 101.28) scale(1 -1)" gradientUnits="userSpaceOnUse">
      <stop offset="0" stop-color="#67447e"/>
      <stop offset=".2" stop-color="#3e224a"/>
      <stop offset=".89" stop-color="#34ad88"/>
      <stop offset="1" stop-color="#5eeaa7"/>
    </linearGradient>
  </defs>
  <path class="cls-1" d="m89.62,7.46h-10.15c-.41-1.54-1.62-2.63-3.11-2.63h-24.44c-1.48,0-2.7,1.09-3.09,2.63h-10.14c-2.49,0-4.52,2.33-4.52,5.19v1.75c-1.66-.85-3.43-1.5-5.3-1.89C4.15,8.19-5.85,41.92,17.14,51.77l-2.38,11.55c-1.5-.48-3.23.46-3.53,2.05l-5.09,24.71c-.3,1.47.64,2.9,2.1,3.2l7.65,1.57c1.43.3,2.9-.64,3.2-2.1l5.09-24.71c.35-1.57-.87-3.13-2.44-3.27l2.37-11.53c3.53.16,7.03-.74,10.05-2.31v38.67c0,2.86,2.03,5.19,4.52,5.19h50.93c2.49,0,4.5-2.33,4.5-5.19V12.66c.02-2.86-2.01-5.19-4.49-5.19h0Zm-38.96,3.97v-2.97c.02-.92.58-1.64,1.25-1.64h24.44c.67,0,1.24.74,1.27,1.64.04,1.41.02,2.83,0,4.24-.07,2.53-3.89,1.66-5.47,1.66-6.69-.02-13.4.04-20.1,0-1.54-.07-1.4-1.85-1.4-2.93h0Zm1.25,4.91h24.44c1.54-.02,2.75-1.24,3.13-2.68h.65v5.14c0,.74-.44,1.36-.99,1.36h-30.02c-.53,0-.99-.62-.99-1.36v-5.12s.65,0,.65.02c.48,1.34,1.59,2.63,3.13,2.65Zm23.73,53.7c-.55,0-.99.44-.99.99v12.26h-34.3v-37.28c6.48-7.38,6.52-19.3,0-26.67v-5.67h5.77v5.14c0,1.85,1.32,3.36,2.97,3.36h30.04c1.64,0,2.97-1.5,2.97-3.36v-5.14h5.77v56.37h-12.24Zm10.84,2l-9.85,9.85v-9.85h9.85ZM36.15,12.66c0-1.77,1.13-3.21,2.54-3.21h10v.16c-1.06.18-1.92.99-2.31,2.08h-6.99c-.55,0-.99.44-.99.99v4.63c-.71-.64-1.45-1.2-2.24-1.75v-2.9Zm-19,79.68c-.09.39-.46.64-.85.57l-7.65-1.57c-.39-.09-.64-.46-.57-.85l1.98-9.64,9.04,1.85-1.96,9.64Zm3.28-15.98l-.9,4.38-9.04-1.85,1.31-6.3,9.04,1.85-.41,1.92Zm1.7-9.27c.11.16.14.35.11.55l-1.01,4.86-9.04-1.85,1.01-4.86c.07-.39.48-.65.85-.57l7.65,1.57c.18.04.34.14.44.3Zm-2.33-2.74l-2.97-.62-.11-.02,2.33-11.28c1.01.28,2.03.49,3.07.64l-2.33,11.28Zm3.6-13.26c-10.93-.42-19.23-11.43-16.88-22.16,5.28-21.83,36.03-18.51,36.77,3.71.19,10.75-9.54,19.34-19.88,18.45Zm68.73,38.52c0,1.77-1.13,3.2-2.51,3.2h-50.95c-1.4,0-2.54-1.43-2.54-3.2v-39.84c.78-.51,1.54-1.09,2.24-1.73v36.26c0,.55.44.99.99.99h36.29c.26,0,.51-.11.71-.28l13.24-13.24c.19-.19.26-.44.28-.71V12.67c0-.55-.44-.99-.99-.99h-6.98c-.39-1.09-1.25-1.89-2.3-2.08v-.16h10c1.4,0,2.51,1.45,2.51,3.21v76.94Zm-45.99-51.25v-8.11c0-1.13.92-2.05,2.05-2.05h7.06c1.31,0,1.29,1.98,0,2h-7.06l-.07,8.16,8.16.07.07-3.16c0-1.31,1.98-1.31,2,0v3.11c0,1.13-.92,2.05-2.05,2.05h-8.11c-1.11-.02-2.05-.94-2.05-2.07h0Zm13.81-8.28l-6.99,6.99c-.39.41-1.13.37-1.48-.07l-2.58-3.16c-.81-1.01.72-2.26,1.54-1.25l1.87,2.31,6.22-6.22c.94-.94,2.33.48,1.43,1.4h0Zm-13.81,26.14v-8.11c0-1.13.92-2.05,2.05-2.05h7.06c1.31,0,1.29,1.98,0,2h-7.06l-.07,8.16,8.16.07.07-3.16c0-1.31,1.98-1.31,2,0v3.11c0,1.13-.92,2.05-2.05,2.05h-8.11c-1.11,0-2.05-.94-2.05-2.07h0Zm13.81-8.26l-6.99,6.99c-.39.41-1.13.37-1.48-.07l-2.58-3.16c-.81-1.01.72-2.26,1.54-1.25l1.87,2.31,6.22-6.22c.94-.94,2.33.48,1.43,1.4h0Zm-1.59,23.03v3.11c0,1.13-.92,2.05-2.05,2.05h-8.11c-1.13,0-2.05-.92-2.05-2.05v-8.11c0-1.13.92-2.05,2.05-2.05h7.06c1.31,0,1.31,1.98,0,2h-7.06l-.07,8.16,8.16.07.07-3.16c0-.55.44-.99.99-.99.55-.02,1.01.42,1.01.97h0Zm1.59-5.17l-6.99,6.99c-.39.41-1.13.37-1.48-.07l-2.58-3.16c-.81-1.01.72-2.26,1.54-1.25l1.87,2.31,6.22-6.22c.94-.92,2.33.48,1.43,1.4h0Zm5.63-34.95h10.51c1.31,0,1.29,1.98,0,2h-10.53c-1.29-.02-1.29-2,.02-2Zm17.68,5.92c0,.55-.44.99-.99.99h-16.69c-.55,0-.99-.44-.99-.99s.44-.99.99-.99h16.69c.55,0,.99.44.99.99Zm-17.68,11.94h10.51c1.31,0,1.29,1.98,0,2h-10.53c-1.29-.02-1.29-2,.02-2h0Zm16.69,6.92h-16.69c-1.31,0-1.29-1.98,0-2h16.69c1.31.02,1.31,2,0,2ZM16.26,19.84c-11.25,7.45-7.98,25.22,5.35,27.87,9.09,2.01,18.08-5.24,18.42-14.36.81-12.29-13.6-20.33-23.77-13.51Zm21.6,15.28c-1.36,7.33-8.53,12.17-15.84,10.65-7.79-1.41-12.57-10.1-9.91-17.47,1.54-4.56,5.6-7.98,10.31-8.81,9.04-1.59,17.11,6.64,15.43,15.63h0Z"/>
</svg>