<?xml version="1.0" encoding="UTF-8"?>
<svg id="Layer_1" data-name="Layer 1" xmlns="http://www.w3.org/2000/svg" xmlns:xlink="http://www.w3.org/1999/xlink" viewBox="0 0 101 101">
  <defs>
    <style>
      .cls-1 {
        fill: url(#linear-gradient);
      }
    </style>
    <linearGradient id="linear-gradient" x1="3.54" y1="51" x2="97.32" y2="51" gradientTransform="translate(0 101.28) scale(1 -1)" gradientUnits="userSpaceOnUse">
      <stop offset="0" stop-color="#67447e"/>
      <stop offset=".2" stop-color="#3e224a"/>
      <stop offset=".78" stop-color="#34ad88"/>
      <stop offset="1" stop-color="#5eeaa7"/>
    </linearGradient>
  </defs>
  <path class="cls-1" d="m92.14,18.23h-26.99c-2.86,0-5.18,2.33-5.18,5.18v15.53c0,2.67,2.03,4.87,4.63,5.15v8.07c0,.54.32,1.02.82,1.23.17.07.34.1.51.1.35,0,.69-.13.94-.39l8.97-8.98h16.3c2.86,0,5.18-2.33,5.18-5.18v-15.53c0-2.86-2.33-5.18-5.18-5.18h0Zm2.52,20.71c0,1.39-1.13,2.52-2.52,2.52h-16.85c-.35,0-.69.14-.94.39l-7.09,7.1v-6.16c0-.73-.59-1.33-1.33-1.33h-.77c-1.39,0-2.52-1.13-2.52-2.52v-15.53c0-1.39,1.13-2.52,2.52-2.52h26.99c1.39,0,2.52,1.13,2.52,2.52v15.53h0Zm-37.43,32.94c2.39-1.97,3.92-4.95,3.92-8.28,0-5.91-4.81-10.73-10.72-10.73s-10.72,4.81-10.72,10.73c0,3.33,1.53,6.31,3.92,8.28-6.73,1.17-11.87,7.06-11.87,14.12v9.84c0,.73.59,1.33,1.33,1.33h34.69c.73,0,1.33-.59,1.33-1.33v-9.84c0-7.06-5.13-12.94-11.87-14.12Zm-14.87-8.28c0-4.45,3.62-8.07,8.07-8.07s8.07,3.62,8.07,8.07-3.62,8.07-8.07,8.07-8.07-3.62-8.07-8.07Zm24.08,30.91h-32.03v-8.51c0-6.44,5.24-11.68,11.68-11.68h8.67c6.44,0,11.68,5.24,11.68,11.68v8.51h0Zm-20.43-43.22c.25.25.59.39.94.39.17,0,.34-.03.51-.1.5-.21.82-.69.82-1.23v-11.78c3.59-.13,6.47-3.09,6.47-6.72V10.1c0-3.71-3.01-6.72-6.72-6.72H10.26c-3.71,0-6.72,3.01-6.72,6.72v21.74c0,3.71,3.01,6.72,6.72,6.72h23.03l12.72,12.72h0ZM6.2,31.84V10.1c0-2.24,1.82-4.06,4.06-4.06h37.77c2.24,0,4.06,1.82,4.06,4.06v21.74c0,2.24-1.82,4.06-4.06,4.06h-1.08c-.73,0-1.33.59-1.33,1.33v9.9l-10.84-10.84c-.25-.25-.59-.39-.94-.39H10.26c-2.24,0-4.06-1.82-4.06-4.06h0Zm78.11-3.38l-3.78,3.78,3.78,3.78c.52.52.52,1.36,0,1.88-.26.26-.6.39-.94.39s-.68-.13-.94-.39l-3.78-3.78-3.78,3.78c-.52.52-1.36.52-1.88,0s-.52-1.36,0-1.88l3.78-3.78-3.78-3.78c-.52-.52-.52-1.36,0-1.88s1.36-.52,1.88,0l3.78,3.78,3.78-3.78c.52-.52,1.36-.52,1.88,0s.52,1.36,0,1.88h0Zm-43.56-15.25l-14.57,14.57c-.26.26-.6.39-.94.39s-.68-.13-.94-.39l-6.74-6.74c-.52-.52-.52-1.36,0-1.88s1.36-.52,1.88,0l5.8,5.8,13.63-13.63c.52-.52,1.36-.52,1.88,0s.52,1.36,0,1.88Z"/>
</svg>