<?xml version="1.0" encoding="UTF-8"?>
<svg id="Layer_1" data-name="Layer 1" xmlns="http://www.w3.org/2000/svg" xmlns:xlink="http://www.w3.org/1999/xlink" viewBox="0 0 101 101">
  <defs>
    <style>
      .cls-1 {
        fill: url(#New_Gradient_Swatch_1-3);
      }

      .cls-2 {
        fill: url(#New_Gradient_Swatch_1-5);
      }

      .cls-3 {
        fill: url(#New_Gradient_Swatch_1-6);
      }

      .cls-4 {
        fill: url(#New_Gradient_Swatch_1);
      }

      .cls-5 {
        fill: url(#New_Gradient_Swatch_1-2);
      }

      .cls-6 {
        fill: url(#New_Gradient_Swatch_1-4);
      }
    </style>
    <linearGradient id="New_Gradient_Swatch_1" data-name="New Gradient Swatch 1" x1="42.57" y1="69.28" x2="57.96" y2="69.28" gradientUnits="userSpaceOnUse">
      <stop offset="0" stop-color="#67447e"/>
      <stop offset=".2" stop-color="#3e224a"/>
      <stop offset=".89" stop-color="#34ad88"/>
      <stop offset="1" stop-color="#5eeaa7"/>
    </linearGradient>
    <linearGradient id="New_Gradient_Swatch_1-2" data-name="New Gradient Swatch 1" x1="39.69" y1="79.15" x2="60.83" y2="79.15" xlink:href="#New_Gradient_Swatch_1"/>
    <linearGradient id="New_Gradient_Swatch_1-3" data-name="New Gradient Swatch 1" x1="35.38" y1="84.43" x2="65.2" y2="84.43" xlink:href="#New_Gradient_Swatch_1"/>
    <linearGradient id="New_Gradient_Swatch_1-4" data-name="New Gradient Swatch 1" x1="30.94" y1="89.7" x2="69.58" y2="89.7" xlink:href="#New_Gradient_Swatch_1"/>
    <linearGradient id="New_Gradient_Swatch_1-5" data-name="New Gradient Swatch 1" x1="6.35" y1="49.28" x2="95.35" y2="49.28" xlink:href="#New_Gradient_Swatch_1"/>
    <linearGradient id="New_Gradient_Swatch_1-6" data-name="New Gradient Swatch 1" x1="5.64" y1="42.35" x2="94.89" y2="42.35" xlink:href="#New_Gradient_Swatch_1"/>
  </defs>
  <g id="drone">
    <g>
      <path class="cls-4" d="m50.26,76.97c4.31,0,7.69-3.39,7.69-7.69s-3.39-7.69-7.69-7.69-7.69,3.39-7.69,7.69,3.39,7.69,7.69,7.69Zm0-12.31c2.62,0,4.62,2,4.62,4.62s-2,4.62-4.62,4.62-4.62-2-4.62-4.62,2-4.62,4.62-4.62Z"/>
      <path class="cls-5" d="m40.42,75.44c-.77.46-.92,1.38-.46,2.15,2.31,3.54,6.16,5.54,10.31,5.54s8-2,10.31-5.54c.46-.77.31-1.69-.46-2.15-.77-.46-1.69-.31-2.15.46-1.69,2.62-4.62,4.15-7.69,4.15s-6-1.54-7.69-4.15c-.46-.77-1.38-.92-2.15-.46Z"/>
      <path class="cls-1" d="m38.11,80.21c-.46-.62-1.54-.77-2.15-.31s-.77,1.54-.31,2.15c3.54,4.62,8.77,7.23,14.62,7.23s11.08-2.62,14.62-7.23c.46-.62.46-1.69-.31-2.15-.62-.46-1.69-.46-2.15.31-2.92,3.85-7.39,6-12.16,6s-9.23-2.15-12.16-6Z"/>
      <path class="cls-6" d="m66.88,84.51c-4.15,4.92-10.16,7.85-16.62,7.85s-12.46-2.92-16.62-7.85c-.62-.62-1.54-.77-2.15-.15s-.77,1.54-.15,2.15c4.62,5.69,11.54,8.93,18.93,8.93s14.31-3.23,18.93-8.93c.62-.62.46-1.69-.15-2.15-.62-.62-1.69-.46-2.15.15Z"/>
      <path class="cls-2" d="m50.26,53.89c2.62,0,4.62-2,4.62-4.62s-2-4.62-4.62-4.62-4.62,2-4.62,4.62,2,4.62,4.62,4.62Zm0-6.16c.92,0,1.54.62,1.54,1.54s-.62,1.54-1.54,1.54-1.54-.62-1.54-1.54.62-1.54,1.54-1.54Z"/>
      <path class="cls-3" d="m91.04,6.19h-16.93c-2.15,0-3.85,1.69-3.85,3.85s1.69,3.85,3.85,3.85h6.92v3.08h-1.54c-.92,0-1.54.62-1.54,1.54,0,2.62-2,4.62-4.62,4.62h-4.92c-.62-1.85-2.31-3.08-4.31-3.08h-27.7c-2,0-3.69,1.23-4.31,3.08h-4.92c-2.62,0-4.62-2-4.62-4.62,0-.92-.62-1.54-1.54-1.54h-1.54v-3.08h6.92c2.15,0,3.85-1.69,3.85-3.85s-1.69-3.85-3.85-3.85H9.49c-2.15,0-3.85,1.69-3.85,3.85s1.69,3.85,3.85,3.85h6.92v3.08h-1.54c-.92,0-1.54.62-1.54,1.54,0,7.54,6,13.54,13.39,13.85-5.23,2.46-8.77,7.69-8.77,13.85v24.62h0c-1.85,1.38-3.08,3.54-3.08,6.16,0,.92.62,1.54,1.54,1.54h12.31c.92,0,1.54-.62,1.54-1.54,0-2.46-1.23-4.77-3.08-6.16h0v-24.62c0-3.23,2.62-6,5.85-6.16.77.92,2,1.54,3.39,1.54v4.62c0,7.69,6.16,13.85,13.85,13.85s13.85-6.16,13.85-13.85v-4.62c1.38,0,2.62-.62,3.39-1.54,3.23.15,5.85,2.77,5.85,6.16v24.62h0c-1.85,1.38-3.08,3.54-3.08,6.16,0,.92.62,1.54,1.54,1.54h12.31c.92,0,1.54-.62,1.54-1.54,0-2.46-1.23-4.77-3.08-6.16h0v-24.62c0-6.16-3.54-11.39-8.77-13.85,7.39-.31,13.39-6.31,13.39-13.85,0-.92-.62-1.54-1.54-1.54h-1.54v-3.08h6.92c2.15,0,3.85-1.69,3.85-3.85s-1.69-3.85-3.85-3.85ZM8.72,10.04c0-.46.31-.77.77-.77h16.93c.46,0,.77.31.77.77s-.31.77-.77.77H9.49c-.46,0-.77-.31-.77-.77Zm49.24,13.08v4.62c0,.92-.62,1.54-1.54,1.54h-12.31c-.92,0-1.54-.62-1.54-1.54v-4.62h15.39Zm-41.39-3.08h3.08c.77,3.54,3.85,6.16,7.54,6.16h4.62v3.08h-4.62c-5.39,0-9.85-4-10.62-9.23Zm1.69,55.4c.62-1.85,2.31-3.08,4.31-3.08s3.69,1.23,4.31,3.08h-8.62Zm5.85-29.24v23.24c-.46-.15-1.08-.15-1.54-.15s-1.08,0-1.54.15v-23.24c0-6.31,4.77-11.39,10.77-12.16v3.08c-4.31.77-7.69,4.46-7.69,9.08Zm36.93,0c0,6-4.77,10.77-10.77,10.77s-10.77-4.77-10.77-10.77v-4.62h21.54v4.62Zm3.08-7.69h-27.7c-.92,0-1.54-.62-1.54-1.54v-12.31c0-.92.62-1.54,1.54-1.54h3.08v4.62c0,2.62,2,4.62,4.62,4.62h12.31c2.62,0,4.62-2,4.62-4.62v-4.62h3.08c.92,0,1.54.62,1.54,1.54v12.31c0,.92-.62,1.54-1.54,1.54Zm9.54,36.93c.62-1.85,2.31-3.08,4.31-3.08s3.69,1.23,4.31,3.08h-8.62Zm5.85-29.24v23.24c-.46-.15-1.08-.15-1.54-.15s-1.08,0-1.54.15v-23.24c0-4.62-3.39-8.31-7.69-9.08v-3.08c6,.77,10.77,5.85,10.77,12.16Zm-6.16-16.93h-4.62v-3.08h4.62c3.69,0,6.77-2.62,7.54-6.16h3.08c-.77,5.23-5.23,9.23-10.62,9.23Zm17.7-18.47h-16.93c-.46,0-.77-.31-.77-.77s.31-.77.77-.77h16.93c.46,0,.77.31.77.77s-.31.77-.77.77Z"/>
    </g>
  </g>
</svg>