<?xml version="1.0" encoding="UTF-8"?>
<svg id="Layer_1" data-name="Layer 1" xmlns="http://www.w3.org/2000/svg" xmlns:xlink="http://www.w3.org/1999/xlink" viewBox="0 0 101 101">
  <defs>
    <style>
      .cls-1 {
        fill: url(#linear-gradient);
        fill-rule: evenodd;
      }
    </style>
    <linearGradient id="linear-gradient" x1="5.02" y1="48.99" x2="96.79" y2="48.99" gradientUnits="userSpaceOnUse">
      <stop offset="0" stop-color="#67447e"/>
      <stop offset=".2" stop-color="#3e224a"/>
      <stop offset=".88" stop-color="#34ad88"/>
      <stop offset="1" stop-color="#5eeaa7"/>
    </linearGradient>
  </defs>
  <path class="cls-1" d="m42.04,47.16c-1.4-3.3-2.04-6.93-2.04-11.03-.04-13.12,10.57-23.79,23.69-23.83,13.12-.04,23.79,10.57,23.83,23.69,0,.05,0,.09,0,.14,0,16.77-10.46,18.11-10.46,27.63v5.41c0,3.17-2.57,5.73-5.74,5.74h-1.21v1.72c0,1.8-1.46,3.25-3.26,3.26h-6.18c-1.8,0-3.25-1.46-3.26-3.26v-1.72c-1.33,0-2.23.08-3.51-.49-.48,1.53-1.13,3-1.92,4.4l2.44,2.45c.57.57.6,1.48.09,2.09-1.81,2.56-4.04,4.78-6.61,6.58-.61.43-1.44.36-1.97-.17h0s-2.44-2.44-2.44-2.44c-1.64.93-3.38,1.65-5.2,2.15v3.46c0,.77-.57,1.43-1.34,1.53-3.11.54-6.29.53-9.4-.01-.74-.13-1.28-.77-1.28-1.52v-3.45c-1.81-.5-3.56-1.23-5.2-2.16l-2.45,2.45c-.57.57-1.48.6-2.09.08-2.56-1.81-4.78-4.04-6.58-6.61-.43-.61-.36-1.44.17-1.97h0s2.44-2.44,2.44-2.44c-.93-1.64-1.65-3.38-2.15-5.2h-3.46c-.77,0-1.43-.57-1.53-1.34-.39-2.55-.52-4.46-.3-7.05.07-.78.17-1.57.31-2.36.13-.74.77-1.28,1.52-1.28h3.46c.5-1.81,1.22-3.56,2.15-5.2l-2.44-2.44c-.56-.55-.6-1.44-.12-2.05,1.81-2.57,4.06-4.81,6.64-6.62.61-.43,1.44-.35,1.97.17h0s2.45,2.44,2.45,2.44c1.64-.93,3.38-1.66,5.2-2.16v-3.45c0-.77.57-1.43,1.34-1.53,3.11-.54,6.29-.53,9.4.01.74.13,1.28.77,1.28,1.52v3.46c1.29.36,2.55.83,3.76,1.4h0Zm17.15,24.67h12.13c1.46,0,2.65-1.19,2.65-2.65v-3.87h-14.55c.18,2.18.11,4.37-.23,6.52Zm-.37-9.61h15.22c.92-9.73,10.39-11.06,10.39-26.09,0-11.42-9.26-20.68-20.68-20.68s-20.68,9.26-20.68,20.68c0,3.84.59,7.17,1.96,10.22l.88-.88c.55-.55,1.44-.6,2.05-.12,2.57,1.81,4.81,4.06,6.62,6.64.43.61.35,1.44-.17,1.97h0s-2.44,2.45-2.44,2.45c.93,1.64,1.66,3.38,2.16,5.2h3.45c.48,0,.94.23,1.23.61h0Zm-5.89,8.32h3.33c.23-1.94.23-3.91,0-5.85h-3.33c-.73,0-1.35-.51-1.51-1.22-.25-1.14-.6-2.26-1.05-3.35-.44-1.06-.97-2.08-1.59-3.04-.45-.61-.39-1.46.15-2l2.36-2.36c-1.21-1.54-2.6-2.92-4.14-4.13l-2.36,2.36h0c-.51.51-1.31.6-1.92.2-1.85-1.19-4.26-2.24-6.41-2.66-.74-.13-1.28-.77-1.28-1.52v-3.34c-1.94-.23-3.91-.23-5.85,0v3.33h0c0,.73-.51,1.35-1.22,1.51-1.14.25-2.26.6-3.34,1.05-1.06.44-2.08.97-3.04,1.59-.61.45-1.46.39-2-.15l-2.36-2.36c-1.54,1.21-2.92,2.6-4.13,4.14l2.36,2.36h0c.51.51.6,1.31.21,1.92-1.19,1.84-2.24,4.26-2.66,6.41-.13.74-.77,1.28-1.52,1.28h-3.34c-.23,1.94-.23,3.91,0,5.85h3.34c.73,0,1.35.51,1.51,1.22.49,2.27,1.38,4.43,2.62,6.39.45.61.39,1.46-.15,2l-2.36,2.36c1.21,1.54,2.6,2.93,4.13,4.14l2.36-2.36h0c.51-.51,1.31-.6,1.92-.2,1.84,1.18,4.27,2.25,6.41,2.67.74.13,1.28.77,1.28,1.52v3.33c1.94.23,3.91.23,5.85,0v-3.34h0c0-.73.51-1.35,1.22-1.51,2.27-.49,4.43-1.38,6.39-2.62.61-.45,1.46-.39,2,.15l2.36,2.36c1.54-1.21,2.93-2.6,4.14-4.13l-2.36-2.36h0c-.51-.51-.6-1.31-.21-1.92,1.18-1.84,2.25-4.27,2.67-6.41.13-.74.77-1.28,1.52-1.28h0Zm-20.66-17.43c-8.01,0-14.5,6.49-14.5,14.5s6.49,14.5,14.5,14.5,14.5-6.49,14.5-14.5h0c0-8.01-6.49-14.5-14.5-14.5Zm0,3.08c-6.31,0-11.42,5.11-11.42,11.42s5.11,11.42,11.42,11.42,11.42-5.11,11.42-11.42h0c0-6.31-5.11-11.42-11.42-11.42h0Zm28.2-7.97c-1.82,1.82-1.82,4.76,0,6.58h0c2.92,2.92,7.94.84,7.94-3.29s-5.02-6.21-7.94-3.29h0Zm2.18,2.18c-.61.61-.61,1.6,0,2.21.61.61,1.6.61,2.21,0,.61-.61.61-1.6,0-2.21-.61-.61-1.6-.61-2.21,0Zm-4.4-4.4c3.04-3.04,7.96-3.04,11,0,.61.59,1.59.58,2.18-.03.58-.6.58-1.55,0-2.15-4.24-4.24-11.12-4.24-15.36,0h0c-.59.61-.58,1.59.03,2.18.6.58,1.55.58,2.15,0Zm-4.4-4.39c5.47-5.46,14.33-5.46,19.79,0,.61.59,1.59.58,2.18-.03.58-.6.58-1.55,0-2.15-6.67-6.67-17.48-6.67-24.15,0,0,0,0,0,0,0-.59.61-.58,1.59.03,2.18.6.58,1.55.58,2.15,0h0Zm-4.39-4.4c7.89-7.89,20.69-7.89,28.58,0,.61.59,1.59.58,2.18-.03.58-.6.58-1.55,0-2.15-9.1-9.1-23.84-9.1-32.94,0h0c-.59.61-.58,1.59.03,2.18.6.58,1.55.58,2.15,0h0Zm45.78-2.63c.85,0,1.54.69,1.54,1.54s-.69,1.54-1.54,1.54h-3.92c-.85,0-1.54-.69-1.54-1.54s.69-1.54,1.54-1.54h3.92Zm-10.31-21.81l-2.77,2.77c-.59.61-.58,1.59.03,2.18.6.58,1.55.58,2.15,0l2.77-2.77c.6-.6.6-1.58,0-2.18-.6-.6-1.58-.6-2.18,0Zm-52.66,24.9h3.92c.85,0,1.54-.69,1.54-1.54s-.69-1.54-1.54-1.54h-3.92c-.85,0-1.54.69-1.54,1.54s.69,1.54,1.54,1.54Zm8.13-22.72l2.77,2.77c.61.59,1.59.57,2.18-.04.58-.6.58-1.55,0-2.14l-2.77-2.77c-.59-.61-1.57-.63-2.18-.03-.61.59-.63,1.57-.03,2.18.01.01.02.02.03.03h0Zm21.81-10.31c0-.85.69-1.54,1.54-1.54s1.54.69,1.54,1.54v3.92c0,.85-.69,1.54-1.54,1.54s-1.54-.69-1.54-1.54v-3.92Zm4.81,71.99v-1.72h-6.53v1.72c0,.09.08.17.17.17h6.18c.1,0,.17-.08.17-.17Z"/>
</svg>