<svg clip-rule="evenodd" fill-rule="evenodd" height="512" image-rendering="optimizeQuality" shape-rendering="geometricPrecision" text-rendering="geometricPrecision" viewBox="0 0 512 512" width="512" xmlns="http://www.w3.org/2000/svg" xmlns:xlink="http://www.w3.org/1999/xlink" xmlns:xodm="http://www.corel.com/coreldraw/odm/2003"><linearGradient id="id0" gradientUnits="userSpaceOnUse" x1="0" x2="512" y1="256" y2="256"><stop offset="0" stop-color="#f071ab"/><stop offset="1" stop-color="#22abe2"/></linearGradient><g id="Layer_x0020_1"><path d="m141.2 175.6c-1.58 0-3.11-.63-4.24-1.76-1.27-1.26-1.9-3.02-1.73-4.8l6.22-66.76c.16-1.66 1.01-3.19 2.34-4.21 1.33-1.01 3.03-1.43 4.68-1.14 37.26 6.58 59.26 28.6 65.41 65.46.27 1.64-.15 3.33-1.16 4.65-1.02 1.32-2.54 2.15-4.2 2.31l-66.76 6.23c-.19.01-.38.02-.56.02zm352.9 208.49h-189.38v47.11h41.99c15.35 0 27.83 12.48 27.83 27.83v21.82c0 3.31-2.69 6-6 6h-225.08c-3.31 0-6-2.69-6-6v-21.82c0-15.35 12.48-27.83 27.83-27.83h41.99v-47.11h-189.38c-9.87 0-17.9-8.03-17.9-17.9v-53.31-269.83c0-9.87 8.03-17.9 17.9-17.9h476.2c9.87 0 17.9 8.03 17.9 17.9v323.14c0 9.87-8.03 17.9-17.9 17.9zm-201.37 0h-73.45v47.11h73.45zm-274.83-346.94c-3.25 0-5.9 2.65-5.9 5.9v263.83h488v-263.83c0-3.25-2.65-5.9-5.9-5.9h-476.2zm-5.9 281.73v47.31c0 3.25 2.65 5.9 5.9 5.9h195.38 85.44 195.38c3.25 0 5.9-2.65 5.9-5.9v-47.31h-488zm137.46 155.97h213.08v-15.82c0-8.73-7.1-15.83-15.83-15.83h-47.99-85.44-47.99c-8.73 0-15.83 7.1-15.83 15.83zm218.02-108.29c-11.62 0-21.07-9.46-21.07-21.08s9.45-21.07 21.07-21.07c11.63 0 21.08 9.45 21.08 21.07s-9.45 21.08-21.08 21.08zm0-30.15c-5 0-9.07 4.07-9.07 9.07 0 5.01 4.07 9.08 9.07 9.08 5.01 0 9.08-4.07 9.08-9.08 0-5-4.07-9.07-9.08-9.07zm57.19 30.15c-11.62 0-21.07-9.46-21.07-21.08s9.45-21.07 21.07-21.07 21.08 9.45 21.08 21.07-9.46 21.08-21.08 21.08zm0-30.15c-5 0-9.07 4.07-9.07 9.07 0 5.01 4.07 9.08 9.07 9.08 5.01 0 9.08-4.07 9.08-9.08 0-5-4.07-9.07-9.08-9.07zm32.37-51.75h-39.97-.15-31.58-.15-18.85-.15-31.58-.16-19-31.57-40.12c-3.32 0-6-2.69-6-6v-213.29c0-3.31 2.68-6 6-6 3.31 0 6 2.69 6 6v207.29h28.12v-72.69c0-3.31 2.68-6 6-6h31.57c3.32 0 6 2.69 6 6v72.69h7.16v-115.66c0-3.31 2.69-6 6-6h31.58c3.31 0 6 2.69 6 6v115.66h7.15v-155c0-3.31 2.69-6 6-6h31.58c3.31 0 6 2.69 6 6v155h34.12c3.31 0 6 2.68 6 6 0 3.31-2.69 6-6 6zm-116.43-12h19.58v-109.66h-19.58zm50.73 0h19.58v-149h-19.58zm-101.46 0h19.57v-66.69h-19.57zm-19.68-115.21c-2.08 0-4.09-1.08-5.2-3-1.66-2.87-.68-6.54 2.19-8.2l113.03-65.25-6.52-.98c-3.28-.49-5.54-3.54-5.04-6.82.48-3.28 3.55-5.54 6.82-5.05l23.5 3.52c.4.06.79.16 1.17.29l.04.02.04.01.08.04h.02l.06.03.07.03.13.06.03.01.08.04.02.01.05.02.08.04v.01l.07.03.06.03.02.01.07.04.04.02.04.03.07.04.07.05.07.04.07.05.05.03.02.02.07.04.07.05.07.06.13.1.07.05.06.06.07.05.06.06.06.05.01.01.06.05.06.06.06.06.06.06.06.07.01.01.05.05.11.13.04.04.01.02.06.07.02.03.03.03.06.07v.01l.05.06.05.07.05.07.03.05.02.02.04.07.03.04.02.04.05.07.01.02.03.05.09.15.03.07.01.01.04.08.03.04.01.03.05.11.03.05.03.08.01.01.03.07.03.07v.01l.03.07.03.06.01.02.03.09.01.03.02.05.02.08.01.01.02.07.02.07v.01l.03.08.01.05.01.03.02.09.01.03.01.05.02.08.01.01.01.07.02.08v.01l.01.08.01.05.01.04.01.08.01.03.01.05.01.09.01.08v.07l.01.02v.08l.01.04v.05.08l.01.02v.06.08.01.08.06.03.08.03.06.08.01l-.01.08v.06.02l-.01.09v.03c-.02.13-.03.26-.05.39l-.01.04-.01.04-.01.09-.01.01-.01.07-.01.08-.01.01-.02.08-.01.05-.01.03-.02.09v.02c-.04.13-.08.26-.12.39l-.01.02-.02.06-.03.07v.01l-.03.08-.02.05-.01.03-.04.08v.02l-9.23 21.67c-.97 2.29-3.19 3.65-5.53 3.65-.78 0-1.58-.15-2.34-.48-3.05-1.3-4.47-4.82-3.17-7.87l2.19-5.16-112.34 64.86c-.94.55-1.97.81-2.99.81zm-153.12 99.86c-37.56 0-68.12-30.56-68.12-68.13 0-37.56 30.56-68.12 68.12-68.12 2.25 0 4.53.11 6.78.34 3.28.32 5.69 3.24 5.38 6.52l-5.51 59.15 54.9-5.12c1.66-.15 3.31.39 4.56 1.5 1.24 1.11 1.97 2.69 2 4.36.01.45.02.91.02 1.37-.01 37.57-30.57 68.13-68.13 68.13zm-.37-124.25c-30.78.2-55.75 25.3-55.75 56.12 0 30.95 25.17 56.13 56.12 56.13 29.14 0 53.17-22.33 55.87-50.78l-55.31 5.16c-1.78.17-3.54-.47-4.8-1.73-1.27-1.26-1.9-3.02-1.73-4.8zm36.07-22.97-4.94 52.86 52.93-4.93c-6.1-25.8-21.88-41.55-47.99-47.93z" fill="url(#id0)"/></g></svg>