<?xml version="1.0" encoding="UTF-8"?>
<svg id="Layer_1" data-name="Layer 1" xmlns="http://www.w3.org/2000/svg" xmlns:xlink="http://www.w3.org/1999/xlink" viewBox="0 0 101.87 94.21">
  <defs>
    <style>
      .cls-1 {
        fill: url(#New_Gradient_Swatch_1-3);
      }

      .cls-2 {
        fill: url(#New_Gradient_Swatch_1);
      }

      .cls-3 {
        fill: url(#New_Gradient_Swatch_1-2);
      }

      .cls-4 {
        fill: url(#New_Gradient_Swatch_1-4);
      }
    </style>
    <linearGradient id="New_Gradient_Swatch_1" data-name="New Gradient Swatch 1" x1="29.86" y1="63.51" x2="71.6" y2="63.51" gradientUnits="userSpaceOnUse">
      <stop offset="0" stop-color="#67447e"/>
      <stop offset=".2" stop-color="#3e224a"/>
      <stop offset=".89" stop-color="#34ad88"/>
      <stop offset="1" stop-color="#5eeaa7"/>
    </linearGradient>
    <linearGradient id="New_Gradient_Swatch_1-2" data-name="New Gradient Swatch 1" x1="36.52" y1="18.11" x2="66.99" y2="18.11" xlink:href="#New_Gradient_Swatch_1"/>
    <linearGradient id="New_Gradient_Swatch_1-3" data-name="New Gradient Swatch 1" x1="65.79" y1="27.45" x2="91.04" y2="27.45" xlink:href="#New_Gradient_Swatch_1"/>
    <linearGradient id="New_Gradient_Swatch_1-4" data-name="New Gradient Swatch 1" x1="12.47" y1="27.45" x2="37.72" y2="27.45" xlink:href="#New_Gradient_Swatch_1"/>
  </defs>
  <path class="cls-2" d="m62.25,38.94c1.94,1.75,2.97,3.96,3.13,6.55.01.58.02,1.15.02,1.73,0,.21,0,.42,0,.64,0,.45,0,.89,0,1.34,0,.67,0,1.35,0,2.02.01,4.65-.56,8.68-3.67,12.31q.26.18.52.37c4.74,3.42,7.85,7.75,9.02,13.54.28,1.79.3,3.62.31,5.42,0,.21,0,.42,0,.63,0,.43,0,.87,0,1.3,0,.66,0,1.33.01,1.99,0,.42,0,.85,0,1.27,0,.2,0,.39,0,.6,0,1.05-.05,1.84-.58,2.75-.68.46-1.28.39-2.07.39-.16,0-.32,0-.49,0-.54,0-1.09,0-1.63,0-.39,0-.78,0-1.17,0-1.06,0-2.11,0-3.17,0-.66,0-1.32,0-1.98,0-1.83,0-3.65,0-5.48,0-.12,0-.23,0-.35,0-.24,0-.47,0-.71,0-.12,0-.24,0-.36,0-.12,0-.24,0-.36,0-1.91,0-3.82,0-5.73.01-1.96,0-3.92,0-5.88,0-1.1,0-2.2,0-3.3,0-1.03,0-2.07,0-3.1,0-.38,0-.76,0-1.14,0-.52,0-1.04,0-1.55,0-.15,0-.3,0-.46,0-.76-.01-1.05-.04-1.66-.53-.5-.66-.54-.98-.54-1.8q0-.32,0-.65c0-.23,0-.47,0-.7,0-.12,0-.24,0-.36,0-.63,0-1.27,0-1.9,0-.52,0-1.04,0-1.55-.05-6.98,1.1-12.7,6.07-17.92,1.06-1.07,2.3-1.98,3.61-2.74-.25-.54-.55-.98-.9-1.45-1.62-2.3-2.54-5.1-2.57-7.91,0-.21,0-.43,0-.64,0-.23,0-.45,0-.69,0-.12,0-.23,0-.36,0-.62,0-1.24,0-1.87,0-.64,0-1.27-.01-1.91,0-.49,0-.99,0-1.48,0-.35,0-.69-.01-1.04,0-2.76.8-5,2.68-7.03,5.91-5.59,17.37-5.39,23.54-.4Zm-21.33,3.44c-1.2,1.55-1.25,2.98-1.23,4.89,0,.21,0,.42,0,.63,0,.51,0,1.02.02,1.53,3.15.09,5.65-.14,8.06-2.36q1.08-1.09,1.57-2.45c.7-.23,1.33-.26,2.06-.17.78.42,1.15,1.11,1.62,1.84,1.18,1.71,2.85,2.64,4.86,3.08.76.1,1.51.09,2.27.08.15,0,.3,0,.46,0,.37,0,.74,0,1.11,0,.02-.68.03-1.35.04-2.03q0-.28.02-.57c.02-1.62-.3-3.2-1.32-4.5-1.88-1.92-4.39-2.78-6.99-3.21-.14-.02-.27-.05-.41-.07-4.06-.56-9.22.22-12.15,3.34Zm9.4,7.1c-.09.1-.18.2-.27.31-2.77,2.84-6.59,3.15-10.33,3.26-.21,3.14.83,5.97,2.87,8.34.73.81,1.52,1.43,2.46,1.98.13.08.26.16.39.24,2.53,1.41,5.45,1.68,8.22.95,1.98-.58,3.53-1.63,4.97-3.08.11-.1.21-.2.33-.31,2.02-2.06,2.81-4.98,2.78-7.79,0-.11,0-.22,0-.33-.22,0-.44-.01-.66-.02-3.96-.14-7.31-.83-10.17-3.76q-.36-.04-.57.22Zm-10.43,18.35q-.26.21-.53.42c-2.32,1.97-4.05,4.63-5.03,7.5-.04.12-.08.24-.12.36-1.24,3.89-.67,8.25-.67,12.18h34.4q.27-10.07-4.3-18.4c-.13-.15-.26-.29-.4-.44-1.07-1.13-2.24-2-3.55-2.83-.12-.07-.24-.15-.36-.23-.77-.27-1.5.17-2.19.49-.17.08-.34.16-.51.24q-.19.09-.38.18c.07.99.25,1.92.49,2.88.03.12.06.24.09.37.13.5.26,1.01.39,1.51q.93,3.58.39,4.51c-.32.38-.66.71-1.02,1.05-.18.18-.36.37-.55.56-.52.54-1.05,1.07-1.58,1.6-.34.33-.67.67-1,1-.21.21-.43.43-.64.64-.1.1-.2.2-.3.3-.59.58-.95.92-1.77,1-.99-.01-1.48-.54-2.16-1.21-.51-.54-1-1.09-1.49-1.65-.39-.43-.8-.83-1.22-1.23-.13-.13-.26-.25-.4-.39-.27-.25-.53-.51-.81-.75-.12-.12-.25-.24-.37-.36-.11-.1-.22-.21-.34-.32-.45-.68-.49-1.38-.38-2.16.09-.43.2-.84.31-1.26.04-.15.08-.31.12-.46.12-.48.25-.97.38-1.45.13-.49.25-.97.38-1.46.08-.3.16-.6.24-.91.04-.14.07-.27.11-.41.03-.12.06-.24.1-.36.05-.4.02-.65-.13-1.03-2-1.75-3.31-1.02-5.16.52Zm8.94.52c-.42,1.25-.76,2.46-1.06,3.74-.05.19-.09.38-.14.58-.04.18-.09.37-.13.56q-.06.25-.12.5c-.09.48-.15.85-.09,1.33q.3.42.71.8c.15.14.29.29.45.44.16.15.31.3.47.45.16.15.31.3.47.46.39.38.77.75,1.16,1.12.89-.4,1.51-1.07,2.2-1.74.14-.13.28-.25.42-.38q.79-.75,1.03-1.77c-.06-.25-.14-.5-.21-.75-.09-.4-.18-.81-.27-1.21-.08-.33-.16-.67-.24-1-.08-.35-.17-.69-.25-1.04q-.23-1.07-.61-2.08h-3.78Z"/>
  <path class="cls-3" d="m51.73,3.6c.15,0,.29-.01.44-.02.98.21,1.53,1.25,2.06,2.03.07.1.14.2.21.31.22.32.43.65.65.97.14.21.29.43.43.64q.1.16.21.32c.14.21.28.42.43.62.31.45.59.88.82,1.38.53,1.03,1.17,1.36,2.24,1.71.86.25,1.73.48,2.61.7.53.14,1.07.28,1.6.42.33.09.66.17.99.26.89.23,1.57.48,2.3,1.06.32.64.33,1.21.17,1.89-.42.69-.92,1.29-1.44,1.9-.53.63-1.02,1.29-1.53,1.94-.2.25-.4.51-.59.76-.09.12-.19.25-.28.38q-.28.36-.59.67c-.84.92-.82,1.73-.77,2.94,0,.12.01.23.02.35.02.36.04.72.05,1.08.02.49.03.98.05,1.47,0,.12,0,.24.01.37.01.25.02.5.03.75.02.37.03.74.04,1.11q.01.32.03.65c-.03.78-.21,1.38-.63,2.04-.68.44-1.36.35-2.15.28-.58-.14-1.12-.35-1.67-.57-.15-.06-.3-.12-.46-.17-.48-.18-.96-.37-1.43-.56-.63-.25-1.26-.49-1.89-.73-.14-.06-.29-.11-.43-.17-1.44-.55-2.48-.2-3.86.34-.29.11-.57.22-.86.33-.45.17-.89.34-1.33.52-.43.17-.87.33-1.3.5-.13.05-.26.1-.39.16-.95.36-1.87.51-2.88.36q-.53-.35-.86-.86c-.16-.81-.18-1.57-.15-2.4q.01-.34.03-.68c0-.23.02-.47.03-.7.03-.69.05-1.38.07-2.06.02-.46.04-.92.07-1.38.05-1.25.04-2.08-.78-3.06-.11-.11-.21-.23-.32-.35-.22-.26-.44-.52-.66-.78-.11-.13-.23-.26-.35-.4-.59-.68-1.13-1.4-1.68-2.12-.2-.26-.4-.51-.6-.77q-.87-1.12-.89-1.89-.01-.19-.02-.39c.15-.64.45-.86.96-1.26.54-.25,1.1-.41,1.68-.58q.25-.08.5-.16c.9-.28,1.8-.51,2.73-.69,1.76-.36,3.13-.67,4.25-2.16.39-.59.75-1.2,1.09-1.82.37-.65.79-1.26,1.21-1.88.13-.2.26-.4.39-.6.12-.18.24-.36.36-.54.12-.19.24-.37.36-.57.49-.69.86-.86,1.68-.89Zm-.15,5.24q-.26.3-.52.69c-.1.15-.2.29-.31.45-.11.16-.21.31-.32.47-.31.46-.63.91-.95,1.37-.21.31-.4.62-.59.94-.76,1.23-1.44,1.58-2.82,1.93-.4.12-.8.24-1.2.37-.41.12-.83.24-1.24.36-.21.06-.43.13-.65.19-.52.15-1.04.3-1.56.46.52.69,1.04,1.38,1.55,2.07.17.23.35.46.52.69q.13.17.26.35c.09.11.17.23.26.35.08.1.15.2.23.3.09.12.18.24.27.37.07.08.14.17.22.25.69.85.76,1.5.72,2.57,0,.15,0,.3,0,.46,0,.48-.02.96-.03,1.44,0,.33,0,.65-.01.98,0,.8-.02,1.59-.04,2.39.17-.06.34-.13.51-.19.63-.24,1.27-.47,1.9-.7.27-.1.55-.2.82-.3.39-.15.79-.29,1.18-.43q.18-.07.36-.14c1.34-.47,2.49-.22,3.8.27q.31.12.64.23c.22.08.43.16.65.24.43.16.86.32,1.29.48.19.07.38.14.57.22q.47.18.99.16c0-.19-.01-.39-.02-.59-.03-.73-.04-1.45-.05-2.18,0-.31-.02-.62-.03-.94q-.12-3.13,1.11-4.52.18-.19.37-.38c.18-.22.35-.45.52-.68.15-.19.31-.39.46-.58.16-.2.31-.39.47-.59.07-.08.13-.17.2-.25.32-.43.62-.89.92-1.34-.17-.05-.34-.1-.52-.15-.64-.18-1.28-.37-1.92-.55-.28-.08-.55-.16-.83-.24-.4-.11-.8-.23-1.2-.34-.12-.03-.25-.07-.37-.1-1.14-.34-1.98-.82-2.64-1.84-.1-.16-.2-.31-.31-.47-.1-.16-.2-.32-.31-.49-.21-.32-.41-.64-.62-.95q-.15-.23-.3-.46c-.36-.56-.73-1.1-1.14-1.63h-.34Z"/>
  <path class="cls-1" d="m79.45,15.55c.82.77,1.4,1.72,1.89,2.72.95,1.86,1.81,3.1,3.8,3.79,1.24.4,2.52.71,3.8.97.78.16,1.28.39,1.86.95.27.54.28,1.13.17,1.72-.54.91-1.22,1.73-1.87,2.56-.21.26-.41.53-.62.79-.09.12-.18.23-.28.35-.11.14-.22.28-.33.42-.09.1-.17.2-.26.3-.78.92-.9,1.58-.84,2.76,0,.16,0,.31,0,.47.01.5.03.99.05,1.49.02.5.03.99.04,1.49,0,.31.02.62.03.92.02.71.01,1.06-.38,1.68-.56.52-.98.59-1.75.58-1.28-.18-2.52-.8-3.72-1.29q-1.64-.74-3.37-.7c-.28.12-.55.24-.82.37-.35.13-.7.26-1.05.39-.56.21-1.11.42-1.67.63-1.09.41-1.96.64-3.13.53-.49-.31-.77-.51-1.03-1.03.01-.5.04-1,.07-1.5q.38-4.05-1.18-7.59c-.32-.33-.65-.64-.99-.94-.48-.44-.85-.96-1.22-1.49-.12-.16-.24-.32-.36-.48-.42-.59-.48-1-.52-1.72.11-.56.36-.83.76-1.23q.49-.23,1.07-.41c.11-.04.22-.07.33-.11.71-.23,1.42-.39,2.16-.51,1.98-.38,3.24-.87,4.41-2.58.48-.73.91-1.49,1.35-2.24.89-1.5,1.69-2.7,3.57-2.06Zm-1.2,4.99c-.22.3-.43.6-.62.91-.17.27-.35.54-.52.8-.17.27-.34.54-.5.81-.91,1.43-1.81,1.83-3.43,2.23-.21.06-.41.11-.63.17-.51.14-1.01.27-1.52.4,0,.72,0,.78.43,1.29.09.11.18.22.28.33q.14.17.29.34c.19.23.38.45.56.68q.13.15.25.3c.63.83.83,1.34.81,2.4,0,.11,0,.23,0,.34,0,.36,0,.72-.02,1.08,0,.24,0,.49,0,.73,0,.6-.01,1.19-.03,1.79.13-.05.26-.1.39-.15.6-.22,1.2-.44,1.8-.66q.31-.12.62-.24c1.48-.52,2.43-.53,3.9.01.14.05.29.09.43.14.39.13.77.26,1.16.41.13.05.26.09.39.14.31.11.63.23.94.34,0-.15-.01-.29-.02-.44-.02-.55-.04-1.1-.05-1.66,0-.24-.02-.47-.03-.71-.08-1.61.08-2.6,1.13-3.85.12-.13.23-.25.35-.39.15-.18.3-.36.44-.54.23-.27.47-.55.7-.82.08-.12.16-.24.24-.36-.06-.17-.11-.34-.17-.52q-.42-.16-.93-.26-3.8-.93-4.93-2.75c-.18-.31-.34-.63-.51-.95-.17-.28-.35-.57-.53-.85-.11-.17-.22-.35-.33-.53h-.34Z"/>
  <path class="cls-4" d="m26.13,15.55c.82.77,1.4,1.72,1.89,2.72.95,1.86,1.81,3.1,3.8,3.79,1.24.4,2.52.71,3.8.97.78.16,1.28.39,1.86.95.27.54.28,1.13.17,1.72-.54.91-1.22,1.73-1.87,2.56-.21.26-.41.53-.62.79-.09.12-.18.23-.28.35-.11.14-.22.28-.33.42-.09.1-.17.2-.26.3-.78.92-.9,1.58-.84,2.76,0,.16,0,.31,0,.47.01.5.03.99.05,1.49.02.5.03.99.04,1.49,0,.31.02.62.03.92.02.71.01,1.06-.38,1.68-.56.52-.98.59-1.75.58-1.28-.18-2.52-.8-3.72-1.29q-1.64-.74-3.37-.7c-.28.12-.55.24-.82.37-.35.13-.7.26-1.05.39-.56.21-1.11.42-1.67.63-1.09.41-1.96.64-3.13.53-.49-.31-.77-.51-1.03-1.03.01-.5.04-1,.07-1.5q.38-4.05-1.18-7.59c-.32-.33-.65-.64-.99-.94-.48-.44-.85-.96-1.22-1.49-.12-.16-.24-.32-.36-.48-.42-.59-.48-1-.52-1.72.11-.56.36-.83.76-1.23q.49-.23,1.07-.41c.11-.04.22-.07.33-.11.71-.23,1.42-.39,2.16-.51,1.98-.38,3.24-.87,4.41-2.58.48-.73.91-1.49,1.35-2.24.89-1.5,1.69-2.7,3.57-2.06Zm-1.2,4.99c-.22.3-.43.6-.62.91-.17.27-.35.54-.52.8-.17.27-.34.54-.5.81-.91,1.43-1.81,1.83-3.43,2.23-.21.06-.41.11-.63.17-.51.14-1.01.27-1.52.4,0,.72,0,.78.43,1.29.09.11.18.22.28.33q.14.17.29.34c.19.23.38.45.56.68q.13.15.25.3c.63.83.83,1.34.81,2.4,0,.11,0,.23,0,.34,0,.36,0,.72-.02,1.08,0,.24,0,.49,0,.73,0,.6-.01,1.19-.03,1.79.13-.05.26-.1.39-.15.6-.22,1.2-.44,1.8-.66q.31-.12.62-.24c1.48-.52,2.43-.53,3.9.01.14.05.29.09.43.14.39.13.77.26,1.16.41.13.05.26.09.39.14.31.11.63.23.94.34,0-.15-.01-.29-.02-.44-.02-.55-.04-1.1-.05-1.66,0-.24-.02-.47-.03-.71-.08-1.61.08-2.6,1.13-3.85.12-.13.23-.25.35-.39.15-.18.3-.36.44-.54.23-.27.47-.55.7-.82.08-.12.16-.24.24-.36-.06-.17-.11-.34-.17-.52q-.42-.16-.93-.26-3.8-.93-4.93-2.75c-.18-.31-.34-.63-.51-.95-.17-.28-.35-.57-.53-.85-.11-.17-.22-.35-.33-.53h-.34Z"/>
</svg>