<?xml version="1.0" encoding="UTF-8"?>
<svg id="Layer_1" data-name="Layer 1" xmlns="http://www.w3.org/2000/svg" xmlns:xlink="http://www.w3.org/1999/xlink" viewBox="0 0 101 101">
  <defs>
    <style>
      .cls-1 {
        fill: url(#New_Gradient_Swatch_1-3);
      }

      .cls-2 {
        fill: url(#New_Gradient_Swatch_1-5);
      }

      .cls-3 {
        fill: url(#New_Gradient_Swatch_1-7);
      }

      .cls-4 {
        fill: url(#New_Gradient_Swatch_1-6);
      }

      .cls-5 {
        fill: url(#New_Gradient_Swatch_1);
      }

      .cls-6 {
        fill: url(#New_Gradient_Swatch_1-2);
      }

      .cls-7 {
        fill: url(#New_Gradient_Swatch_1-4);
      }
    </style>
    <linearGradient id="New_Gradient_Swatch_1" data-name="New Gradient Swatch 1" x1="2.66" y1="50.09" x2="96.61" y2="50.09" gradientUnits="userSpaceOnUse">
      <stop offset="0" stop-color="#67447e"/>
      <stop offset=".2" stop-color="#3e224a"/>
      <stop offset=".89" stop-color="#34ad88"/>
      <stop offset="1" stop-color="#5eeaa7"/>
    </linearGradient>
    <linearGradient id="New_Gradient_Swatch_1-2" data-name="New Gradient Swatch 1" x1="2.67" y1="31.18" x2="27.51" y2="31.18" xlink:href="#New_Gradient_Swatch_1"/>
    <linearGradient id="New_Gradient_Swatch_1-3" data-name="New Gradient Swatch 1" x1="52.27" y1="53.2" x2="66.14" y2="53.2" xlink:href="#New_Gradient_Swatch_1"/>
    <linearGradient id="New_Gradient_Swatch_1-4" data-name="New Gradient Swatch 1" x1="2.66" y1="70.77" x2="20.17" y2="70.77" xlink:href="#New_Gradient_Swatch_1"/>
    <linearGradient id="New_Gradient_Swatch_1-5" data-name="New Gradient Swatch 1" x1="54.7" y1="73.05" x2="63.74" y2="73.05" xlink:href="#New_Gradient_Swatch_1"/>
    <linearGradient id="New_Gradient_Swatch_1-6" data-name="New Gradient Swatch 1" x1="46.24" y1="71.35" x2="49.3" y2="71.35" xlink:href="#New_Gradient_Swatch_1"/>
    <linearGradient id="New_Gradient_Swatch_1-7" data-name="New Gradient Swatch 1" x1="69.11" y1="71.34" x2="72.17" y2="71.34" xlink:href="#New_Gradient_Swatch_1"/>
  </defs>
  <path class="cls-5" d="m48.89,3.23q.28,0,.57,0c.21,0,.41,0,.62,0,.22,0,.44,0,.66,0,.6,0,1.2,0,1.79,0,.37,0,.75,0,1.12,0,1.17,0,2.35,0,3.52,0,1.35,0,2.7,0,4.05,0,1.05,0,2.09,0,3.14,0,.62,0,1.25,0,1.87,0,.7,0,1.39,0,2.09,0,.2,0,.41,0,.62,0,2.18.01,4.09.6,5.72,2.09,1.75,1.85,2.25,3.67,2.2,6.15-.09,2.05-1.12,3.6-2.59,4.96-1.35,1.13-2.8,1.62-4.54,1.77-.69.07-1.15.2-1.7.65-.34.55-.42,1-.44,1.64,0,.17-.01.34-.02.52,0,.18-.01.35-.02.54,0,.18-.01.36-.02.55-.02.44-.03.89-.05,1.33.2.02.4.03.61.05,6.25.79,12.41,4.94,16.87,9.2.18.17.36.34.54.51,5.11,4.78,8.62,11.43,10.16,18.22q.05.23.11.47c2.04,9.22.25,19.44-4.75,27.42-1.2,1.85-2.48,3.59-3.96,5.22-.17.2-.35.39-.52.59-.93,1.04-1.87,2.02-2.96,2.89-.19.15-.37.3-.56.46-3.67,2.96-7.6,5.14-12.06,6.67-.13.05-.27.09-.4.14-9.56,3.22-19.96,1.85-28.86-2.56-.6-.31-1.17-.6-1.7-1.01-1.47-1.09-2.81-1.14-4.56-1.11-.29,0-.59,0-.88,0-.63,0-1.26,0-1.89,0-1,0-2,0-3,0-1.58,0-3.16,0-4.74,0-2.83.01-5.66.01-8.49,0-.99,0-1.98,0-2.97,0-.62,0-1.24,0-1.85,0-.29,0-.57,0-.86,0-2.52.02-4.47-.3-6.36-2.04-1.39-1.46-1.76-2.96-1.74-4.93.08-1.84.79-3.32,2.1-4.62,1.53-1.13,2.89-1.52,4.76-1.52.18,0,.36,0,.55,0,.6,0,1.2,0,1.8-.01.42,0,.83,0,1.25-.01,1.1,0,2.19-.02,3.29-.02,1.12,0,2.24-.02,3.35-.03,2.19-.02,4.39-.03,6.58-.05q-.08-.16-.16-.32c-.24-.49-.48-.99-.71-1.48-.08-.17-.16-.33-.25-.51-1.53-3.2-3.07-7.27-2.91-10.86-.14,0-.28,0-.42,0-.63.01-1.27.02-1.9.03q-.33,0-.66.01c-.21,0-.42,0-.64,0-.19,0-.39,0-.59,0-.62-.07-.96-.24-1.46-.61-.28-.57-.24-1.02-.18-1.65.36-.46.58-.7,1.16-.82q.24,0,.48,0c.18,0,.37,0,.56,0q.3,0,.61,0c.21,0,.42,0,.64,0,.46,0,.92,0,1.38,0,.73,0,1.46,0,2.19,0,1.42,0,2.83,0,4.25,0,1.8,0,3.6,0,5.4,0,.84,0,1.68,0,2.52,0,.44,0,.88,0,1.32,0q.3,0,.6,0c1.52-.01,2.82-.23,3.95-1.35.51-.8.76-1.61.73-2.56-.21-.93-.6-1.7-1.28-2.38-1.11-.67-2.17-.75-3.44-.76-.12,0-.24,0-.37,0-.4,0-.81,0-1.21,0-.29,0-.58,0-.87,0-.79,0-1.57,0-2.36,0-.49,0-.98,0-1.47,0-1.71,0-3.43,0-5.14,0-1.6,0-3.19,0-4.79,0-1.37,0-2.74,0-4.12,0-.82,0-1.64,0-2.46,0-.77,0-1.54,0-2.31,0-.28,0-.56,0-.85,0q-2.68-.05-5.01,1.14c-.75.94-.86,1.74-.81,2.94.15.96.54,1.65,1.32,2.25.89.54,1.64.69,2.66.7.18,0,.37,0,.56.01.39,0,.77,0,1.16.01q1.4.03,2.02.56c.32.67.25,1.06.05,1.77-.29.38-.49.52-.91.73-2.77.22-5.65.23-7.87-1.65-1.24-1.18-2.02-2.64-2.07-4.35-.02-2.13.39-3.74,1.88-5.34,1.36-1.26,2.86-1.73,4.69-1.73.15,0,.3,0,.45,0,.48,0,.97,0,1.45,0,.34,0,.68,0,1.01,0,.89,0,1.77-.01,2.66-.02.91,0,1.81-.01,2.72-.02,1.77-.02,3.54-.03,5.32-.04.18-.6.36-1.21.55-1.83q-.31,0-.63,0c-1.96.01-3.91.02-5.87.02-1.01,0-2.01,0-3.02.01-.97,0-1.94,0-2.91.01-.37,0-.74,0-1.11,0-.52,0-1.04,0-1.56,0-.15,0-.3,0-.46,0-1.59,0-2.91-.42-4.07-1.53-1.02-1.18-1.18-2.41-1.13-3.94.16-1.25.68-2.22,1.59-3.09,1.36-1.01,2.8-1.09,4.44-1.06.2,0,.41,0,.62,0,.44,0,.88,0,1.33.01.7,0,1.4.01,2.1.01,1.99,0,3.98.01,5.97.04,1.22.02,2.44.02,3.66.02.46,0,.93,0,1.39.02q2.26.16,4.36-.46c.57-.57.84-1.25,1.13-1.98.25-.34.51-.67.78-.99q.21-.25.42-.5c5.17-5.95,12-10.79,19.84-12.41h.55c0-.65-.03-1.3-.05-1.96,0-.18,0-.37,0-.56-.03-.78-.06-1.37-.4-2.08-.69-.52-1.37-.58-2.2-.69-2.09-.36-3.77-1.02-5.13-2.74-1.26-1.86-1.81-3.81-1.47-6.04.43-2.06,1.41-3.59,3.1-4.85,1.29-.82,2.65-1.24,4.18-1.24Zm-3.15,4.23c-.88,1.12-1.38,2.22-1.28,3.66.26,1.38.9,2.49,2,3.35.95.53,1.84.71,2.92.82,1.65.23,2.58.82,3.64,2.08.48.73.64,1.4.67,2.26q.01.28.02.57c0,.19.01.39.02.58q.01.29.02.6c.02.48.03.97.05,1.45q.16-.02.32-.04c1.22-.14,2.42-.17,3.64-.16q.29,0,.6,0c.62,0,1.24,0,1.86,0,.42,0,.85,0,1.27,0,1.03,0,2.06,0,3.1,0,0-.23.01-.46.02-.7.01-.31.02-.62.04-.93,0-.15,0-.3.01-.46.07-1.53.37-2.9,1.45-4.03,1-.88,2.05-1.07,3.33-1.27,1.71-.27,2.81-.78,3.9-2.16.7-1.03.74-2.22.58-3.43-.4-1.23-1.07-2.27-2.2-2.93-1.23-.56-2.28-.63-3.62-.62-.21,0-.42,0-.64,0-.7,0-1.4,0-2.09,0-.49,0-.97,0-1.46,0-1.02,0-2.04,0-3.06,0-1.17,0-2.35,0-3.52,0-1.01,0-2.02,0-3.04,0-.6,0-1.21,0-1.81,0-.67,0-1.34,0-2.02,0-.2,0-.4,0-.6,0-1.57.01-2.89.31-4.12,1.35Zm-2.21,21.58c-.36.19-.71.38-1.07.57-4.16,2.2-8.38,5.72-10.99,9.69v.37c1.3.04,2.6.06,3.9.08.44,0,.88.02,1.32.03.64.02,1.27.03,1.91.03.2,0,.39.02.59.02,1.1,0,1.7-.13,2.53-.88.24-.25.49-.5.73-.75.42-.33.86-.62,1.3-.91q.18-.11.35-.23c6.18-3.98,13.48-5.44,20.71-3.97,1.95.43,3.81.97,5.62,1.82q.2.1.41.19,5.37,2.58,6.18,4.2c.07.66.08.98-.3,1.53-.58.4-.83.39-1.53.3-.51-.28-.97-.64-1.43-.99-5.22-3.84-11.61-5.53-18.06-4.63-3.59.56-7.19,1.85-10.15,3.98v.18c.12,0,.24,0,.36,0,.55.01,1.09.03,1.64.05.19,0,.37,0,.57.01,1.64.06,3.06.29,4.29,1.44.88,1.02,1.25,2.24,1.23,3.57-.13,1.34-.66,2.45-1.68,3.33-1.12.71-2.1.94-3.42.95-.12,0-.24,0-.37,0-.4,0-.8.01-1.2.01-.28,0-.56,0-.83.01-.73.01-1.46.02-2.19.03-.75,0-1.49.02-2.24.03-1.46.02-2.92.04-4.39.06-.15.3-.31.6-.46.9-.08.17-.17.34-.26.51q-.21.37-.2.6.17,0,.34,0c.52,0,1.04.03,1.56.04.18,0,.35,0,.54,0,1.88.06,3.33.6,4.71,1.91,1.12,1.29,1.74,3.06,1.69,4.77-.21,1.86-.92,3.38-2.29,4.67-1.66,1.33-3.66,1.43-5.69,1.51q-.28.01-.57.02c-.46.02-.92.04-1.38.06,1.16,5.18,3.48,9.45,7.32,13.17.06.06.12.12.18.18.47.02.93.03,1.39.03.29,0,.58,0,.87.01.46,0,.92.01,1.38.01,2.4.02,4.42.21,6.23,1.95,1,1.14,1.36,2.37,1.65,3.84,5.32,1.66,11.43.24,16.28-2.2,4.46-2.41,7.87-5.98,10.24-10.43.08-.15.17-.3.26-.45,2.89-5.34,3.1-11.89,1.5-17.65-.74-2.47-1.9-4.91-3.5-6.94-.49-.64-.74-1.06-.75-1.86q.11-.72.48-1.09c.59-.2,1.05-.19,1.65,0,.69.64,1.16,1.4,1.65,2.2.07.11.14.22.21.33,3.78,6.02,4.9,13.51,3.35,20.42-1.23,5.08-3.66,9.3-7.22,13.09q-.15.16-.3.33c-4.49,4.74-11.42,7.38-17.85,7.58-2.14.04-4.24-.06-6.36-.41q-.08.16-.16.32c-.96,1.85-2.08,2.82-4.05,3.53-.66.15-1.29.22-1.96.24-.2,0-.39.02-.59.02-.2,0-.4.01-.61.02-.21,0-.41.02-.62.02-.51.02-1.01.04-1.52.06,4.6,3.68,13.11,3.93,18.64,3.32,8.33-1.04,16.55-5.03,21.97-11.56.14-.16.28-.32.42-.48,4.74-5.52,7.99-12.93,8.03-20.27,0-.14,0-.29,0-.43,0-.46,0-.92,0-1.38,0-.16,0-.31,0-.47,0-2.25-.07-4.41-.59-6.6-.03-.14-.06-.28-.1-.42-1.47-6.45-4.7-12.02-9.23-16.77-.13-.14-.27-.28-.4-.43-6.06-6.32-14.93-9.6-23.57-9.81-5.55-.05-11.22,1.17-16.11,3.83ZM5.86,43.32c-.29.59-.3,1.19-.18,1.83.4.49.72.82,1.28,1.1.55.02,1.1.03,1.65.03.17,0,.35,0,.52,0,.58,0,1.17,0,1.75,0,.42,0,.83,0,1.25,0,1.13,0,2.27,0,3.4,0,.71,0,1.42,0,2.12,0,1.96,0,3.92,0,5.88,0,.51,0,1.02,0,1.53,0,.13,0,.25,0,.38,0,2.05,0,4.1,0,6.14.01,2.1,0,4.2,0,6.31,0,1.18,0,2.36,0,3.54,0,1.11,0,2.22,0,3.33,0,.41,0,.82,0,1.22,0,.56,0,1.11,0,1.67,0,.16,0,.32,0,.49,0,.99-.01,1.56-.17,2.35-.83.35-.46.37-.68.35-1.27-.21-.7-.54-1.01-1.09-1.47-.62-.31-1.33-.21-2.01-.21-.17,0-.35,0-.52,0-.58,0-1.17,0-1.75,0-.42,0-.83,0-1.25,0-1.13,0-2.27,0-3.4,0-.71,0-1.42,0-2.12,0-1.96,0-3.92,0-5.88,0-.51,0-1.02,0-1.53,0-.13,0-.25,0-.38,0-2.05,0-4.1,0-6.14-.01-2.1,0-4.2,0-6.31,0-1.18,0-2.36,0-3.54,0-1.11,0-2.22,0-3.33,0-.41,0-.82,0-1.22,0-.56,0-1.11,0-1.67,0-.16,0-.32,0-.49,0-1.02.01-1.57.16-2.35.83Zm20.67,5.85q-.38.99-.55,2.01h7.32q.76-1.4.73-2.01h-7.5Zm-1.28,15c.13,1.41.29,2.66.65,4.01.05.18.1.36.15.55.87,3.15,2.24,5.87,3.78,8.79h8.78q-.88-1.32-1.81-2.58c-2.35-3.23-3.46-6.94-4.41-10.77h-7.13Zm-18.86,17.37c-.77,1.14-.93,2.13-.71,3.49.32.99,1,1.61,1.83,2.2.93.39,1.75.42,2.73.41q.24,0,.49,0c.54,0,1.09,0,1.63,0,.39,0,.78,0,1.17,0,1.06,0,2.12,0,3.18,0,.89,0,1.77,0,2.66,0,2.09,0,4.18,0,6.27,0,2.15,0,4.31,0,6.46,0,1.85,0,3.7,0,5.55,0,1.11,0,2.21,0,3.32,0,1.04,0,2.08,0,3.12,0,.38,0,.76,0,1.14,0,.52,0,1.04,0,1.56,0,.15,0,.3,0,.46,0,1.15-.01,2.18-.21,3.1-.96.81-.98,1.29-1.72,1.22-3.03-.15-1.03-.55-1.89-1.38-2.54-.98-.67-1.71-.82-2.89-.8q-.25,0-.51,0c-.56,0-1.11,0-1.67,0-.4,0-.8,0-1.2,0-1.08,0-2.17,0-3.25,0-1.13,0-2.27,0-3.4,0-2.03,0-4.06,0-6.08,0-1.84,0-3.67,0-5.51,0-2.36,0-4.73,0-7.09,0-.9,0-1.8,0-2.7,0-1.06,0-2.12,0-3.19,0-.39,0-.78,0-1.17,0-.53,0-1.06,0-1.6,0q-.23,0-.47,0c-1.22.02-2.19.35-3.1,1.18Z"/>
  <path class="cls-6" d="m9.89,24.64c.12,0,.25,0,.38,0,.41,0,.82,0,1.22,0,.29,0,.57,0,.86,0,.6,0,1.2,0,1.79,0,.76,0,1.53,0,2.29,0,.59,0,1.18,0,1.77,0,.28,0,.56,0,.84,0,2.4-.01,4.44.12,6.33,1.75.14.16.28.32.42.49.09.11.18.21.28.32,1.13,1.38,1.48,2.84,1.43,4.62-.23,2-1.23,3.43-2.66,4.77-1.78,1.23-3.61,1.19-5.7,1.18-.33,0-.65,0-.98,0-.68,0-1.36,0-2.04,0-.87,0-1.73,0-2.6,0-.67,0-1.34,0-2.01,0-.32,0-.64,0-.96,0-2.4.01-4.35-.23-6.17-1.93-1.52-1.63-1.78-3.33-1.71-5.48.06-.91.29-1.62.8-2.38.08-.13.16-.25.24-.38,1.05-1.53,2.46-2.47,4.27-2.82.64-.09,1.25-.11,1.9-.11Zm-3.67,4.42c-.62.85-.66,1.71-.64,2.74.16,1.04.69,1.8,1.5,2.46,1.02.63,2.08.68,3.25.69.23,0,.47,0,.71,0,.25,0,.5,0,.76,0,.13,0,.26,0,.39,0,.68,0,1.36,0,2.03,0,.7,0,1.39,0,2.09.01.54,0,1.08,0,1.62,0,.26,0,.51,0,.77,0,1.9.02,3.57-.05,5.01-1.41.67-.78.92-1.65.88-2.67-.2-1.17-.83-1.96-1.71-2.71-.87-.54-1.72-.64-2.72-.64q-.18,0-.37,0c-.4,0-.79,0-1.19,0-.28,0-.56,0-.83,0-.58,0-1.16,0-1.74,0-.74,0-1.48,0-2.23,0-.57,0-1.15,0-1.72,0-.27,0-.55,0-.82,0-1.98-.01-3.55.07-5.02,1.53Z"/>
  <path class="cls-1" d="m59.82,39.85c.57.33.7.46.91,1.1.02.39.02.78.02,1.17,0,.12,0,.24,0,.36,0,.39,0,.78,0,1.17,0,.27,0,.54,0,.81,0,.71,0,1.42,0,2.13,0,.72,0,1.45,0,2.17,0,1.42,0,2.84,0,4.27q.26.04.52.08c1.52.27,2.74,1.3,3.68,2.48,1.18,1.94,1.48,4.09.94,6.31-.69,1.81-1.92,3.29-3.69,4.12-1.77.74-3.62.8-5.43.18-1.94-.82-3.27-2.16-4.1-4.09-.6-1.73-.51-3.55.2-5.23.93-1.91,2.21-3.08,4.21-3.84h.73c0-.15,0-.31,0-.47-.02-1.45-.03-2.91-.04-4.36,0-.75-.01-1.49-.02-2.24,0-.72-.02-1.44-.02-2.16,0-.28,0-.55,0-.83,0-.39,0-.77,0-1.16,0-.22,0-.44,0-.66q.11-.56.54-1c.59-.36.9-.4,1.58-.29Zm-2.74,16.46c-.16.11-.32.21-.48.32-.89.84-1.3,1.81-1.39,3.02.09,1.35.53,2.24,1.53,3.16.88.69,1.75.93,2.84.88,1.27-.19,2.15-.75,2.95-1.73.67-1.05.72-2.06.58-3.27-.32-1.13-1.04-1.92-2.01-2.56-1.3-.62-2.81-.62-4.02.18Z"/>
  <path class="cls-7" d="m8.92,65.93q.3,0,.61,0c.42,0,.84,0,1.27,0,.64,0,1.29,0,1.93,0,.41,0,.82,0,1.24,0,.19,0,.38,0,.58,0,1.75.02,3.07.35,4.36,1.56,1.04,1.15,1.29,2.3,1.27,3.81-.09,1.36-.66,2.41-1.68,3.31-.95.59-1.84.94-2.97.95q-.29,0-.59,0c-.21,0-.42,0-.64,0-.22,0-.44,0-.66,0-.46,0-.93,0-1.39,0-.7,0-1.41.01-2.11.02-.45,0-.9,0-1.35,0q-.31,0-.63,0c-1.52,0-2.84-.23-4.04-1.22-.11-.14-.22-.27-.34-.41-.12-.14-.23-.27-.35-.41-.86-1.25-.8-2.62-.66-4.08.33-1.19.94-1.98,1.93-2.7,1.4-.71,2.68-.86,4.24-.85Zm-2.88,3.55c-.45.67-.49,1.23-.37,2.01.33.51.55.82,1.1,1.1.29.02.58.03.87.03.18,0,.36,0,.55,0,.2,0,.39,0,.59,0,.2,0,.4,0,.61,0,.42,0,.85,0,1.27,0,.65,0,1.3,0,1.95.01.41,0,.82,0,1.24,0,.19,0,.39,0,.59,0q1.3,0,2.4-.62c.43-.59.47-1.12.37-1.83-.38-.63-.75-1.04-1.46-1.28-.28-.02-.56-.03-.83-.03-.17,0-.34,0-.51,0q-.27,0-.55,0c-.19,0-.37,0-.57,0-.4,0-.79,0-1.19,0-.61,0-1.21,0-1.82-.01-.39,0-.77,0-1.16,0-.18,0-.36,0-.55,0-.97,0-1.69.05-2.52.62Z"/>
  <path class="cls-2" d="m56.9,70.94c.18.12.36.24.55.37v.37c.83.43,1.65.5,2.56.37q.62-.32,1.1-.73c.68-.45,1.02-.45,1.83-.37q.45.29.73.73c.12.63.13,1.05-.2,1.62-.78.99-1.74,1.46-2.91,1.85-1.89.15-3.5,0-5.03-1.19q-.69-.69-.82-1.19c.02-.67.04-1.11.48-1.63.6-.27,1.07-.25,1.72-.19Z"/>
  <path class="cls-4" d="m48.66,68.93c.39.29.53.45.62.94,0,.48,0,.95,0,1.43q0,.25.01.5,0,1.21-.42,1.81c-.59.37-1,.34-1.68.26-.58-.32-.7-.46-.91-1.1-.02-.49-.03-.97-.03-1.45q0-.2,0-.4c0-.69,0-1.23.41-1.81.65-.51,1.24-.36,2.01-.18Z"/>
  <path class="cls-3" d="m71.53,68.93c.38.33.53.6.6,1.11.03.46.03.91.03,1.36q0,.23.01.47,0,1.14-.42,1.73c-.59.38-1,.35-1.68.26-.58-.32-.7-.46-.91-1.1-.02-.49-.03-.97-.03-1.45q0-.2,0-.4c0-.69,0-1.23.41-1.81.65-.51,1.24-.38,2.01-.18Z"/>
</svg>