<svg viewBox="0 0 512 512" xmlns="http://www.w3.org/2000/svg" xmlns:xlink="http://www.w3.org/1999/xlink"><linearGradient id="linear-gradient" gradientUnits="userSpaceOnUse" x1="74.98" x2="437.02" y1="74.98" y2="437.02"><stop offset="0" stop-color="#b4ff9c"/><stop offset="1" stop-color="#2ff245"/></linearGradient><g id="Layer_2" data-name="Layer 2"><g id="Layer_copy" data-name="Layer copy"><g id="_107" data-name="107"><circle id="background" cx="256" cy="256" fill="url(#linear-gradient)" r="256"/><path d="m252 417a26.09 26.09 0 0 1 -18.45-44.54l90.34-90.35h-206.79a26.1 26.1 0 1 1 0-52.2h206.79l-90.34-90.35a26.1 26.1 0 0 1 36.9-36.91l134.91 134.9a26.13 26.13 0 0 1 0 36.9l-134.91 134.91a26 26 0 0 1 -18.45 7.64zm-134.9-175.1a14.1 14.1 0 1 0 0 28.2h221.28a6 6 0 0 1 4.24 10.24l-100.62 100.59a14.1 14.1 0 0 0 20 19.94l134.87-134.87a14.11 14.11 0 0 0 0-19.94l-134.87-134.93a14.1 14.1 0 1 0 -20 19.94l100.62 100.59a6 6 0 0 1 -4.24 10.24z" fill="#fff"/></g></g></g></svg>