<svg id="Bahan_copy_5" viewBox="0 0 64 64" xmlns="http://www.w3.org/2000/svg" xmlns:xlink="http://www.w3.org/1999/xlink" data-name="Bahan copy 5"><linearGradient id="linear-gradient" gradientUnits="userSpaceOnUse" x1="10.691" x2="53.309" y1="32" y2="32"><stop offset="0" stop-color="#ff81ff"/><stop offset="1" stop-color="#a93aff"/></linearGradient><path d="m40.18359 24.84473h-16.36718a5.57864 5.57864 0 0 0 -5.57227 5.57227v16.36816a5.57864 5.57864 0 0 0 5.57227 5.57226h16.36718a5.579 5.579 0 0 0 5.57227-5.57226v-16.36816a5.579 5.579 0 0 0 -5.57227-5.57227zm3.57227 5.57227v2.93262h-6.50386v-6.50489h2.93164a3.57635 3.57635 0 0 1 3.57222 3.57227zm-15.00781 2.93261v-6.50488h6.50395v6.50488zm-4.93164-6.50488h2.93164v6.50488h-6.50391v-2.93261a3.57635 3.57635 0 0 1 3.57227-3.57227zm-3.57227 19.94043v-2.93164h6.50391v6.5039h-2.93164a3.57635 3.57635 0 0 1 -3.57227-3.57226zm15.00786-2.93164v6.5039h-6.5039v-6.5039zm4.93164 6.5039h-2.93164v-7.5039a.99942.99942 0 0 0 -1-1h-16.00786v-6.50391h23.51172v11.43555a3.57635 3.57635 0 0 1 -3.57227 3.57226zm11.63277-37.00879-7.86719-7.86035a5.0596 5.0596 0 0 0 -3.59766-1.48828h-24.5708a5.09538 5.09538 0 0 0 -5.08935 5.08984v45.82032a5.09538 5.09538 0 0 0 5.08935 5.08984h32.439a5.09528 5.09528 0 0 0 5.08886-5.08984v-37.96094a5.06031 5.06031 0 0 0 -1.49221-3.60059zm-.50782 41.56153a3.09267 3.09267 0 0 1 -3.08886 3.08984h-32.439a3.09278 3.09278 0 0 1 -3.08935-3.08984v-45.82032a3.09278 3.09278 0 0 1 3.08938-3.08984h24.5708a3.11232 3.11232 0 0 1 2.1836.90332l7.86718 7.85938a3.1136 3.1136 0 0 1 .90625 2.18652z" fill="url(#linear-gradient)"/></svg>