<svg id="Layer_1" data-name="Layer 1" xmlns="http://www.w3.org/2000/svg" xmlns:xlink="http://www.w3.org/1999/xlink" viewBox="73.95 36.2 281.05 39.55">
  <defs>
    <style>
      .cls-1 {
        fill: url(#linear-gradient-2);
      }

      .cls-2 {
        fill: url(#linear-gradient-3);
      }

      .cls-3 {
        fill: url(#linear-gradient);
      }
    </style>
    <linearGradient id="linear-gradient" x1="73.96" y1="55.91" x2="124.42" y2="55.91" gradientUnits="userSpaceOnUse">
      <stop offset="0" stop-color="#5eeaa7"/>
      <stop offset=".18" stop-color="#34ad88"/>
      <stop offset=".45" stop-color="#064c65"/>
      <stop offset=".56" stop-color="#163f5c"/>
      <stop offset=".76" stop-color="#3e224a"/>
      <stop offset="1" stop-color="#67447e"/>
    </linearGradient>
    <linearGradient id="linear-gradient-2" x1="73.95" y1="67.12" x2="124.4" y2="67.12" xlink:href="#linear-gradient"/>
    <linearGradient id="linear-gradient-3" y1="61.84" x2="124.78" y2="61.84" xlink:href="#linear-gradient"/>
  </defs>
  <path d="m131.47,75.73h5.68l-.14-32.81h-5.53v32.81Z"/>
  <path d="m171.98,75.61h-5.37l-.65-1.44c-.56-1.25-1.63-3.63-3.25-7.17-1.87-4.08-3.36-6.55-4.41-7.34-1.08-.81-2.45-1.21-4.18-1.21l-5.87-.28-.2-4.77,8.59-.03c2.68,0,4.74-.49,6.13-1.45,1.11-.79,1.69-2.33,1.69-4.54s-.58-3.81-1.76-4.66c-1.41-.94-3.55-1.43-6.31-1.43h-12.47v-5.08h12.47c3.81,0,6.89.81,9.15,2.41,2.45,1.79,3.69,4.74,3.69,8.76,0,3.36-.87,5.99-2.59,7.8-1.06,1.08-2.27,1.89-3.62,2.42.28.36.57.75.87,1.19.95,1.53,2.17,3.97,3.77,7.51,1.54,3.39,2.54,5.63,3.02,6.73l1.31,2.58Z"/>
  <path d="m231.37,75.72c-9.04,0-13.96-4.63-14.86-5.55l-1.04-1.08,3.67-3.55,1.04,1.09c.39.41,4.02,4.01,11.19,4.01,5.56,0,9.16-2,9.16-5.1,0-2.7-1.78-4.31-7.05-6.35l-5.11-2.03c-5.65-2.24-10.88-5.12-10.88-11.01s5.62-9.82,13.67-9.82c5.54,0,10.69,2.13,13.44,5.55l.94,1.17-3.93,3.17-.94-1.14c-1.75-2.12-5.75-3.67-9.5-3.67-5.06,0-8.59,1.95-8.59,4.74,0,2,1.29,3.75,7.69,6.3l5.09,2.03c5.33,2.1,10.26,4.9,10.26,11.07s-5.72,10.18-14.24,10.18Z"/>
  <rect x="251.96" y="36.32" width="27.86" height="5.08"/>
  <rect x="251.96" y="70.64" width="28.38" height="5.08"/>
  <rect x="251.96" y="53.48" width="24.74" height="5.08"/>
  <polygon points="319.65 75.72 315.06 75.72 292.61 45.47 292.61 75.72 287.53 75.72 287.53 36.32 292.13 36.32 314.57 66.56 314.57 36.32 319.65 36.32 319.65 75.72"/>
  <path d="m340.73,75.72c-9.04,0-13.97-4.63-14.86-5.55l-1.04-1.08,3.67-3.55,1.04,1.09c.39.41,4.02,4.01,11.19,4.01,5.56,0,9.16-2,9.16-5.1,0-2.7-1.78-4.31-7.05-6.35l-5.11-2.03c-5.65-2.24-10.88-5.12-10.88-11.01s5.62-9.82,13.67-9.82c5.54,0,10.69,2.13,13.44,5.55l.94,1.17-3.93,3.17-.94-1.14c-1.75-2.12-5.75-3.67-9.5-3.67-5.06,0-8.59,1.95-8.59,4.74,0,2,1.29,3.75,7.69,6.3l5.09,2.03c5.33,2.1,10.25,4.9,10.25,11.07s-5.72,10.18-14.24,10.18Z"/>
  <g>
    <path class="cls-3" d="m73.96,36.64c2.94-.05,7.36.99,12.18,2.47,5.62,1.72,9.72,4.38,12.23,6.3,2.63-1.98,6.62-4.52,11.92-6.34,6.5-2.24,10.49-2.54,14.12-2.4.03,12.81-.03,25.69,0,38.5-2.51-.03-3.09.03-5.6,0,0-10.45-.11-20.98-.11-31.43-1.87.04-5.09.33-8.63,1.91-1.2.53-3.84,1.84-6.42,4.33-.05.05-.1.1-.13.12,1.69,2.37,3.65,5.65,5.18,9.83,2.24,6.13,3.09,11.69,3.02,15.26-2.19,0-3.79,0-5.98,0,.05-2.94-.7-10.09-4.17-16.57-1.59-2.97-2.88-4.25-4.62-6.1-2.02-2.14-4.2-3.6-4.76-4-6.72-4.67-15.37-5.97-18.23-5.99v-5.88Z"/>
    <path class="cls-1" d="m83.88,75.14c.02-.75-.02-1.83-.29-3.09-.2-.96-.47-2.17-1.3-3.44-1.1-1.65-2.54-2.44-3.28-2.84-1.94-1.04-4.03-1.12-5.05-1.12.01-1.83-.02-3.71,0-5.54,1.73.05,4.31.37,6.67,1.56,5.66,2.85,8.37,9.25,8.57,14.47h-5.32Z"/>
    <path class="cls-2" d="m73.96,48.51c2.45.13,6.02.6,9.78,2.12,2.17.88,6.27,2.59,9.91,6.68,2.89,3.24,6.7,9.18,6.92,17.87h-5.67c-.11-1.82-.73-8.35-6-13.94-5.87-6.23-13.29-6.86-14.94-6.96"/>
  </g>
  <polygon points="213.15 75.73 207.62 75.73 190.94 36.37 196.21 36.37 213.15 75.73"/>
  <polygon points="175.05 75.73 180.6 75.73 190.94 49.1 188.29 42.93 175.05 75.73"/>
  <path d="m131.47,39.16h5.67l-.14-2.95h-5.53v2.95Z"/>
</svg>