<?xml version="1.0" encoding="UTF-8"?>
<svg id="Layer_1" data-name="Layer 1" xmlns="http://www.w3.org/2000/svg" xmlns:xlink="http://www.w3.org/1999/xlink" viewBox="0 0 101 101">
  <defs>
    <style>
      .cls-1 {
        fill: url(#New_Gradient_Swatch-2);
        opacity: .93;
      }

      .cls-1, .cls-2, .cls-3 {
        fill-rule: evenodd;
        isolation: isolate;
      }

      .cls-2 {
        fill: url(#New_Gradient_Swatch-3);
      }

      .cls-2, .cls-3 {
        opacity: .93;
      }

      .cls-3 {
        fill: url(#New_Gradient_Swatch);
      }
    </style>
    <linearGradient id="New_Gradient_Swatch" data-name="New Gradient Swatch" x1="6.7" y1="50.33" x2="96.09" y2="50.33" gradientUnits="userSpaceOnUse">
      <stop offset="0" stop-color="#67447e"/>
      <stop offset=".2" stop-color="#3e224a"/>
      <stop offset=".89" stop-color="#34ad88"/>
      <stop offset="1" stop-color="#5eeaa7"/>
    </linearGradient>
    <linearGradient id="New_Gradient_Swatch-2" data-name="New Gradient Swatch" x1="8.78" y1="60.13" x2="69.58" y2="60.13" xlink:href="#New_Gradient_Swatch"/>
    <linearGradient id="New_Gradient_Swatch-3" data-name="New Gradient Swatch" x1="61.46" y1="86.52" x2="92.32" y2="86.52" xlink:href="#New_Gradient_Swatch"/>
  </defs>
  <path class="cls-3" d="m34.64,8.4c8.8-.44,16.35,2.37,22.64,8.45,8.55-5.1,17.29-5.43,26.23-.99,2.95,1.66,5.65,3.66,8.09,6.02,1.43-1.18,2.83-1.18,4.22,0,.28.88.34,1.78.18,2.7-.46,3.06-.94,6.11-1.44,9.16-.57,1.44-1.62,1.95-3.14,1.53l-9.7-3.77c-1.48-1.63-1.3-3.06.54-4.31-3.78-3.4-8.21-4.89-13.3-4.49-2.16.32-4.11,1.13-5.84,2.43,1.31,3.1,2.27,6.34,2.87,9.7,9.13,7.61,13.14,17.38,12.04,29.29-1.97,12.51-8.77,21.22-20.39,26.14-2.78,1.06-5.66,1.71-8.62,1.98-13.12.12-26.23.12-39.35,0-.86-.56-1.07-1.3-.63-2.25.22-.28.49-.49.81-.63,13-.06,25.99-.12,38.99-.18,12.44-1.78,20.8-8.58,25.07-20.39,3.34-13.35-.41-24.22-11.23-32.61-8.5-5.55-17.54-6.62-27.13-3.23-9.97,4.28-16.05,11.74-18.24,22.37-1.16,7.44.28,14.33,4.31,20.66.89,1.97.26,2.84-1.89,2.61-3.15-4.31-5.04-9.13-5.66-14.46-1.07-11.01,2.38-20.32,10.33-27.94,7.89-6.7,16.99-9.34,27.31-7.91-5.74-8.16-13.28-10.5-22.64-7.01-2.43,1.12-4.65,2.56-6.65,4.31,1.77.76,2.4,2.04,1.89,3.86-.2.38-.47.71-.81.99-3.83,1.5-7.67,2.99-11.5,4.49-1.58.57-2.75.12-3.5-1.35-.89-4.58-1.48-9.19-1.8-13.84.83-1.39,2-1.78,3.5-1.17.55.35,1.12.68,1.71.99,6.22-6.48,13.8-10.19,22.73-11.14Zm.18,3.05c12.4-.14,21.12,5.43,26.14,16.71.57,1.35.99,2.73,1.26,4.13-2.03-1.19-4.15-2.18-6.38-2.96-5.26-10.17-13.52-14.19-24.8-12.04-4.98,1.51-9.2,4.18-12.67,8-.14.56-.08,1.1.18,1.62.7.43,1.39.88,2.07,1.35l-9.16,3.5c-.63-3.06-1.17-6.15-1.62-9.25.06-.15.12-.3.18-.45.46.31.94.58,1.44.81.48.12.96.12,1.44,0,4.31-4.85,9.58-8.27,15.81-10.24,2.03-.57,4.06-.96,6.11-1.17Zm35.22,4.31c8.19.14,14.96,3.29,20.3,9.43.87.31,1.68.16,2.43-.45-.27,2.39-.6,4.79-.99,7.19-2.34-.72-4.61-1.59-6.83-2.61,1.36-.53,1.75-1.45,1.17-2.79-4.75-5.06-10.59-7.36-17.52-6.92-2.6.36-4.97,1.29-7.1,2.79-.68-1.1-1.43-2.15-2.25-3.14,3.31-2.09,6.91-3.26,10.78-3.5Zm-14.37,36.48c1.75.15,2.32,1.05,1.71,2.7-4.28,4.46-8.62,8.86-13.03,13.21-.62.5-1.28.56-1.98.18-2.67-2.61-5.28-5.28-7.82-8-.12-1.62.63-2.3,2.25-2.07,1.91,1.73,3.77,3.53,5.57,5.39.69.38,1.35.32,1.98-.18,3.6-3.54,7.13-7.13,10.6-10.78.28-.11.52-.26.72-.45Z"/>
  <path class="cls-1" d="m43.63,36.61c9.84-.52,17.42,3.32,22.73,11.5,4.58,8.68,4.28,17.18-.9,25.52-4.25,5.8-9.97,9.12-17.16,9.97-12.88.12-25.75.12-38.63,0-1.24-1.05-1.18-2.01.18-2.87,12.7-.06,25.4-.12,38.09-.18,7.56-1.01,13.1-4.87,16.62-11.59,3.74-9.27,2.03-17.38-5.12-24.35-7.59-5.83-15.61-6.49-24.08-1.98-7.81,5.4-10.89,12.79-9.25,22.19.85,3.68,2.59,6.85,5.21,9.52.49,1.81-.2,2.56-2.07,2.25-5.79-6.12-7.86-13.33-6.2-21.65,2.06-7.99,6.88-13.59,14.46-16.8,2.01-.73,4.04-1.24,6.11-1.53Zm12.04,15.63c-.2.19-.44.34-.72.45-3.47,3.65-7,7.24-10.6,10.78-.62.5-1.28.56-1.98.18-1.8-1.86-3.66-3.66-5.57-5.39-1.62-.24-2.37.45-2.25,2.07,2.54,2.72,5.15,5.39,7.82,8,.69.38,1.35.32,1.98-.18,4.41-4.35,8.75-8.75,13.03-13.21.62-1.64.05-2.54-1.71-2.7Z"/>
  <path class="cls-2" d="m79.56,76.68c.89-.1,1.73.05,2.52.45,3,2.46,6.06,4.86,9.16,7.19,1.49,1.56,1.43,3.06-.18,4.49-3.17,2.46-6.35,4.91-9.52,7.37-1.62.54-2.79.03-3.5-1.53-.09-.78-.12-1.55-.09-2.34-5.21.03-10.42,0-15.63-.09-.86-.56-1.07-1.31-.63-2.25.24-.36.57-.57.99-.63,5.75-.12,11.5-.12,17.25,0,.44.14.77.41.99.81.06.84.12,1.68.18,2.52,2.62-2.04,5.23-4.11,7.82-6.2-2.66-2-5.26-4.06-7.82-6.2-.06.84-.12,1.68-.18,2.52-.15.39-.42.66-.81.81-2.65.17-5.29.11-7.91-.18-.59-.68-.68-1.43-.27-2.25.16-.22.37-.37.63-.45,1.8-.09,3.59-.12,5.39-.09-.06-.92.03-1.81.27-2.7.31-.58.76-1,1.35-1.26Z"/>
</svg>