<svg id="Layer_1" enable-background="new 0 0 512 512" viewBox="0 0 512 512" xmlns="http://www.w3.org/2000/svg" xmlns:xlink="http://www.w3.org/1999/xlink"><linearGradient id="SVGID_1_" gradientUnits="userSpaceOnUse" x1="54.266" x2="457.734" y1="505.888" y2="102.421"><stop offset="0" stop-color="#57ffd9"/><stop offset="1" stop-color="#2a6eff"/></linearGradient><path d="m510.767 320.256c-.864-3.497-3.958-5.985-7.56-6.078-62.698-1.62-96.94 21.292-108.092 43.283-6.879 13.566-6.151 28.267 1.815 41.009-1.956 2.734-3.865 5.594-5.725 8.552-3.945-17.204-9.604-33.004-16.577-46.644 9.755-11.921 12.26-26.745 6.788-41.252-8.701-23.069-40.268-49.565-102.766-54.742-3.579-.292-6.935 1.841-8.173 5.224-1.238 3.382-.062 7.175 2.871 9.265 7.831 5.579 11.937 21.606 15.907 37.105 5.52 21.545 11.775 45.965 31.033 54.896 4.845 2.247 10.163 3.373 16.004 3.373 7.365 0 15.564-1.797 24.692-5.39 8.511 17.09 14.928 38.076 18.141 60.807-1.133 2.536-2.221 5.121-3.259 7.759-11.075-9.891-25.554-15.633-40.789-15.633-9.218 0-18.229 2.056-26.438 5.993-12.68-15.457-31.56-24.491-51.83-24.491-20.585 0-39.624 9.242-52.296 25.06-8.513-4.311-17.918-6.562-27.594-6.562-15.236 0-29.716 5.742-40.791 15.634-1.037-2.637-2.125-5.223-3.257-7.758 3.213-22.731 9.629-43.718 18.141-60.808 9.127 3.593 17.326 5.39 24.692 5.39 5.84 0 11.16-1.127 16.004-3.373 19.258-8.932 25.514-33.352 31.033-54.896 3.971-15.499 8.076-31.526 15.907-37.105 2.934-2.09 4.109-5.883 2.871-9.265-1.237-3.382-4.589-5.516-8.173-5.224-62.498 5.177-94.064 31.673-102.766 54.742-5.472 14.506-2.967 29.331 6.788 41.252-6.973 13.64-12.632 29.441-16.577 46.646-1.86-2.958-3.769-5.819-5.725-8.553 7.967-12.742 8.695-27.443 1.816-41.01-11.151-21.991-45.416-44.892-108.092-43.283-3.602.093-6.695 2.581-7.56 6.078s.716 7.14 3.858 8.899c8.39 4.697 14.208 20.186 19.835 35.163 7.821 20.82 16.687 44.418 36.799 51.211 3.697 1.248 7.579 1.874 11.669 1.874 8.774 0 18.496-2.888 29.351-8.701 7.451 10.626 14.28 23.21 19.542 37.283-3.205-.545-6.463-.825-9.758-.825-31.892 0-57.838 25.946-57.838 57.839 0 4.418 3.582 8 8 8h386.617c4.418 0 8-3.582 8-8 0-31.893-25.946-57.839-57.839-57.839-3.294 0-6.552.28-9.756.825 5.262-14.074 12.09-26.658 19.541-37.283 10.854 5.813 20.576 8.701 29.351 8.701 4.089 0 7.972-.626 11.669-1.874 20.112-6.793 28.978-30.391 36.799-51.211 5.627-14.978 11.445-30.466 19.835-35.163 3.146-1.76 4.726-5.403 3.862-8.9zm-183.746 36.102c-12.373-5.738-17.402-25.368-22.265-44.352-2.71-10.575-5.336-20.827-9.271-29.396 43.06 7.405 65.081 26.571 70.962 42.162 2.702 7.163 2.411 14.067-.785 20.335-9.268-13.734-20.084-24.138-31.821-29.978-3.954-1.967-8.757-.357-10.726 3.599s-.357 8.758 3.599 10.726c9.499 4.726 18.434 13.556 26.222 25.34-10.911 3.955-19.605 4.49-25.915 1.564zm-181.468-31.586c5.881-15.591 27.902-34.757 70.962-42.162-3.936 8.569-6.562 18.821-9.271 29.396-4.862 18.983-9.892 38.613-22.265 44.352-6.307 2.927-15.003 2.391-25.916-1.564 7.789-11.784 16.723-20.614 26.222-25.34 3.956-1.968 5.567-6.77 3.599-10.726s-6.771-5.566-10.726-3.599c-11.736 5.839-22.553 16.243-31.82 29.978-3.196-6.268-3.487-13.171-.785-20.335zm-78.708 75.598c-12.923-4.364-20.049-23.333-26.94-41.678-3.839-10.221-7.561-20.127-12.402-28.22 43.609 2.695 67.577 19.362 75.112 34.224 3.427 6.759 3.906 13.582 1.494 20.1-11.79-13.124-24.204-22.192-34.951-26.153-4.146-1.526-8.745.594-10.273 4.74-1.527 4.146.595 8.745 4.74 10.273 8.692 3.203 19.036 10.949 29.043 22.242-10.523 5.206-19.182 6.715-25.823 4.472zm373.696 94.63h-369.082c3.742-19.258 20.735-33.839 41.07-33.839 5.274 0 10.414.968 15.276 2.877 3.699 1.454 7.896-.027 9.867-3.472 8.042-14.049 23.081-22.776 39.248-22.776 9.097 0 17.865 2.69 25.358 7.78 1.795 1.22 4.013 1.66 6.133 1.213 2.125-.444 3.978-1.732 5.134-3.569 9.424-14.979 25.598-23.922 43.265-23.922 17.354 0 33.372 8.698 42.848 23.269 2.398 3.688 7.327 4.748 11.031 2.369 7.268-4.671 15.702-7.14 24.39-7.14 16.166 0 31.205 8.728 39.249 22.776 1.972 3.444 6.169 4.923 9.866 3.472 4.862-1.909 10.002-2.877 15.275-2.877 20.337 0 37.33 14.581 41.072 33.839zm31.555-136.308c-6.892 18.345-14.018 37.313-26.94 41.678-6.636 2.242-15.298.733-25.823-4.473 10.006-11.291 20.349-19.036 29.044-22.241 4.146-1.528 6.268-6.128 4.74-10.273-1.528-4.146-6.129-6.266-10.273-4.74-10.75 3.962-23.163 13.03-34.951 26.152-2.412-6.517-1.933-13.34 1.494-20.098 7.536-14.862 31.498-31.53 75.112-34.224-4.843 8.092-8.564 17.999-12.403 28.219zm-449.996-161.55c1.437 2.448 4.062 3.952 6.9 3.952h42.25v7.325c0 7.72 6.28 14 14 14h12.509c7.72 0 14-6.28 14-14v-7.325h288.482v7.325c0 7.72 6.28 14 14 14h12.51c7.719 0 13.999-6.28 13.999-14v-7.325h42.25c2.838 0 5.464-1.504 6.9-3.952l20-34.093c1.451-2.474 1.467-5.535.042-8.023-1.426-2.489-4.074-4.024-6.942-4.024h-494c-2.868 0-5.517 1.535-6.942 4.024-1.425 2.488-1.409 5.55.042 8.023zm73.659 9.277h-8.509v-5.325h8.509zm328.991 0h-8.509v-5.325h8.509zm64.282-39.418-10.614 18.093h-444.836l-10.614-18.093zm-419.537 83.525c0 4.418-3.582 8-8 8s-8-3.582-8-8v-9.954c0-4.418 3.582-8 8-8s8 3.582 8 8zm30.009 32.876v9.954c0 4.418-3.582 8-8 8s-8-3.582-8-8v-9.954c0-4.418 3.582-8 8-8s8 3.582 8 8zm-30.009 0v9.954c0 4.418-3.582 8-8 8s-8-3.582-8-8v-9.954c0-4.418 3.582-8 8-8s8 3.582 8 8zm30.009-32.876c0 4.418-3.582 8-8 8s-8-3.582-8-8v-9.954c0-4.418 3.582-8 8-8s8 3.582 8 8zm30.01 32.876v9.954c0 4.418-3.582 8-8 8s-8-3.582-8-8v-9.954c0-4.418 3.582-8 8-8s8 3.582 8 8zm0-32.876c0 4.418-3.582 8-8 8s-8-3.582-8-8v-9.954c0-4.418 3.582-8 8-8s8 3.582 8 8zm268.972 0c0 4.418-3.582 8-8 8s-8-3.582-8-8v-9.954c0-4.418 3.582-8 8-8s8 3.582 8 8zm30.009 32.876v9.954c0 4.418-3.582 8-8 8s-8-3.582-8-8v-9.954c0-4.418 3.582-8 8-8s8 3.582 8 8zm-30.009 0v9.954c0 4.418-3.582 8-8 8s-8-3.582-8-8v-9.954c0-4.418 3.582-8 8-8s8 3.582 8 8zm60.019 0v9.954c0 4.418-3.582 8-8 8s-8-3.582-8-8v-9.954c0-4.418 3.582-8 8-8s8 3.582 8 8zm-30.01-32.876c0 4.418-3.582 8-8 8s-8-3.582-8-8v-9.954c0-4.418 3.582-8 8-8s8 3.582 8 8zm30.01 0c0 4.418-3.582 8-8 8s-8-3.582-8-8v-9.954c0-4.418 3.582-8 8-8s8 3.582 8 8zm-286.662-203.353c-3.124-3.125-3.124-8.189 0-11.314 46.404-46.404 121.91-46.404 168.314 0 3.124 3.125 3.124 8.189 0 11.314-1.562 1.562-3.609 2.343-5.657 2.343s-4.095-.781-5.657-2.343c-40.164-40.166-105.521-40.166-145.686 0-3.125 3.123-8.189 3.123-11.314 0zm136.066 20.933c-28.623-28.623-75.195-28.623-103.818 0-3.125 3.123-8.189 3.123-11.314 0-3.124-3.125-3.124-8.189 0-11.314 34.861-34.861 91.586-34.861 126.447 0 3.124 3.125 3.124 8.189 0 11.314-1.562 1.562-3.609 2.343-5.657 2.343s-4.095-.781-5.658-2.343zm-20.933 20.933c-17.08-17.08-44.871-17.08-61.951 0-3.125 3.124-8.189 3.122-11.314 0-3.124-3.125-3.124-8.189 0-11.314 23.32-23.318 61.26-23.318 84.58 0 3.124 3.125 3.124 8.189 0 11.314-1.562 1.562-3.609 2.343-5.657 2.343s-4.096-.781-5.658-2.343zm-54.53 24.326c0 12.987 10.566 23.554 23.554 23.554s23.554-10.566 23.554-23.554-10.567-23.553-23.554-23.553-23.554 10.566-23.554 23.553zm31.108 0c0 4.165-3.389 7.554-7.554 7.554s-7.554-3.389-7.554-7.554 3.389-7.553 7.554-7.553 7.554 3.388 7.554 7.553z" fill="url(#SVGID_1_)"/></svg>