<?xml version="1.0" encoding="UTF-8"?>
<svg id="Layer_1" data-name="Layer 1" xmlns="http://www.w3.org/2000/svg" xmlns:xlink="http://www.w3.org/1999/xlink" viewBox="0 0 101 101">
  <defs>
    <style>
      .cls-1 {
        fill: url(#New_Gradient_Swatch-13);
      }

      .cls-2 {
        fill: url(#New_Gradient_Swatch-17);
      }

      .cls-3 {
        fill: url(#New_Gradient_Swatch-7);
      }

      .cls-4 {
        fill: url(#New_Gradient_Swatch-18);
      }

      .cls-5 {
        fill: url(#New_Gradient_Swatch-6);
      }

      .cls-6 {
        fill: url(#New_Gradient_Swatch);
      }

      .cls-7 {
        fill: url(#New_Gradient_Swatch-5);
      }

      .cls-8 {
        fill: url(#New_Gradient_Swatch-16);
      }

      .cls-9 {
        fill: url(#New_Gradient_Swatch-8);
      }

      .cls-10 {
        fill: url(#New_Gradient_Swatch-4);
      }

      .cls-11 {
        fill: url(#New_Gradient_Swatch-3);
      }

      .cls-12 {
        fill: url(#New_Gradient_Swatch-14);
      }

      .cls-13 {
        fill: url(#New_Gradient_Swatch-10);
      }

      .cls-14 {
        fill: url(#New_Gradient_Swatch-12);
      }

      .cls-15 {
        fill: url(#New_Gradient_Swatch-9);
      }

      .cls-16 {
        fill: url(#New_Gradient_Swatch-15);
      }

      .cls-17 {
        fill: url(#New_Gradient_Swatch-11);
      }

      .cls-18 {
        fill: url(#New_Gradient_Swatch-2);
      }
    </style>
    <linearGradient id="New_Gradient_Swatch" data-name="New Gradient Swatch" x1="1.43" y1="18" x2="93.53" y2="18" gradientTransform="translate(0 101.28) scale(1 -1)" gradientUnits="userSpaceOnUse">
      <stop offset="0" stop-color="#67447e"/>
      <stop offset=".2" stop-color="#3e224a"/>
      <stop offset=".89" stop-color="#34ad88"/>
      <stop offset="1" stop-color="#5eeaa7"/>
    </linearGradient>
    <linearGradient id="New_Gradient_Swatch-2" data-name="New Gradient Swatch" y1="15.05" y2="15.05" xlink:href="#New_Gradient_Swatch"/>
    <linearGradient id="New_Gradient_Swatch-3" data-name="New Gradient Swatch" y1="15.05" y2="15.05" xlink:href="#New_Gradient_Swatch"/>
    <linearGradient id="New_Gradient_Swatch-4" data-name="New Gradient Swatch" y1="15.05" y2="15.05" xlink:href="#New_Gradient_Swatch"/>
    <linearGradient id="New_Gradient_Swatch-5" data-name="New Gradient Swatch" y1="15.05" y2="15.05" xlink:href="#New_Gradient_Swatch"/>
    <linearGradient id="New_Gradient_Swatch-6" data-name="New Gradient Swatch" y1="16.53" y2="16.53" xlink:href="#New_Gradient_Swatch"/>
    <linearGradient id="New_Gradient_Swatch-7" data-name="New Gradient Swatch" y1="60.81" y2="60.81" xlink:href="#New_Gradient_Swatch"/>
    <linearGradient id="New_Gradient_Swatch-8" data-name="New Gradient Swatch" x1="1.43" y1="56.38" x2="93.53" y2="56.38" xlink:href="#New_Gradient_Swatch"/>
    <linearGradient id="New_Gradient_Swatch-9" data-name="New Gradient Swatch" y1="80" y2="80" xlink:href="#New_Gradient_Swatch"/>
    <linearGradient id="New_Gradient_Swatch-10" data-name="New Gradient Swatch" y1="78.52" y2="78.52" xlink:href="#New_Gradient_Swatch"/>
    <linearGradient id="New_Gradient_Swatch-11" data-name="New Gradient Swatch" y1="91.81" y2="91.81" xlink:href="#New_Gradient_Swatch"/>
    <linearGradient id="New_Gradient_Swatch-12" data-name="New Gradient Swatch" y1="35.72" y2="35.72" xlink:href="#New_Gradient_Swatch"/>
    <linearGradient id="New_Gradient_Swatch-13" data-name="New Gradient Swatch" y1="35.72" y2="35.72" xlink:href="#New_Gradient_Swatch"/>
    <linearGradient id="New_Gradient_Swatch-14" data-name="New Gradient Swatch" y1="71.14" y2="71.14" xlink:href="#New_Gradient_Swatch"/>
    <linearGradient id="New_Gradient_Swatch-15" data-name="New Gradient Swatch" y1="81.47" y2="81.47" xlink:href="#New_Gradient_Swatch"/>
    <linearGradient id="New_Gradient_Swatch-16" data-name="New Gradient Swatch" y1="35.72" y2="35.72" xlink:href="#New_Gradient_Swatch"/>
    <linearGradient id="New_Gradient_Swatch-17" data-name="New Gradient Swatch" y1="35.72" y2="35.72" xlink:href="#New_Gradient_Swatch"/>
    <linearGradient id="New_Gradient_Swatch-18" data-name="New Gradient Swatch" y1="72.62" y2="72.62" xlink:href="#New_Gradient_Swatch"/>
  </defs>
  <path class="cls-6" d="m17.67,81.8h2.95v2.95h-2.95v-2.95Z"/>
  <path class="cls-18" d="m25.05,84.75h8.86v2.95h-8.86v-2.95Z"/>
  <path class="cls-6" d="m50.14,81.8h2.95v2.95h-2.95v-2.95Z"/>
  <path class="cls-11" d="m61.95,84.75h5.9v2.95h-5.9v-2.95Z"/>
  <path class="cls-6" d="m82.61,81.8h2.95v2.95h-2.95v-2.95Z"/>
  <path class="cls-10" d="m85.57,84.75h2.95v2.95h-2.95v-2.95Z"/>
  <path class="cls-7" d="m11.76,84.75h2.95v2.95h-2.95v-2.95Z"/>
  <path class="cls-5" d="m92.95,75.89H7.33c-.82,0-1.48.66-1.48,1.48v14.76c0,.82.66,1.48,1.48,1.48h85.61c.82,0,1.48-.66,1.48-1.48v-14.76c0-.82-.66-1.48-1.48-1.48Zm-1.48,14.76H8.81v-11.81h82.66v11.81Z"/>
  <path class="cls-3" d="m28,40.47c0,1.63-1.32,2.95-2.95,2.95s-2.95-1.32-2.95-2.95,1.32-2.95,2.95-2.95,2.95,1.32,2.95,2.95Z"/>
  <path class="cls-9" d="m73.76,41.94v.07c-3.69-2.29-7.66-4.09-11.81-5.35v-10.96h-25.09c-4.07,0-7.38,3.31-7.38,7.38v.41c-16.97,1.93-23.06,10.15-23.34,10.54-.42.59-.35,1.39.16,1.9,7.36,6.51,16.74,10.28,26.56,10.68,1.25,4.43,5.3,7.49,9.91,7.47h1.48v-7.59c1.55-.07,3.03-.17,4.43-.28v6.39c0,.82.66,1.48,1.48,1.48.44,0,10.94-.07,18.64-6.23.45-.36.65-.94.51-1.5-.14-.56-.58-.99-1.15-1.1-1.41-.31-2.76-.83-4.01-1.56,3.53-.83,6.85-2.38,9.76-4.55.63,3.51,3.68,6.07,7.25,6.08h13.28v-1.48c0-3.63-1.92-6.99-5.04-8.86,3.12-1.86,5.03-5.22,5.04-8.86v-1.48h-13.28c-4.07,0-7.38,3.31-7.38,7.38Zm7.38-4.43h2.47c-1.02,3.08-3.69,5.32-6.9,5.79v-1.37c0-2.45,1.98-4.43,4.43-4.43Zm-45.76,16.24c-.29,0-.56-.02-.84-.03l3.36-3.36-2.09-2.09-5.2,5.2c-1.4-.16-2.74-.39-4.02-.66l2.45-2.45-2.09-2.09-3.69,3.69c-4.17-1.24-8.12-3.13-11.71-5.6h60.98c-2.72,2.66-11.22,7.38-37.16,7.38Zm34.89-10.33H10.97c3.6-2.88,11.52-7.38,25.89-7.38,17.19,0,28.06,4.43,33.42,7.38Zm-37.85-10.33c0-2.45,1.98-4.43,4.43-4.43h2.34l-1.91,1.91,2.09,2.09,4-4h3.21l-1.91,1.91,2.09,2.09,4-4h3.21l-1.91,1.91,2.09,2.09,4-4h.86v7.14c-7.23-1.87-14.67-2.78-22.14-2.71-1.55,0-3.02.05-4.43.15v-.15Zm8.86,27.9c-2.35-.47-4.32-2.07-5.27-4.28,1.84,0,3.59-.04,5.27-.09v4.37Zm23.24-3.78c-3.98,2.19-8.38,3.51-12.91,3.85v-5.11c3.01-.3,6-.76,8.96-1.37,1.11,1.15,2.46,2.05,3.95,2.64Zm12.19-9.36v-1.37c3.2.49,5.86,2.73,6.89,5.79h-2.46c-2.45,0-4.43-1.98-4.43-4.43Zm14.61,4.43h-4.59c-.65-2.25-1.9-4.29-3.6-5.9h.96c3.51,0,6.53,2.47,7.23,5.9Zm-7.23-8.86h-.96c1.71-1.61,2.95-3.65,3.6-5.9h4.59c-.71,3.43-3.73,5.9-7.23,5.9Z"/>
  <path class="cls-15" d="m25.05,21.28c0-2.45-1.98-4.43-4.43-4.43s-4.43,1.98-4.43,4.43,1.98,4.43,4.43,4.43,4.43-1.98,4.43-4.43Zm-5.9,0c0-.82.66-1.48,1.48-1.48s1.48.66,1.48,1.48-.66,1.48-1.48,1.48-1.48-.66-1.48-1.48Z"/>
  <path class="cls-13" d="m78.18,22.75c0-3.26-2.64-5.9-5.9-5.9s-5.9,2.64-5.9,5.9,2.64,5.9,5.9,5.9,5.9-2.64,5.9-5.9Zm-8.86,0c0-1.63,1.32-2.95,2.95-2.95s2.95,1.32,2.95,2.95-1.32,2.95-2.95,2.95-2.95-1.32-2.95-2.95Z"/>
  <path class="cls-17" d="m59,9.47c0-2.45-1.98-4.43-4.43-4.43s-4.43,1.98-4.43,4.43,1.98,4.43,4.43,4.43,4.43-1.98,4.43-4.43Zm-5.9,0c0-.82.66-1.48,1.48-1.48s1.48.66,1.48,1.48-.66,1.48-1.48,1.48-1.48-.66-1.48-1.48Z"/>
  <path class="cls-14" d="m25.05,65.56c0-3.26-2.64-5.9-5.9-5.9s-5.9,2.64-5.9,5.9,2.64,5.9,5.9,5.9,5.9-2.64,5.9-5.9Zm-8.86,0c0-1.63,1.32-2.95,2.95-2.95s2.95,1.32,2.95,2.95-1.32,2.95-2.95,2.95-2.95-1.32-2.95-2.95Z"/>
  <path class="cls-1" d="m81.14,65.56c0-2.45-1.98-4.43-4.43-4.43s-4.43,1.98-4.43,4.43,1.98,4.43,4.43,4.43,4.43-1.98,4.43-4.43Zm-5.9,0c0-.82.66-1.48,1.48-1.48s1.48.66,1.48,1.48-.66,1.48-1.48,1.48-1.48-.66-1.48-1.48Z"/>
  <path class="cls-12" d="m10.29,28.66h2.95v2.95h-2.95v-2.95Z"/>
  <path class="cls-16" d="m39.81,18.33h2.95v2.95h-2.95v-2.95Z"/>
  <path class="cls-8" d="m29.47,64.08h2.95v2.95h-2.95v-2.95Z"/>
  <path class="cls-2" d="m63.42,64.08h2.95v2.95h-2.95v-2.95Z"/>
  <path class="cls-4" d="m82.61,27.18h2.95v2.95h-2.95v-2.95Z"/>
</svg>