<?xml version="1.0" encoding="UTF-8"?>
<svg id="Layer_1" data-name="Layer 1" xmlns="http://www.w3.org/2000/svg" xmlns:xlink="http://www.w3.org/1999/xlink" viewBox="0 0 101 101">
  <defs>
    <style>
      .cls-1 {
        fill: url(#New_Gradient_Swatch);
      }
    </style>
    <linearGradient id="New_Gradient_Swatch" data-name="New Gradient Swatch" x1="7.98" y1="50.77" x2="93.61" y2="50.77" gradientUnits="userSpaceOnUse">
      <stop offset="0" stop-color="#67447e"/>
      <stop offset=".2" stop-color="#3e224a"/>
      <stop offset=".89" stop-color="#34ad88"/>
      <stop offset="1" stop-color="#5eeaa7"/>
    </linearGradient>
  </defs>
  <g id="Layer_2" data-name="Layer 2">
    <g id="Layer_copy" data-name="Layer copy">
      <g id="_107" data-name=" 107">
        <path class="cls-1" d="m50.8,93.54c-3.83,0-6.94-3.11-6.94-6.94,0-1.84.73-3.61,2.03-4.91l24.02-24.03H14.92c-3.83,0-6.94-3.1-6.94-6.94,0-3.83,3.1-6.94,6.94-6.94h55l-24.02-24.03c-2.66-2.76-2.58-7.15.18-9.81,2.69-2.59,6.95-2.59,9.64,0l35.88,35.87c2.7,2.71,2.7,7.1,0,9.81l-35.88,35.88c-1.3,1.3-3.07,2.03-4.91,2.03h0ZM14.92,46.97c-2.07,0-3.75,1.68-3.75,3.75s1.68,3.75,3.75,3.75h58.85c.88,0,1.59.72,1.59,1.6,0,.42-.17.83-.47,1.13l-26.76,26.75c-1.46,1.47-1.46,3.85,0,5.31s3.85,1.46,5.31,0h0l35.87-35.87c1.46-1.46,1.46-3.84,0-5.3L53.46,12.19c-1.46-1.47-3.84-1.47-5.31,0s-1.47,3.84,0,5.31l26.76,26.75c.62.62.62,1.63,0,2.26-.3.3-.7.47-1.13.47H14.92Z"/>
      </g>
    </g>
  </g>
</svg>