<?xml version="1.0" encoding="UTF-8"?>
<svg id="Layer_1" data-name="Layer 1" xmlns="http://www.w3.org/2000/svg" xmlns:xlink="http://www.w3.org/1999/xlink" viewBox="0 0 101 101">
  <defs>
    <style>
      .cls-1 {
        fill: url(#New_Gradient_Swatch_1);
      }
    </style>
    <linearGradient id="New_Gradient_Swatch_1" data-name="New Gradient Swatch 1" x1="3.48" y1="51.43" x2="97.39" y2="51.43" gradientUnits="userSpaceOnUse">
      <stop offset="0" stop-color="#67447e"/>
      <stop offset=".2" stop-color="#3e224a"/>
      <stop offset=".89" stop-color="#34ad88"/>
      <stop offset="1" stop-color="#5eeaa7"/>
    </linearGradient>
  </defs>
  <g id="cloud_storage" data-name="cloud storage">
    <path class="cls-1" d="m97.39,43.34c0-9.88-7.93-17.81-17.81-17.81-1.3,0-2.43.16-3.56.32-2.27-12.31-12.79-21.37-25.58-21.37s-23.32,9.07-25.58,21.37c-1.13-.16-2.27-.32-3.56-.32-9.88,0-17.81,7.93-17.81,17.81,0,7.45,4.53,13.92,11.33,16.52v2.91c0,.97.65,1.62,1.62,1.62h6.48c.97,0,1.62-.65,1.62-1.62v-1.62h4.86v2.27c-1.3,1.46-1.94,3.4-1.46,5.34.49,2.59,2.59,4.86,5.18,5.18,1.94.32,3.89-.16,5.34-1.46,1.46-1.3,2.27-3.08,2.27-5.02,0-1.62-.65-3.08-1.62-4.21v-2.1h6.48v26.55c-1.3,1.46-1.94,3.4-1.46,5.34.49,2.59,2.59,4.86,5.18,5.18.32,0,.81.16,1.13.16,1.46,0,3.08-.49,4.21-1.46,1.46-1.3,2.27-3.08,2.27-5.02,0-1.62-.65-3.08-1.62-4.21v-13.6h4.86c.97,0,1.62.65,1.62,1.62v5.51c-1.3,1.46-1.94,3.4-1.46,5.34.49,2.59,2.59,4.86,5.18,5.18,1.94.32,3.89-.16,5.34-1.46,1.46-1.3,2.27-3.08,2.27-5.02,0-1.62-.65-3.08-1.62-4.21v-5.34c0-6.31-5.02-11.33-11.33-11.33h-4.86v-3.24h21.05v3.24h-3.24c-.65,0-1.13.32-1.46.97-.32.65-.16,1.3.16,1.78l8.1,9.71c.32.32.81.65,1.3.65s.97-.16,1.3-.65l8.1-9.71c.32-.49.49-1.13.16-1.78-.32-.65-.81-.97-1.46-.97h-3.24v-4.53c6.8-2.59,11.33-9.07,11.33-16.52ZM21.29,61.15h-3.24v-17.81c0-.97-.65-1.62-1.62-1.62h-1.46l4.7-5.51,4.7,5.51h-1.46c-.97,0-1.62.65-1.62,1.62v17.81Zm17.81-3.24v-1.62c0-.97.65-1.62,1.62-1.62h4.86v3.24h-6.48Zm21.05,9.71c4.53,0,8.1,3.56,8.1,8.1v6.15c0,.49.16.97.49,1.13.65.65,1.13,1.46,1.13,2.43s-.49,1.78-1.13,2.43c-.81.65-1.62.81-2.75.65-1.3-.16-2.43-1.3-2.59-2.59-.16-1.13.16-2.27.97-2.91.32-.32.49-.81.49-1.13v-6.15c0-2.75-2.1-4.86-4.86-4.86h-6.48c-.97,0-1.62.65-1.62,1.62v15.87c0,.49.16.97.49,1.13.65.65,1.13,1.46,1.13,2.43s-.49,1.78-1.13,2.43c-.81.65-1.62.81-2.75.65-1.3-.16-2.43-1.3-2.59-2.59-.16-1.13.16-2.27.97-2.91.32-.32.49-.81.49-1.13v-35.3c0-.97-.65-1.62-1.62-1.62h-6.48c-2.75,0-4.86,2.1-4.86,4.86v7.77c0,.49.16.97.49,1.13.65.65,1.13,1.46,1.13,2.43s-.49,1.78-1.13,2.43c-.81.65-1.62.81-2.75.65-1.3-.16-2.43-1.3-2.59-2.59-.16-1.13.16-2.27.97-2.91.32-.32.49-.81.49-1.13v-7.77c0-4.53,3.56-8.1,8.1-8.1h6.48c.97,0,1.62-.65,1.62-1.62v-6.64c.49,0,1.13.16,1.62.16s1.13,0,1.62-.16v26.07c0,.97.65,1.62,1.62,1.62h6.96Zm-9.71-30.76c-4.53,0-8.1-3.56-8.1-8.1s3.56-8.1,8.1-8.1,8.1,3.56,8.1,8.1-3.56,8.1-8.1,8.1Zm4.86,21.05v-18.94c3.89-1.78,6.48-5.67,6.48-10.2,0-6.31-5.02-11.33-11.33-11.33s-11.33,5.02-11.33,11.33c0,4.53,2.59,8.42,6.48,10.2v5.99h-4.86c-6.31,0-11.33,5.02-11.33,11.33v1.62h-4.86v-12.95h3.24c.65,0,1.13-.32,1.46-.97.32-.65.16-1.3-.16-1.78l-8.1-9.71c-.65-.81-1.94-.81-2.43,0l-8.1,9.71c-.32.49-.49,1.13-.16,1.78.16.65.65.97,1.3.97h3.24v11.5c-4.86-2.43-8.1-7.45-8.1-13.11,0-8.1,6.48-14.57,14.57-14.57,1.62,0,3.08.16,4.53.65.49.16.97.16,1.46-.16s.65-.65.81-1.13c.97-11.66,10.69-20.4,22.34-20.4s21.37,8.74,22.51,20.4c0,.49.32.97.81,1.13.49.32.97.32,1.46.16,1.3-.49,2.75-.65,4.37-.65,8.1,0,14.57,6.48,14.57,14.57,0,5.67-3.24,10.69-8.1,13.11v-9.88c0-.97-.65-1.62-1.62-1.62h-6.48c-.97,0-1.62.65-1.62,1.62v11.33h-21.05Zm25.91,15.22l-4.7-5.51h1.46c.97,0,1.62-.65,1.62-1.62v-17.81h3.24v17.81c0,.97.65,1.62,1.62,1.62h1.46l-4.7,5.51Z"/>
  </g>
</svg>