<?xml version="1.0" encoding="UTF-8"?>
<svg id="Layer_1" data-name="Layer 1" xmlns="http://www.w3.org/2000/svg" xmlns:xlink="http://www.w3.org/1999/xlink" viewBox="0 0 101 101">
  <defs>
    <style>
      .cls-1 {
        fill: url(#New_Gradient_Swatch-2);
        opacity: .94;
      }

      .cls-1, .cls-2, .cls-3, .cls-4, .cls-5, .cls-6 {
        fill-rule: evenodd;
        isolation: isolate;
      }

      .cls-2 {
        fill: url(#New_Gradient_Swatch);
        opacity: .99;
      }

      .cls-3 {
        fill: url(#New_Gradient_Swatch-6);
      }

      .cls-3, .cls-4 {
        opacity: .95;
      }

      .cls-4 {
        fill: url(#New_Gradient_Swatch-3);
      }

      .cls-5 {
        fill: url(#New_Gradient_Swatch-4);
        opacity: .92;
      }

      .cls-6 {
        fill: url(#New_Gradient_Swatch-5);
        opacity: .95;
      }
    </style>
    <linearGradient id="New_Gradient_Swatch" data-name="New Gradient Swatch" x1="4.39" y1="52.72" x2="96.01" y2="52.72" gradientUnits="userSpaceOnUse">
      <stop offset="0" stop-color="#67447e"/>
      <stop offset=".2" stop-color="#3e224a"/>
      <stop offset=".89" stop-color="#34ad88"/>
      <stop offset="1" stop-color="#5eeaa7"/>
    </linearGradient>
    <linearGradient id="New_Gradient_Swatch-2" data-name="New Gradient Swatch" x1="12.97" y1="39.46" x2="51.57" y2="39.46" xlink:href="#New_Gradient_Swatch"/>
    <linearGradient id="New_Gradient_Swatch-3" data-name="New Gradient Swatch" x1="57.42" y1="25.39" x2="87.44" y2="25.39" xlink:href="#New_Gradient_Swatch"/>
    <linearGradient id="New_Gradient_Swatch-4" data-name="New Gradient Swatch" x1="23.38" y1="39.43" x2="41.18" y2="39.43" xlink:href="#New_Gradient_Swatch"/>
    <linearGradient id="New_Gradient_Swatch-5" data-name="New Gradient Swatch" x1="57.42" y1="39.44" x2="87.44" y2="39.44" xlink:href="#New_Gradient_Swatch"/>
    <linearGradient id="New_Gradient_Swatch-6" data-name="New Gradient Swatch" x1="57.42" y1="53.46" x2="87.44" y2="53.46" xlink:href="#New_Gradient_Swatch"/>
  </defs>
  <path class="cls-2" d="m7.52,11.59c28.46-.03,56.92,0,85.38.1,1.53.49,2.53,1.49,3.02,3.02.13,20.14.13,40.28,0,60.43-.49,1.53-1.49,2.53-3.02,3.02-10.27.1-20.53.13-30.8.1.42,4.29.88,8.58,1.36,12.86,1.82-.03,3.64,0,5.46.1.78.84.78,1.69,0,2.53-12.48.13-24.95.13-37.43,0-.78-.84-.78-1.69,0-2.53,1.82-.1,3.64-.13,5.46-.1.49-4.29.94-8.57,1.36-12.86-10.27.03-20.53,0-30.8-.1-1.3-.39-2.24-1.2-2.83-2.44-.32-20.33-.39-40.66-.19-61.01.52-1.53,1.53-2.57,3.02-3.12Zm1.36,2.73c27.82-.1,55.63,0,83.43.29.54.34.83.83.88,1.46.1,16.18.13,32.36.1,48.54H7.13c-.03-16.18,0-32.36.1-48.54.2-.94.75-1.53,1.66-1.75Zm-1.75,53.02h86.16c.08,2.42-.02,4.82-.29,7.21-.34.54-.83.83-1.46.88-27.55.13-55.1.13-82.65,0-.94-.16-1.49-.71-1.66-1.66-.1-2.14-.13-4.29-.1-6.43Zm34.31,10.92c5.85-.06,11.7,0,17.54.19.58,4.21,1.1,8.44,1.56,12.67h-20.66c.48-4.3,1-8.58,1.56-12.86Z"/>
  <path class="cls-1" d="m28.18,20.17c2.73-.03,5.46,0,8.19.1.16.16.32.32.49.49.03,1.3.13,2.6.29,3.9.76.3,1.51.62,2.24.97.81-.81,1.62-1.62,2.44-2.44.52-.13,1.04-.13,1.56,0,1.72,1.72,3.44,3.44,5.17,5.17.13.52.13,1.04,0,1.56l-2.44,2.44c.35.73.67,1.48.97,2.24,1.29.16,2.59.26,3.9.29.16.16.32.32.49.49.13,2.73.13,5.46,0,8.19-.16.16-.32.32-.49.49-1.3.03-2.6.13-3.9.29-.3.76-.62,1.51-.97,2.24l2.44,2.44c.13.52.13,1.04,0,1.56-1.72,1.72-3.44,3.44-5.17,5.17-.52.13-1.04.13-1.56,0-.81-.81-1.62-1.62-2.44-2.44-.73.35-1.48.67-2.24.97-.16,1.29-.26,2.59-.29,3.9-.16.16-.32.32-.49.49-2.73.13-5.46.13-8.19,0-.16-.16-.32-.32-.49-.49-.03-1.3-.13-2.6-.29-3.9-.76-.3-1.51-.62-2.24-.97-.81.81-1.62,1.62-2.44,2.44-.52.13-1.04.13-1.56,0-1.72-1.72-3.44-3.44-5.17-5.17-.13-.52-.13-1.04,0-1.56.81-.81,1.62-1.62,2.44-2.44-.35-.73-.67-1.48-.97-2.24-1.29-.16-2.59-.26-3.9-.29-.16-.16-.32-.32-.49-.49-.13-2.73-.13-5.46,0-8.19.16-.16.32-.32.49-.49,1.3-.03,2.6-.13,3.9-.29.3-.76.62-1.51.97-2.24-.81-.81-1.62-1.62-2.44-2.44-.13-.52-.13-1.04,0-1.56,1.72-1.72,3.44-3.44,5.17-5.17.52-.13,1.04-.13,1.56,0l2.44,2.44c.73-.35,1.48-.67,2.24-.97.16-1.29.26-2.59.29-3.9.2-.17.37-.37.49-.58Zm2.34,2.73c.03,1.11,0,2.21-.1,3.31-.15.35-.38.64-.68.88-1.65.48-3.24,1.1-4.78,1.85-.45-.08-.87-.24-1.27-.49l-1.85-1.85c-.81.81-1.62,1.62-2.44,2.44.62.62,1.23,1.23,1.85,1.85.25.39.41.81.49,1.27-.75,1.53-1.37,3.12-1.85,4.78-.26.39-.61.61-1.07.68-1.04.1-2.08.13-3.12.1v3.51c1.11-.03,2.21,0,3.31.1.35.15.64.38.88.68.48,1.65,1.1,3.24,1.85,4.78-.08.45-.24.87-.49,1.27-.62.62-1.23,1.23-1.85,1.85.81.81,1.62,1.62,2.44,2.44.62-.62,1.23-1.23,1.85-1.85.39-.25.81-.41,1.27-.49,1.54.75,3.13,1.37,4.78,1.85.3.24.53.53.68.88.1,1.1.13,2.21.1,3.31h3.51c-.03-1.11,0-2.21.1-3.31.15-.35.38-.64.68-.88,1.65-.48,3.24-1.1,4.78-1.85.45.08.87.24,1.27.49l1.85,1.85,2.44-2.44-1.85-1.85c-.25-.39-.41-.81-.49-1.27.75-1.54,1.37-3.13,1.85-4.78.26-.39.61-.61,1.07-.68,1.04-.1,2.08-.13,3.12-.1v-3.51c-1.11.03-2.21,0-3.31-.1-.35-.15-.64-.38-.88-.68-.49-1.65-1.1-3.24-1.85-4.78.08-.45.24-.87.49-1.27l1.85-1.85c-.81-.81-1.62-1.62-2.44-2.44-.62.62-1.23,1.23-1.85,1.85-.39.25-.81.41-1.27.49-1.53-.75-3.12-1.37-4.78-1.85-.3-.24-.53-.53-.68-.88-.1-1.1-.13-2.21-.1-3.31h-3.51Z"/>
  <path class="cls-4" d="m70.87,20.17c3.33-.55,5.6.72,6.82,3.8,3.05.06,6.11.13,9.16.19.78.84.78,1.69,0,2.53-3.05.06-6.11.13-9.16.19-1.41,3.33-3.88,4.5-7.41,3.51-1.53-.73-2.57-1.9-3.12-3.51-3.05-.06-6.11-.13-9.16-.19-.78-.84-.78-1.69,0-2.53,3.05-.06,6.11-.13,9.16-.19.34-.79.76-1.54,1.27-2.24.72-.7,1.53-1.22,2.44-1.56Zm.58,2.92c-.51.35-.94.81-1.27,1.36-.44,1.43-.01,2.5,1.27,3.22,1.43.44,2.5.01,3.22-1.27.35-2.47-.72-3.58-3.22-3.31Z"/>
  <path class="cls-5" d="m30.71,30.5c5.61-.33,9.08,2.2,10.43,7.6.36,5.42-2.08,8.83-7.31,10.23-5.61.43-9.09-2.07-10.43-7.5-.32-5.43,2.12-8.87,7.31-10.33Zm.39,2.92c-3.54,1.09-5.13,3.5-4.78,7.21,1.05,3.56,3.42,5.15,7.11,4.78,3.46-1.11,5.06-3.49,4.78-7.11-1.05-3.53-3.42-5.16-7.11-4.87Z"/>
  <path class="cls-6" d="m75.16,34.2c3.34-.55,5.55.75,6.63,3.9,1.69-.03,3.38,0,5.07.1.78.84.78,1.69,0,2.53-1.69.1-3.38.13-5.07.1-1.07,3.18-3.28,4.44-6.63,3.8-1.88-.58-3.12-1.82-3.7-3.7-4.48-.06-8.97-.13-13.45-.19-.78-.84-.78-1.69,0-2.53,4.48-.06,8.97-.13,13.45-.19.62-1.89,1.86-3.15,3.7-3.8Zm.58,2.92c-.93.53-1.45,1.34-1.56,2.44.81,2.39,2.28,2.88,4.39,1.46,1.02-2.7.08-4-2.83-3.9Z"/>
  <path class="cls-3" d="m70.87,48.24c3.33-.55,5.6.72,6.82,3.8,3.05.06,6.11.13,9.16.19.78.84.78,1.69,0,2.53-3.05.06-6.11.13-9.16.19-1.41,3.33-3.88,4.5-7.41,3.51-1.53-.73-2.57-1.9-3.12-3.51-3.05-.06-6.11-.13-9.16-.19-.78-.84-.78-1.69,0-2.53,3.05-.06,6.11-.13,9.16-.19.34-.79.76-1.54,1.27-2.24.72-.7,1.53-1.22,2.44-1.56Zm.58,2.92c-.51.35-.94.81-1.27,1.36-.44,1.43-.01,2.5,1.27,3.22,1.43.44,2.5.01,3.22-1.27.35-2.47-.72-3.58-3.22-3.31Z"/>
</svg>