<svg width="75" height="74" viewBox="0 0 75 74" fill="none" xmlns="http://www.w3.org/2000/svg">
<path d="M71.4844 37C71.4844 33.9937 69.1406 31.5656 66.2109 31.2187C65.5078 27.5187 63.9844 24.1656 61.875 20.9281C63.75 18.6156 63.75 15.2625 61.5234 13.1812C60.4688 12.1406 58.9453 11.5625 57.4219 11.5625C56.0156 11.5625 54.7266 12.025 53.6719 12.95C50.5078 10.8687 46.9922 9.48125 43.2422 8.67187C43.0078 5.78125 40.5469 3.46875 37.5 3.46875C34.4531 3.46875 31.9922 5.78125 31.6406 8.67187C27.8906 9.36562 24.4922 10.8687 21.2109 12.95C18.8672 11.1 15.4688 11.1 13.3594 13.2969C11.25 15.3781 11.1328 18.8469 13.0078 21.0437C10.8984 24.1656 9.49219 27.6344 8.67188 31.3344C5.85938 31.5656 3.51562 33.9937 3.51562 37C3.51562 40.0062 5.85938 42.4344 8.78906 42.7812C9.49219 46.4812 11.0156 49.8344 13.125 53.0719C11.25 55.3844 11.25 58.7375 13.4766 60.8187C14.6484 61.975 16.1719 62.5531 17.5781 62.5531C18.8672 62.5531 20.2734 62.0906 21.3281 61.1656C24.4922 63.2469 28.0078 64.6344 31.7578 65.4437C32.1094 68.3344 34.5703 70.6469 37.6172 70.6469C40.6641 70.6469 43.125 68.3344 43.4766 65.4437C47.2266 64.75 50.625 63.2469 53.9062 61.1656C54.9609 62.0906 56.25 62.5531 57.6562 62.5531C59.1797 62.5531 60.7031 61.975 61.7578 60.8187C63.8672 58.7375 63.9844 55.2687 62.1094 53.0719C64.2188 49.95 65.625 46.4812 66.4453 42.7812C69.1406 42.4344 71.4844 40.0062 71.4844 37ZM57.4219 50.875C56.25 50.875 55.1953 51.2219 54.1406 51.8L51.5625 49.2562C54.2578 46.25 55.8984 42.4344 56.25 38.1562H60C60.4688 40.2375 61.9922 41.8562 63.9844 42.4344C63.2812 45.6719 61.9922 48.6781 60.2344 51.4531C59.2969 51.1062 58.3594 50.875 57.4219 50.875ZM38.6719 59.0844V55.3844C43.0078 55.1531 46.875 53.4187 49.9219 50.7594L52.6172 53.4187C51.4453 55.1531 51.3281 57.35 52.2656 59.2C49.4531 61.05 46.4062 62.3219 43.125 62.9C42.4219 61.05 40.7812 59.5469 38.6719 59.0844ZM31.9922 63.0156C28.7109 62.3219 25.6641 61.05 22.8516 59.3156C23.7891 57.4656 23.6719 55.2687 22.5 53.5344L25.1953 50.875C28.2422 53.5344 32.1094 55.1531 36.4453 55.5V59.2C34.2188 59.5469 32.5781 61.05 31.9922 63.0156ZM14.8828 51.5687C13.0078 48.7937 11.7188 45.7875 11.1328 42.55C13.125 41.9719 14.6484 40.2375 15.1172 38.2719H18.8672C19.1016 42.55 20.8594 46.3656 23.5547 49.3719L20.8594 52.0312C19.1016 50.6437 16.7578 50.6437 14.8828 51.5687ZM17.5781 23.125C18.75 23.125 19.8047 22.7781 20.8594 22.2L23.5547 24.8594C20.8594 27.8656 19.2188 31.6812 18.8672 35.9594H15.1172C14.6484 33.8781 13.125 32.2594 11.1328 31.6812C11.8359 28.4437 13.125 25.4375 14.8828 22.6625C15.8203 22.8937 16.6406 23.125 17.5781 23.125ZM36.3281 14.9156V18.6156C31.9922 18.8469 28.125 20.5812 25.0781 23.2406L22.3828 20.5812C23.5547 18.8469 23.6719 16.65 22.7344 14.8C25.5469 12.95 28.5938 11.6781 31.875 11.1C32.5781 12.95 34.2188 14.4531 36.3281 14.9156ZM43.0078 10.9844C46.2891 11.6781 49.3359 12.95 52.1484 14.6844C51.2109 16.5344 51.3281 18.7312 52.5 20.4656L49.9219 23.125C46.875 20.4656 43.0078 18.8469 38.6719 18.5V14.8C40.7812 14.4531 42.4219 12.95 43.0078 10.9844ZM60.1172 22.4312C61.9922 25.2062 63.2812 28.2125 63.8672 31.45C61.875 32.0281 60.3516 33.7625 59.8828 35.7281H56.1328C55.8984 31.45 54.1406 27.6344 51.4453 24.6281L54.1406 21.9688C55.1953 22.7781 56.25 23.125 57.4219 23.125C58.3594 23.125 59.2969 22.8937 60.1172 22.4312ZM37.5 53.1875C36.2109 53.1875 34.5703 50.4125 33.6328 45.5562C34.9219 45.2094 36.2109 45.0937 37.5 45.0937C38.7891 45.0937 40.0781 45.325 41.3672 45.5562C40.4297 50.4125 38.7891 53.1875 37.5 53.1875ZM37.5 42.7812C36.0938 42.7812 34.5703 43.0125 33.2812 43.2437C33.0469 41.7406 32.9297 40.0062 32.9297 38.1562H42.3047C42.3047 40.0062 42.0703 41.7406 41.9531 43.2437C40.4297 43.0125 38.9062 42.7812 37.5 42.7812ZM32.8125 35.8438C32.8125 33.9937 33.0469 32.2594 33.1641 30.7562C34.5703 31.1031 35.9766 31.2187 37.3828 31.2187C38.7891 31.2187 40.3125 30.9875 41.6016 30.7562C41.8359 32.2594 41.9531 33.9937 41.9531 35.8438H32.8125ZM37.5 28.9062C36.2109 28.9062 34.9219 28.675 33.6328 28.4437C34.5703 23.5875 36.2109 20.8125 37.5 20.8125C38.7891 20.8125 40.4297 23.5875 41.3672 28.4437C40.0781 28.675 38.7891 28.9062 37.5 28.9062ZM41.3672 21.275C43.9453 21.8531 46.2891 23.125 48.2812 24.8594C46.875 26.1312 45.3516 27.0562 43.5938 27.75C43.125 25.2062 42.4219 22.8937 41.3672 21.275ZM31.4062 27.75C29.7656 27.0562 28.125 26.1312 26.7188 24.8594C28.7109 23.125 31.0547 21.9688 33.6328 21.275C32.5781 22.8937 31.875 25.2062 31.4062 27.75ZM25.0781 26.4781C26.8359 27.9812 28.8281 29.2531 30.9375 30.0625C30.7031 31.9125 30.4688 33.8781 30.4688 35.8438H21.0938C21.4453 32.2594 22.8516 29.0219 25.0781 26.4781ZM30.4688 38.1562C30.4688 40.1219 30.7031 42.0875 30.9375 43.9375C28.8281 44.7469 26.8359 45.9031 25.0781 47.5219C22.8516 44.9781 21.4453 41.7406 21.2109 38.1562H30.4688ZM31.4062 46.25C31.875 48.7937 32.6953 51.1062 33.6328 52.725C31.0547 52.1469 28.7109 50.875 26.7188 49.1406C28.125 47.8687 29.6484 46.9437 31.4062 46.25ZM43.5938 46.25C45.2344 46.9437 46.875 47.8687 48.2812 49.1406C46.2891 50.875 43.9453 52.0312 41.3672 52.725C42.4219 51.1062 43.125 48.7937 43.5938 46.25ZM49.9219 47.5219C48.1641 46.0187 46.1719 44.7469 44.0625 43.9375C44.2969 42.0875 44.5312 40.1219 44.5312 38.1562H53.9062C53.5547 41.7406 52.1484 44.9781 49.9219 47.5219ZM44.5312 35.8438C44.5312 33.8781 44.2969 31.9125 44.0625 30.0625C46.1719 29.2531 48.1641 28.0969 49.9219 26.4781C52.1484 29.0219 53.5547 32.2594 53.7891 35.8438H44.5312ZM69.1406 37C69.1406 38.9656 67.6172 40.4688 65.625 40.4688C63.6328 40.4688 62.1094 38.9656 62.1094 37C62.1094 35.0344 63.6328 33.5312 65.625 33.5312C67.6172 33.5312 69.1406 35.0344 69.1406 37ZM59.8828 14.9156C60.5859 15.6094 60.9375 16.4187 60.9375 17.3437C60.9375 18.2687 60.5859 19.1937 59.8828 19.7719C58.5938 21.0437 56.25 21.0437 54.9609 19.7719C54.2578 19.1937 53.9062 18.2687 53.9062 17.3437C53.9062 16.4187 54.2578 15.4937 54.9609 14.9156C55.6641 14.2219 56.4844 13.875 57.4219 13.875C58.3594 13.875 59.2969 14.2219 59.8828 14.9156ZM37.5 5.78125C39.4922 5.78125 41.0156 7.28437 41.0156 9.25C41.0156 11.2156 39.4922 12.7188 37.5 12.7188C35.5078 12.7188 33.9844 11.2156 33.9844 9.25C33.9844 7.28437 35.5078 5.78125 37.5 5.78125ZM15.1172 14.9156C15.8203 14.2219 16.7578 13.875 17.5781 13.875C18.5156 13.875 19.3359 14.2219 20.0391 14.9156C21.4453 16.3031 21.4453 18.5 20.0391 19.7719C18.6328 21.1594 16.4062 21.1594 15.1172 19.7719C13.7109 18.5 13.7109 16.1875 15.1172 14.9156ZM5.85938 37C5.85938 35.0344 7.38281 33.5312 9.375 33.5312C11.3672 33.5312 12.8906 35.0344 12.8906 37C12.8906 38.9656 11.3672 40.4688 9.375 40.4688C7.38281 40.4688 5.85938 38.9656 5.85938 37ZM15.1172 59.0844C13.7109 57.6969 13.7109 55.5 15.1172 54.2281C16.5234 52.8406 18.75 52.8406 20.0391 54.2281C21.4453 55.6156 21.4453 57.8125 20.0391 59.0844C18.75 60.4719 16.4062 60.4719 15.1172 59.0844ZM37.5 68.2188C35.5078 68.2188 33.9844 66.7156 33.9844 64.75C33.9844 62.7844 35.5078 61.2812 37.5 61.2812C39.4922 61.2812 41.0156 62.7844 41.0156 64.75C41.0156 66.7156 39.4922 68.2188 37.5 68.2188ZM59.8828 59.0844C58.5938 60.3562 56.25 60.3562 54.9609 59.0844C54.2578 58.5062 53.9062 57.5812 53.9062 56.6562C53.9062 55.7312 54.2578 54.8062 54.9609 54.2281C55.6641 53.5344 56.4844 53.1875 57.4219 53.1875C58.3594 53.1875 59.2969 53.5344 59.8828 54.2281C60.5859 54.9219 60.9375 55.7312 60.9375 56.6562C60.9375 57.5812 60.5859 58.5062 59.8828 59.0844Z" fill="black"/>
</svg>
