<?xml version="1.0" encoding="UTF-8"?>
<svg id="Layer_1" data-name="Layer 1" xmlns="http://www.w3.org/2000/svg" xmlns:xlink="http://www.w3.org/1999/xlink" viewBox="0 0 101 101">
  <defs>
    <style>
      .cls-1 {
        fill: url(#New_Gradient_Swatch);
      }
    </style>
    <linearGradient id="New_Gradient_Swatch" data-name="New Gradient Swatch" x1="51.14" y1="4.54" x2="51.14" y2="95.75" gradientTransform="translate(0 101.28) scale(1 -1)" gradientUnits="userSpaceOnUse">
      <stop offset="0" stop-color="#67447e"/>
      <stop offset=".2" stop-color="#3e224a"/>
      <stop offset=".89" stop-color="#34ad88"/>
      <stop offset="1" stop-color="#5eeaa7"/>
    </linearGradient>
  </defs>
  <g id="_09_Budget" data-name="09 Budget">
    <path class="cls-1" d="m12.07,96.73h78.61c3.14,0,5.69-2.55,5.69-5.69v-47.51c0-3.13-2.55-5.67-5.69-5.67h-12.71V11.68c0-3.4-2.76-6.16-6.16-6.16H23.75c-.24,0-.53.14-.67.28C-.08,28.96,7.92,20.96,6.19,22.7c-.17.17-.28.47-.28.68v67.2c0,3.4,2.76,6.16,6.16,6.16h0Zm11.26-1.9c-.71,0-1.29-.57-1.29-1.28v-3.5c0-.7.58-1.28,1.29-1.28h17.33c.7,0,1.28.57,1.28,1.28v3.5c0,.7-.57,1.28-1.28,1.28h-17.33Zm1.42-17.18v-3.5c0-.7.58-1.28,1.29-1.28h17.33c.7,0,1.28.57,1.28,1.28v3.5c0,.7-.57,1.28-1.28,1.28h-17.33c-.71,0-1.29-.57-1.29-1.28Zm10.64,3.18c.7,0,1.28.57,1.28,1.28v3.5c0,.7-.57,1.28-1.28,1.28h-17.33c-.71,0-1.29-.57-1.29-1.28v-3.5c0-.7.58-1.28,1.29-1.28h17.33Zm59.08-37.29v47.51c0,2.09-1.7,3.79-3.79,3.79h-35.48c-2.09,0-3.78-1.7-3.78-3.78v-47.51c0-2.07,1.68-3.77,3.78-3.77h35.49c2.09,0,3.79,1.69,3.79,3.77h0Zm-18.4-31.86v26.18h-20.87c-3.13,0-5.69,2.54-5.69,5.68v47.51c0,1.44.57,2.8,1.45,3.79h-7.4c.17-.39.27-.82.27-1.28v-3.5c0-1.75-1.43-3.18-3.18-3.18h-2.37c.17-.39.27-.82.27-1.28v-3.5c0-.45-.1-.89-.27-1.28h5.08c1.75,0,3.18-1.43,3.18-3.18v-3.5c0-1.75-1.43-3.18-3.18-3.18h-17.33c-1.76,0-3.19,1.43-3.19,3.18v3.5c0,.45.1.89.27,1.28h-5.07c-1.76,0-3.19,1.43-3.19,3.18v3.5c0,1.75,1.43,3.18,3.19,3.18h2.36c-.17.39-.27.82-.27,1.28v3.5c0,.45.1.89.27,1.28h-8.34c-2.35,0-4.26-1.91-4.26-4.26V24.32h10.73c3.4,0,6.16-2.76,6.16-6.16V7.42h47.11c2.35,0,4.26,1.91,4.26,4.26h0Zm-53.27-2.91v9.39c0,2.35-1.91,4.26-4.26,4.26h-9.39c1.4-1.4-5.05,5.06,13.64-13.65Zm11.35,7.15c0-.52.42-.95.95-.95h33.76c.53,0,.95.43.95.95s-.42.95-.95.95h-33.76c-.53,0-.95-.43-.95-.95Zm0,7.45c0-.52.42-.95.95-.95h33.76c.53,0,.95.43.95.95s-.42.95-.95.95h-33.76c-.53,0-.95-.43-.95-.95Zm46.51,68.61c0,.52-.42.95-.95.95h-13.53c-.53,0-.95-.43-.95-.95s.42-.95.95-.95h13.53c.53,0,.95.43.95.95Zm-25.56-33.36c0,1.33,1.08,2.41,2.41,2.41h30.87c1.33,0,2.41-1.08,2.41-2.41v-12.75c0-1.33-1.08-2.41-2.41-2.41h-30.87c-1.33,0-2.41,1.08-2.41,2.41v12.75Zm1.9-12.75c0-.28.23-.51.51-.51h30.87c.28,0,.51.23.51.51v12.75c0,.28-.23.51-.51.51h-30.87c-.28,0-.51-.23-.51-.51v-12.75Zm5.74,18.29h-5.23c-1.33,0-2.41,1.08-2.41,2.41v5.23c0,1.33,1.08,2.41,2.41,2.41h5.23c1.33,0,2.41-1.08,2.41-2.41v-5.23c0-1.33-1.08-2.41-2.41-2.41Zm.51,7.64c0,.28-.23.51-.51.51h-5.23c-.28,0-.51-.23-.51-.51v-5.23c0-.28.23-.51.51-.51h5.23c.28,0,.51.23.51.51v5.23Zm7.08,2.41h5.23c1.33,0,2.41-1.08,2.41-2.41v-5.23c0-1.33-1.08-2.41-2.41-2.41h-5.23c-1.33,0-2.41,1.08-2.41,2.41v5.23c0,1.33,1.08,2.41,2.41,2.41Zm-.51-7.64c0-.28.23-.51.51-.51h5.23c.28,0,.51.23.51.51v5.23c0,.28-.23.51-.51.51h-5.23c-.28,0-.51-.23-.51-.51v-5.23Zm18.56-2.41h-5.23c-1.33,0-2.41,1.08-2.41,2.41v18.41c0,1.33,1.08,2.41,2.41,2.41h5.23c1.33,0,2.41-1.08,2.41-2.41v-18.41c0-1.33-1.08-2.41-2.41-2.41Zm.51,20.82c0,.28-.23.51-.51.51h-5.23c-.28,0-.51-.23-.51-.51v-18.41c0-.28.23-.51.51-.51h5.23c.28,0,.51.23.51.51v18.41Zm-26.15-7.64h-5.23c-1.33,0-2.41,1.08-2.41,2.41v5.23c0,1.33,1.08,2.41,2.41,2.41h5.23c1.33,0,2.41-1.08,2.41-2.41v-5.23c0-1.33-1.08-2.41-2.41-2.41h0Zm.51,7.64c0,.28-.23.51-.51.51h-5.23c-.28,0-.51-.23-.51-.51v-5.23c0-.28.23-.51.51-.51h5.23c.28,0,.51.23.51.51v5.23Zm4.66,0c0,1.33,1.08,2.41,2.41,2.41h5.23c1.33,0,2.41-1.08,2.41-2.41v-5.23c0-1.33-1.08-2.41-2.41-2.41h-5.23c-1.33,0-2.41,1.08-2.41,2.41v5.23Zm1.9-5.23c0-.28.23-.51.51-.51h5.23c.28,0,.51.23.51.51v5.23c0,.28-.23.51-.51.51h-5.23c-.28,0-.51-.23-.51-.51v-5.23ZM27.89,38.96v-2.52c0-.52.42-.95.95-.95s.95.43.95.95v2.52h5.76c.53,0,.95.43.95.95s-.42.95-.95.95h-8.87c-1.99,0-3.6,1.62-3.6,3.6s1.62,3.6,3.6,3.6h4.31c3.03,0,5.5,2.47,5.5,5.5s-2.47,5.5-5.5,5.5h-1.21v2.52c0,.52-.42.95-.95.95s-.95-.43-.95-.95v-2.52h-5.76c-.53,0-.95-.43-.95-.95s.42-.95.95-.95h8.87c1.99,0,3.6-1.62,3.6-3.6s-1.62-3.6-3.6-3.6h-4.31c-3.03,0-5.5-2.47-5.5-5.5s2.47-5.5,5.5-5.5h1.21Z"/>
  </g>
</svg>