<svg id="Layer_1" enable-background="new 0 0 512 512" viewBox="0 0 512 512" xmlns="http://www.w3.org/2000/svg" xmlns:xlink="http://www.w3.org/1999/xlink"><linearGradient id="SVGID_1_" gradientUnits="userSpaceOnUse" x1="38.604" x2="518.418" y1="519.57" y2="39.756"><stop offset="0" stop-color="#8c42f4"/><stop offset="0" stop-color="#8649f4"/><stop offset="0" stop-color="#844bf4"/><stop offset=".1561" stop-color="#6f65f4"/><stop offset=".3714" stop-color="#5782f4"/><stop offset=".5856" stop-color="#4796f4"/><stop offset=".7965" stop-color="#3ca3f4"/><stop offset="1" stop-color="#39a7f4"/></linearGradient><path d="m485.1 15.9h-57.5c-2.3-8.7-9.2-14.9-17.6-14.9h-138.4c-8.4 0-15.3 6.2-17.5 14.9h-57.4c-14.1 0-25.6 13.2-25.6 29.4v9.9c-9.4-4.8-19.4-8.5-30-10.7-140-24.5-196.6 166.5-66.4 222.3l-13.5 65.4c-8.5-2.7-18.3 2.6-20 11.6 0 0-28.8 139.9-28.8 139.9-1.7 8.3 3.6 16.4 11.9 18.1l43.3 8.9c8.1 1.7 16.4-3.6 18.1-11.9l28.8-139.9c2-8.9-4.9-17.7-13.8-18.5l13.4-65.3c20 .9 39.8-4.2 56.9-13.1v219c0 16.2 11.5 29.4 25.6 29.4h288.4c14.1 0 25.5-13.2 25.5-29.4v-435.7c.1-16.2-11.4-29.4-25.4-29.4zm-220.6 22.5c0-5.6 0-11.2 0-16.8.1-5.2 3.3-9.3 7.1-9.3h138.4c3.8 0 7 4.2 7.2 9.3.2 8 .1 16 0 24-.4 14.3-22 9.4-31 9.4-37.9-.1-75.9.2-113.8 0-8.7-.4-7.9-10.5-7.9-16.6zm7.1 27.8h138.4c8.7-.1 15.6-7 17.7-15.2h3.7v29.1c0 4.2-2.5 7.7-5.6 7.7h-170c-3 0-5.6-3.5-5.6-7.7v-29s3.7 0 3.7.1c2.7 7.6 9 14.9 17.7 15zm134.4 304.1c-3.1 0-5.6 2.5-5.6 5.6v69.4h-194.2v-211.1c36.7-41.8 36.9-109.3 0-151v-32.1h32.7v29.1c0 10.5 7.5 19 16.8 19h170.1c9.3 0 16.8-8.5 16.8-19v-29.1h32.7v319.2zm61.4 11.3-55.8 55.8v-55.8zm-285.1-336.3c0-10 6.4-18.2 14.4-18.2h56.6v.9c-6 1-10.9 5.6-13.1 11.8h-39.6c-3.1 0-5.6 2.5-5.6 5.6v26.2c-4-3.6-8.2-6.8-12.7-9.9zm-107.6 451.2c-.5 2.2-2.6 3.6-4.8 3.2l-43.3-8.9c-2.2-.5-3.6-2.6-3.2-4.8l11.2-54.6 51.2 10.5zm18.6-90.5-5.1 24.8-51.2-10.5 7.4-35.7 51.2 10.5zm9.6-52.5c.6.9.8 2 .6 3.1l-5.7 27.5-51.2-10.5 5.7-27.5c.4-2.2 2.7-3.7 4.8-3.2l43.3 8.9c1 .2 1.9.8 2.5 1.7zm-13.2-15.5-16.8-3.5-.6-.1 13.2-63.9c5.7 1.6 11.5 2.8 17.4 3.6zm20.4-75.1c-61.9-2.4-108.9-64.7-95.6-125.5 29.9-123.6 204-104.8 208.2 21 1.1 60.9-54 109.5-112.6 104.5zm389.2 218.1c0 10-6.4 18.1-14.2 18.1h-288.5c-7.9 0-14.4-8.1-14.4-18.1v-225.6c4.4-2.9 8.7-6.2 12.7-9.8v205.3c0 3.1 2.5 5.6 5.6 5.6h205.5c1.5 0 2.9-.6 4-1.6l75-75c1.1-1.1 1.5-2.5 1.6-4v-330.5c0-3.1-2.5-5.6-5.6-5.6h-39.5c-2.2-6.2-7.1-10.7-13-11.8v-.9h56.6c7.9 0 14.2 8.2 14.2 18.2zm-260.4-290.2v-45.9c0-6.4 5.2-11.6 11.6-11.6h40c7.4 0 7.3 11.2 0 11.3h-40l-.4 46.2 46.2.4s.4-17.9.4-17.9c0-7.4 11.2-7.4 11.3 0v17.6c0 6.4-5.2 11.6-11.6 11.6h-45.9c-6.3-.1-11.6-5.3-11.6-11.7zm78.2-46.9-39.6 39.6c-2.2 2.3-6.4 2.1-8.4-.4 0 0-14.6-17.9-14.6-17.9-4.6-5.7 4.1-12.8 8.7-7.1l10.6 13.1 35.2-35.2c5.3-5.3 13.2 2.7 8.1 7.9zm-78.2 148v-45.9c0-6.4 5.2-11.6 11.6-11.6h40c7.4 0 7.3 11.2 0 11.3h-40l-.4 46.2 46.2.4s.4-17.9.4-17.9c0-7.4 11.2-7.4 11.3 0v17.6c0 6.4-5.2 11.6-11.6 11.6h-45.9c-6.3 0-11.6-5.3-11.6-11.7zm78.2-46.8-39.6 39.6c-2.2 2.3-6.4 2.1-8.4-.4 0 0-14.6-17.9-14.6-17.9-4.6-5.7 4.1-12.8 8.7-7.1l10.6 13.1 35.2-35.2c5.3-5.3 13.2 2.7 8.1 7.9zm-9 130.4v17.6c0 6.4-5.2 11.6-11.6 11.6h-45.9c-6.4 0-11.6-5.2-11.6-11.6v-45.9c0-6.4 5.2-11.6 11.6-11.6h40c7.4 0 7.4 11.2 0 11.3h-40l-.4 46.2 46.2.4.4-17.9c0-3.1 2.5-5.6 5.6-5.6 3.1-.1 5.7 2.4 5.7 5.5zm9-29.3-39.6 39.6c-2.2 2.3-6.4 2.1-8.4-.4 0 0-14.6-17.9-14.6-17.9-4.6-5.7 4.1-12.8 8.7-7.1l10.6 13.1 35.2-35.2c5.3-5.2 13.2 2.7 8.1 7.9zm31.9-197.9h59.5c7.4 0 7.3 11.2 0 11.3 0 0-15.5 0-30.7 0-14.6 0-28.9 0-28.9 0-7.3-.1-7.3-11.3.1-11.3zm100.1 33.5c0 3.1-2.5 5.6-5.6 5.6h-94.5c-3.1 0-5.6-2.5-5.6-5.6s2.5-5.6 5.6-5.6h94.5c3.1 0 5.6 2.5 5.6 5.6zm-100.1 67.6h59.5c7.4 0 7.3 11.2 0 11.3 0 0-15.5 0-30.7 0-14.6 0-28.9 0-28.9 0-7.3-.1-7.3-11.3.1-11.3zm94.5 39.2h-94.5c-7.4 0-7.3-11.2 0-11.3h94.5c7.4.1 7.4 11.3 0 11.3zm-373.8-202.6c-63.7 42.2-45.2 142.8 30.3 157.8 51.5 11.4 102.4-29.7 104.3-81.3 4.6-69.6-77-115.1-134.6-76.5zm122.3 86.5c-7.7 41.5-48.3 68.9-89.7 60.3-44.1-8-71.2-57.2-56.1-98.9 8.7-25.8 31.7-45.2 58.4-49.9 51.2-9 96.9 37.6 87.4 88.5z" fill="url(#SVGID_1_)"/></svg>