<svg id="Layer_1" enable-background="new 0 0 491.5 491.5" height="512" viewBox="0 0 491.5 491.5" width="512" xmlns="http://www.w3.org/2000/svg" xmlns:xlink="http://www.w3.org/1999/xlink"><linearGradient id="Layer_x0020_1_1_" gradientUnits="userSpaceOnUse" x1="245.76" x2="245.76" y1="25.91" y2="465.61"><stop offset="0" stop-color="#f704fe"/><stop offset="1" stop-color="#24bce3"/></linearGradient><path id="Layer_x0020_1" d="m94 393.3c1.2 0 2.5.5 3.4 1.4 39.7 39.5 92.4 61.3 148.4 61.3 114.3 0 207.6-91.7 210.2-205.4h-37.3c-2.6 93.1-79.1 168.1-172.8 168.1-46 0-89.3-17.9-121.9-50.3-.9-.9-1.4-2.1-1.4-3.4s.5-2.5 1.4-3.4l15.5-15.5-74.3-10.2 10.2 74.3 15.5-15.5c.6-.9 1.9-1.4 3.1-1.4zm151.8 72.3c-57 0-110.6-21.5-151.7-60.7l-19 18.9c-1.3 1.3-3.2 1.7-4.9 1.2-1.7-.6-3-2.1-3.2-3.9l-12.4-90.2c-.2-1.5.3-3 1.4-4 1.1-1.1 2.6-1.6 4-1.4l90.2 12.4c1.8.2 3.3 1.5 3.9 3.2s.1 3.6-1.2 4.9l-18.9 18.9c30.4 28.5 69.9 44.2 111.7 44.2 90.1 0 163.3-73.3 163.3-163.3 0-2.7 2.1-4.8 4.8-4.8h46.9c2.7 0 4.8 2.2 4.8 4.8 0 58.7-22.9 113.9-64.4 155.5-41.4 41.4-96.6 64.3-155.3 64.3zm-210.2-224.6h37.3c2.6-93.2 79.1-168.1 172.9-168.1 46 0 89.3 17.9 121.9 50.3.9.9 1.4 2.1 1.4 3.4s-.5 2.5-1.4 3.4l-15.5 15.5 74.3 10.2-10.2-74.3-15.5 15.5c-1.9 1.9-4.9 1.9-6.8 0-39.7-39.5-92.4-61.3-148.4-61.3-114.2-.1-207.5 91.6-210 205.4zm42 9.6h-46.9c-2.7 0-4.8-2.1-4.8-4.8 0-58.7 22.9-113.9 64.4-155.5 41.5-41.5 96.7-64.4 155.5-64.4 57 0 110.6 21.5 151.7 60.7l19-19c1.3-1.3 3.2-1.7 4.9-1.2 1.7.6 3 2.1 3.2 3.9l12.4 90.2c.2 1.5-.3 3-1.4 4-1.1 1.1-2.6 1.6-4 1.4l-90.2-12.4c-1.8-.2-3.3-1.5-3.9-3.2s-.1-3.6 1.2-4.9l18.9-18.9c-30.4-28.5-69.9-44.2-111.7-44.2-90.1 0-163.3 73.3-163.3 163.3-.2 2.8-2.3 5-5 5zm198-86c-7.4 14.5-17.7 31.5-27.7 48-10.9 17.9-21.2 34.8-27.5 48.2-8.9 18.6-8.4 37.9 1.5 54.4 11 18.3 32.1 30.9 53.8 32 21.7-1.1 42.8-13.7 53.8-32 9.9-16.5 10.4-35.8 1.5-54.4-6.4-13.4-16.7-30.3-27.5-48.2-10.2-16.5-20.5-33.5-27.9-48zm0 192.3c-.1 0-.2 0-.2 0-24.9-1.2-49.2-15.6-61.8-36.7-11.6-19.3-12.2-41.9-1.9-63.5 6.6-13.8 17-30.9 28-49 12.1-19.9 24.6-40.5 31.5-56.1.8-1.7 2.5-2.9 4.4-2.9s3.6 1.1 4.4 2.9c7 15.7 19.5 36.3 31.5 56.1 11 18.1 21.4 35.2 28 49 10.3 21.6 9.6 44.1-1.9 63.5-12.6 21.1-36.9 35.5-61.8 36.7 0 0-.1 0-.2 0zm34.6-46.1c-.9 0-1.8-.2-2.6-.7-2.2-1.4-2.9-4.4-1.5-6.6 6-9.5 6.3-20 1-31.2-1.6-3.4-3.5-7-5.5-10.8-1.3-2.3-.4-5.2 1.9-6.5s5.2-.4 6.5 1.9c2.1 4 4 7.7 5.7 11.2 6.8 14.2 6.2 28.2-1.5 40.5-.9 1.4-2.4 2.2-4 2.2zm-112.7-22.9c-.1 0-.2 0-.2 0-18.5-.9-36.4-11.6-45.8-27.2-8.6-14.4-9.1-31.1-1.4-47.2 4.8-10.1 12.3-22.5 20.3-35.6 8.7-14.4 17.7-29.2 22.7-40.5.8-1.7 2.5-2.9 4.4-2.9 1.9 0 3.6 1.1 4.4 2.9 5 11.3 14 26.1 22.7 40.5 7.9 13.1 15.4 25.4 20.2 35.4 1.1 2.4.1 5.3-2.3 6.4s-5.3.1-6.4-2.3c-4.6-9.6-12-21.7-19.8-34.6-6.8-11.1-13.7-22.5-18.9-32.5-5.2 10-12.2 21.4-18.9 32.5-7.8 12.9-15.3 25.1-19.9 34.7-8 16.7-3.8 30 1 38.1 7.7 12.9 22.5 21.7 37.8 22.5 3.5-.2 7.1-.8 10.6-1.9 2.5-.8 5.2.7 6 3.2s-.7 5.2-3.2 6c-4.3 1.3-8.8 2.1-13.2 2.3.1.2 0 .2-.1.2zm-15.8-29.9c-1.1 0-2.2-.4-3.1-1.1-9.8-8.3-12.5-21.3-6.9-33 2.4-5 5.1-10.2 8.4-16 1.3-2.3 4.3-3.1 6.6-1.8s3.1 4.2 1.8 6.6c-3.2 5.6-5.8 10.6-8.1 15.3-3.7 7.7-1.9 16.1 4.5 21.5 2 1.7 2.3 4.7.6 6.8-1 1.1-2.4 1.7-3.8 1.7z" fill="url(#Layer_x0020_1_1_)"/></svg>