<?xml version="1.0" encoding="UTF-8"?>
<svg id="Layer_1" data-name="Layer 1" xmlns="http://www.w3.org/2000/svg" xmlns:xlink="http://www.w3.org/1999/xlink" viewBox="0 0 101 101">
  <defs>
    <style>
      .cls-1 {
        fill: url(#New_Gradient_Swatch-3);
      }

      .cls-1, .cls-2 {
        opacity: .94;
      }

      .cls-1, .cls-2, .cls-3, .cls-4, .cls-5, .cls-6, .cls-7, .cls-8 {
        fill-rule: evenodd;
        isolation: isolate;
      }

      .cls-2 {
        fill: url(#New_Gradient_Swatch-6);
      }

      .cls-3 {
        fill: url(#New_Gradient_Swatch-5);
        opacity: .93;
      }

      .cls-4 {
        fill: url(#New_Gradient_Swatch-7);
      }

      .cls-4, .cls-8 {
        opacity: .93;
      }

      .cls-5 {
        fill: url(#New_Gradient_Swatch-8);
        opacity: .92;
      }

      .cls-6 {
        fill: url(#New_Gradient_Swatch-2);
      }

      .cls-6, .cls-7 {
        opacity: .94;
      }

      .cls-7 {
        fill: url(#New_Gradient_Swatch-4);
      }

      .cls-8 {
        fill: url(#New_Gradient_Swatch);
      }
    </style>
    <linearGradient id="New_Gradient_Swatch" data-name="New Gradient Swatch" x1="9.68" y1="26.8" x2="91.5" y2="26.8" gradientUnits="userSpaceOnUse">
      <stop offset="0" stop-color="#67447e"/>
      <stop offset=".2" stop-color="#3e224a"/>
      <stop offset=".89" stop-color="#34ad88"/>
      <stop offset="1" stop-color="#5eeaa7"/>
    </linearGradient>
    <linearGradient id="New_Gradient_Swatch-2" data-name="New Gradient Swatch" x1="32.25" y1="62.31" x2="53.98" y2="62.31" xlink:href="#New_Gradient_Swatch"/>
    <linearGradient id="New_Gradient_Swatch-3" data-name="New Gradient Swatch" x1="8.85" y1="75.19" x2="51.64" y2="75.19" xlink:href="#New_Gradient_Swatch"/>
    <linearGradient id="New_Gradient_Swatch-4" data-name="New Gradient Swatch" x1="75.29" y1="75.51" x2="78.91" y2="75.51" xlink:href="#New_Gradient_Swatch"/>
    <linearGradient id="New_Gradient_Swatch-5" data-name="New Gradient Swatch" x1="82.53" y1="81.37" x2="86.15" y2="81.37" xlink:href="#New_Gradient_Swatch"/>
    <linearGradient id="New_Gradient_Swatch-6" data-name="New Gradient Swatch" x1="68.04" y1="81.79" x2="71.66" y2="81.79" xlink:href="#New_Gradient_Swatch"/>
    <linearGradient id="New_Gradient_Swatch-7" data-name="New Gradient Swatch" x1="89.56" y1="87.44" x2="93.18" y2="87.44" xlink:href="#New_Gradient_Swatch"/>
    <linearGradient id="New_Gradient_Swatch-8" data-name="New Gradient Swatch" x1="61.01" y1="90.42" x2="64.63" y2="90.42" xlink:href="#New_Gradient_Swatch"/>
  </defs>
  <path class="cls-8" d="m38.66,4.56h3.84c5.2,1.62,7.58,5.17,7.14,10.65-.34,1.85-1.16,3.45-2.45,4.79,3.35,3.7,6.61,7.47,9.8,11.29,1.33-.21,2.68-.38,4.05-.53,1.4.05,2.72.4,3.94,1.07,3.4-4.04,6.88-8.02,10.44-11.93-.79-1.23-1.43-2.58-1.92-4.05-.83-5.74,1.48-9.5,6.92-11.29h4.05c5.27,1.8,7.58,5.5,6.92,11.08-1.35,4.44-4.33,6.78-8.95,7.03-1.29.04-2.53-.17-3.73-.64-.4.08-.72.29-.96.64-3.22,3.86-6.53,7.66-9.91,11.4,2.95,4.19,2.8,8.27-.43,12.25-3.69,3.19-7.66,3.58-11.93,1.17-3.7-3.05-4.73-6.85-3.09-11.4.39-.78.89-1.49,1.49-2.13.14-.21.14-.43,0-.64-3.2-3.85-6.51-7.62-9.91-11.29-2.02.73-4.08.83-6.18.32-.43-.1-.82-.27-1.17-.53-3.48,3.98-6.96,7.95-10.44,11.93.72,1.24,1.29,2.59,1.7,4.05.84,4.38-.61,7.76-4.37,10.12-4.22,1.92-8.02,1.32-11.4-1.81-3.27-4.12-3.27-8.24,0-12.36,1.94-1.93,4.28-2.92,7.03-2.98,1.42.15,2.81.4,4.15.75,3.29-3.93,6.67-7.8,10.12-11.61.14-.21.14-.43,0-.64-2.16-2.87-2.58-5.99-1.28-9.38,1.38-2.76,3.54-4.54,6.5-5.33Zm.64,3.62c4.68-.26,6.92,1.95,6.71,6.61-1.1,3.2-3.34,4.58-6.71,4.15-4.04-1.66-5.15-4.47-3.3-8.42.88-1.13,1.98-1.91,3.3-2.34Zm41.76,0c4.79-.22,7.03,2.05,6.71,6.82-1.78,4.01-4.65,5.04-8.63,3.09-3.13-2.98-3.13-5.97,0-8.95.66-.33,1.3-.65,1.92-.96Zm-62.86,26.21c3.69.07,5.82,1.91,6.39,5.54-.55,3.82-2.75,5.64-6.61,5.43-4.01-1.31-5.33-3.98-3.94-7.99.95-1.63,2.34-2.63,4.15-2.98Zm41.97,0c4.22.21,6.25,2.41,6.07,6.61-1,3.18-3.17,4.64-6.5,4.37-3.36-.99-4.81-3.23-4.37-6.71.78-2.38,2.38-3.8,4.79-4.26Z"/>
  <path class="cls-6" d="m32.25,51.64c9.18.34,15.82,4.6,19.92,12.78,1.11,2.66,1.71,5.43,1.81,8.31-7.24.21-14.49.28-21.73.21v-21.31Zm3.62,4.05c7.36,1.72,12.05,6.23,14.06,13.53-4.69.11-9.37.14-14.06.11v-13.64Z"/>
  <path class="cls-1" d="m33.1,96.39h-5.75c-10.37-1.95-16.51-8.13-18.43-18.54-.68-10.89,3.97-18.45,13.96-22.69,2.42-.84,4.9-1.23,7.46-1.17v21.09h21.31c-.48,9.67-5.16,16.38-14.06,20.14-1.49.5-2.98.89-4.47,1.17Zm-6.61-38.57c.21,6.92.28,13.88.21,20.88h20.88c-1.95,7.74-6.85,12.39-14.7,13.96-9.91.71-16.55-3.59-19.92-12.89-1.72-8.59,1.08-15.23,8.42-19.92,1.67-.83,3.37-1.5,5.11-2.02Z"/>
  <path class="cls-7" d="m75.29,56.76h3.62v37.5h-3.62v-37.5Z"/>
  <path class="cls-3" d="m82.53,68.48h3.62v25.78h-3.62v-25.78Z"/>
  <path class="cls-2" d="m68.04,69.33h3.62v24.93h-3.62v-24.93Z"/>
  <path class="cls-4" d="m89.56,80.62h3.62v13.64h-3.62v-13.64Z"/>
  <path class="cls-5" d="m61.01,86.59h3.62v7.67h-3.62v-7.67Z"/>
</svg>