<?xml version="1.0" encoding="UTF-8"?>
<svg id="Layer_1" data-name="Layer 1" xmlns="http://www.w3.org/2000/svg" xmlns:xlink="http://www.w3.org/1999/xlink" viewBox="0 0 101 101">
  <defs>
    <style>
      .cls-1 {
        fill: url(#New_Gradient_Swatch-7);
      }

      .cls-2 {
        fill: url(#New_Gradient_Swatch-6);
      }

      .cls-3 {
        fill: url(#New_Gradient_Swatch);
      }

      .cls-4 {
        fill: url(#New_Gradient_Swatch-5);
      }

      .cls-5 {
        fill: url(#New_Gradient_Swatch-8);
      }

      .cls-6 {
        fill: url(#New_Gradient_Swatch-4);
      }

      .cls-7 {
        fill: url(#New_Gradient_Swatch-3);
      }

      .cls-8 {
        fill: url(#New_Gradient_Swatch-9);
      }

      .cls-9 {
        fill: url(#New_Gradient_Swatch-2);
      }
    </style>
    <linearGradient id="New_Gradient_Swatch" data-name="New Gradient Swatch" x1="-843.26" y1="305.57" x2="-843.26" y2="316.14" gradientTransform="translate(6825 2539.2) scale(8 -8)" gradientUnits="userSpaceOnUse">
      <stop offset="0" stop-color="#67447e"/>
      <stop offset=".2" stop-color="#3e224a"/>
      <stop offset=".89" stop-color="#34ad88"/>
      <stop offset="1" stop-color="#5eeaa7"/>
    </linearGradient>
    <linearGradient id="New_Gradient_Swatch-2" data-name="New Gradient Swatch" x1="-843.26" y1="305.57" x2="-843.26" y2="316.14" xlink:href="#New_Gradient_Swatch"/>
    <linearGradient id="New_Gradient_Swatch-3" data-name="New Gradient Swatch" x1="-843.26" y1="305.57" x2="-843.26" y2="316.14" xlink:href="#New_Gradient_Swatch"/>
    <linearGradient id="New_Gradient_Swatch-4" data-name="New Gradient Swatch" x1="-846.86" y1="305.57" x2="-846.86" y2="316.14" xlink:href="#New_Gradient_Swatch"/>
    <linearGradient id="New_Gradient_Swatch-5" data-name="New Gradient Swatch" x1="-844.34" y1="305.57" x2="-844.34" y2="316.14" xlink:href="#New_Gradient_Swatch"/>
    <linearGradient id="New_Gradient_Swatch-6" data-name="New Gradient Swatch" x1="-843.62" y1="305.57" x2="-843.62" y2="316.14" xlink:href="#New_Gradient_Swatch"/>
    <linearGradient id="New_Gradient_Swatch-7" data-name="New Gradient Swatch" x1="-849.19" y1="305.57" x2="-849.19" y2="316.14" xlink:href="#New_Gradient_Swatch"/>
    <linearGradient id="New_Gradient_Swatch-8" data-name="New Gradient Swatch" x1="-848.83" y1="305.57" x2="-848.83" y2="316.14" xlink:href="#New_Gradient_Swatch"/>
    <linearGradient id="New_Gradient_Swatch-9" data-name="New Gradient Swatch" y1="305.57" y2="316.14" xlink:href="#New_Gradient_Swatch"/>
  </defs>
  <g id="delivery-truck-logistic-wifi-location">
    <g>
      <path class="cls-3" d="m67.72,16.31c6.18-6.17,16.18-6.17,22.36,0,.56.56,1.47.56,2.03,0s.56-1.47,0-2.03h0c-7.3-7.29-19.13-7.29-26.43,0-.56.56-.56,1.47,0,2.03s1.47.56,2.03,0h0Z"/>
      <path class="cls-9" d="m83.98,22.41c-2.81-2.8-7.36-2.8-10.16,0-.57.55-.59,1.46-.04,2.03.55.57,1.46.59,2.03.04.01-.01.02-.02.04-.04,1.68-1.68,4.41-1.68,6.1,0,.55.57,1.46.59,2.03.04.57-.55.59-1.46.04-2.03-.01-.01-.02-.02-.04-.04h0Z"/>
      <path class="cls-7" d="m87.03,20.8c.79,0,1.44-.64,1.44-1.44,0-.38-.15-.75-.42-1.02-5.06-5.05-13.24-5.05-18.3,0-.55.57-.54,1.48.04,2.03.56.54,1.44.54,2,0,3.93-3.92,10.3-3.92,14.23,0,.27.27.64.42,1.02.42h0Z"/>
    </g>
    <path class="cls-6" d="m83.21,61.75h-1.94l-3.11-6.97c-1.62-3.63-5.22-5.96-9.19-5.97h-7.33v-12.94c0-.79-.64-1.44-1.44-1.44h-16.3c2.62-4,4.8-8.29,4.8-11.5,0-7.94-6.44-14.38-14.38-14.38s-14.38,6.44-14.38,14.38c0,3.21,2.19,7.5,4.8,11.5H8.46c-.79,0-1.44.64-1.44,1.44v46c0,.79.64,1.44,1.44,1.44h1.44v1.44c0,2.38,1.93,4.31,4.31,4.31h8.17c2.38,5.02,8.37,7.16,13.39,4.78,2.1-.99,3.79-2.68,4.78-4.78h26.41c2.36,5.01,8.34,7.16,13.35,4.79,2.1-.99,3.8-2.69,4.79-4.79h3.87c2.38,0,4.31-1.93,4.31-4.31v-12.94c0-5.56-4.51-10.06-10.06-10.06Zm-15.81-10.06h1.58c2.84,0,5.42,1.67,6.57,4.27l2.57,5.79h-9.29c-.79,0-1.44-.64-1.44-1.44v-8.63ZM22.84,22.93c0-6.35,5.15-11.5,11.5-11.5s11.5,5.15,11.5,11.5c0,4.92-7.52,14.72-11.5,19.38-3.98-4.66-11.5-14.46-11.5-19.38Zm-12.94,33.06h23c.79,0,1.44-.64,1.44-1.44v-1.24l4.95,4.11-4.95,4.11v-1.24c0-.79-.64-1.44-1.44-1.44H9.9v-2.88Zm0,5.75h21.56v2.88c0,.56.32,1.07.83,1.31.19.09.4.13.6.13.34,0,.66-.12.92-.33l8.63-7.19c.61-.51.7-1.41.19-2.02-.06-.07-.12-.13-.19-.19l-8.63-7.19c-.61-.51-1.52-.43-2.02.18-.22.26-.33.59-.33.92v2.88H9.9v-15.81h16.83c2.04,2.83,4.22,5.55,6.54,8.15.53.59,1.43.64,2.02.11.04-.03.07-.07.11-.11,2.32-2.6,4.5-5.32,6.54-8.15h16.83v31.63H9.9v-7.19Zm11.62,24.44h-7.3c-.79,0-1.44-.64-1.44-1.44v-1.44h8.74c-.15.95-.15,1.92,0,2.88Zm9.95,5.75c-3.97,0-7.19-3.22-7.19-7.19s3.22-7.19,7.19-7.19,7.19,3.22,7.19,7.19-3.22,7.19-7.19,7.19Zm0-17.25c-3.88,0-7.42,2.24-9.09,5.75h-12.48v-8.63h48.88v8.63h-18.23c-1.67-3.51-5.2-5.74-9.09-5.75Zm34.62,11.5h-24.67c.15-.95.15-1.92,0-2.88h24.67c-.15.95-.15,1.92,0,2.88Zm9.95,5.75c-3.97,0-7.19-3.22-7.19-7.19s3.22-7.19,7.19-7.19,7.19,3.22,7.19,7.19-3.22,7.19-7.19,7.19Zm14.38-7.19c0,.79-.64,1.44-1.44,1.44h-2.99c.15-.95.15-1.92,0-2.88h4.43v1.44Zm0-4.31h-5.3c-2.36-5.01-8.34-7.16-13.35-4.79-2.1.99-3.8,2.69-4.79,4.79h-5.3v-28.75h2.88v8.63c0,2.38,1.93,4.31,4.31,4.31h14.38c3.97,0,7.19,3.22,7.19,7.19v8.63Z"/>
    <path class="cls-4" d="m68.84,68.93h2.88c.79,0,1.44-.64,1.44-1.44s-.64-1.44-1.44-1.44h-2.88c-.79,0-1.44.64-1.44,1.44s.64,1.44,1.44,1.44Z"/>
    <path class="cls-2" d="m76.03,80.43c-2.38,0-4.31,1.93-4.31,4.31s1.93,4.31,4.31,4.31,4.31-1.93,4.31-4.31h0c0-2.38-1.93-4.31-4.31-4.31Zm0,5.75c-.79,0-1.44-.64-1.44-1.44s.64-1.44,1.44-1.44,1.44.64,1.44,1.44-.64,1.44-1.44,1.44Z"/>
    <path class="cls-1" d="m31.46,80.43c-2.38,0-4.31,1.93-4.31,4.31s1.93,4.31,4.31,4.31,4.31-1.93,4.31-4.31h0c0-2.38-1.93-4.31-4.31-4.31Zm0,5.75c-.79,0-1.44-.64-1.44-1.44s.64-1.44,1.44-1.44,1.44.64,1.44,1.44-.64,1.44-1.44,1.44Z"/>
    <path class="cls-5" d="m40.09,22.93c0-3.18-2.57-5.75-5.75-5.75s-5.75,2.57-5.75,5.75,2.57,5.75,5.75,5.75,5.75-2.57,5.75-5.75Zm-8.63,0c0-1.59,1.29-2.88,2.88-2.88s2.88,1.29,2.88,2.88-1.29,2.88-2.88,2.88-2.88-1.29-2.88-2.88Z"/>
    <path class="cls-8" d="m78.9,48.81c.79,0,1.44-.64,1.44-1.44v-11.77c2.25-.79,3.42-3.26,2.63-5.5-.79-2.25-3.26-3.42-5.5-2.63-2.25.79-3.42,3.26-2.63,5.5.43,1.23,1.4,2.19,2.63,2.63v11.77c0,.79.64,1.44,1.44,1.44Zm0-18.69c.79,0,1.44.64,1.44,1.44s-.64,1.44-1.44,1.44-1.44-.64-1.44-1.44.64-1.44,1.44-1.44Z"/>
  </g>
</svg>