<?xml version="1.0" encoding="UTF-8"?>
<svg id="Layer_1" data-name="Layer 1" xmlns="http://www.w3.org/2000/svg" xmlns:xlink="http://www.w3.org/1999/xlink" viewBox="0 0 101 101">
  <defs>
    <style>
      .cls-1 {
        fill: url(#linear-gradient-2);
      }

      .cls-2 {
        fill: url(#linear-gradient-6);
      }

      .cls-3 {
        fill: url(#linear-gradient-5);
      }

      .cls-4 {
        fill: url(#linear-gradient-7);
      }

      .cls-5 {
        fill: url(#linear-gradient-3);
      }

      .cls-6 {
        fill: url(#linear-gradient);
      }

      .cls-7 {
        fill: url(#linear-gradient-4);
      }

      .cls-8 {
        fill: url(#linear-gradient-8);
      }
    </style>
    <linearGradient id="linear-gradient" x1="26.29" y1="-6.42" x2="105.26" y2="72.55" gradientTransform="translate(0 101.28) scale(1 -1)" gradientUnits="userSpaceOnUse">
      <stop offset="0" stop-color="#67447e"/>
      <stop offset=".2" stop-color="#3e224a"/>
      <stop offset=".74" stop-color="#34ad88"/>
      <stop offset="1" stop-color="#5eeaa7"/>
    </linearGradient>
    <linearGradient id="linear-gradient-2" x1="1.82" y1="18.05" x2="80.79" y2="97.02" xlink:href="#linear-gradient"/>
    <linearGradient id="linear-gradient-3" x1="7.15" y1="12.72" x2="86.12" y2="91.69" xlink:href="#linear-gradient"/>
    <linearGradient id="linear-gradient-4" x1="-6.96" y1="26.83" x2="72.01" y2="105.8" xlink:href="#linear-gradient"/>
    <linearGradient id="linear-gradient-5" x1="4.91" y1="14.96" x2="83.88" y2="93.93" xlink:href="#linear-gradient"/>
    <linearGradient id="linear-gradient-6" x1="-.65" y1="20.52" x2="78.32" y2="99.49" xlink:href="#linear-gradient"/>
    <linearGradient id="linear-gradient-7" x1="30.89" y1="-11.02" x2="109.86" y2="67.95" xlink:href="#linear-gradient"/>
    <linearGradient id="linear-gradient-8" x1="-25.11" y1="44.98" x2="53.86" y2="123.95" xlink:href="#linear-gradient"/>
  </defs>
  <path class="cls-6" d="m85.02,72.39c-.18-.35-.5-.61-.87-.73l-5.66-1.77c-.78-.24-1.61.19-1.86.97,0,0,0,0,0,0l-.45,1.42-12.74-3.98-5.98-1.88c-1.19-.37-2.48-.23-3.56.39l-15.42,8.91c-1.08.58-1.87,1.57-2.2,2.75l-12.14-3.79c-2.35-.73-4.84.58-5.57,2.92l-.88,2.83c-.73,2.35.57,4.84,2.92,5.58l31.24,9.75c1.11.35,2.32.25,3.36-.29l12.88-6.63c.35-.18.75-.21,1.12-.1l1.67.52-.44,1.41c-.24.78.19,1.61.97,1.86l5.66,1.77c.14.04.29.07.44.07.65,0,1.22-.42,1.41-1.04l6.19-19.82c.12-.38.08-.78-.1-1.13h0Zm-14.93,13.54c-1.12-.35-2.33-.25-3.36.29l-12.88,6.63c-.35.18-.75.21-1.12.09l-31.24-9.75c-.78-.24-1.22-1.08-.97-1.86l.88-2.83c.24-.78,1.07-1.22,1.85-.98,0,0,0,0,0,0l13.36,4.17s0,.02.01.03l1.38,2.63c1.14,2.18,3.83,3.02,6.01,1.88l11.82-6.2c.73-.38,1.01-1.27.63-2-.38-.73-1.27-1.01-2-.63,0,0,0,0-.01,0l-11.82,6.2c-.73.38-1.62.1-2-.62l-1.38-2.63c-.05-.09-.08-.18-.11-.28-.2-.68.11-1.4.74-1.73.02,0,.04-.02.05-.03l15.44-8.92c.36-.21.79-.25,1.18-.13l5.99,1.88,12.74,3.98-3.54,11.33-1.67-.52Zm6.45,5.11l-2.83-.88,5.31-16.99,2.83.88-5.31,16.99Z"/>
  <path class="cls-1" d="m51.33,63.37c16.36,0,29.67-13.31,29.67-29.67,0-2.9-.42-5.78-1.26-8.55l2.54,1.33c.73.38,1.62.1,2-.62.15-.29.2-.62.15-.94l-1.09-6.38,4.63-4.52c.59-.57.6-1.51.03-2.1-.23-.23-.53-.39-.85-.43l-6.4-.93-2.86-5.8c-.36-.73-1.25-1.04-1.99-.67-.29.14-.53.38-.67.67l-2.86,5.8-2.1.31c-5.31-4.42-12.01-6.84-18.92-6.84-16.36,0-29.67,13.31-29.67,29.67s13.31,29.67,29.67,29.67h0Zm23.34-50.8l1.88-3.81,1.88,3.81c.22.44.63.74,1.12.81l4.2.61-3.04,2.96c-.35.34-.51.83-.43,1.31l.72,4.18-2.89-1.52c-1.31-2.74-3.03-5.26-5.1-7.47l.55-.08c.48-.07.9-.37,1.12-.81Zm-23.34-5.58c14.72,0,26.7,11.98,26.7,26.7s-11.98,26.7-26.7,26.7-26.7-11.98-26.7-26.7S36.61,7,51.33,7Z"/>
  <path class="cls-5" d="m36.5,42.61c0,6.54,6.65,11.87,14.83,11.87s14.83-5.32,14.83-11.87c0-.82-.66-1.48-1.48-1.48h-26.7c-.82,0-1.48.66-1.48,1.48Zm26.54,1.48c-.94,4.2-5.83,7.42-11.7,7.42s-10.76-3.21-11.7-7.42h23.41Z"/>
  <path class="cls-7" d="m33.53,30.74c.82,0,1.48-.66,1.48-1.48,0-2.46,1.99-4.45,4.45-4.45s4.45,1.99,4.45,4.45c0,.82.66,1.48,1.48,1.48s1.48-.66,1.48-1.48c0-4.1-3.32-7.42-7.42-7.42s-7.42,3.32-7.42,7.42c0,.82.66,1.48,1.48,1.48Z"/>
  <path class="cls-3" d="m57.27,30.74c.82,0,1.48-.66,1.48-1.48,0-2.46,1.99-4.45,4.45-4.45s4.45,1.99,4.45,4.45c0,.82.66,1.48,1.48,1.48s1.48-.66,1.48-1.48c0-4.1-3.32-7.42-7.42-7.42s-7.42,3.32-7.42,7.42c0,.82.66,1.48,1.48,1.48Z"/>
  <path class="cls-2" d="m23.63,72.46c.82,0,1.48-.66,1.48-1.48,0-.08,0-.17-.02-.25l-1.09-6.38,4.63-4.52c.59-.57.6-1.51.03-2.1-.23-.23-.53-.39-.85-.43l-6.4-.93-2.86-5.8c-.36-.73-1.25-1.04-1.99-.67-.29.14-.53.38-.67.67l-2.86,5.8-6.4.93c-.81.12-1.37.87-1.25,1.68.05.32.2.62.43.85l4.63,4.52-1.09,6.38c-.14.81.4,1.57,1.21,1.71.32.06.65,0,.94-.15l5.73-3.01,5.73,3.01c.21.11.45.17.69.17Zm-5.73-6.17c-.43-.23-.95-.23-1.38,0l-3.76,1.98.72-4.18c.08-.48-.08-.97-.43-1.31l-3.04-2.96,4.2-.61c.48-.07.9-.37,1.12-.81l1.88-3.81,1.88,3.81c.22.44.63.74,1.12.81l4.2.61-3.04,2.96c-.35.34-.51.83-.43,1.31l.72,4.18-3.76-1.98Z"/>
  <path class="cls-4" d="m97.25,51.37c-.17-.54-.64-.93-1.2-1.01l-4.35-.63-1.95-3.94c-.36-.73-1.25-1.04-1.99-.67-.29.14-.53.38-.67.67l-1.95,3.94-4.35.63c-.81.12-1.37.87-1.25,1.68.05.32.2.62.43.85l3.15,3.07-.74,4.34c-.14.81.4,1.57,1.21,1.71.32.06.65,0,.94-.15l3.89-2.05,3.89,2.05c.73.38,1.62.1,2-.62.15-.29.2-.62.15-.94l-.74-4.34,3.15-3.07c.4-.39.55-.98.38-1.52h0Zm-6.15,3.01c-.35.34-.51.83-.43,1.31l.37,2.14-1.92-1.01c-.43-.23-.95-.23-1.38,0l-1.92,1.01.37-2.14c.08-.48-.08-.97-.43-1.31l-1.56-1.52,2.15-.31c.48-.07.9-.37,1.12-.81l.96-1.95.96,1.95c.22.44.63.74,1.12.81l2.15.31-1.56,1.52Z"/>
  <path class="cls-8" d="m10.43,16.65l-.74,4.34c-.14.81.4,1.57,1.21,1.71.32.06.65,0,.94-.15l3.89-2.05,3.89,2.05c.73.38,1.62.1,2-.62.15-.29.2-.62.15-.94l-.74-4.34,3.15-3.07c.59-.57.6-1.51.03-2.1-.23-.23-.53-.39-.85-.43l-4.35-.63-1.95-3.94c-.36-.73-1.25-1.04-1.99-.67-.29.14-.53.38-.67.67l-1.95,3.94-4.35.63c-.81.12-1.37.87-1.25,1.68.05.32.2.62.43.85l3.15,3.07Zm3.22-3.41c.48-.07.9-.37,1.12-.81l.96-1.95.96,1.95c.22.44.63.74,1.12.81l2.15.31-1.56,1.52c-.35.34-.51.83-.43,1.31l.37,2.14-1.92-1.01c-.43-.23-.95-.23-1.38,0l-1.92,1.01.37-2.14c.08-.48-.08-.97-.43-1.31l-1.56-1.52,2.15-.31Z"/>
</svg>