<?xml version="1.0" encoding="UTF-8"?>
<svg id="Layer_1" data-name="Layer 1" xmlns="http://www.w3.org/2000/svg" xmlns:xlink="http://www.w3.org/1999/xlink" viewBox="0 0 101 101">
  <defs>
    <style>
      .cls-1 {
        fill: url(#linear-gradient);
      }
    </style>
    <linearGradient id="linear-gradient" x1="4.93" y1="50.77" x2="96.07" y2="50.77" gradientTransform="translate(0 101.28) scale(1 -1)" gradientUnits="userSpaceOnUse">
      <stop offset="0" stop-color="#67447e"/>
      <stop offset=".2" stop-color="#3e224a"/>
      <stop offset=".82" stop-color="#34ad88"/>
      <stop offset="1" stop-color="#5eeaa7"/>
    </linearGradient>
  </defs>
  <path class="cls-1" d="m83.81,51.93c.65,2.74,3.11,4.78,6.04,4.78,3.43,0,6.21-2.79,6.21-6.21s-2.79-6.21-6.21-6.21c-2.93,0-5.4,2.04-6.04,4.78h-5.67c-.15-3.02-.79-5.91-1.84-8.6h4.1c.36,0,.72-.14.98-.39l5.06-4.78c.98.65,2.15,1.03,3.41,1.03,3.43,0,6.21-2.79,6.21-6.21s-2.79-6.21-6.21-6.21-6.21,2.79-6.21,6.21c0,1.13.31,2.19.84,3.11l-4.65,4.39h-4.84c-.79-1.5-1.72-2.93-2.77-4.25l4.64-11.58,4.78-2.68c1.14,1.24,2.76,2.01,4.57,2.01,3.43,0,6.21-2.79,6.21-6.21s-2.79-6.21-6.21-6.21-6.21,2.79-6.21,6.21c0,.59.09,1.17.24,1.71l-5.22,2.93c-.28.16-.51.41-.63.72l-4.3,10.72c-1.97-1.97-4.23-3.65-6.71-4.96v-4.84l4.39-4.65c.91.53,1.98.84,3.11.84,3.43,0,6.21-2.79,6.21-6.21s-2.79-6.21-6.21-6.21-6.21,2.79-6.21,6.21c0,1.26.38,2.43,1.03,3.41l-4.78,5.06c-.25.27-.39.62-.39.98v4.1c-2.69-1.05-5.58-1.69-8.6-1.84v-5.67c2.74-.65,4.78-3.11,4.78-6.04,0-3.43-2.79-6.21-6.21-6.21s-6.21,2.79-6.21,6.21c0,2.93,2.04,5.4,4.78,6.04v5.67c-3.02.15-5.91.79-8.6,1.84v-4.1c0-.36-.14-.72-.39-.98l-4.78-5.06c.65-.98,1.03-2.15,1.03-3.41,0-3.43-2.79-6.21-6.21-6.21s-6.21,2.79-6.21,6.21,2.79,6.21,6.21,6.21c1.13,0,2.19-.31,3.11-.84l4.39,4.65v4.84c-2.48,1.31-4.75,2.99-6.71,4.96l-4.3-10.72c-.12-.3-.34-.56-.63-.72l-5.22-2.93c.16-.54.24-1.12.24-1.71,0-3.43-2.79-6.21-6.21-6.21s-6.21,2.79-6.21,6.21,2.79,6.21,6.21,6.21c1.81,0,3.43-.78,4.57-2.01l4.78,2.68,4.64,11.58c-1.05,1.32-1.97,2.75-2.77,4.25h-4.84l-4.65-4.39c.53-.91.84-1.98.84-3.11,0-3.43-2.79-6.21-6.21-6.21s-6.21,2.79-6.21,6.21,2.79,6.21,6.21,6.21c1.26,0,2.43-.38,3.41-1.03l5.06,4.78c.27.25.62.39.98.39h4.1c-1.05,2.69-1.69,5.58-1.84,8.6h-5.67c-.65-2.74-3.11-4.78-6.04-4.78-3.43,0-6.21,2.79-6.21,6.21s2.79,6.21,6.21,6.21c2.93,0,5.4-2.04,6.04-4.78h5.67c.15,3.02.79,5.91,1.84,8.6h-4.1c-.36,0-.72.14-.98.39l-5.06,4.78c-.98-.65-2.15-1.03-3.41-1.03-3.43,0-6.21,2.79-6.21,6.21s2.79,6.21,6.21,6.21,6.21-2.79,6.21-6.21c0-1.13-.31-2.19-.84-3.11l4.65-4.39h4.84c.79,1.5,1.72,2.93,2.77,4.25l-4.64,11.58-4.78,2.68c-1.14-1.24-2.76-2.01-4.57-2.01-3.43,0-6.21,2.79-6.21,6.21s2.79,6.21,6.21,6.21,6.21-2.79,6.21-6.21c0-.59-.09-1.17-.24-1.71l5.22-2.93c.28-.16.51-.41.63-.71l4.3-10.72c1.97,1.97,4.23,3.65,6.71,4.96v4.84l-4.39,4.65c-.91-.53-1.98-.84-3.11-.84-3.43,0-6.21,2.79-6.21,6.21s2.79,6.21,6.21,6.21,6.21-2.79,6.21-6.21c0-1.26-.38-2.43-1.03-3.41l4.78-5.06c.25-.27.39-.62.39-.98v-4.1c2.69,1.05,5.58,1.69,8.6,1.84v5.67c-2.74.65-4.78,3.11-4.78,6.04,0,3.43,2.79,6.21,6.21,6.21s6.21-2.79,6.21-6.21c0-2.93-2.04-5.4-4.78-6.04v-5.67c3.02-.15,5.91-.79,8.6-1.84v4.1c0,.36.14.72.39.98l4.78,5.06c-.65.98-1.03,2.15-1.03,3.41,0,3.43,2.79,6.21,6.21,6.21s6.21-2.79,6.21-6.21-2.79-6.21-6.21-6.21c-1.13,0-2.19.31-3.11.84l-4.39-4.65v-4.84c2.48-1.31,4.75-2.99,6.71-4.96l4.3,10.72c.12.3.34.56.63.72l5.22,2.93c-.16.54-.24,1.12-.24,1.71,0,3.43,2.79,6.21,6.21,6.21s6.21-2.79,6.21-6.21-2.79-6.21-6.21-6.21c-1.81,0-3.43.78-4.57,2.01l-4.78-2.68-4.64-11.58c1.05-1.32,1.97-2.75,2.77-4.25h4.84l4.65,4.39c-.53.91-.84,1.98-.84,3.11,0,3.43,2.79,6.21,6.21,6.21s6.21-2.79,6.21-6.21-2.79-6.21-6.21-6.21c-1.26,0-2.43.38-3.41,1.03l-5.06-4.78c-.27-.25-.62-.39-.98-.39h-4.1c1.05-2.69,1.69-5.58,1.84-8.6h5.67Zm6.04-4.78c1.85,0,3.35,1.5,3.35,3.35s-1.5,3.35-3.35,3.35-3.35-1.5-3.35-3.35,1.5-3.35,3.35-3.35Zm0-20.38c1.85,0,3.35,1.5,3.35,3.35s-1.5,3.35-3.35,3.35-3.35-1.5-3.35-3.35,1.5-3.35,3.35-3.35Zm-3.64-15.22c1.85,0,3.35,1.5,3.35,3.35s-1.5,3.35-3.35,3.35-3.35-1.5-3.35-3.35,1.5-3.35,3.35-3.35Zm-15.34-3.76c1.85,0,3.35,1.5,3.35,3.35s-1.5,3.35-3.35,3.35-3.35-1.5-3.35-3.35,1.5-3.35,3.35-3.35Zm-44.12,3.35c0-1.85,1.5-3.35,3.35-3.35s3.35,1.5,3.35,3.35-1.5,3.35-3.35,3.35-3.35-1.5-3.35-3.35Zm-11.98,7.12c-1.85,0-3.35-1.5-3.35-3.35s1.5-3.35,3.35-3.35,3.35,1.5,3.35,3.35-1.5,3.35-3.35,3.35Zm-3.64,15.22c-1.85,0-3.35-1.5-3.35-3.35s1.5-3.35,3.35-3.35,3.35,1.5,3.35,3.35-1.5,3.35-3.35,3.35Zm0,20.38c-1.85,0-3.35-1.5-3.35-3.35s1.5-3.35,3.35-3.35,3.35,1.5,3.35,3.35-1.5,3.35-3.35,3.35Zm0,20.38c-1.85,0-3.35-1.5-3.35-3.35s1.5-3.35,3.35-3.35,3.35,1.5,3.35,3.35-1.5,3.35-3.35,3.35Zm3.64,15.22c-1.85,0-3.35-1.5-3.35-3.35s1.5-3.35,3.35-3.35,3.35,1.5,3.35,3.35-1.5,3.35-3.35,3.35Zm15.34,3.76c-1.85,0-3.35-1.5-3.35-3.35s1.5-3.35,3.35-3.35,3.35,1.5,3.35,3.35c0,1.85-1.5,3.35-3.35,3.35Zm44.12-3.35c0,1.85-1.5,3.35-3.35,3.35s-3.35-1.5-3.35-3.35,1.5-3.35,3.35-3.35,3.35,1.5,3.35,3.35Zm11.98-7.12c1.85,0,3.35,1.5,3.35,3.35s-1.5,3.35-3.35,3.35-3.35-1.5-3.35-3.35,1.5-3.35,3.35-3.35Zm3.64-15.22c1.85,0,3.35,1.5,3.35,3.35s-1.5,3.35-3.35,3.35-3.35-1.5-3.35-3.35,1.5-3.35,3.35-3.35ZM47.15,11.14c0-1.85,1.5-3.35,3.35-3.35s3.35,1.5,3.35,3.35-1.5,3.35-3.35,3.35-3.35-1.5-3.35-3.35Zm6.71,78.72c0,1.85-1.5,3.35-3.35,3.35s-3.35-1.5-3.35-3.35,1.5-3.35,3.35-3.35,3.35,1.5,3.35,3.35Zm-3.35-14.54c-13.69,0-24.82-11.13-24.82-24.82s11.13-24.82,24.82-24.82,24.82,11.13,24.82,24.82-11.13,24.82-24.82,24.82h0Zm20.58-29.93c-.28.28-.64.42-1.01.42s-.73-.14-1.01-.42c-4.96-4.96-11.55-7.69-18.56-7.69s-13.6,2.73-18.56,7.69c-.56.56-1.46.56-2.02,0s-.56-1.46,0-2.02c5.5-5.5,12.81-8.53,20.58-8.53s15.09,3.03,20.58,8.53c.56.56.56,1.46,0,2.02h0Zm-5.22,3.2c.56.56.56,1.46,0,2.02s-1.46.56-2.02,0c-7.36-7.36-19.33-7.36-26.68,0-.28.28-.64.42-1.01.42s-.73-.14-1.01-.42c-.56-.56-.56-1.46,0-2.02,8.47-8.47,22.26-8.47,30.73,0h0Zm-5.22,5.22c.56.56.56,1.46,0,2.02-.28.28-.65.42-1.01.42s-.73-.14-1.01-.42c-2.17-2.17-5.05-3.36-8.12-3.36s-5.95,1.2-8.12,3.36c-.56.56-1.46.56-2.02,0s-.56-1.46,0-2.02c2.71-2.71,6.31-4.2,10.14-4.2s7.44,1.49,10.14,4.2h0Zm-10.14,3.18c-2.93,0-5.31,2.38-5.31,5.31s2.38,5.31,5.31,5.31,5.31-2.38,5.31-5.31-2.38-5.31-5.31-5.31Zm0,7.76c-1.35,0-2.45-1.1-2.45-2.45s1.1-2.45,2.45-2.45,2.45,1.1,2.45,2.45-1.1,2.45-2.45,2.45Z"/>
</svg>