<?xml version="1.0" encoding="UTF-8"?>
<svg id="Layer_1" data-name="Layer 1" xmlns="http://www.w3.org/2000/svg" xmlns:xlink="http://www.w3.org/1999/xlink" viewBox="0 0 101 101">
  <defs>
    <style>
      .cls-1 {
        fill: url(#New_Gradient_Swatch_1);
      }
    </style>
    <linearGradient id="New_Gradient_Swatch_1" data-name="New Gradient Swatch 1" x1="2.25" y1="28.27" x2="92.19" y2="61.01" gradientTransform="translate(0 101.28) scale(1 -1)" gradientUnits="userSpaceOnUse">
      <stop offset="0" stop-color="#67447e"/>
      <stop offset=".2" stop-color="#3e224a"/>
      <stop offset=".89" stop-color="#34ad88"/>
      <stop offset="1" stop-color="#5eeaa7"/>
    </linearGradient>
  </defs>
  <path class="cls-1" d="m77.72,29.49c.05-3.47-1.27-6.73-3.72-9.18-2.45-2.45-5.72-3.77-9.18-3.71,0,0-.02,0-.02,0-.8,0-1.46-.65-1.48-1.45-.01-.82.64-1.49,1.45-1.5,4.27-.06,8.29,1.56,11.32,4.58,3.02,3.02,4.65,7.04,4.58,11.32-.01.81-.67,1.45-1.48,1.45,0,0-.02,0-.02,0-.82-.01-1.47-.68-1.45-1.5h0Zm-12.7,3.24c1.9,0,3.44-1.54,3.44-3.44s-1.54-3.44-3.44-3.44-3.44,1.54-3.44,3.44,1.54,3.44,3.44,3.44Zm8.03-1.74s.03,0,.04,0c.8,0,1.45-.64,1.47-1.44.07-2.61-.95-5.17-2.79-7.01-1.88-1.88-4.37-2.87-7.02-2.79-.81.02-1.46.7-1.43,1.52.02.82.7,1.46,1.52,1.43,1.83-.06,3.55.63,4.84,1.92,1.29,1.29,1.98,3.01,1.93,4.85-.02.81.62,1.49,1.44,1.52h0Zm-8.24-20.5c5.1-.05,9.9,1.9,13.51,5.51,3.61,3.6,5.56,8.4,5.5,13.5,0,.82.64,1.48,1.46,1.49,0,0,.01,0,.02,0,.81,0,1.47-.65,1.48-1.46.06-5.9-2.2-11.45-6.37-15.62-4.17-4.17-9.72-6.44-15.63-6.37-.82,0-1.47.68-1.46,1.49,0,.82.68,1.47,1.49,1.46Zm33.44,52.79v13.02c0,2.22-1.81,4.03-4.03,4.03h-4.88c.09.52.15,1.05.15,1.6,0,4.94-4.02,8.95-8.95,8.95s-8.95-4.02-8.95-8.95c0-.55.05-1.08.15-1.6h-36.82c.09.52.15,1.05.15,1.6,0,4.94-4.02,8.95-8.95,8.95s-8.95-4.02-8.95-8.95c0-.55.05-1.08.15-1.6H7.73c-2.22,0-4.03-1.81-4.03-4.03v-43.53c0-.82.66-1.48,1.48-1.48h5.4v-3.17c0-.53.28-1.01.74-1.28l18.99-10.97c.46-.26,1.02-.26,1.48,0l6.89,3.98s.07.04.11.06l12,6.93c.46.26.74.75.74,1.28v3.17h5.4c.82,0,1.48.66,1.48,1.48v5.17c.49-.18,1.02-.28,1.57-.28h16.37c2.8,0,3.88,2.64,4.4,3.94l7.95,17.65h5.54c2.22,0,4.03,1.81,4.03,4.03h0ZM43.11,25.82l-16.04,9.26,3.99,2.3,16.04-9.26-3.99-2.3Zm-10.58,14.12v18.52l16.04-9.26v-18.52l-16.04,9.26Zm5.46-17.08c-2.95,1.7-5.91,3.41-8.86,5.12-2.89,1.67-5.77,3.33-8.66,5v10.27l2.17,1.24v-9.4s0,0,0-.01c0-.06,0-.12.01-.18,0,0,0,0,0-.01,0-.05.02-.11.03-.16,0-.01,0-.03.01-.04.01-.04.03-.09.04-.13,0-.01.01-.03.02-.04.02-.05.05-.11.08-.16,0,0,0,0,0,0,0,0,0,0,0,0,.03-.05.06-.1.1-.15,0-.01.02-.02.03-.03.03-.04.06-.07.09-.1.01-.01.02-.02.03-.03.04-.04.08-.08.12-.11,0,0,0,0,0,0,.05-.04.1-.07.15-.1,0,0,0,0,.01,0l16.78-9.68-2.17-1.25Zm-22.98,5.26l3.98,2.3c2.89-1.67,5.77-3.33,8.66-5,2.46-1.42,4.92-2.84,7.38-4.26l-3.99-2.3-16.04,9.26Zm-1.48,21.08l16.04,9.26v-18.52l-3.98-2.3v9.39c0,.53-.28,1.01-.73,1.28-.23.13-.49.2-.74.2-.25,0-.5-.06-.73-.19l-5.12-2.92c-.46-.26-.74-.75-.74-1.28v-11.13l-3.98-2.3v18.52Zm18.58,32.72c0-3.31-2.69-6-6-6s-6,2.69-6,6,2.69,6,6,6,6-2.69,6-6Zm23.33-47.68h-3.92v15.81c0,.53-.28,1.01-.74,1.28l-19,10.97c-.23.13-.48.2-.74.2s-.51-.07-.74-.2l-18.99-10.97c-.46-.26-.74-.75-.74-1.28v-15.81h-3.93v34.07h39.68c.82,0-.52.66-.52,1.48s1.34,1.48.52,1.48H6.65v5.03c0,.59.48,1.07,1.07,1.07h10.68c1.56-2.63,4.43-4.4,7.7-4.4s6.14,1.77,7.7,4.4h21.63v-6.1h-9.23c-.82,0-1.48-.66-1.48-1.48s.66-1.48,1.48-1.48h9.23v-34.07Zm31.1,47.68c0-3.31-2.69-6-6-6s-6,2.69-6,6,2.69,6,6,6,6-2.69,6-6Zm8.76-18.65c0-.59-.48-1.07-1.07-1.07h-6.49c-.58,0-1.11-.34-1.35-.87l-8.35-18.55s-.02-.04-.02-.06c-.71-1.78-1.14-2.12-1.67-2.12h-16.37c-.87,0-1.57.7-1.57,1.57v35.19h14.45c1.56-2.63,4.43-4.4,7.7-4.4s6.14,1.77,7.7,4.4h5.98c.59,0,1.07-.48,1.07-1.07v-13.02h0Zm-14.76,15.48c-1.75,0-3.17,1.42-3.17,3.17s1.42,3.17,3.17,3.17,3.17-1.42,3.17-3.17-1.42-3.17-3.17-3.17Zm-54.43,0c-1.75,0-3.17,1.42-3.17,3.17s1.42,3.17,3.17,3.17,3.17-1.42,3.17-3.17-1.42-3.17-3.17-3.17Zm56.22-20.66c.18.45.13.97-.15,1.38-.27.41-.73.65-1.22.65h-18.88c-.82,0-1.48-.66-1.48-1.48v-14.22c0-.82.66-1.48,1.48-1.48h13.17c.62,0,1.17.39,1.38.96.01.03.02.05.03.08l5.67,14.11Zm-3.55-.93l-4.53-11.27h-10.69v11.27h15.22Z"/>
</svg>