<?xml version="1.0" encoding="UTF-8"?>
<svg id="Layer_1" data-name="Layer 1" xmlns="http://www.w3.org/2000/svg" xmlns:xlink="http://www.w3.org/1999/xlink" viewBox="0 0 101 101">
  <defs>
    <style>
      .cls-1 {
        fill: url(#New_Gradient_Swatch_1);
      }
    </style>
    <linearGradient id="New_Gradient_Swatch_1" data-name="New Gradient Swatch 1" x1="14.41" y1="5.41" x2="83.99" y2="74.99" gradientTransform="translate(0 101.28) scale(1 -1)" gradientUnits="userSpaceOnUse">
      <stop offset="0" stop-color="#67447e"/>
      <stop offset=".2" stop-color="#3e224a"/>
      <stop offset=".89" stop-color="#34ad88"/>
      <stop offset="1" stop-color="#5eeaa7"/>
    </linearGradient>
  </defs>
  <g id="_29_Padlock" data-name="29 Padlock">
    <path class="cls-1" d="m12.84,75.08v-12.15c0-.53.43-.95.95-.95h10.06c.53,0,.95.43.95.95,0,.09,0,26.77,0,27.12,0,.53-.43.96-.95.96h-10.06c-.53,0-.95-.43-.95-.96v-15.98c0-.75-.61-1.36-1.36-1.36s-1.36.61-1.36,1.36v15.98c0,2.03,1.65,3.68,3.68,3.68h10.06c2.03,0,3.68-1.65,3.68-3.68v-1.45h2.82c1.01,0,2.02.26,2.91.74l6.67,3.63c5.75,3.14,12.64,3.68,18.89,1.37l30.71-11.36c3.43-1.27,5.11-5.15,3.66-8.52-1.33-3.09-4.85-4.63-8.01-3.5h0l-14.87,5.19c.14-.52.22-1.08.22-1.64,0-3.47-2.82-6.29-6.29-6.29h-11.32l-6.68-3.25c-2.41-1.17-5.09-1.78-7.76-1.78h-10.94v-.26c0-2.03-1.65-3.68-3.68-3.68h-10.06c-2.03,0-3.68,1.65-3.68,3.68v12.15m78.48,5.35l-30.72,11.36c-5.4,2-11.59,1.55-16.64-1.21l-6.67-3.63c-1.29-.7-2.75-1.08-4.22-1.08h-2.82v-19.96h10.94c2.26,0,4.53.52,6.57,1.51l6.96,3.38c.19.09.39.14.6.14h11.64c1.97,0,3.57,1.6,3.57,3.57s-1.61,3.57-3.57,3.57h-15.55c-.75,0-1.36.61-1.36,1.36s.61,1.36,1.36,1.36h15.55c1.6,0,.38.17,21.85-7.27,1.82-.65,3.84.23,4.6,2.01.83,1.93-.12,4.16-2.1,4.89ZM52.44,2.14c-9.87,0-17.9,8.03-17.9,17.9v5.77c-2.27.2-4.07,2.09-4.07,4.42v18.44c0,6.4,5.2,11.6,11.6,11.6h20.73c.41,0,.81-.03,1.2-.07,2.08,3.42,5.84,5.72,10.13,5.72,6.54,0,11.86-5.32,11.86-11.86s-5.18-11.7-11.59-11.85v-11.98c0-2.32-1.79-4.21-4.07-4.42v-5.77c0-9.87-8.03-17.9-17.9-17.9Zm9.34,23.64h-18.68v-5.74c0-5.15,4.19-9.34,9.34-9.34s9.34,4.19,9.34,9.34v5.74Zm-24.51-5.74c0-8.37,6.81-15.17,15.17-15.17s15.17,6.81,15.17,15.17v5.73h-3.11v-5.73c0-6.65-5.41-12.07-12.07-12.07s-12.07,5.41-12.07,12.07v5.73h-3.11v-5.73Zm46,34.01c0,5.04-4.1,9.14-9.13,9.14s-9.13-4.1-9.13-9.14,4.1-9.13,9.13-9.13,9.13,4.1,9.13,9.13Zm-11.59-23.82v12.22c-5.36,1.13-9.4,5.9-9.4,11.6,0,1.22.19,2.39.53,3.49h-20.73c-4.89,0-8.87-3.98-8.87-8.87v-18.44c0-.95.78-1.73,1.73-1.73h35.02c.95,0,1.73.78,1.73,1.73h0Zm-19.24,5.01c-2.77,0-5.03,2.26-5.03,5.03,0,1.39.58,2.71,1.57,3.65v3.43c0,1.88,1.52,3.46,3.46,3.46s3.46-1.55,3.46-3.46v-3.43c1-.95,1.57-2.26,1.57-3.65,0-2.77-2.26-5.03-5.03-5.03h0Zm1.31,6.92c-.36.25-.58.67-.58,1.12v4.07c0,.41-.33.73-.73.73s-.73-.34-.73-.73v-4.07c0-.44-.22-.86-.58-1.12-.62-.43-.99-1.14-.99-1.9,0-1.27,1.03-2.3,2.3-2.3s2.3,1.03,2.3,2.3c0,.75-.37,1.46-.99,1.9h0Zm18.87,12.9l4.59-5.11c.5-.56,1.37-.61,1.93-.1.56.5.61,1.37.1,1.93l-5.74,6.4c-.26.29-.63.45-1.01.45-.03,0-.06,0-.09,0-.42-.03-.8-.24-1.04-.59l-2.43-3.51c-.43-.62-.27-1.47.35-1.9.62-.43,1.47-.28,1.9.35l1.45,2.09Z"/>
  </g>
</svg>