<?xml version="1.0" encoding="UTF-8"?>
<svg id="Layer_1" data-name="Layer 1" xmlns="http://www.w3.org/2000/svg" xmlns:xlink="http://www.w3.org/1999/xlink" viewBox="0 0 101 101">
  <defs>
    <style>
      .cls-1 {
        fill: url(#New_Gradient_Swatch-2);
        opacity: .93;
      }

      .cls-1, .cls-2, .cls-3, .cls-4, .cls-5 {
        fill-rule: evenodd;
        isolation: isolate;
      }

      .cls-2 {
        fill: url(#New_Gradient_Swatch-5);
        opacity: .92;
      }

      .cls-3 {
        fill: url(#New_Gradient_Swatch);
      }

      .cls-3, .cls-4 {
        opacity: .93;
      }

      .cls-4 {
        fill: url(#New_Gradient_Swatch-3);
      }

      .cls-5 {
        fill: url(#New_Gradient_Swatch-4);
        opacity: .94;
      }
    </style>
    <linearGradient id="New_Gradient_Swatch" data-name="New Gradient Swatch" x1="29.69" y1="50.05" x2="89.95" y2="50.05" gradientUnits="userSpaceOnUse">
      <stop offset="0" stop-color="#67447e"/>
      <stop offset=".2" stop-color="#3e224a"/>
      <stop offset=".89" stop-color="#34ad88"/>
      <stop offset="1" stop-color="#5eeaa7"/>
    </linearGradient>
    <linearGradient id="New_Gradient_Swatch-2" data-name="New Gradient Swatch" x1="5.36" y1="20.59" x2="27.29" y2="20.59" xlink:href="#New_Gradient_Swatch"/>
    <linearGradient id="New_Gradient_Swatch-3" data-name="New Gradient Swatch" x1="74.1" y1="32.87" x2="96.04" y2="32.87" xlink:href="#New_Gradient_Swatch"/>
    <linearGradient id="New_Gradient_Swatch-4" data-name="New Gradient Swatch" x1="5.32" y1="72.12" x2="29.85" y2="72.12" xlink:href="#New_Gradient_Swatch"/>
    <linearGradient id="New_Gradient_Swatch-5" data-name="New Gradient Swatch" x1="57.67" y1="76.57" x2="81.13" y2="76.57" xlink:href="#New_Gradient_Swatch"/>
  </defs>
  <path class="cls-3" d="m36.81,4.49h2.85c1.05.41,2,1,2.85,1.78.85-.78,1.8-1.37,2.85-1.78h2.85c1.12.34,2.1.93,2.94,1.78.84-.85,1.82-1.44,2.94-1.78h2.85c1.93.5,3.23,1.69,3.92,3.56,2.8-1.1,5.09-.45,6.85,1.96.28.56.46,1.16.53,1.78.12,5.1.12,10.2,0,15.31-.14,1.87-.62,3.65-1.42,5.34-1.12,1.65-2.3,3.25-3.56,4.81-.67,1.22-1.08,2.53-1.25,3.92-.15,1.72-.12,3.44.09,5.16.98.18,1.66.71,2.05,1.6.09,2.43.12,4.86.09,7.3,9.28-1.84,16.72,1.01,22.34,8.54,4.64,7.85,4.52,15.62-.36,23.32-3.55,4.79-8.27,7.63-14.15,8.54h-5.34c-6.57-1.12-11.61-4.5-15.13-10.15-5.22-.15-10.44-.24-15.66-.27-.84-.2-1.4-.7-1.69-1.51-.12-4.92-.12-9.85,0-14.77.96-1.21,1.85-1.15,2.67.18.09,4.45.12,8.9.09,13.35,4.39.06,8.78,0,13.17-.18-2.75-8.44-1.03-15.83,5.16-22.16,1.83-1.68,3.91-2.96,6.23-3.83v-7.12h-24.56c.03,4.87,0,9.73-.09,14.59-.82,1.35-1.71,1.41-2.67.18-.12-5.28-.12-10.56,0-15.84.42-1.1,1.22-1.69,2.4-1.78.34-3.2-.4-6.11-2.22-8.72-1.84-2.02-3.32-4.27-4.45-6.76-.2-2.13-.29-4.26-.27-6.41.03-1.84.06-3.68.09-5.52.4-1.46,1.2-2.64,2.4-3.56.15-1.96.24-3.91.27-5.87.42-2.59,1.88-4.25,4.36-4.98Zm1.25,2.67c1.22.12,2.14.72,2.76,1.78.25,1.77.34,3.55.27,5.34h-5.87c-.07-1.73.02-3.45.27-5.16.5-1.15,1.36-1.81,2.58-1.96Zm8.72,0c1.25.19,2.17.85,2.76,1.96.25,1.77.34,3.55.27,5.34-1.95-.14-3.91-.2-5.87-.18-.08-1.79.01-3.57.27-5.34.59-1.02,1.45-1.61,2.58-1.78Zm7.65.18c1.75-.38,3.03.21,3.83,1.78.12,3.56.12,7.12,0,10.68-.95,1.68-2.35,2.18-4.18,1.51-.63-.34-1.08-.84-1.33-1.51-.12-3.62-.12-7.24,0-10.86.43-.7.99-1.23,1.69-1.6Zm8.54,3.03c1.27-.03,2.07.56,2.4,1.78.12,2.43.12,4.86,0,7.3-.61,1.65-1.71,2.1-3.29,1.33-.43-.35-.69-.79-.8-1.33-.12-2.43-.12-4.86,0-7.3.24-.92.8-1.52,1.69-1.78Zm-27.77,6.76c4.39-.03,8.78,0,13.17.09.5,0,.95.16,1.33.44-.03,2.11-1.07,3.44-3.11,4-2.15.02-4.28.13-6.41.36-1.2.55-1.94,1.47-2.22,2.76-.12.95-.12,1.9,0,2.85.15.62.53,1.01,1.16,1.16,3.75.37,6.16,2.36,7.21,5.96.88.75,1.71.69,2.49-.18-.34-3.66-2.21-6.24-5.61-7.74-.8-.34-1.63-.54-2.49-.62-.12-.69.12-1.19.71-1.51,2.09-.02,4.16-.14,6.23-.36,1.26-.3,2.33-.93,3.2-1.87,2.34,2.15,4.95,2.53,7.83,1.16.44-.26.82-.59,1.16-.98,1.66,1.49,3.49,1.78,5.52.89.42,3.07-.18,5.92-1.78,8.54-3.81,3.97-5.33,8.72-4.54,14.24h-19.58c.35-3.94-.63-7.5-2.94-10.68l-3.2-4.27c-.31-.56-.54-1.16-.71-1.78-.12-3.38-.12-6.76,0-10.15.45-1.25,1.31-2.02,2.58-2.31Zm31.86,40.4c8.58-.51,14.78,3.05,18.6,10.68,2.96,8.32,1.09,15.35-5.61,21.09-6.63,4.46-13.39,4.7-20.29.71-6.74-4.91-9.2-11.47-7.39-19.67,2.44-7.1,7.33-11.37,14.68-12.81Z"/>
  <path class="cls-1" d="m15.81,5.38c.98-.06,1.78.3,2.4,1.07,2.97,3.68,5.93,7.36,8.9,11.03.38.89.17,1.63-.62,2.22-1.3.09-2.61.12-3.92.09.03,4.87,0,9.73-.09,14.59-.21.68-.65,1.13-1.33,1.33-3.2.12-6.41.12-9.61,0-.61-.2-1.06-.58-1.33-1.16-.26-4.92-.35-9.84-.27-14.77-1.25.03-2.49,0-3.74-.09-.68-.44-.95-1.06-.8-1.87,2.84-3.73,5.75-7.41,8.72-11.03.5-.59,1.06-1.06,1.69-1.42Zm.36,3.56c.27,0,.48.12.62.36,2.05,2.52,4.09,5.04,6.14,7.56-.8.05-1.58.22-2.31.53-.43.35-.69.79-.8,1.33-.09,4.75-.12,9.49-.09,14.24h-6.94c.03-4.92,0-9.85-.09-14.77-.21-.44-.53-.77-.98-.98-.64-.17-1.3-.29-1.96-.36,2.17-2.62,4.31-5.26,6.41-7.92Z"/>
  <path class="cls-4" d="m84.51,17.66c1.12-.11,1.98.3,2.58,1.25,3.03,3.69,6,7.42,8.9,11.21.18.83-.09,1.45-.8,1.87-1.24.09-2.49.12-3.74.09.08,4.93,0,9.86-.27,14.77-.28.58-.73.97-1.33,1.16-3.2.12-6.41.12-9.61,0-.68-.21-1.13-.65-1.33-1.33-.09-4.86-.12-9.73-.09-14.59-1.31.03-2.61,0-3.92-.09-.79-.58-1-1.33-.62-2.22,2.97-3.68,5.93-7.36,8.9-11.03.38-.47.82-.82,1.33-1.07Zm.36,3.56c.33.06.6.24.8.53,2.05,2.52,4.09,5.04,6.14,7.56-.71.06-1.42.12-2.14.18-.44.21-.77.53-.98.98-.09,4.92-.12,9.85-.09,14.77h-6.94c.03-4.75,0-9.49-.09-14.24-.11-.54-.37-.99-.8-1.33-.81-.22-1.64-.33-2.49-.36,2.23-2.68,4.43-5.38,6.59-8.1Z"/>
  <path class="cls-5" d="m17.05,50.41c.55-.03,1.09.06,1.6.27,3.84,4.44,7.55,8.97,11.12,13.62.22.95-.11,1.63-.98,2.05-1.42.09-2.85.12-4.27.09.03,8.66,0,17.32-.09,25.99-.2.61-.58,1.06-1.16,1.33-3.74.12-7.48.12-11.21,0-.71-.26-1.16-.77-1.33-1.51-.12-3.32-.12-6.64,0-9.97.54-.9,1.28-1.1,2.22-.62.21.16.36.37.44.62.09,2.97.12,5.93.09,8.9h8.19c-.03-8.66,0-17.32.09-25.99.2-.61.58-1.06,1.16-1.33.87-.21,1.76-.33,2.67-.36-2.66-3.22-5.3-6.45-7.92-9.7-2.68,3.17-5.32,6.37-7.92,9.61.7.15,1.42.24,2.14.27.74.27,1.25.77,1.51,1.51.12,4.39.12,8.78,0,13.17-.55.85-1.29,1.06-2.22.62-.21-.16-.36-.37-.44-.62-.09-3.97-.12-7.95-.09-11.92-1.43.03-2.85,0-4.27-.09-1.05-.54-1.31-1.34-.8-2.4,3.33-3.98,6.59-8.02,9.79-12.1.5-.59,1.06-1.06,1.69-1.42Z"/>
  <path class="cls-2" d="m63.33,65.89c2.3-.11,4.34.54,6.14,1.96,2.6-2.17,5.42-2.5,8.45-.98,2.49,1.9,3.53,4.42,3.11,7.56-.18,1.07-.54,2.08-1.07,3.03-3.12,3.42-6.41,6.65-9.88,9.7-.97.25-1.81.01-2.49-.71-2.7-2.7-5.4-5.4-8.1-8.1-2.25-3.08-2.43-6.29-.53-9.61,1.07-1.56,2.52-2.51,4.36-2.85Zm.36,2.85c-.57.16-1.1.43-1.6.8-1.94,2.17-2.08,4.45-.44,6.85,2.56,2.62,5.17,5.17,7.83,7.65,2.61-2.61,5.22-5.22,7.83-7.83.96-1.43,1.2-2.97.71-4.63-.47-1.48-1.45-2.4-2.94-2.76-1.92-.02-3.52.69-4.81,2.14-.68.33-1.33.27-1.96-.18-1.24-1.35-2.78-2.04-4.63-2.05Z"/>
</svg>