<?xml version="1.0" encoding="UTF-8"?>
<svg id="Layer_1" data-name="Layer 1" xmlns="http://www.w3.org/2000/svg" xmlns:xlink="http://www.w3.org/1999/xlink" viewBox="0 0 101 101">
  <defs>
    <style>
      .cls-1 {
        fill: url(#linear-gradient);
        fill-rule: evenodd;
      }
    </style>
    <linearGradient id="linear-gradient" x1="-369.38" y1="344.97" x2="-368.35" y2="344.97" gradientTransform="translate(68584.46 -2236.54) rotate(-45) scale(135.76 -135.76)" gradientUnits="userSpaceOnUse">
      <stop offset="0" stop-color="#67447e"/>
      <stop offset=".31" stop-color="#3e224a"/>
      <stop offset=".77" stop-color="#34ad88"/>
      <stop offset="1" stop-color="#5eeaa7"/>
    </linearGradient>
  </defs>
  <path class="cls-1" d="m57.03,24.32c-2.08,2.55-4.02,5.19-5.8,7.91-.69-3.54-2.08-6.31-4.06-8.36-2.79-2.89-6.79-4.43-11.93-4.62-.42-.02-.83.14-1.13.43-.3.29-.48.69-.48,1.11,0,0-.02,3.06.99,6.61.94,3.31,2.8,7,6.27,9.19,1.74,1.1,3.88,1.83,6.54,1.94-4.66,8.44-8.05,17.56-10.35,27.29h-8.19c-1.75-6.65-4.17-12.93-7.36-18.8,1.92-.15,3.5-.73,4.8-1.55,2.81-1.77,4.32-4.76,5.08-7.44.81-2.85.79-5.3.79-5.3,0-.42-.18-.82-.48-1.11-.3-.29-.71-.45-1.13-.43-4.15.16-7.38,1.41-9.63,3.75-1.45,1.51-2.51,3.49-3.12,5.99-1.2-1.79-2.49-3.54-3.87-5.25,3.07-1.08,5.03-2.78,6.28-4.68,3.57-5.43,1.09-12.71,1.09-12.71-.27-.77-1.09-1.2-1.88-.98-4.12,1.15-6.94,3.3-8.55,6.32-1.01,1.9-1.55,4.16-1.58,6.8-.5-.52-1.01-1.03-1.53-1.53-.61-.6-1.6-.58-2.19.03-.6.61-.58,1.6.03,2.19,5.69,5.54,10.22,11.71,13.73,18.44-1.85-.62-3.64-.83-5.36-.65-3,.32-5.83,1.84-8.43,4.65-.28.3-.43.71-.41,1.12.02.41.2.8.51,1.08,0,0,5.04,4.53,10.79,3.39,1.9-.38,3.91-1.35,5.82-3.33,1.33,3.22,2.46,6.56,3.4,10H6.73c-.86,0-1.55.69-1.55,1.55v18.94s0,.04,0,.06v11.88c0,.86.69,1.55,1.55,1.55h85.8c.86,0,1.55-.69,1.55-1.55v-30.88c0-.86-.69-1.55-1.55-1.55h-23.52c1.06-4.07,2.36-8,3.93-11.79,2.04,2.15,4.17,3.19,6.2,3.59,6.03,1.19,11.32-3.56,11.32-3.56.31-.28.49-.67.51-1.08.02-.41-.13-.82-.41-1.12-2.73-2.96-5.7-4.56-8.85-4.89-1.87-.2-3.81.05-5.83.75,3.73-7.19,8.55-13.78,14.62-19.69.61-.6.63-1.58.03-2.19-.6-.61-1.58-.63-2.19-.03-.6.58-1.19,1.17-1.77,1.77-.01-2.86-.58-5.31-1.66-7.36-1.69-3.18-4.65-5.43-8.98-6.64-.79-.22-1.61.21-1.88.98,0,0-2.61,7.65,1.14,13.35,1.32,2.01,3.42,3.82,6.71,4.95-1.52,1.88-2.94,3.82-4.27,5.8-.62-2.72-1.76-4.86-3.32-6.49-2.37-2.46-5.76-3.77-10.11-3.93-.42-.02-.83.14-1.13.43s-.48.69-.48,1.11c0,0-.02,2.58.83,5.58.8,2.82,2.39,5.95,5.33,7.81,1.39.88,3.09,1.49,5.17,1.63-3.56,6.54-6.23,13.56-8.1,21.01h-25.53c1.39-5.72,3.17-11.23,5.39-16.5,2.49,2.76,5.11,4.08,7.6,4.57,7.1,1.4,13.32-4.2,13.32-4.2.3-.28.49-.67.5-1.08.02-.41-.13-.82-.41-1.12-3.22-3.49-6.71-5.38-10.43-5.77-2.43-.26-4.96.13-7.6,1.17,4.54-8.93,10.46-17.11,17.98-24.43.61-.6.63-1.58.03-2.19-.6-.61-1.58-.63-2.19-.03-.91.88-1.79,1.78-2.65,2.68.09-3.71-.57-6.87-1.95-9.46-2-3.74-5.49-6.39-10.59-7.81-.79-.22-1.61.21-1.88.98,0,0-3.09,9.03,1.34,15.75,1.61,2.45,4.2,4.64,8.31,5.95Zm33.95,63.27c-2-.5-3.9-1.41-5.82-2.23-2.92-1.24-5.9-2.27-9.59-.24-6.4,3.52-10.56,4.12-13.65,3.56-2.15-.39-3.83-1.35-5.39-2.43-2.09-1.44-3.91-3.2-6.95-3.32-3.34-.13-5.68,1.31-8.26,2.53-4.5,2.14-9.56,3.95-19.83-1.29-1.92-.98-4.06-.45-6.26.36-2.3.85-4.65,2.07-6.93,2.9v9.24h82.7v-9.09Zm-82.7-3.47c2.51-1,5.08-2.35,7.54-3.05,2.48-.7,4.87-.78,7.06.34,8.86,4.52,13.21,3.1,17.09,1.26,3.01-1.43,5.8-2.99,9.71-2.83,2.87.11,4.93,1.29,6.88,2.65,1.82,1.28,3.52,2.77,6.1,3.17,2.62.41,6.08-.33,11.4-3.26,3.99-2.2,7.35-1.75,10.55-.6,2.14.77,4.19,1.92,6.36,2.57v-15.48h-22.72c-.45,2-.85,4.02-1.19,6.08-.14.84-.94,1.42-1.78,1.28-.84-.14-1.42-.94-1.28-1.78.31-1.88.67-3.74,1.07-5.57h-25.51c-.43,2-.82,4.03-1.16,6.08-.14.84-.94,1.42-1.78,1.28-.84-.14-1.42-.94-1.28-1.78.31-1.88.66-3.73,1.05-5.57h-6.74c.46,2.01.86,4.04,1.2,6.11.14.84-.43,1.64-1.28,1.78-.84.14-1.64-.43-1.78-1.28-.37-2.24-.81-4.45-1.32-6.61H8.28v15.22Zm45.03-10.79v3.09c0,.86.69,1.55,1.55,1.55s1.55-.69,1.55-1.55v-3.09c0-.86-.69-1.55-1.55-1.55s-1.55.69-1.55,1.55Zm29,0v3.09c0,.86.69,1.55,1.55,1.55s1.55-.69,1.55-1.55v-3.09c0-.86-.69-1.55-1.55-1.55s-1.55.69-1.55,1.55Zm-68.08,0v3.09c0,.86.69,1.55,1.55,1.55s1.55-.69,1.55-1.55v-3.09c0-.86-.69-1.55-1.55-1.55s-1.55.69-1.55,1.55Zm6.14-20.02c-2.11-1.08-4.11-1.55-6.02-1.34-1.86.2-3.6,1.03-5.25,2.47,1.47.96,4.01,2.19,6.78,1.65,1.49-.29,3.02-1.13,4.5-2.77Zm54.5-1.8c1.6,1.81,3.26,2.72,4.87,3.04,3.01.59,5.77-.78,7.32-1.82-1.79-1.58-3.67-2.5-5.68-2.71-2.06-.22-4.23.3-6.51,1.48Zm-27.28-4.74c2.05,2.43,4.2,3.64,6.28,4.05,3.93.78,7.51-1.18,9.35-2.45-2.28-2.11-4.7-3.32-7.29-3.59-2.63-.28-5.41.41-8.34,2Zm-27.1-2.84c.29-3,1.19-5.28,2.72-6.87,1.42-1.48,3.37-2.32,5.78-2.65-.09.76-.26,1.72-.55,2.75-.58,2.02-1.64,4.33-3.75,5.66-1.1.69-2.47,1.11-4.2,1.11Zm54.49-2.22c-1.88.01-3.38-.43-4.57-1.18-2.26-1.42-3.39-3.88-4.01-6.03-.32-1.13-.5-2.2-.6-3.03,2.62.34,4.73,1.25,6.27,2.84,1.64,1.71,2.6,4.16,2.91,7.4Zm-26.43-6.3c-2.49.07-4.45-.49-5.99-1.46-2.78-1.75-4.18-4.77-4.94-7.42-.45-1.57-.66-3.02-.77-4.07,3.4.38,6.14,1.51,8.1,3.55,2.07,2.15,3.26,5.27,3.6,9.4Zm-35.99-2.55c-.33-3.13,0-5.73,1.11-7.8,1.04-1.95,2.77-3.37,5.16-4.3.42,1.98.78,5.59-1.15,8.51-.99,1.5-2.61,2.79-5.12,3.59Zm70.78-2.81c-2.74-.85-4.49-2.24-5.56-3.86-2.08-3.16-1.65-7.08-1.2-9.16,2.6.99,4.48,2.52,5.6,4.62,1.18,2.22,1.54,5.03,1.17,8.4Zm-24.83-8.54c-3.58-1.04-5.84-2.8-7.2-4.87-2.67-4.06-1.98-9.13-1.41-11.58,3.38,1.21,5.79,3.14,7.21,5.82,1.49,2.79,1.91,6.34,1.39,10.63Z"/>
</svg>