<?xml version="1.0" encoding="UTF-8"?>
<svg id="Layer_1" data-name="Layer 1" xmlns="http://www.w3.org/2000/svg" xmlns:xlink="http://www.w3.org/1999/xlink" viewBox="0 0 101 101">
  <defs>
    <style>
      .cls-1 {
        fill: url(#linear-gradient);
      }
    </style>
    <linearGradient id="linear-gradient" x1="8.23" y1="50.88" x2="95.62" y2="50.88" gradientTransform="translate(0 101.28) scale(1 -1)" gradientUnits="userSpaceOnUse">
      <stop offset="0" stop-color="#67447e"/>
      <stop offset=".2" stop-color="#3e224a"/>
      <stop offset=".76" stop-color="#34ad88"/>
      <stop offset="1" stop-color="#5eeaa7"/>
    </linearGradient>
  </defs>
  <path class="cls-1" d="m56.56,56.53c-.79,0-1.54.19-2.21.52v-16.3c0-2.72-2.22-4.94-4.94-4.94s-4.94,2.22-4.94,4.94v4.87c-.67-.33-1.41-.52-2.21-.52-2.72,0-4.94,2.22-4.94,4.94v3.08c-.67-.33-1.41-.52-2.21-.52-2.72,0-4.94,2.22-4.94,4.94v1.65c-.67-.33-1.41-.52-2.21-.52-2.72,0-4.94,2.22-4.94,4.94v9.77c0,4.87,1.89,9.54,5.17,13.08h-1.05c-.76,0-1.37.61-1.37,1.37v9.4c0,.76.61,1.37,1.37,1.37h30.23c.76,0,1.37-.61,1.37-1.37v-9.4c0-.76-.61-1.37-1.37-1.37h-1.05c3.28-3.53,5.17-8.21,5.17-13.08v-11.91c0-2.72-2.22-4.94-4.94-4.94h0Zm-.54,39.33h-27.5v-6.67h27.5v6.67Zm2.75-22.48c0,5.1-2.41,9.95-6.48,13.08h-20.04c-4.06-3.12-6.47-7.98-6.47-13.08v-9.77c0-1.22.99-2.21,2.21-2.21s2.21.99,2.21,2.21v6.26c0,.76.61,1.37,1.37,1.37s1.37-.61,1.37-1.37v-12.33c0-1.22.99-2.21,2.2-2.21s2.21.99,2.21,2.21v12.33c0,.76.61,1.37,1.37,1.37s1.37-.61,1.37-1.37v-19.83c0-1.22.99-2.21,2.21-2.21s2.21.99,2.21,2.21v19.83c0,.76.61,1.37,1.37,1.37s1.37-.61,1.37-1.37v-29.12c0-1.22.99-2.21,2.21-2.21s2.21.99,2.21,2.21v29.12c0,.76.61,1.37,1.37,1.37s1.37-.61,1.37-1.37v-8.4c0-1.22.99-2.21,2.21-2.21s2.21.99,2.21,2.21v11.91h0Zm25.67-31.14c6.16,0,11.17-5.01,11.17-11.17s-5.01-11.17-11.17-11.17c-3.69,0-6.97,1.8-9,4.57l-17.18-9.62c.39-1.03.61-2.15.61-3.32,0-5.14-4.19-9.33-9.33-9.33s-9.33,4.18-9.33,9.33c0,1.49.35,2.9.98,4.16l-14.91,10.39c-1.9-2.08-4.63-3.38-7.67-3.38-5.73,0-10.39,4.66-10.39,10.39s4.66,10.39,10.39,10.39c4.45,0,8.26-2.82,9.74-6.76l9.78,2.24c-.04.4-.06.8-.06,1.21,0,1.13.16,2.24.48,3.29.22.72.98,1.13,1.7.92s1.13-.98.92-1.7c-.24-.8-.36-1.64-.36-2.5,0-4.81,3.92-8.73,8.73-8.73s8.73,3.92,8.73,8.73c0,2-.66,3.88-1.9,5.43-.47.59-.37,1.45.22,1.92.25.2.55.3.85.3.4,0,.8-.18,1.07-.52,1.61-2.02,2.49-4.55,2.49-7.14,0-.53-.04-1.04-.11-1.55l13.16-3.43c1.3,3.27,4.11,5.79,7.56,6.69l-1.5,11.2c-4.97.08-8.99,4.15-8.99,9.15s4.1,9.15,9.14,9.15,9.15-4.1,9.15-9.15c0-4.16-2.79-7.68-6.59-8.78l1.5-11.21s.08,0,.12,0h0Zm2.25,19.99c0,3.54-2.88,6.42-6.42,6.42s-6.41-2.88-6.41-6.42,2.88-6.42,6.41-6.42c.28,0,.56.02.83.06,0,0,.01,0,.02,0h.02c3.13.43,5.54,3.11,5.54,6.36h0ZM49.54,4.93c3.64,0,6.6,2.96,6.6,6.59s-2.96,6.6-6.6,6.6-6.59-2.96-6.59-6.6,2.96-6.59,6.59-6.59Zm-30.92,35.82c-4.23,0-7.66-3.44-7.66-7.66s3.44-7.66,7.66-7.66,7.66,3.44,7.66,7.66-3.44,7.66-7.66,7.66Zm41.59-4.77c-1.68-4.25-5.83-7.27-10.67-7.27s-9.19,3.17-10.79,7.59l-9.78-2.24c.03-.32.05-.64.05-.97,0-1.72-.42-3.34-1.17-4.77l14.91-10.39c1.7,1.81,4.11,2.94,6.78,2.94,3,0,5.67-1.42,7.38-3.63l17.18,9.62c-.53,1.3-.83,2.73-.83,4.23,0,.5.04.99.1,1.48l-13.16,3.43h0Zm15.8-4.91c0-4.65,3.79-8.44,8.44-8.44s8.44,3.79,8.44,8.44-3.79,8.44-8.44,8.44-8.44-3.79-8.44-8.44ZM24.14,15.49c-3.56-1.11-7.49-1.11-11.05,0-.72.22-1.49-.18-1.71-.9s.18-1.49.9-1.71c4.09-1.27,8.59-1.27,12.67,0,.72.22,1.12.99.9,1.71-.18.59-.72.96-1.3.96-.13,0-.27-.02-.41-.06h0Zm-15.49-5.6c-.26-.71.11-1.49.82-1.75,5.9-2.15,12.4-2.15,18.3,0,.71.26,1.07,1.04.82,1.75-.2.55-.73.9-1.28.9-.16,0-.31-.03-.47-.08-5.29-1.93-11.13-1.93-16.42,0-.71.26-1.49-.11-1.75-.82Zm13.4,7.79c.74.16,1.2.89,1.04,1.63s-.89,1.21-1.63,1.04c-1.87-.41-3.83-.41-5.69,0-.1.02-.2.03-.29.03-.63,0-1.19-.44-1.33-1.07-.16-.74.3-1.47,1.04-1.63,2.24-.49,4.62-.49,6.87,0h0Z"/>
</svg>