<?xml version="1.0" encoding="UTF-8"?>
<svg id="Layer_1" data-name="Layer 1" xmlns="http://www.w3.org/2000/svg" xmlns:xlink="http://www.w3.org/1999/xlink" viewBox="0 0 101 101">
  <defs>
    <style>
      .cls-1 {
        fill: url(#linear-gradient);
      }
    </style>
    <linearGradient id="linear-gradient" x1="4.41" y1="3.65" x2="92.94" y2="92.18" gradientTransform="translate(0 101.28) scale(1 -1)" gradientUnits="userSpaceOnUse">
      <stop offset="0" stop-color="#67447e"/>
      <stop offset=".2" stop-color="#3e224a"/>
      <stop offset=".82" stop-color="#34ad88"/>
      <stop offset="1" stop-color="#5eeaa7"/>
    </linearGradient>
  </defs>
  <path class="cls-1" d="m68.31,63.5c0-.44-.17-.85-.48-1.16l-2.42-2.43c.83-1.43,1.45-2.95,1.88-4.53h3.43c.9,0,1.63-.73,1.63-1.63v-6.33c0-.91-.73-1.64-1.63-1.64h-3.43c-.43-1.58-1.06-3.1-1.88-4.52l2.42-2.42c.31-.31.48-.72.48-1.16s-.17-.85-.48-1.16l-4.48-4.48c-.62-.62-1.65-.63-2.31,0l-2.42,2.43c-1.44-.83-2.95-1.46-4.53-1.87v-3.43c0-.91-.73-1.64-1.63-1.64h-6.33c-.91,0-1.64.74-1.64,1.64v3.43c-1.58.42-3.1,1.04-4.52,1.87l-2.43-2.43c-.63-.63-1.65-.63-2.31,0l-4.49,4.49c-.62.64-.62,1.65.02,2.31l2.43,2.42c-.83,1.42-1.46,2.94-1.88,4.52h-3.42c-.91,0-1.64.74-1.64,1.64v6.33c0,.9.74,1.63,1.64,1.63h3.42c.42,1.58,1.05,3.1,1.88,4.53l-2.45,2.44c-.62.64-.62,1.65.02,2.31l4.48,4.47c.31.31.72.48,1.16.48h.02c.44,0,.85-.18,1.13-.48l2.43-2.42c1.41.82,2.93,1.45,4.52,1.87v3.43c0,.9.74,1.63,1.64,1.63h6.33c.92,0,1.63-.72,1.63-1.63v-3.43c1.59-.42,3.11-1.05,4.53-1.87l2.42,2.42c.31.31.72.48,1.16.48h.02c.44,0,.85-.18,1.13-.48l4.48-4.47c.31-.31.48-.72.48-1.16h0Zm-6.12,3.9l-2.7-2.7c-.34-.34-.87-.39-1.27-.14-1.66,1.06-3.46,1.81-5.37,2.22-.47.1-.8.52-.8,1v3.83h-5.52v-3.83c0-.48-.33-.89-.8-1-1.92-.42-3.73-1.17-5.36-2.22-.4-.26-.93-.2-1.27.14l-2.71,2.7-3.91-3.9,2.71-2.71c.34-.34.4-.87.14-1.27-1.07-1.67-1.82-3.48-2.23-5.37-.1-.47-.52-.8-1-.8h-3.83v-5.52h3.83c.48,0,.89-.33,1-.8.42-1.91,1.17-3.71,2.23-5.36.26-.4.2-.94-.14-1.28l-2.72-2.71,3.91-3.91,2.71,2.71c.34.34.87.4,1.27.14,1.66-1.07,3.46-1.81,5.36-2.22.47-.1.81-.52.81-1v-3.84h5.52v3.84c0,.48.34.9.81,1,1.89.4,3.69,1.15,5.37,2.22.4.26.93.2,1.27-.14l2.7-2.71,3.91,3.91-2.71,2.71c-.34.34-.4.87-.14,1.27,1.05,1.66,1.81,3.46,2.23,5.37.1.47.52.8,1,.8h3.82v5.52h-3.82c-.48,0-.89.33-1,.8-.42,1.9-1.18,3.71-2.23,5.38-.26.4-.2.93.14,1.27l2.71,2.71-3.91,3.9Zm-12.91-26.43c-5.3,0-9.61,4.31-9.61,9.61s4.31,9.61,9.61,9.61,9.61-4.31,9.61-9.61-4.31-9.61-9.61-9.61h0Zm0,17.19c-4.18,0-7.57-3.4-7.57-7.57s3.4-7.57,7.57-7.57,7.57,3.4,7.57,7.57-3.4,7.57-7.57,7.57h0Zm0-21.29c-7.56,0-13.72,6.16-13.72,13.72s6.16,13.71,13.72,13.71,13.72-6.15,13.72-13.71c0-7.57-6.16-13.72-13.72-13.72h0Zm0,25.38c-6.44,0-11.68-5.23-11.68-11.67s5.24-11.68,11.68-11.68,11.68,5.24,11.68,11.68c0,6.43-5.24,11.67-11.68,11.67h0Zm46.2,14h-26.01c-1.19,0-2.16.97-2.16,2.16v5.27c0,1.2.97,2.16,2.16,2.16h.83v1.73h-.83c-1.19,0-2.16.97-2.16,2.16v5.27c0,1.19.97,2.16,2.16,2.16h26.01c1.2,0,2.16-.97,2.16-2.16v-5.27c0-1.19-.97-2.16-2.16-2.16h-.84v-1.73h.84c1.2,0,2.16-.97,2.16-2.16v-5.27c0-1.2-.97-2.16-2.16-2.16Zm0,13.37c.06,0,.12.06.12.12v5.27c0,.07-.06.12-.12.12h-26.01c-.07,0-.12-.05-.12-.12v-5.27c0-.06.05-.12.12-.12h26.01Zm-23.14-2.04v-1.73h20.26v1.73h-20.26Zm23.26-3.9c0,.07-.06.12-.12.12h-26.01c-.07,0-.12-.05-.12-.12v-5.27c0-.06.05-.12.12-.12h26.01c.06,0,.12.06.12.12v5.27h0Zm-9.54-2.63c0,.65-.53,1.18-1.18,1.18s-1.18-.53-1.18-1.18.53-1.18,1.18-1.18,1.18.53,1.18,1.18Zm3.89,0c0,.65-.53,1.18-1.18,1.18s-1.18-.53-1.18-1.18.53-1.18,1.18-1.18,1.18.53,1.18,1.18Zm3.89,0c0,.65-.53,1.18-1.18,1.18s-1.18-.53-1.18-1.18.53-1.18,1.18-1.18,1.18.53,1.18,1.18Zm-10.14,11.33c0-.65.53-1.18,1.18-1.18s1.18.53,1.18,1.18-.53,1.18-1.18,1.18-1.18-.53-1.18-1.18Zm3.89,0c0-.65.53-1.18,1.18-1.18s1.18.53,1.18,1.18-.53,1.18-1.18,1.18-1.18-.53-1.18-1.18Zm3.89,0c0-.65.53-1.18,1.18-1.18s1.18.53,1.18,1.18-.53,1.18-1.18,1.18-1.18-.53-1.18-1.18ZM7.42,24.91h26.01c1.2,0,2.16-.97,2.16-2.16v-5.27c0-1.19-.97-2.16-2.16-2.16h-.84v-1.73h.84c1.2,0,2.16-.97,2.16-2.16v-5.27c0-1.18-.97-2.16-2.16-2.16H7.42c-1.19,0-2.16.98-2.16,2.16v5.27c0,1.2.97,2.16,2.16,2.16h.83v1.73h-.83c-1.19,0-2.16.97-2.16,2.16v5.27c0,1.2.97,2.17,2.16,2.17Zm0-13.37c-.07,0-.12-.05-.12-.12v-5.27c0-.06.05-.12.12-.12h26.01c.07,0,.12.06.12.12v5.27c0,.07-.05.12-.12.12H7.42Zm23.13,2.04v1.73H10.29v-1.73h20.26Zm-23.25,3.9c0-.06.05-.12.12-.12h26.01c.07,0,.12.06.12.12v5.27c0,.07-.05.12-.12.12H7.42c-.07,0-.12-.05-.12-.12v-5.27Zm16.71-8.7c0,.65-.53,1.19-1.18,1.19s-1.18-.54-1.18-1.19.53-1.18,1.18-1.18,1.18.53,1.18,1.18Zm3.89,0c0,.65-.53,1.19-1.18,1.19s-1.18-.54-1.18-1.19.53-1.18,1.18-1.18,1.18.53,1.18,1.18Zm3.89,0c0,.65-.53,1.19-1.18,1.19s-1.18-.54-1.18-1.19.53-1.18,1.18-1.18,1.18.53,1.18,1.18Zm-10.14,11.33c0-.65.53-1.18,1.18-1.18s1.18.53,1.18,1.18-.53,1.19-1.18,1.19c-.65,0-1.18-.54-1.18-1.19Zm3.89,0c0-.65.53-1.18,1.18-1.18s1.18.53,1.18,1.18-.53,1.19-1.18,1.19c-.65,0-1.18-.54-1.18-1.19Zm3.89,0c0-.65.53-1.18,1.18-1.18s1.18.53,1.18,1.18-.53,1.19-1.18,1.19c-.65,0-1.18-.54-1.18-1.19Zm2.22,63.18c-.32-4.32-3.72-7.74-7.86-7.74-3.63,0-6.66,2.56-7.59,6.11-.99-.66-2.14-1.01-3.34-1.01-3.16,0-5.79,2.48-6.26,5.71-2.89.13-5.2,2.66-5.2,5.76s2.44,5.77,5.44,5.77h24.68c3.79,0,6.87-3.28,6.87-7.3,0-3.98-3.01-7.22-6.73-7.3Zm-.14,12.56H6.82c-1.87,0-3.4-1.67-3.4-3.72s1.52-3.72,3.4-3.72c.18,0,.36.02.54.05.3.05.6-.06.83-.26.23-.19.36-.51.36-.82,0-2.58,1.92-4.68,4.29-4.68,1.26,0,2.45.6,3.27,1.65.26.34.72.48,1.12.34.41-.13.69-.51.7-.94.1-3.45,2.66-6.16,5.83-6.16s5.84,2.85,5.84,6.36c0,.09,0,.18-.01.26v.12c-.02.31.1.61.33.82.23.21.55.3.85.25.27-.04.5-.06.72-.06,2.66,0,4.82,2.36,4.82,5.26s-2.16,5.26-4.82,5.26h0Zm-18.42-7.53c-1.4,0-2.55,1.14-2.55,2.54s1.14,2.54,2.55,2.54,2.54-1.14,2.54-2.54-1.14-2.54-2.54-2.54Zm0,3.05c-.28,0-.51-.23-.51-.5s.23-.5.51-.5.5.23.5.5-.23.5-.5.5Zm7.34-3.05c-1.4,0-2.55,1.14-2.55,2.54s1.14,2.54,2.55,2.54,2.54-1.14,2.54-2.54-1.14-2.54-2.54-2.54Zm0,3.05c-.28,0-.51-.23-.51-.5s.23-.5.51-.5.5.23.5.5-.23.5-.5.5Zm7.34-3.05c-1.4,0-2.54,1.14-2.54,2.54s1.14,2.54,2.54,2.54,2.55-1.14,2.55-2.54-1.14-2.54-2.55-2.54Zm0,3.05c-.28,0-.5-.23-.5-.5s.23-.5.5-.5.51.23.51.5-.23.5-.51.5ZM67.05,25.61h24.68c3.79,0,6.87-3.27,6.87-7.3s-3.01-7.22-6.73-7.3c-.32-4.32-3.72-7.74-7.86-7.74-3.63,0-6.66,2.56-7.59,6.11-.99-.66-2.14-1.01-3.34-1.01-3.16,0-5.79,2.48-6.26,5.71-2.89.13-5.2,2.66-5.2,5.76,0,3.18,2.44,5.76,5.44,5.76h0Zm0-9.49c.18,0,.37.02.54.05.3.05.6-.06.83-.26s.36-.51.36-.82c0-2.58,1.92-4.68,4.29-4.68,1.26,0,2.45.6,3.27,1.65.26.34.72.48,1.12.34.41-.13.69-.51.7-.94.1-3.45,2.66-6.16,5.83-6.16s5.85,2.85,5.85,6.36c0,.08,0,.17-.01.25v.13c-.02.31.1.61.33.82.23.21.55.3.85.25.27-.04.5-.06.72-.06,2.66,0,4.82,2.36,4.82,5.26s-2.16,5.26-4.82,5.26h-24.68c-1.87,0-3.4-1.67-3.4-3.72,0-2.06,1.52-3.73,3.4-3.73h0Zm6.26,5.01c1.4,0,2.54-1.14,2.54-2.54s-1.14-2.54-2.54-2.54-2.54,1.14-2.54,2.54,1.14,2.54,2.54,2.54Zm0-3.05c.28,0,.5.23.5.5s-.23.5-.5.5-.51-.22-.51-.5c0-.28.23-.5.51-.5Zm7.34,3.05c1.4,0,2.54-1.14,2.54-2.54s-1.14-2.54-2.54-2.54-2.55,1.14-2.55,2.54,1.14,2.54,2.55,2.54Zm0-3.05c.28,0,.5.23.5.5s-.23.5-.5.5-.51-.22-.51-.5.23-.5.51-.5Zm7.34,3.05c1.4,0,2.55-1.14,2.55-2.54s-1.14-2.54-2.55-2.54-2.54,1.14-2.54,2.54,1.14,2.54,2.54,2.54Zm0-3.05c.28,0,.51.23.51.5s-.23.5-.51.5-.5-.22-.5-.5c0-.28.22-.5.5-.5Zm-63.88,29.97c0,.56-.46,1.02-1.02,1.02h-6.44c-.56,0-1.02-.46-1.02-1.02v-18.63c0-.56.46-1.02,1.02-1.02s1.02.46,1.02,1.02v17.6h5.41c.56,0,1.02.46,1.02,1.02h0Zm0,4.36c0,.56-.46,1.02-1.02,1.02h-5.41v17.6c0,.56-.46,1.02-1.02,1.02s-1.02-.46-1.02-1.02v-18.63c0-.56.46-1.02,1.02-1.02h6.43c.56,0,1.02.46,1.02,1.02Zm59.25-4.36c0,.56-.46,1.02-1.02,1.02h-6.43c-.56,0-1.02-.46-1.02-1.02s.46-1.02,1.02-1.02h5.41v-17.61c0-.56.46-1.02,1.02-1.02s1.02.46,1.02,1.02v18.63Zm-2.04,22.98v-17.6h-5.41c-.56,0-1.02-.46-1.02-1.02s.46-1.02,1.02-1.02h6.43c.56,0,1.02.46,1.02,1.02v18.63c0,.56-.46,1.02-1.02,1.02s-1.02-.46-1.02-1.02Z"/>
</svg>