<?xml version="1.0" encoding="UTF-8"?>
<svg id="Layer_1" data-name="Layer 1" xmlns="http://www.w3.org/2000/svg" xmlns:xlink="http://www.w3.org/1999/xlink" viewBox="0 0 97.62 97.99">
  <defs>
    <style>
      .cls-1 {
        fill: url(#New_Gradient_Swatch_1-3);
      }

      .cls-2 {
        fill: url(#New_Gradient_Swatch_1-5);
      }

      .cls-3 {
        fill: url(#New_Gradient_Swatch_1);
      }

      .cls-4 {
        fill: url(#New_Gradient_Swatch_1-2);
      }

      .cls-5 {
        fill: url(#New_Gradient_Swatch_1-4);
      }
    </style>
    <linearGradient id="New_Gradient_Swatch_1" data-name="New Gradient Swatch 1" x1="0" y1="49" x2="97.62" y2="49" gradientUnits="userSpaceOnUse">
      <stop offset="0" stop-color="#67447e"/>
      <stop offset=".2" stop-color="#3e224a"/>
      <stop offset=".89" stop-color="#34ad88"/>
      <stop offset="1" stop-color="#5eeaa7"/>
    </linearGradient>
    <linearGradient id="New_Gradient_Swatch_1-2" data-name="New Gradient Swatch 1" x1="16.75" y1="65.16" x2="79.76" y2="65.16" xlink:href="#New_Gradient_Swatch_1"/>
    <linearGradient id="New_Gradient_Swatch_1-3" data-name="New Gradient Swatch 1" x1="36.65" y1="61.26" x2="60.95" y2="61.26" xlink:href="#New_Gradient_Swatch_1"/>
    <linearGradient id="New_Gradient_Swatch_1-4" data-name="New Gradient Swatch 1" x1="40.66" y1="66.1" x2="57" y2="66.1" xlink:href="#New_Gradient_Swatch_1"/>
    <linearGradient id="New_Gradient_Swatch_1-5" data-name="New Gradient Swatch 1" x1="44.57" y1="70.73" x2="53.06" y2="70.73" xlink:href="#New_Gradient_Swatch_1"/>
  </defs>
  <path class="cls-3" d="m57.78,3.15c2.88,2.27,5.16,5.44,5.78,9.12.05.44.08.87.09,1.31.21-.01.42-.02.63-.04,2.39,0,4.26,1.07,5.97,2.64,1.75,1.76,2.52,3.77,2.59,6.22-.04,2.53-.93,4.51-2.64,6.34-1.91,1.84-4.25,2.57-6.86,2.56-.14,0-.28,0-.43,0-.46,0-.93,0-1.39,0-.32,0-.65,0-.97,0-.85,0-1.69,0-2.54,0-1.02,0-2.03,0-3.05,0-1.54,0-3.09,0-4.63,0v8.56c.87,0,1.75,0,2.65-.01,2.89-.01,5.79-.02,8.68-.03,1.75,0,3.51,0,5.26-.02,1.53,0,3.06-.01,4.59-.01.81,0,1.62,0,2.43,0,.76,0,1.53,0,2.29,0,.28,0,.56,0,.84,0,2.35-.02,4.55.24,6.38,1.82,1.74,1.72,2.45,3.7,2.48,6.13,0,.3,0,.6,0,.9q0,.25,0,.51c0,.56,0,1.11,0,1.67,0,.4,0,.8,0,1.2,0,1.08,0,2.16,0,3.25,0,1.13,0,2.26,0,3.4,0,2.14,0,4.28,0,6.43,0,2.44,0,4.88,0,7.32,0,5.02,0,10.03,0,15.05q.16,0,.32,0c1.11-.01,2.22-.02,3.33-.03.41,0,.83,0,1.24-.01.6,0,1.19-.01,1.79-.01.18,0,.37,0,.56,0,1.27,0,2.42.11,3.42.97.09.11.17.23.26.34.09.11.18.23.27.35.7,1.01.49,2.37.41,3.54-.46,1.98-1.72,3.5-3.43,4.57-1.73,1-3.58.87-5.52.86-.35,0-.7,0-1.05,0-.73,0-1.46,0-2.19,0-.93,0-1.87,0-2.8,0-.72,0-1.44,0-2.16,0-.34,0-.69,0-1.03,0-.48,0-.96,0-1.44,0-.14,0-.28,0-.43,0-.65-.01-1.01-.06-1.54-.45-.43-.61-.4-1.02-.29-1.75q.3-.42.76-.76.61-.1,1.35-.1.2,0,.41,0c.44,0,.89,0,1.33,0,.31,0,.62,0,.93,0,.82,0,1.64,0,2.45,0,1.31,0,2.61,0,3.92-.02.45,0,.91,0,1.36,0q2.7.03,5.08-1.09c.95-.98,1.05-1.79,1.05-3.15H3.34c0,1.35.09,2.18,1.05,3.15,1.54,1.2,3.36,1.09,5.22,1.08.27,0,.54,0,.81,0,.74,0,1.48,0,2.22,0,.8,0,1.6,0,2.39,0,1.38,0,2.76,0,4.15,0,2.18,0,4.37,0,6.55,0,.75,0,1.49,0,2.24,0,.19,0,.37,0,.57,0,2.12,0,4.25,0,6.37,0,.19,0,.39,0,.59,0,3.15,0,6.3,0,9.45,0,3.23,0,6.47,0,9.7,0,2,0,3.99,0,5.99,0,1.37,0,2.73,0,4.1,0,.79,0,1.58,0,2.37,0,.72,0,1.44,0,2.16,0,.39,0,.77,0,1.16,0,.23,0,.46,0,.69,0,.2,0,.39,0,.6,0q.51.12.96.56t.3,1.2-.75,1.21q-.5.07-1.11.07c-.23,0-.47,0-.7,0-.26,0-.52,0-.78,0-.27,0-.55,0-.82,0-.76,0-1.51,0-2.27,0-.82,0-1.63,0-2.45,0-1.6,0-3.2,0-4.79,0-1.3,0-2.6,0-3.9,0-.18,0-.37,0-.56,0-.38,0-.75,0-1.13,0-3.52,0-7.05,0-10.57,0-3.22,0-6.44,0-9.67,0-3.31,0-6.62,0-9.92,0-1.86,0-3.71,0-5.57,0-1.58,0-3.16,0-4.75,0-.81,0-1.61,0-2.42,0-.74,0-1.48,0-2.22,0-.27,0-.53,0-.8,0-2.28.02-4.09-.42-5.79-2-1.55-1.67-1.99-3.36-2-5.61.15-.98.6-1.57,1.31-2.24,1.1-.73,2.14-.77,3.42-.75q.25,0,.51,0c.53,0,1.06,0,1.59.01.36,0,.72,0,1.08,0,.88,0,1.77.01,2.65.02,0-.21,0-.43,0-.64-.02-5.18-.03-10.36-.04-15.55,0-2.51,0-5.01-.02-7.52,0-2.18-.01-4.37-.01-6.55,0-1.16,0-2.31,0-3.47,0-1.09,0-2.18,0-3.27,0-.4,0-.8,0-1.2-.02-2.89.16-5.17,2.22-7.39,2.05-1.98,4.44-2.04,7.14-2.03.3,0,.6,0,.9,0,.81,0,1.62,0,2.43,0,.85,0,1.7,0,2.55,0,1.61,0,3.21,0,4.82,0,1.83,0,3.66,0,5.48,0,3.76,0,7.52.01,11.28.02v-8.56q-1.52,0-3.08.02c-.65,0-1.3,0-1.94,0-1.03,0-2.05,0-3.08.02-.83,0-1.66,0-2.48.01-.31,0-.63,0-.94,0-3.17.03-6.03-.32-8.43-2.59-1.81-1.93-2.57-4.28-2.54-6.89.15-2.54,1.2-4.45,3.03-6.19,1.79-1.54,3.81-2.13,6.14-2.09,0-.1,0-.2,0-.31.17-3.44,2.15-6.66,4.57-9.01.54-.27.92-.25,1.52-.19q.55.29.95.76c.16.67.21.89,0,1.52-.38.5-.81.94-1.25,1.39-1.92,2.11-2.58,4.74-2.81,7.51-.16.73-.27.97-.89,1.37-.54.07-1.02.1-1.56.11-2.06.07-3.66.45-5.13,2.01-.96,1.18-1.45,2.53-1.38,4.05.24,1.63.89,3.04,2.17,4.11,1.4.88,2.63,1.17,4.27,1.18.14,0,.28,0,.42,0,.46,0,.92.01,1.37.02.32,0,.64,0,.96.01.84.01,1.67.02,2.51.03.85,0,1.71.02,2.56.03,1.68.02,3.35.04,5.03.06.01-.84,0-1.67,0-2.51,0-.24,0-.47.01-.72q.03-1.24-.54-2.27c-.39-.24-.76-.41-1.18-.59q-.39-.34-.64-.65-.13-.15-.27-.31c-.77-1.22-.75-2.59-.61-3.98.45-1.51,1.54-2.44,2.85-3.23,1.25-.42,2.9-.44,4.1.13,1.18.72,2.12,1.79,2.56,3.1.13,1.51.14,2.91-.76,4.19-.69.74-1.37,1.26-2.28,1.71-.06,1.7-.13,3.39-.19,5.14,1.83-.01,3.66-.03,5.48-.04.85,0,1.7-.02,2.55-.02.82,0,1.64-.01,2.46-.02.31,0,.62,0,.94,0,2.34,0,4.51-.07,6.27-1.81,1.11-1.35,1.63-2.69,1.58-4.45-.19-1.58-.97-2.88-2.15-3.92-1.54-1.06-2.91-1.18-4.73-1.21-.63-.02-1.09-.08-1.63-.41-.43-.7-.48-1.37-.57-2.18-.33-2.43-1.05-4.36-2.58-6.29-.09-.12-.18-.24-.27-.37-1.84-2.34-4.88-3.6-7.77-3.97-1.44-.11-2.97.09-4.36.45-.41.1-.79.12-1.22.13q-.22,0-.44.01c-.51-.08-.66-.23-.97-.63-.2-.65-.24-1.01,0-1.65,3.24-3.75,11.55-.99,14.87,1.3Zm-10.68,14.62c-.13.82-.1,1.18.36,1.88.48.48.65.58,1.32.65.75-.07,1.03-.31,1.56-.82.3-.6.26-1.05.19-1.71-.38-.56-.65-.88-1.32-1.04-1-.07-1.52.19-2.11,1.04ZM14.57,44.4c-.1.12-.21.25-.31.37-.67,1-.7,1.87-.69,3.03,0,.17,0,.34,0,.51,0,.57,0,1.14,0,1.7,0,.41,0,.83,0,1.24,0,1.11,0,2.22,0,3.32,0,1.04,0,2.08,0,3.12,0,3.04,0,6.08.01,9.12,0,6.79.02,13.59.02,20.59h69.26c0-6.62.02-13.24.02-20.06,0-2.09,0-4.18.01-6.33q0-1.87,0-3.75c0-.83,0-1.67,0-2.5,0-1.07,0-2.13,0-3.2,0-.39,0-.78,0-1.17,0-.53,0-1.06,0-1.59q0-.23,0-.46c0-1.77-.3-3.23-1.57-4.51-1-.75-1.93-.97-3.15-.98-.22,0-.43,0-.66,0q-.36,0-.72,0c-.26,0-.51,0-.77,0-.7,0-1.41,0-2.11,0-.76,0-1.52,0-2.28,0-1.83,0-3.67,0-5.5,0-.86,0-1.73,0-2.59,0-2.87,0-5.74,0-8.62,0-.75,0-1.49,0-2.24,0-.19,0-.37,0-.56,0-3,0-6,0-9-.01-3.08,0-6.16,0-9.24-.01-1.73,0-3.46,0-5.19,0-1.47,0-2.95,0-4.42,0-.75,0-1.5,0-2.25,0-.69,0-1.38,0-2.07,0-.37,0-.73,0-1.1,0-1.67.01-3.2.24-4.31,1.61Z"/>
  <path class="cls-4" d="m21.12,46.05c.24,0,.48,0,.73,0,.67,0,1.34,0,2,0,.72,0,1.44,0,2.16,0,1.41,0,2.82,0,4.23,0,1.15,0,2.29,0,3.44,0q.24,0,.49,0c.33,0,.66,0,.99,0,3.11,0,6.22,0,9.33,0,2.67,0,5.34,0,8,0,3.1,0,6.2,0,9.3,0,.33,0,.66,0,.99,0,.16,0,.33,0,.49,0,1.15,0,2.29,0,3.44,0,1.4,0,2.79,0,4.19,0,.71,0,1.42,0,2.14,0,.77,0,1.54,0,2.32,0,.23,0,.45,0,.68,0q1.93.01,2.83.65c1.06,1.41.87,3.1.86,4.78,0,.33,0,.66,0,1,0,.9,0,1.8,0,2.69,0,.94,0,1.88,0,2.82,0,1.58,0,3.16,0,4.74,0,1.83,0,3.65,0,5.48,0,1.76,0,3.52,0,5.27,0,.75,0,1.49,0,2.24,0,.88,0,1.76,0,2.64,0,.32,0,.65,0,.97,0,.44,0,.88,0,1.32q0,.37,0,.75c-.11,1.03-.36,1.74-1.1,2.48-1.02.45-1.97.41-3.08.4-.24,0-.49,0-.74,0-.67,0-1.35,0-2.02,0-.73,0-1.46,0-2.18,0-1.43,0-2.85,0-4.28,0-1.66,0-3.32,0-4.98,0-2.96,0-5.92,0-8.88,0-2.87,0-5.75,0-8.62,0-3.13,0-6.26,0-9.39,0-.33,0-.67,0-1,0-.16,0-.33,0-.5,0-1.16,0-2.31,0-3.47,0-1.41,0-2.82,0-4.23,0-.72,0-1.44,0-2.16,0-.78,0-1.56,0-2.34,0q-.34,0-.69,0t-.63,0c-.18,0-.36,0-.55,0-.79-.11-1.29-.45-1.79-1.06-.29-.66-.31-1.25-.3-1.96,0-.14,0-.28,0-.43,0-.48,0-.95,0-1.43,0-.34,0-.68,0-1.02,0-.93,0-1.85,0-2.78,0-.77,0-1.55,0-2.32,0-1.83,0-3.65,0-5.48,0-1.88,0-3.77,0-5.65,0-1.62,0-3.23,0-4.85,0-.97,0-1.93,0-2.9,0-.91,0-1.82,0-2.72,0-.33,0-.67,0-1,0-.46,0-.91,0-1.36,0-.13,0-.26,0-.4.01-.94.25-1.49.86-2.2,1.05-.78,2.26-.65,3.51-.64Zm-1.23,3.12v31.97h56.71v-31.97H19.89Z"/>
  <path class="cls-1" d="m59.28,61.15q.22.16.43.32c.62.48.87.77,1.19,1.5.09.7.06,1.01-.3,1.61-.71.48-1.06.47-1.9.38q-.52-.36-1.03-.86c-2.6-2.34-6.12-3.57-9.62-3.4-3.28.26-6.25,1.62-8.61,3.89-.66.46-1.06.46-1.85.36-.51-.36-.71-.63-.94-1.21-.02-.69.2-1.05.56-1.64.39-.38.75-.7,1.18-1.02q.18-.13.35-.27c6.18-4.6,14.52-4.31,20.54.34Z"/>
  <path class="cls-5" d="m56.28,65.95c.51.52.65.96.72,1.67-.18.74-.3.9-.95,1.33q-.58.12-1.33,0c-.5-.35-.95-.74-1.42-1.13-1.71-1.37-3.88-1.58-6.01-1.34-1.61.38-2.72,1.1-3.95,2.17q-.42.31-1.16.45c-.7-.17-.95-.32-1.36-.9-.2-.55-.22-.84-.07-1.4.88-1.72,3.3-2.68,5.02-3.3,3.7-1.05,7.59.1,10.5,2.46Z"/>
  <path class="cls-2" d="m51.43,69.18c.67.4,1.2.78,1.57,1.49.1.75.11,1.15-.29,1.8-.66.41-1.25.45-2,.3-.38-.25-.76-.51-1.14-.76-.53-.11-.99-.11-1.52,0l-.57.38c-.78.52-1.16.5-2.09.38q-.48-.3-.76-.76c-.11-.74-.09-1.17.26-1.83,1.79-1.62,4.33-2.02,6.54-.99Z"/>
</svg>