<?xml version="1.0" encoding="UTF-8"?>
<svg id="Layer_1" data-name="Layer 1" xmlns="http://www.w3.org/2000/svg" xmlns:xlink="http://www.w3.org/1999/xlink" viewBox="0 0 94.37 94.48">
  <defs>
    <style>
      .cls-1 {
        fill: url(#New_Gradient_Swatch_1);
      }
    </style>
    <linearGradient id="New_Gradient_Swatch_1" data-name="New Gradient Swatch 1" x1="0" y1="47.24" x2="94.37" y2="47.24" gradientUnits="userSpaceOnUse">
      <stop offset="0" stop-color="#67447e"/>
      <stop offset=".2" stop-color="#3e224a"/>
      <stop offset=".89" stop-color="#34ad88"/>
      <stop offset="1" stop-color="#5eeaa7"/>
    </linearGradient>
  </defs>
  <path class="cls-1" d="m73.18,8.81c4.06,3.91,7.21,9.28,8.28,14.85q.17,1.07.74,1.94c.37.19.72.32,1.12.43.28.1.55.2.82.31.14.05.27.1.41.15,3.8,1.55,6.76,5.43,8.4,9.03,1.9,4.75,1.9,10-.09,14.72-2.02,4.5-5.7,7.9-10.25,9.75-.77.27-1.53.5-2.32.7q-.18.05-.37.1c-1.35.31-2.44.21-3.9.21v21.25h2.28q.85.85.86,1.57c0,.16,0,.32,0,.48q0,.25,0,.51c0,.18,0,.35,0,.53,0,.37,0,.75,0,1.12,0,.57,0,1.13,0,1.7,0,.36,0,.73,0,1.09,0,.17,0,.34,0,.51-.02,1.33-.35,2.33-1.24,3.34-.12.1-.25.2-.37.31-.12.11-.25.21-.37.32-.76.52-1.44.7-2.35.7-.2,0-.4,0-.61,0-.22,0-.44,0-.66,0-.23,0-.47,0-.71,0-.65,0-1.3,0-1.94,0-.7,0-1.4,0-2.1,0-1.37,0-2.74,0-4.11,0-1.11,0-2.23,0-3.34,0-3.16,0-6.32,0-9.47,0-.17,0-.34,0-.52,0q-.26,0-.52,0c-2.76,0-5.52,0-8.29,0-2.84,0-5.67,0-8.51,0-1.59,0-3.18,0-4.78,0-1.36,0-2.71,0-4.07,0-.69,0-1.38,0-2.07,0-.75,0-1.5,0-2.25,0-.22,0-.44,0-.66,0-1.47-.01-2.5-.23-3.63-1.23-.1-.12-.2-.25-.31-.37-.11-.12-.21-.25-.32-.37-.71-1.03-.71-1.98-.72-3.2q0-.27,0-.54c0-.38,0-.75,0-1.13,0-.57,0-1.15-.01-1.72,0-.37,0-.73,0-1.1,0-.17,0-.34,0-.52q0-.24,0-.49c0-.14,0-.28,0-.43q.09-.39.85-1.15h2.28v-21.25h-2.66c-4.88-.68-9.1-3.38-12.14-7.21C.43,49.33-.59,44.29.32,38.97c.85-4.05,3.13-7.76,6.26-10.44.22-.14.44-.27.66-.4q1.18-.63,1.95-1.66c.21-.82.28-1.65.36-2.49.36-2.48,2.16-4.73,3.85-6.46.11-.12.23-.24.35-.36,1.73-1.66,4.46-3.06,6.86-3.24.44.01.88.04,1.32.06q2.38.27,4.61-.32c.71-.68,1.16-1.51,1.61-2.38.37-.64.85-1.16,1.36-1.7.09-.1.19-.2.29-.3,3.94-4.11,8.91-6.69,14.34-8.27.23-.07.47-.14.71-.21,10.15-2.53,20.84.98,28.32,7.99Zm-40.92,2.7c-1.58,1.58-2.89,3.34-4.06,5.24q-.37.59-.75.78-.35,0-.79-.06c-.17-.02-.34-.04-.51-.05-.42-.05-.84-.12-1.26-.19-3.04-.48-5.77.05-8.31,1.85-2.04,1.63-3.73,3.96-4.11,6.61q-.04.37-.07.74c-.01.14-.03.27-.04.41-.03.27-.05.54-.07.82-.06.68-.14,1.01-.63,1.5-.17.11-.34.21-.52.33-.16.1-.32.2-.48.3-.17.1-.33.2-.5.3-3.48,2.2-5.7,5.6-6.67,9.58-.75,4.22.17,8.16,2.46,11.74.26.36.54.7.83,1.04.09.12.18.24.27.36,2.08,2.62,5.73,4.54,9.03,4.95.4,0,.79.01,1.19,0,.2,0,.41,0,.62,0,.16,0,.31,0,.47,0,0-.12,0-.23,0-.35,0-1.23.01-2.45.03-3.68,0-.46,0-.91,0-1.37,0-.66,0-1.32.02-1.98,0-.2,0-.4,0-.61.03-1.52.37-2.81,1.42-3.95,1.48-1.39,2.99-1.43,4.94-1.44.25,0,.51,0,.76-.01.66,0,1.33-.01,1.99-.02.68,0,1.36-.01,2.03-.02,1.33-.02,2.65-.03,3.98-.04v-3.04c-.38,0-.75-.01-1.14-.02-.37,0-.73-.02-1.1-.03-.38,0-.76-.02-1.14-.02-.24,0-.48-.01-.72-.02-.22,0-.44,0-.67-.02q-.55-.08-.91-.28c-.35-.63-.35-1.21-.21-1.89.29-.64.67-1.2,1.07-1.77.11-.17.22-.34.34-.51.36-.55.73-1.09,1.1-1.63.25-.37.5-.75.75-1.12.5-.75,1.01-1.5,1.52-2.25.64-.95,1.28-1.91,1.92-2.87.18-.27.35-.53.53-.8.24-.37.49-.74.73-1.11.22-.33.44-.67.66-1,.12-.18.24-.37.37-.56q.3-.41.68-.6,1.38-.11,1.85.28c.61.68,1.09,1.44,1.59,2.2.11.17.22.34.34.52.36.55.73,1.11,1.09,1.66.5.76.99,1.52,1.49,2.28q.18.28.37.57c.71,1.09,1.44,2.17,2.18,3.24.16.23.32.47.48.7.29.42.58.83.87,1.25.73,1.06,1.17,1.75.94,3.05q-.22.32-.57.57-.55.08-1.22.1c-.24,0-.48.01-.72.02-.25,0-.5,0-.75.01-.25,0-.51.01-.76.02-.62.02-1.24.03-1.86.04v3.04h9.11c0-.71.01-1.41.02-2.14,0-.68.02-1.36.03-2.05,0-.47.01-.95.02-1.42,0-.68.02-1.36.03-2.04q0-.32,0-.65t.01-.6,0-.53q.08-.44.32-.78c.59-.41,1.33-.31,2.02-.3.17,0,.33,0,.5,0,.35,0,.7,0,1.05,0,.54,0,1.08,0,1.62,0,.34,0,.68,0,1.02,0q.24,0,.49,0,1.11.01,1.53.31c.32.46.32.75.32,1.31q0,.3.01.6,0,.32,0,.65,0,.33.01.66c.01.7.02,1.4.02,2.09,0,.47.01.95.02,1.42.02,1.16.03,2.32.04,3.48q.21,0,.42,0c1.31,0,2.62.01,3.94.02.67,0,1.35.01,2.02.01.78,0,1.55,0,2.33.02.24,0,.48,0,.72,0,1.63.03,2.98.29,4.21,1.42,1.31,1.38,1.43,2.78,1.44,4.61q0,.33.01.66c.01.69.02,1.38.02,2.07,0,.47.01.94.02,1.41.02,1.15.03,2.29.04,3.44.51-.06,1.02-.11,1.53-.17q.21-.02.43-.05c3.9-.44,7.32-2.46,9.85-5.43,2.71-3.62,3.63-7.78,3.12-12.25-.67-3.93-3.24-7.56-6.42-9.85-1.27-.83-2.51-1.38-3.95-1.83-.59-.21-1.04-.4-1.54-.78q-.18-.46-.27-1.02c-1.18-5.93-3.57-10.68-7.7-15.11q-.19-.21-.39-.43c-4.83-5.1-11.74-7.36-18.59-7.73-7.57,0-14.48,2.93-19.86,8.21Zm5.63,17.6q-.27.32-.54.75c-.11.16-.22.33-.33.5-.12.18-.23.36-.36.55q-.18.28-.37.56c-.26.39-.51.78-.77,1.17-.39.6-.78,1.19-1.17,1.79-.25.38-.5.76-.74,1.13-.12.18-.23.36-.36.54-.11.17-.22.33-.33.51q-.14.22-.29.44c-.23.38-.44.76-.63,1.17.11,0,.22,0,.34,0,.51.01,1.02.03,1.52.05.18,0,.35,0,.53.01.17,0,.34.01.51.02q.23,0,.47.02c.51.1.66.24.98.65q.07.39.08.85,0,.26,0,.52,0,.28,0,.57c0,.2,0,.4,0,.61,0,.66,0,1.32,0,1.99,0,.46,0,.92.01,1.38,0,1.21.01,2.42.02,3.62,0,1.23.01,2.46.02,3.7.02,2.42.03,4.84.04,7.26h3.04c0-.26,0-.51,0-.77.01-2.4.02-4.81.04-7.21,0-1.24.02-2.47.02-3.71,0-1.19.01-2.38.02-3.58,0-.46,0-.91,0-1.37,0-.64,0-1.27.01-1.91,0-.19,0-.38,0-.57,0-.17,0-.35,0-.52q0-.23,0-.46c.09-.49.25-.66.64-.96q.41-.08.89-.1c.17,0,.34-.01.51-.02q.26,0,.53-.01c.18,0,.36-.01.54-.02.44-.02.88-.03,1.32-.04-.65-1.2-1.35-2.36-2.11-3.49q-.16-.24-.33-.49c-.22-.34-.45-.68-.67-1.01-.35-.52-.69-1.04-1.03-1.56-.22-.33-.44-.66-.66-.99-.1-.16-.21-.31-.31-.47-.1-.14-.19-.29-.29-.43-.08-.13-.17-.25-.25-.38-.07-.09-.15-.18-.23-.27h-.38Zm16.89,7.59c0,.26,0,.51,0,.77-.01,2.4-.02,4.81-.04,7.21,0,1.24-.02,2.47-.02,3.71,0,1.19-.01,2.38-.02,3.58,0,.46,0,.91,0,1.37,0,.64,0,1.27-.01,1.91,0,.19,0,.38,0,.57,0,.17,0,.35,0,.52,0,.15,0,.3,0,.46-.09.49-.25.66-.64.96q-.41.08-.89.1c-.17,0-.34.01-.51.02-.18,0-.35,0-.53.01-.18,0-.36.01-.54.02-.44.02-.88.03-1.32.04.65,1.2,1.35,2.36,2.11,3.49.11.16.21.32.33.49.22.34.45.68.67,1.01.35.52.69,1.04,1.03,1.56.22.33.44.66.66.99.1.16.21.31.31.47.1.14.19.29.29.43.08.13.17.25.25.38.07.09.15.18.23.27h.38q.27-.32.54-.75c.11-.16.22-.33.33-.5q.18-.27.36-.55c.12-.18.24-.37.37-.56.26-.39.51-.78.77-1.17.39-.6.78-1.19,1.17-1.79.25-.38.5-.76.74-1.13.12-.18.23-.36.36-.54.11-.17.22-.33.33-.51.1-.15.19-.29.29-.44.23-.38.44-.76.63-1.17-.11,0-.22,0-.34,0-.51-.01-1.02-.03-1.52-.05-.18,0-.35,0-.53-.01q-.25-.01-.51-.02-.23,0-.47-.02c-.51-.1-.66-.24-.98-.65q-.07-.39-.08-.85c0-.17,0-.35,0-.52,0-.19,0-.38,0-.57q0-.3,0-.61c0-.66,0-1.32,0-1.99,0-.46,0-.92-.01-1.38,0-1.21-.01-2.42-.02-3.62,0-1.23-.01-2.46-.02-3.7-.02-2.42-.03-4.84-.04-7.26h-3.04Zm-32.9,11.66c-.54.85-.52,1.58-.52,2.58,0,.13,0,.27,0,.4,0,.45,0,.9,0,1.35,0,.33,0,.65,0,.98,0,.88,0,1.75,0,2.63,0,.82,0,1.64,0,2.46,0,2.4,0,4.81,0,7.21,0,5.37,0,10.74.01,16.27h51.61c.01-5.36.02-10.71.04-16.23,0-1.69.01-3.38.02-5.13q0-1.52,0-3.03c0-.68,0-1.35,0-2.03,0-.86,0-1.72,0-2.59,0-.32,0-.63,0-.95,0-.43,0-.86,0-1.28,0-.24,0-.48,0-.73-.1-.99-.37-1.74-1.1-2.45-.75-.47-1.36-.52-2.24-.52-.2,0-.39,0-.6,0-.21,0-.42,0-.64,0-.22,0-.44,0-.66,0-.7,0-1.39,0-2.09,0-.47,0-.94,0-1.42,0-1.16,0-2.31,0-3.47,0v1.52c.12,0,.24,0,.37,0,1.27.01,2.54.03,3.81.05.47,0,.95.01,1.42.02.68,0,1.36.02,2.04.03.21,0,.43,0,.65,0,.2,0,.39,0,.6.01.17,0,.35,0,.53,0,.55.09.68.2,1.01.64q.07.54.07,1.22c0,.12,0,.25,0,.38,0,.42,0,.83,0,1.25,0,.3,0,.6,0,.89,0,.81,0,1.62,0,2.43,0,.85,0,1.7,0,2.54,0,1.42,0,2.85,0,4.27,0,1.65,0,3.29,0,4.94,0,1.41,0,2.83,0,4.24,0,.84,0,1.69,0,2.53,0,.79,0,1.59,0,2.38,0,.29,0,.58,0,.87,0,.4,0,.79,0,1.19,0,.22,0,.45,0,.67-.08.62-.16.74-.64,1.11q-.37.07-.8.07c-.16,0-.33,0-.5,0q-.27,0-.55,0c-.19,0-.38,0-.58,0-.65,0-1.29,0-1.94,0-.46,0-.93,0-1.39,0-1.13,0-2.26,0-3.38,0-.92,0-1.83,0-2.75,0-.13,0-.26,0-.4,0h-.79c-2.48,0-4.97,0-7.45,0-2.13,0-4.27,0-6.4,0-2.48,0-4.95,0-7.43,0-.26,0-.53,0-.79,0-.13,0-.26,0-.39,0-.92,0-1.83,0-2.75,0-1.23,0-2.46,0-3.7,0-.45,0-.91,0-1.36,0-.62,0-1.23,0-1.85,0-.18,0-.36,0-.55,0-.16,0-.33,0-.5,0-.14,0-.28,0-.43,0-.48-.09-.65-.26-.94-.64q-.07-.54-.07-1.22c0-.12,0-.25,0-.38,0-.42,0-.83,0-1.25,0-.3,0-.6,0-.89,0-.81,0-1.62,0-2.43,0-.85,0-1.7,0-2.54,0-1.42,0-2.85,0-4.27,0-1.65,0-3.29,0-4.94,0-1.41,0-2.83,0-4.24,0-.84,0-1.69,0-2.53,0-.79,0-1.59,0-2.38,0-.29,0-.58,0-.87,0-.4,0-.79,0-1.19,0-.22,0-.45,0-.67q.07-.54.33-.9c.43-.3.75-.29,1.28-.3q.3,0,.6-.01.32,0,.65,0c.22,0,.44,0,.66-.01.7-.01,1.4-.02,2.09-.02.47,0,.95-.01,1.42-.02,1.16-.02,2.32-.03,3.48-.04v-1.52c-1.38-.01-2.76-.02-4.14-.03-.47,0-.94,0-1.41-.01-.68,0-1.35-.01-2.03-.01-.21,0-.42,0-.63,0-1.38,0-2.43.06-3.43,1.1Zm20.75-1.03v1.52h9.11v-1.52h-9.11Zm-16.7,4.55v25.8h42.5v-25.8h-7.59v3.04c.38,0,.75.01,1.14.02.37,0,.73.02,1.1.03.38,0,.76.02,1.14.02.24,0,.48.01.72.02.22,0,.44,0,.67.02q.55.08.91.28c.35.63.35,1.21.21,1.89-.29.64-.67,1.2-1.07,1.77-.11.17-.22.34-.34.51-.36.55-.73,1.09-1.1,1.63-.25.37-.5.75-.75,1.12-.5.75-1.01,1.5-1.52,2.25-.64.95-1.28,1.91-1.92,2.87-.18.27-.35.53-.53.8-.24.37-.49.74-.73,1.11-.22.33-.44.67-.66,1-.12.18-.24.37-.37.56q-.3.41-.68.6-1.38.11-1.85-.28c-.61-.68-1.09-1.44-1.59-2.2-.11-.17-.22-.34-.34-.52-.36-.55-.73-1.11-1.09-1.66-.5-.76-.99-1.52-1.49-2.28q-.18-.28-.37-.57c-.71-1.09-1.44-2.17-2.18-3.24-.16-.23-.32-.47-.48-.7-.29-.42-.58-.83-.87-1.25-.73-1.06-1.17-1.75-.94-3.05q.22-.32.57-.57.55-.08,1.22-.1c.24,0,.48-.01.72-.02.25,0,.5,0,.75-.01.25,0,.51-.01.76-.02.62-.02,1.24-.03,1.86-.04v-3.04h-9.11c0,.71-.01,1.41-.02,2.14,0,.68-.02,1.36-.03,2.05,0,.47-.01.95-.02,1.42,0,.68-.02,1.36-.03,2.04,0,.21,0,.43,0,.65,0,.2,0,.39-.01.6,0,.17,0,.35,0,.53q-.08.44-.32.78c-.59.41-1.33.31-2.02.3-.17,0-.33,0-.5,0-.35,0-.7,0-1.05,0-.54,0-1.08,0-1.62,0-.34,0-.68,0-1.02,0-.16,0-.32,0-.49,0q-1.11-.01-1.53-.31c-.32-.46-.32-.75-.32-1.31,0-.2,0-.39-.01-.6,0-.21,0-.43,0-.65,0-.22,0-.44-.01-.66-.01-.7-.02-1.4-.02-2.09,0-.47-.01-.95-.02-1.42-.02-1.16-.03-2.32-.04-3.48h-7.59Zm-7.59,33.39q-.34,4.09.57,5.69c.64.37,1.19.43,1.92.43.19,0,.38,0,.58,0,.21,0,.42,0,.63,0q.33,0,.68,0c.62,0,1.24,0,1.86,0,.67,0,1.34,0,2,0,1.31,0,2.61,0,3.92,0,1.06,0,2.13,0,3.19,0q.23,0,.46,0c.31,0,.61,0,.92,0,2.88,0,5.76,0,8.64,0,2.64,0,5.27,0,7.91,0,2.71,0,5.41,0,8.12,0,1.52,0,3.04,0,4.56,0,1.29,0,2.59,0,3.88,0,.66,0,1.32,0,1.98,0,.72,0,1.43,0,2.15,0,.21,0,.42,0,.63,0q1.44,0,2.71-.64.66-1.48.38-5.5h-20.11q-.66,1.88-1.33,3.79c-.7.7-.91.64-1.88.64-.13,0-.26,0-.4,0-.44,0-.88,0-1.31,0-.3,0-.61,0-.91,0-.64,0-1.27,0-1.91,0-.82,0-1.63,0-2.45,0-.63,0-1.26,0-1.88,0-.3,0-.6,0-.9,0-.42,0-.84,0-1.26,0-.24,0-.48,0-.73,0q-.58-.07-1.15-.64c-.44-1.25-.88-2.5-1.33-3.79h-20.11Zm23.53,0c.13.5.25,1,.38,1.52h9.87l.38-1.52h-10.63Z"/>
</svg>