<?xml version="1.0" encoding="UTF-8"?>
<svg id="Layer_1" data-name="Layer 1" xmlns="http://www.w3.org/2000/svg" xmlns:xlink="http://www.w3.org/1999/xlink" viewBox="0 0 101 101">
  <defs>
    <style>
      .cls-1 {
        fill: url(#New_Gradient_Swatch_1);
      }
    </style>
    <linearGradient id="New_Gradient_Swatch_1" data-name="New Gradient Swatch 1" x1="3.09" y1="10.41" x2="84.48" y2="91.8" gradientTransform="translate(0 101.28) scale(1 -1)" gradientUnits="userSpaceOnUse">
      <stop offset="0" stop-color="#67447e"/>
      <stop offset=".2" stop-color="#3e224a"/>
      <stop offset=".89" stop-color="#34ad88"/>
      <stop offset="1" stop-color="#5eeaa7"/>
    </linearGradient>
  </defs>
  <g id="_47_Satellite_Dish" data-name="47 Satellite Dish">
    <path class="cls-1" d="m91.06,24.9c0,.76-.61,1.37-1.37,1.37s-1.37-.61-1.37-1.37c0-10.29-8.36-18.65-18.64-18.65-.76,0-1.37-.61-1.37-1.37s.61-1.37,1.37-1.37c11.79,0,21.38,9.6,21.38,21.39h0Zm-21.38-12.85c-.76,0-1.37.61-1.37,1.37s.61,1.37,1.37,1.37c5.57,0,10.11,4.54,10.11,10.12,0,.76.61,1.37,1.37,1.37s1.37-.61,1.37-1.37c0-7.09-5.76-12.85-12.84-12.85Zm0,8.54c-.76,0-1.37.61-1.37,1.37s.61,1.37,1.37,1.37c.86,0,1.57.71,1.57,1.58,0,.76.61,1.37,1.37,1.37s1.37-.61,1.37-1.37c0-2.38-1.93-4.31-4.31-4.31Zm1.51,45.63c1.89,1.89,1.75,5-.3,6.68-10.7,8.76-25.17,10.44-37.37,4.81v9.26h4.61c2.13,0,3.86,1.73,3.86,3.86v3.93h4.22c.76,0,1.37.61,1.37,1.37s-.61,1.37-1.37,1.37H10.29c-.76,0-1.37-.61-1.37-1.37s.61-1.37,1.37-1.37h4.22v-3.93c0-2.13,1.73-3.86,3.86-3.86h4.61v-16.71c-12.75-13-13.7-33.32-2.15-47.42,1.68-2.05,4.78-2.18,6.67-.3,0,0,0,0,0,0l18.71,18.71,6.14-6.14c-.63-2.84.23-5.68,2.22-7.67,3.23-3.23,8.48-3.22,11.71,0,3.23,3.23,3.23,8.48,0,11.71-1.92,1.92-4.75,2.86-7.67,2.21l-6.15,6.15,18.71,18.71s0,0,0,0h0s0,0,0,0Zm-14.67-29.01c2.16,2.16,5.68,2.16,7.84,0,2.16-2.16,2.16-5.68,0-7.84-2.17-2.17-5.68-2.16-7.84,0-2.17,2.17-2.17,5.68,0,7.84h0Zm-8.36,5.98c-.15-.15,2.29,2.29,2.39,2.39l5.36-5.36c-.47-.31-.91-.66-1.32-1.07-.41-.41-.76-.85-1.07-1.32l-5.36,5.36Zm-29.78,46.52c-.62,0-1.12.5-1.12,1.12v3.93h22.01v-3.93c0-.62-.5-1.12-1.12-1.12h-19.76Zm12.42-2.74v-10.68c-1.77-1.01-3.46-2.18-5.07-3.51v14.19h5.07Zm32.12-12.15L18.91,30.82c-6.15,12.37-3.93,27.56,6.25,37.75,10.19,10.19,25.37,12.4,37.75,6.25h0Zm6.35-6.67c-4.54-4.54-39.58-39.58-43.68-43.68-.71-.71-1.95-.74-2.63.1-.96,1.17-1.86,2.45-2.65,3.76l45.1,45.1c1.32-.8,2.58-1.69,3.76-2.65.82-.67.83-1.9.1-2.63h0Z"/>
  </g>
</svg>