<svg id="Layer_1" enable-background="new 0 0 512 512" viewBox="0 0 512 512" xmlns="http://www.w3.org/2000/svg" xmlns:xlink="http://www.w3.org/1999/xlink"><linearGradient id="SVGID_1_" gradientUnits="userSpaceOnUse" x1="256" x2="256" y1="35.029" y2="476.971"><stop offset="0" stop-color="#a03a8d"/><stop offset="1" stop-color="#1f3c8d"/></linearGradient><path clip-rule="evenodd" d="m459.52 35.03h-407.04c-20.67 0-37.48 16.81-37.48 37.48v277.7c0 20.67 16.81 37.48 37.48 37.48h153.19l-7.57 51.86h-33.39c-10.32 0-18.71 8.39-18.71 18.71s8.39 18.71 18.71 18.71h182.59c10.32 0 18.71-8.39 18.71-18.71s-8.39-18.71-18.71-18.71h-33.59l-7.57-51.86h153.38c20.67 0 37.48-16.81 37.48-37.48v-277.7c0-20.67-16.81-37.48-37.48-37.48zm-407.04 12h407.04c14.05 0 25.48 11.43 25.48 25.48v247.19h-458v-247.19c0-14.05 11.43-25.48 25.48-25.48zm301.53 411.23c0 3.7-3.01 6.71-6.71 6.71h-182.59c-3.7 0-6.71-3.01-6.71-6.71s3.01-6.71 6.71-6.71h182.59c3.69 0 6.71 3.01 6.71 6.71zm-52.43-18.71h-91.36l7.57-51.86h76.21zm157.94-63.86h-407.04c-14.05 0-25.48-11.43-25.48-25.48v-18.5h458v18.5c0 14.05-11.43 25.48-25.48 25.48zm-61.87-26.28c.52 1.26.81 2.61.81 4.01s-.29 2.76-.81 4.01c-.48 1.17-1.17 2.23-2.01 3.14-.08.1-.17.2-.27.3-.95.95-2.12 1.73-3.43 2.28-1.26.52-2.61.81-4.01.81s-2.76-.29-4.01-.81c-1.29-.53-2.45-1.31-3.41-2.27l-.02-.02c-.96-.97-1.74-2.13-2.28-3.42-.52-1.26-.81-2.61-.81-4.01s.29-2.76.81-4.01c.53-1.29 1.31-2.45 2.27-3.41l.02-.02c.97-.96 2.13-1.74 3.42-2.28 1.26-.52 2.61-.81 4.01-.81s2.76.29 4.01.81c1.29.53 2.45 1.31 3.41 2.27l.02.02c.97.96 1.75 2.12 2.28 3.41zm-132.17-83.96c0 3.31 2.69 6 6 6h191.31c3.31 0 6-2.69 6-6s-2.69-6-6-6h-8.89v-110.35c0-3.31-2.69-6-6-6h-27.48c-3.31 0-6 2.69-6 6v110.36h-5.7v-65.22c0-3.31-2.69-6-6-6h-27.48c-3.31 0-6 2.69-6 6v65.22h-5.7v-46.93c0-3.31-2.69-6-6-6h-27.48c-3.31 0-6 2.69-6 6v46.93h-5.7v-24.77c0-3.31-2.69-6-6-6h-27.46c-3.31 0-6 2.69-6 6v24.77h-7.42c-3.31-.01-6 2.68-6 5.99zm160.95-110.35h15.48v104.36h-15.48zm-45.18 45.13h15.48v59.22h-15.48zm-45.17 18.29h15.48v40.93h-15.48zm-45.18 22.16h15.48v18.77h-15.48zm-15.06-32.87c-.51-3.27 1.73-6.34 5.01-6.85l15.91-2.48 24.06-30.17c.97-1.22 2.39-2.02 3.94-2.21l26.23-3.33 17.92-23.89c.95-1.26 2.35-2.1 3.91-2.33l21.6-3.24 9.84-15.4-6.44 1.82c-3.19.9-6.5-.95-7.41-4.14-.9-3.19.95-6.5 4.14-7.41l20.85-5.91c1.53-.43 3.17-.24 4.56.53 1.39.78 2.41 2.07 2.85 3.6l5.91 20.85c.9 3.19-.95 6.5-4.14 7.41-.55.15-1.1.23-1.64.23-2.62 0-5.02-1.72-5.77-4.37l-2.07-7.31-12.04 18.84c-.93 1.46-2.45 2.45-4.17 2.7l-21.87 3.28-17.96 23.95c-.97 1.3-2.43 2.15-4.05 2.35l-26.34 3.34-24 30.09c-.94 1.18-2.28 1.96-3.77 2.19l-18.23 2.83c-.31.05-.62.07-.93.07-2.89.04-5.44-2.08-5.9-5.04zm-216.91 1.68h72.48c2.71 11.34 12.93 19.8 25.08 19.8 12.16 0 22.37-8.46 25.08-19.8h72.48c4.56 0 8.58-1.78 11.64-5.16s4.44-7.56 4-12.09c-2.75-27.96-15.74-53.83-36.58-72.83-20.99-19.13-48.2-29.67-76.62-29.67s-55.63 10.54-76.62 29.67c-20.85 19.01-33.84 44.87-36.58 72.83-.45 4.53.94 8.71 4 12.09 3.06 3.37 7.08 5.16 11.64 5.16zm97.56 7.79c-7.61 0-13.8-6.19-13.8-13.8s6.19-13.8 13.8-13.8 13.8 6.19 13.8 13.8-6.19 13.8-13.8 13.8zm-101.26-23.87c2.18-22.2 11.29-42.08 25.09-57.61l13.73 13.73c1.17 1.17 2.71 1.76 4.24 1.76 1.54 0 3.07-.59 4.24-1.76 2.34-2.34 2.34-6.14 0-8.49l-13.72-13.72c16.61-14.75 38.09-24.05 61.69-25.4v19.26c0 3.31 2.69 6 6 6s6-2.69 6-6v-19.26c23.59 1.36 45.07 10.66 61.68 25.4l-13.72 13.72c-2.34 2.34-2.34 6.14 0 8.49 1.17 1.17 2.71 1.76 4.24 1.76 1.54 0 3.07-.59 4.24-1.76l13.73-13.73c13.79 15.53 22.91 35.41 25.09 57.61.11 1.15-.17 2-.95 2.86-.77.85-1.6 1.22-2.75 1.22h-72.48c-1.44-6.04-5.02-11.26-9.88-14.82l13.61-36.17c1.17-3.1-.4-6.56-3.5-7.73s-6.56.4-7.73 3.5l-13.45 35.75c-1.34-.22-2.72-.33-4.13-.33-12.16 0-22.37 8.46-25.08 19.8h-72.49c-1.15 0-1.98-.36-2.75-1.22-.78-.86-1.06-1.71-.95-2.86zm182.84 48.35c0 3.31-2.69 6-6 6h-148.32c-3.31 0-6-2.69-6-6s2.69-6 6-6h148.32c3.32 0 6 2.68 6 6zm0 29.24c0 3.31-2.69 6-6 6h-148.32c-3.31 0-6-2.69-6-6s2.69-6 6-6h148.32c3.32 0 6 2.68 6 6zm186.79 78.41c.52 1.26.81 2.61.81 4.01s-.29 2.76-.81 4.01c-.48 1.17-1.17 2.23-2.01 3.14-.08.1-.17.2-.27.3-.95.95-2.12 1.73-3.43 2.28-1.26.52-2.61.81-4.01.81s-2.76-.29-4.01-.81c-1.29-.53-2.45-1.31-3.41-2.27l-.02-.02c-.96-.97-1.74-2.13-2.28-3.42-.52-1.26-.81-2.61-.81-4.01s.29-2.76.81-4.01c.53-1.29 1.31-2.45 2.27-3.41l.02-.02c.97-.96 2.13-1.74 3.42-2.28 1.26-.52 2.61-.81 4.01-.81s2.76.29 4.01.81c1.29.53 2.45 1.31 3.41 2.27l.02.02c.97.96 1.75 2.12 2.28 3.41zm27.22 0c.52 1.26.81 2.61.81 4.01s-.29 2.76-.81 4.01c-.48 1.17-1.17 2.23-2.01 3.14-.08.1-.17.2-.27.3-.95.95-2.12 1.73-3.43 2.28-1.26.52-2.61.81-4.01.81s-2.76-.29-4.01-.81c-1.29-.53-2.45-1.31-3.41-2.27l-.02-.02c-.96-.97-1.74-2.13-2.28-3.42-.52-1.26-.81-2.61-.81-4.01s.29-2.76.81-4.01c.53-1.29 1.31-2.45 2.27-3.41l.02-.02c.97-.96 2.13-1.74 3.42-2.28 1.26-.52 2.61-.81 4.01-.81s2.76.29 4.01.81c1.29.53 2.45 1.31 3.41 2.27l.02.02c.96.96 1.74 2.12 2.28 3.41z" fill="url(#SVGID_1_)" fill-rule="evenodd"/></svg>