<?xml version="1.0" encoding="UTF-8"?>
<svg id="Layer_1" data-name="Layer 1" xmlns="http://www.w3.org/2000/svg" xmlns:xlink="http://www.w3.org/1999/xlink" viewBox="0 0 101 101">
  <defs>
    <style>
      .cls-1 {
        fill: url(#New_Gradient_Swatch_1-9);
      }

      .cls-2 {
        fill: url(#New_Gradient_Swatch_1-12);
      }

      .cls-3 {
        fill: url(#New_Gradient_Swatch_1-10);
      }

      .cls-4 {
        fill: url(#New_Gradient_Swatch_1-3);
      }

      .cls-5 {
        fill: url(#New_Gradient_Swatch_1-5);
      }

      .cls-6 {
        fill: url(#New_Gradient_Swatch_1-7);
      }

      .cls-7 {
        fill: url(#New_Gradient_Swatch_1-6);
      }

      .cls-8 {
        fill: url(#New_Gradient_Swatch_1-11);
      }

      .cls-9 {
        fill: url(#New_Gradient_Swatch_1);
      }

      .cls-10 {
        fill: url(#New_Gradient_Swatch_1-2);
      }

      .cls-11 {
        fill: url(#New_Gradient_Swatch_1-8);
      }

      .cls-12 {
        fill: url(#New_Gradient_Swatch_1-4);
      }
    </style>
    <linearGradient id="New_Gradient_Swatch_1" data-name="New Gradient Swatch 1" x1="5.51" y1="50.47" x2="96.18" y2="50.47" gradientUnits="userSpaceOnUse">
      <stop offset="0" stop-color="#67447e"/>
      <stop offset=".2" stop-color="#3e224a"/>
      <stop offset=".89" stop-color="#34ad88"/>
      <stop offset="1" stop-color="#5eeaa7"/>
    </linearGradient>
    <linearGradient id="New_Gradient_Swatch_1-2" data-name="New Gradient Swatch 1" x1="5.26" y1="50.47" x2="96.43" y2="50.47" xlink:href="#New_Gradient_Swatch_1"/>
    <linearGradient id="New_Gradient_Swatch_1-3" data-name="New Gradient Swatch 1" x1="13.33" y1="49.69" x2="88.36" y2="49.69" xlink:href="#New_Gradient_Swatch_1"/>
    <linearGradient id="New_Gradient_Swatch_1-4" data-name="New Gradient Swatch 1" x1="13.08" y1="49.69" x2="88.61" y2="49.69" xlink:href="#New_Gradient_Swatch_1"/>
    <linearGradient id="New_Gradient_Swatch_1-5" data-name="New Gradient Swatch 1" x1="43.03" y1="59.92" x2="58.65" y2="59.92" xlink:href="#New_Gradient_Swatch_1"/>
    <linearGradient id="New_Gradient_Swatch_1-6" data-name="New Gradient Swatch 1" x1="42.78" y1="59.92" x2="58.91" y2="59.92" xlink:href="#New_Gradient_Swatch_1"/>
    <linearGradient id="New_Gradient_Swatch_1-7" data-name="New Gradient Swatch 1" x1="40.11" y1="49.9" x2="61.57" y2="49.9" xlink:href="#New_Gradient_Swatch_1"/>
    <linearGradient id="New_Gradient_Swatch_1-8" data-name="New Gradient Swatch 1" x1="39.87" y1="49.9" x2="61.82" y2="49.9" xlink:href="#New_Gradient_Swatch_1"/>
    <linearGradient id="New_Gradient_Swatch_1-9" data-name="New Gradient Swatch 1" x1="35.68" y1="44.54" x2="65.96" y2="44.54" xlink:href="#New_Gradient_Swatch_1"/>
    <linearGradient id="New_Gradient_Swatch_1-10" data-name="New Gradient Swatch 1" x1="35.43" y1="44.54" x2="66.21" y2="44.54" xlink:href="#New_Gradient_Swatch_1"/>
    <linearGradient id="New_Gradient_Swatch_1-11" data-name="New Gradient Swatch 1" x1="31.23" y1="39.22" x2="70.46" y2="39.22" xlink:href="#New_Gradient_Swatch_1"/>
    <linearGradient id="New_Gradient_Swatch_1-12" data-name="New Gradient Swatch 1" x1="30.98" y1="39.22" x2="70.71" y2="39.22" xlink:href="#New_Gradient_Swatch_1"/>
  </defs>
  <g id="security">
    <g>
      <g>
        <path class="cls-9" d="m96.15,20.71c0-.78-.78-1.41-1.56-1.41-28.12,0-34.37-12.97-34.53-13.12-.16-.62-.78-.94-1.41-.94h-15.62c-.62,0-1.09.31-1.41.94-.16.16-6.41,13.12-34.53,13.12-.78,0-1.56.62-1.56,1.41,0,.62-2.66,62.33,44.84,74.99h.94c47.49-12.5,44.84-74.36,44.84-74.99Zm-45.31,72.02C10.22,81.48,8.51,31.65,8.66,22.43c25-.47,33.28-10.78,35.31-14.06h13.75c2.03,3.28,10.31,13.59,35.31,14.06.16,9.22-1.56,59.05-42.18,70.3Z"/>
        <path class="cls-10" d="m51.34,95.95h-1.03C4.83,83.83,5.1,27.22,5.29,20.8v-.09c0-.88.85-1.66,1.81-1.66,25.4,0,32.99-10.75,34.25-12.9.03-.05.05-.08.06-.1.36-.7.9-1.06,1.62-1.06h15.62c.67,0,1.42.34,1.64,1.08.01.02.03.04.05.08,1.26,2.15,8.84,12.9,34.25,12.9.97,0,1.81.77,1.81,1.66v.09c.18,6.43.46,63.17-45.02,75.14h-.03Zm-.94-.5h.87c45.07-11.89,44.8-68.24,44.62-74.63v-.11c0-.66-.7-1.16-1.32-1.16-25.03,0-32.87-10.06-34.68-13.15l-.09-.13v-.04c-.13-.55-.71-.75-1.16-.75h-15.62c-.53,0-.91.26-1.18.8l-.07.11c-1.81,3.08-9.65,13.15-34.68,13.15-.62,0-1.31.49-1.31,1.16v.11c-.18,6.37-.45,62.6,44.62,74.63Zm.44-2.46l-.07-.02C8.64,81.3,8.31,28.42,8.41,22.43v-.24s.25,0,.25,0c24.85-.47,33.15-10.79,35.1-13.94l.07-.12h14.03l.07.12c1.95,3.15,10.25,13.48,35.1,13.94h.24s0,.25,0,.25c.1,5.99-.22,58.88-42.36,70.55l-.07.02ZM8.91,22.68c-.08,7,.74,58.33,41.94,69.8,41.2-11.46,42.02-62.8,41.94-69.8-24.62-.53-33.09-10.73-35.2-14.06h-13.47c-2.11,3.33-10.59,13.53-35.2,14.06Z"/>
      </g>
      <g>
        <path class="cls-4" d="m52.09,12.12c-.31-.47-.78-.62-1.25-.62h0c-.47,0-.94.16-1.25.62,0,0-11.25,13.44-34.68,13.44-.78,0-1.56.62-1.56,1.41,0,.47-2.19,50.46,37.03,60.93h.94c39.21-10.31,37.03-60.3,37.03-60.93,0-.78-.78-1.41-1.56-1.41-23.28,0-34.68-13.44-34.68-13.44Zm-1.25,72.8C18.04,75.86,16.47,36.8,16.47,28.68c19.68-.47,30.93-9.84,34.37-13.28,3.59,3.59,14.69,12.81,34.37,13.28,0,8.12-1.56,47.18-34.37,56.24Z"/>
        <path class="cls-12" d="m51.34,88.14h-1.03C12.71,78.09,12.95,32.23,13.1,27.03v-.07c0-.88.85-1.66,1.81-1.66,23.05,0,34.38-13.21,34.49-13.35.31-.46.81-.71,1.44-.71s1.13.25,1.45.72c.37.43,11.86,13.34,34.48,13.34.97,0,1.81.77,1.81,1.66v.09c.14,5.21.31,51.21-37.21,61.08h-.03Zm-.94-.5h.87c37.12-9.79,36.95-55.4,36.81-60.57v-.11c0-.66-.7-1.16-1.32-1.16-23.13,0-34.76-13.39-34.87-13.52l-.02-.02c-.23-.34-.58-.51-1.04-.51s-.81.17-1.04.51c-.13.16-11.61,13.55-34.89,13.55-.62,0-1.31.49-1.31,1.16v.08c-.15,5.16-.39,50.64,36.81,60.6Zm.44-2.46l-.07-.02c-13.97-3.86-23.95-13.49-29.66-28.62-4.42-11.73-4.9-23.39-4.9-27.86v-.24h.24c19.95-.48,31.22-10.23,34.2-13.21l.18-.18.18.18c3.82,3.82,14.79,12.74,34.2,13.21h.24v.25c0,4.47-.48,16.13-4.9,27.86-5.71,15.14-15.68,24.77-29.66,28.62l-.07.02ZM16.72,28.92c.04,8.31,1.97,46.81,34.12,55.74,32.15-8.93,34.08-47.43,34.12-55.74-19.15-.53-30.12-9.24-34.12-13.17-3.25,3.19-14.5,12.63-34.12,13.17Z"/>
      </g>
      <g>
        <path class="cls-5" d="m50.84,52.11c-4.37,0-7.81,3.44-7.81,7.81s3.44,7.81,7.81,7.81,7.81-3.44,7.81-7.81-3.44-7.81-7.81-7.81Zm0,12.5c-2.66,0-4.69-2.03-4.69-4.69s2.03-4.69,4.69-4.69,4.69,2.03,4.69,4.69-2.03,4.69-4.69,4.69Z"/>
        <path class="cls-7" d="m50.84,67.99c-4.52,0-8.06-3.54-8.06-8.06s3.54-8.06,8.06-8.06,8.06,3.54,8.06,8.06-3.54,8.06-8.06,8.06Zm0-15.62c-4.24,0-7.56,3.32-7.56,7.56s3.32,7.56,7.56,7.56,7.56-3.32,7.56-7.56-3.32-7.56-7.56-7.56Zm0,12.5c-2.81,0-4.94-2.12-4.94-4.94s2.12-4.94,4.94-4.94,4.94,2.12,4.94,4.94-2.12,4.94-4.94,4.94Zm0-9.37c-2.53,0-4.44,1.91-4.44,4.44s1.91,4.44,4.44,4.44,4.44-1.91,4.44-4.44-1.91-4.44-4.44-4.44Z"/>
      </g>
      <g>
        <path class="cls-6" d="m50.84,45.86c-4.22,0-8.12,2.03-10.47,5.62-.47.78-.31,1.72.47,2.19.78.47,1.72.31,2.19-.47,1.72-2.66,4.69-4.22,7.81-4.22s6.09,1.56,7.81,4.22c.31.47.78.62,1.25.62.31,0,.62-.16.94-.31.78-.47.94-1.41.47-2.19-2.34-3.44-6.25-5.47-10.47-5.47Z"/>
        <path class="cls-11" d="m41.76,54.19c-.35,0-.71-.1-1.04-.3-.87-.52-1.11-1.61-.55-2.53,2.35-3.6,6.34-5.75,10.68-5.75s8.29,2.08,10.67,5.58c.56.93.32,2.02-.55,2.54-.35.18-.7.35-1.07.35-.63,0-1.14-.25-1.46-.74-1.67-2.57-4.51-4.11-7.6-4.11s-5.94,1.53-7.6,4.1c-.26.43-.66.72-1.14.81-.11.02-.23.03-.35.03Zm9.09-8.08c-4.17,0-8.01,2.06-10.26,5.51-.41.68-.25,1.46.39,1.84.69.41,1.46.25,1.84-.38,1.76-2.72,4.76-4.34,8.03-4.34s6.27,1.62,8.02,4.33c.23.34.58.51,1.04.51.25,0,.53-.14.83-.29.62-.37.78-1.15.37-1.83-2.28-3.34-6.12-5.35-10.25-5.35Z"/>
      </g>
      <g>
        <path class="cls-1" d="m50.84,39.62c-5.94,0-11.25,2.66-14.84,7.34-.47.62-.47,1.72.31,2.19.62.47,1.72.47,2.19-.31,2.97-3.91,7.5-6.09,12.34-6.09s9.37,2.19,12.34,6.09c.31.47.78.62,1.25.62.31,0,.62-.16.94-.31.62-.47.78-1.56.31-2.19-3.59-4.69-8.9-7.34-14.84-7.34Z"/>
        <path class="cls-3" d="m37.31,49.72c-.41,0-.83-.13-1.15-.37-.35-.21-.61-.58-.7-1.03-.1-.52.03-1.09.34-1.5,3.68-4.8,9.02-7.44,15.04-7.44s11.36,2.64,15.04,7.44c.55.73.37,1.99-.36,2.54-.37.19-.72.36-1.09.36-.63,0-1.14-.25-1.46-.74-2.89-3.8-7.31-5.98-12.13-5.98s-9.25,2.18-12.14,5.99c-.21.35-.58.61-1.03.7-.12.02-.24.03-.36.03Zm13.53-9.85c-5.86,0-11.06,2.57-14.64,7.25-.22.3-.32.72-.24,1.1.04.22.16.52.49.72.32.24.75.34,1.13.26.22-.04.52-.16.72-.49,3.01-3.96,7.58-6.21,12.56-6.21s9.55,2.26,12.54,6.19c.24.35.59.53,1.05.53.25,0,.53-.14.83-.29.47-.36.61-1.3.22-1.81-3.58-4.67-8.78-7.24-14.64-7.24Z"/>
      </g>
      <g>
        <path class="cls-8" d="m31.63,42.43c-.62.62-.47,1.72.16,2.19.62.62,1.72.47,2.19-.16,4.22-5,10.31-7.97,16.87-7.97s12.65,2.97,16.87,7.97c.31.31.78.62,1.25.62.31,0,.78-.16.94-.31.62-.62.78-1.56.16-2.19-4.69-5.94-11.72-9.22-19.22-9.22s-14.53,3.28-19.22,9.06Z"/>
        <path class="cls-2" d="m68.97,45.33c-.66,0-1.22-.49-1.43-.7-4.24-5.02-10.32-7.89-16.7-7.89s-12.46,2.87-16.68,7.88c-.27.36-.74.6-1.25.64-.5.04-.98-.13-1.31-.47-.34-.25-.59-.72-.62-1.23-.04-.49.13-.97.46-1.3,4.72-5.81,11.79-9.14,19.4-9.14s14.74,3.39,19.41,9.31c.33.33.49.79.44,1.27-.04.45-.26.89-.62,1.25-.22.22-.77.39-1.11.39Zm-18.12-9.09c6.52,0,12.74,2.94,17.06,8.06.33.33.73.54,1.06.54.28,0,.67-.15.76-.24.27-.27.44-.61.47-.94.02-.24-.01-.59-.32-.89-4.6-5.82-11.53-9.14-19.04-9.14s-14.4,3.27-19.02,8.97l-.02.02c-.23.23-.35.56-.32.92.03.37.19.7.45.89.26.26.59.37.95.34.37-.03.7-.19.89-.45,4.33-5.13,10.55-8.07,17.07-8.07Z"/>
      </g>
    </g>
  </g>
</svg>