<svg width="75" height="75" viewBox="0 0 75 75" fill="none" xmlns="http://www.w3.org/2000/svg">
<path d="M70.3125 11.7188H4.6875C3.98438 11.7188 3.51562 12.1875 3.51562 12.8906V55.0781C3.51562 55.7812 3.98438 56.25 4.6875 56.25H8.32031L4.80469 61.4062C4.57031 61.7578 4.57031 62.2266 4.80469 62.5781C5.03906 63.0469 5.39062 63.2812 5.85938 63.2812H10.5469C10.8984 63.2812 11.25 63.0469 11.4844 62.8125L15.8203 56.25H59.0625L63.3984 62.8125C63.6328 63.1641 63.9844 63.2812 64.3359 63.2812H69.0234C69.4922 63.2812 69.8438 63.0469 70.0781 62.6953C70.3125 62.3438 70.3125 61.875 70.0781 61.5234L66.5625 56.3672H70.3125C71.0156 56.3672 71.4844 55.8984 71.4844 55.1953V12.8906C71.4844 12.1875 71.0156 11.7188 70.3125 11.7188ZM9.96094 60.9375H8.08594L11.25 56.25H13.125L9.96094 60.9375ZM66.9141 60.9375H65.0391L61.875 56.25H63.75L66.9141 60.9375ZM69.1406 53.9062H64.4531H59.7656H15.2344H10.5469H5.85938V14.0625H69.1406V53.9062Z" fill="black"/>
<path d="M37.5 35.1562C34.2188 35.1562 31.6406 37.7344 31.6406 41.0156C31.6406 44.2969 34.2188 46.875 37.5 46.875C40.7812 46.875 43.3594 44.2969 43.3594 41.0156C43.3594 37.7344 40.7812 35.1562 37.5 35.1562ZM37.5 44.5312C35.5078 44.5312 33.9844 43.0078 33.9844 41.0156C33.9844 39.0234 35.5078 37.5 37.5 37.5C39.4922 37.5 41.0156 39.0234 41.0156 41.0156C41.0156 43.0078 39.4922 44.5312 37.5 44.5312Z" fill="black"/>
<path d="M37.5 30.4688C34.3359 30.4688 31.4062 31.9922 29.6484 34.6875C29.2969 35.2734 29.4141 35.9766 30 36.3281C30.5859 36.6797 31.2891 36.5625 31.6406 35.9766C32.9297 33.9844 35.1563 32.8125 37.5 32.8125C39.8438 32.8125 42.0703 33.9844 43.3594 35.9766C43.5938 36.3281 43.9453 36.4453 44.2969 36.4453C44.5312 36.4453 44.7656 36.3281 45 36.2109C45.5859 35.8594 45.7031 35.1562 45.3516 34.5703C43.5938 31.9922 40.6641 30.4688 37.5 30.4688Z" fill="black"/>
<path d="M37.5002 25.7812C33.0471 25.7812 29.0627 27.7734 26.3674 31.2891C26.0158 31.7578 26.0158 32.5781 26.6017 32.9297C27.0705 33.2813 27.8908 33.2812 28.2424 32.6953C30.4689 29.7656 33.8674 28.125 37.5002 28.125C41.133 28.125 44.5314 29.7656 46.758 32.6953C46.9924 33.0469 47.3439 33.1641 47.6955 33.1641C47.9299 33.1641 48.1642 33.0469 48.3986 32.9297C48.8674 32.5781 48.9846 31.7578 48.633 31.2891C45.9377 27.7734 41.9533 25.7812 37.5002 25.7812Z" fill="black"/>
<path d="M37.5001 21.0938C31.8751 21.0938 26.6016 23.5547 23.086 27.8906C22.6173 28.3594 22.7344 29.1797 23.2032 29.5313C23.6719 30 24.4923 29.8828 24.8438 29.4141C28.0079 25.6641 32.5782 23.4375 37.5001 23.4375C42.4219 23.4375 46.9923 25.6641 50.1563 29.4141C50.3907 29.6484 50.7423 29.8828 51.0938 29.8828C51.3282 29.8828 51.6798 29.7656 51.7969 29.6484C52.2657 29.1797 52.3829 28.4766 51.9141 28.0078C48.3985 23.5547 43.1251 21.0938 37.5001 21.0938Z" fill="black"/>
<path d="M9.375 51.5625H65.625C66.3281 51.5625 66.7969 51.0938 66.7969 50.3906V17.5781C66.7969 16.875 66.3281 16.4062 65.625 16.4062H9.375C8.67188 16.4062 8.20312 16.875 8.20312 17.5781V50.3906C8.20312 51.0938 8.67188 51.5625 9.375 51.5625ZM10.5469 18.75H64.4531V49.2188H10.5469V18.75Z" fill="black"/>
</svg>
