<?xml version="1.0" encoding="UTF-8"?>
<svg id="Layer_1" data-name="Layer 1" xmlns="http://www.w3.org/2000/svg" xmlns:xlink="http://www.w3.org/1999/xlink" viewBox="0 0 101 101">
  <defs>
    <style>
      .cls-1 {
        fill: url(#New_Gradient_Swatch-3);
        opacity: .95;
      }

      .cls-1, .cls-2, .cls-3 {
        fill-rule: evenodd;
        isolation: isolate;
      }

      .cls-2 {
        fill: url(#New_Gradient_Swatch-2);
        opacity: .95;
      }

      .cls-3 {
        fill: url(#New_Gradient_Swatch);
        opacity: .95;
      }
    </style>
    <linearGradient id="New_Gradient_Swatch" data-name="New Gradient Swatch" x1="5.56" y1="49.97" x2="94.17" y2="49.97" gradientUnits="userSpaceOnUse">
      <stop offset="0" stop-color="#67447e"/>
      <stop offset=".2" stop-color="#3e224a"/>
      <stop offset=".89" stop-color="#34ad88"/>
      <stop offset="1" stop-color="#5eeaa7"/>
    </linearGradient>
    <linearGradient id="New_Gradient_Swatch-2" data-name="New Gradient Swatch" x1="12.91" y1="42.46" x2="72.08" y2="42.46" xlink:href="#New_Gradient_Swatch"/>
    <linearGradient id="New_Gradient_Swatch-3" data-name="New Gradient Swatch" x1="22.2" y1="42.58" x2="62.79" y2="42.58" xlink:href="#New_Gradient_Swatch"/>
  </defs>
  <path class="cls-3" d="m38.96,5.67h7.1c12.42,1.61,21.91,7.72,28.47,18.34,5.57,10.16,6.43,20.72,2.6,31.67-1.21,3.14-2.79,6.05-4.76,8.74,6.78,6.78,13.56,13.56,20.33,20.33.68.77,1.17,1.64,1.47,2.6v2.77c-.43,1.38-1.24,2.51-2.42,3.37-.59.28-1.16.54-1.73.78h-2.77c-.96-.31-1.82-.8-2.6-1.47-6.78-6.78-13.56-13.56-20.33-20.33-10.99,7.56-22.79,9.09-35.39,4.59-13.53-5.94-21.32-16.24-23.36-30.89v-7.1c1.88-14.07,9.21-24.19,21.98-30.37,3.68-1.56,7.49-2.56,11.42-3.03Zm.87,3.81c12.48-.45,22.43,4.28,29.85,14.19,6.19,9.38,7.52,19.42,3.98,30.11-3.27,8.46-8.95,14.72-17.05,18.78-10.79,4.74-21.29,4.16-31.5-1.73-12.24-8.37-17.29-19.93-15.14-34.7,3.07-12.76,10.83-21.21,23.28-25.35,2.18-.6,4.37-1.04,6.58-1.3Zm29.94,57.98c6.69,6.6,13.35,13.23,19.99,19.9,1.04,1.55.67,2.59-1.12,3.12-.52-.06-.99-.26-1.38-.61-6.63-6.63-13.27-13.27-19.9-19.9.96-.7,1.77-1.54,2.42-2.51Z"/>
  <path class="cls-2" d="m40.69,12.85c9.94-.26,18.16,3.31,24.66,10.73,6.36,8.17,8.21,17.29,5.54,27.34-2.4,7.71-7.1,13.56-14.1,17.57-7.48,3.88-15.27,4.63-23.36,2.25-12.28-4.55-19.11-13.35-20.51-26.39-.21-13.22,5.53-22.82,17.22-28.81,3.4-1.47,6.91-2.36,10.56-2.68Zm1.56,3.81c-4.61.16-8.94,1.4-12.98,3.72-9.73,6.51-13.74,15.6-12.03,27.26,2.09,8.89,7.31,15.15,15.66,18.78,9.59,3.42,18.36,1.98,26.31-4.33,8.62-8.16,11.02-17.88,7.18-29.16-4.7-10.32-12.75-15.74-24.14-16.27Z"/>
  <path class="cls-1" d="m40.53,29.59c6.09-.37,11.74.99,16.96,4.07,3.81,2.46,5.57,5.95,5.28,10.47-.48,2.37-1.6,4.36-3.37,5.97-3.92,3.17-8.42,4.96-13.5,5.36-5.06.51-9.96-.12-14.71-1.9-3.3-1.28-5.92-3.39-7.87-6.32-2.28-5.39-1.04-9.8,3.72-13.24,4.11-2.7,8.61-4.17,13.5-4.41Zm1.04,3.98c-1.73.8-2.92,2.13-3.55,3.98-1.55,4.21-1.2,8.25,1.04,12.11,2.51,2.86,4.87,2.74,7.1-.35,2.46-4.6,2.4-9.15-.17-13.67-1.07-1.56-2.54-2.25-4.41-2.08Zm-6.58,1.04c-3.49.83-6.28,2.68-8.39,5.54-.89,1.91-.77,3.75.35,5.54,2.09,2.48,4.72,4.15,7.87,5.02-.03-.64-.23-1.28-.61-1.9-1.49-4.84-1.23-9.57.78-14.19Zm14.88.17c.71,1.11,1.2,2.32,1.47,3.63.95,4.25.46,8.32-1.47,12.2,2.58-.6,4.88-1.75,6.92-3.46,3.1-3.33,2.93-6.5-.52-9.52-1.73-1.3-3.63-2.28-5.71-2.94-.27-.13-.5-.1-.69.09Z"/>
</svg>