<svg width="386" height="386" viewBox="0 0 386 386" fill="none" xmlns="http://www.w3.org/2000/svg">
<g opacity="0.8">
<path d="M335.805 159.68C333.666 159.348 326.942 159.943 326.942 159.943L325.429 158.028C325.429 158.028 329.953 150.401 328.841 148.934C327.737 147.467 319.793 142.82 318.466 143.399C317.138 143.97 313.162 149.583 313.162 149.583L310.375 149.212C310.375 149.212 309.294 141.492 306.152 141.639C303.018 141.793 296.857 143.824 295.63 144.619C294.402 145.414 296.248 152.964 296.248 152.964L294.217 154.593L293.345 154.176C293.345 154.176 287.308 150.401 285.586 151.698C283.865 152.987 279.765 161.394 280.09 162.475C280.414 163.556 286.706 168.08 286.706 168.08L286.227 170.234C286.227 170.234 279.117 172.388 278.793 174.433C278.468 176.479 279.765 184.886 281.919 185.102C284.073 185.319 290.751 184.346 290.751 184.346L292.364 186.175C292.364 186.175 288.273 194.042 289.454 195.439C290.643 196.837 298.826 201.044 300.123 200.396C301.412 199.747 305.079 193.934 305.079 193.934L307.882 194.15C307.882 194.15 309.387 201.801 312.514 201.477C315.64 201.152 321.669 198.782 322.858 197.918C324.047 197.053 321.778 189.619 321.778 189.619L323.823 187.789C323.823 187.789 329.86 191.456 332.122 189.943C334.384 188.437 338.051 181.32 337.511 180.246C336.971 179.166 331.474 174.642 331.474 174.642L331.505 174.07C333.412 173.538 337.982 172.102 338.329 170.504C338.762 168.481 337.936 160.012 335.797 159.68H335.805ZM308.6 181.088C303.226 181.088 298.865 176.726 298.865 171.353C298.865 165.98 303.226 161.618 308.6 161.618C313.973 161.618 318.334 165.98 318.334 171.353C318.334 176.726 313.973 181.088 308.6 181.088Z" fill="#070819"/>
<path d="M106.15 245.55C104.39 245.272 98.8704 245.766 98.8704 245.766L97.6274 244.191C97.6274 244.191 101.341 237.93 100.43 236.726C99.5188 235.522 93.0032 231.708 91.9069 232.179C90.8184 232.65 87.5528 237.251 87.5528 237.251L85.2677 236.95C85.2677 236.95 84.3799 230.612 81.8014 230.735C79.223 230.859 74.1741 232.526 73.1628 233.182C72.1514 233.839 73.6723 240.03 73.6723 240.03L72.0048 241.366L71.2868 241.018C71.2868 241.018 66.3306 237.922 64.9178 238.98C63.505 240.045 60.1391 246.939 60.4093 247.827C60.6718 248.715 65.8442 252.428 65.8442 252.428L65.4505 254.196C65.4505 254.196 59.6142 255.964 59.344 257.647C59.0815 259.33 60.1391 266.224 61.907 266.402C63.6749 266.579 69.1638 265.784 69.1638 265.784L70.4916 267.289C70.4916 267.289 67.1334 273.743 68.1062 274.894C69.0789 276.044 75.803 279.495 76.8606 278.962C77.926 278.429 80.9291 273.658 80.9291 273.658L83.2296 273.836C83.2296 273.836 84.4648 280.112 87.0356 279.85C89.5986 279.587 94.5549 277.642 95.5276 276.932C96.5003 276.221 94.6398 270.123 94.6398 270.123L96.3228 268.617C96.3228 268.617 101.279 271.628 103.132 270.385C104.992 269.15 107.995 263.306 107.555 262.426C107.115 261.538 102.599 257.825 102.599 257.825L102.622 257.354C104.189 256.914 107.941 255.74 108.227 254.428C108.582 252.768 107.903 245.82 106.15 245.542V245.55ZM83.8164 263.121C79.4005 263.121 75.8262 259.539 75.8262 255.13C75.8262 250.722 79.4005 247.14 83.8164 247.14C88.2322 247.14 91.8066 250.722 91.8066 255.13C91.8066 259.539 88.2245 263.121 83.8164 263.121Z" fill="#070819"/>
<path d="M240.448 85.5839C238.718 85.3137 233.299 85.8001 233.299 85.8001L232.079 84.2561C232.079 84.2561 235.723 78.1032 234.835 76.9221C233.94 75.7409 227.532 71.9967 226.467 72.4599C225.394 72.9231 222.19 77.447 222.19 77.447L219.943 77.1459C219.943 77.1459 219.071 70.9159 216.539 71.0394C214.007 71.1629 209.043 72.7996 208.054 73.4403C207.059 74.0811 208.556 80.1722 208.556 80.1722L206.92 81.4846L206.217 81.1449C206.217 81.1449 201.353 78.1032 199.964 79.1454C198.574 80.1876 195.27 86.9658 195.533 87.8381C195.795 88.7105 200.867 92.3543 200.867 92.3543L200.481 94.0913C200.481 94.0913 194.745 95.8283 194.483 97.4804C194.22 99.1325 195.262 105.911 196.999 106.08C198.736 106.25 204.125 105.471 204.125 105.471L205.43 106.945C205.43 106.945 202.125 113.291 203.083 114.418C204.04 115.545 210.641 118.934 211.683 118.417C212.725 117.892 215.682 113.206 215.682 113.206L217.944 113.384C217.944 113.384 219.163 119.552 221.68 119.289C224.197 119.027 229.068 117.12 230.026 116.425C230.983 115.73 229.153 109.732 229.153 109.732L230.805 108.258C230.805 108.258 235.669 111.214 237.498 109.995C239.32 108.775 242.277 103.039 241.845 102.174C241.413 101.302 236.981 97.658 236.981 97.658L237.004 97.1948C238.548 96.7625 242.231 95.6122 242.509 94.3229C242.856 92.6863 242.192 85.8618 240.463 85.5916L240.448 85.5839ZM218.507 102.846C214.169 102.846 210.656 99.3332 210.656 94.9946C210.656 90.6559 214.169 87.1433 218.507 87.1433C222.846 87.1433 226.359 90.6559 226.359 94.9946C226.359 99.3332 222.846 102.846 218.507 102.846Z" fill="#070819"/>
<path d="M224.143 234.781C223.116 234.619 219.881 234.912 219.881 234.912L219.156 233.986C219.156 233.986 221.333 230.319 220.8 229.616C220.267 228.914 216.446 226.675 215.805 226.953C215.164 227.231 213.25 229.925 213.25 229.925L211.907 229.747C211.907 229.747 211.382 226.034 209.876 226.104C208.363 226.173 205.406 227.153 204.812 227.539C204.217 227.925 205.113 231.554 205.113 231.554L204.132 232.334L203.716 232.133C203.716 232.133 200.813 230.319 199.987 230.944C199.161 231.569 197.184 235.607 197.347 236.124C197.501 236.641 200.527 238.818 200.527 238.818L200.296 239.853C200.296 239.853 196.876 240.887 196.721 241.875C196.567 242.864 197.184 246.901 198.227 247.009C199.261 247.11 202.48 246.646 202.48 246.646L203.26 247.527C203.26 247.527 201.292 251.309 201.863 251.981C202.434 252.653 206.371 254.675 206.997 254.366C207.622 254.058 209.382 251.255 209.382 251.255L210.733 251.356C210.733 251.356 211.459 255.038 212.964 254.876C214.47 254.722 217.372 253.579 217.936 253.162C218.507 252.745 217.419 249.171 217.419 249.171L218.407 248.291C218.407 248.291 221.309 250.051 222.398 249.325C223.486 248.6 225.247 245.18 224.992 244.662C224.729 244.145 222.089 241.968 222.089 241.968L222.105 241.69C223.023 241.435 225.224 240.748 225.386 239.976C225.594 239.004 225.2 234.927 224.166 234.773L224.143 234.781ZM211.057 245.079C208.471 245.079 206.371 242.979 206.371 240.393C206.371 237.807 208.471 235.707 211.057 235.707C213.644 235.707 215.743 237.807 215.743 240.393C215.743 242.979 213.644 245.079 211.057 245.079Z" fill="#070819"/>
<path d="M70.1364 156.253C69.1096 156.091 65.8749 156.384 65.8749 156.384L65.1492 155.458C65.1492 155.458 67.3263 151.791 66.7936 151.088C66.2609 150.386 62.4395 148.147 61.7988 148.425C61.158 148.703 59.2434 151.397 59.2434 151.397L57.9002 151.22C57.9002 151.22 57.3752 147.506 55.8698 147.576C54.3567 147.645 51.3999 148.626 50.8055 149.012C50.211 149.398 51.1066 153.026 51.1066 153.026L50.1261 153.806L49.7092 153.605C49.7092 153.605 46.8065 151.791 45.9805 152.416C45.1544 153.041 43.1781 157.079 43.3402 157.596C43.4946 158.113 46.5209 160.291 46.5209 160.291L46.2893 161.325C46.2893 161.325 42.8693 162.359 42.7149 163.348C42.5605 164.336 43.1781 168.373 44.2203 168.481C45.2548 168.582 48.474 168.119 48.474 168.119L49.2538 168.999C49.2538 168.999 47.2852 172.781 47.8564 173.453C48.4277 174.125 52.3649 176.147 52.9902 175.839C53.6156 175.53 55.3757 172.727 55.3757 172.727L56.7267 172.828C56.7267 172.828 57.4524 176.51 58.9578 176.348C60.4632 176.194 63.3659 175.051 63.9295 174.634C64.5008 174.217 63.4122 170.643 63.4122 170.643L64.4004 169.763C64.4004 169.763 67.3031 171.523 68.3916 170.797C69.4802 170.072 71.2403 166.652 70.9856 166.135C70.7231 165.617 68.0828 163.44 68.0828 163.44L68.0983 163.162C69.017 162.908 71.2172 162.221 71.3793 161.449C71.5877 160.476 71.194 156.4 70.1595 156.245L70.1364 156.253ZM57.051 166.551C54.4648 166.551 52.3649 164.452 52.3649 161.865C52.3649 159.279 54.4648 157.179 57.051 157.179C59.6372 157.179 61.737 159.279 61.737 161.865C61.737 164.452 59.6372 166.551 57.051 166.551Z" fill="#070819"/>
<path d="M91.9375 209.204C91.9375 209.204 103.108 192.598 87.7378 185.504C87.7378 185.504 97.7043 188.345 102.329 181.574C106.953 174.804 107.694 167.192 107.694 167.192C107.694 167.192 111.454 179.552 119.668 180.47C130.954 181.736 135.409 177.39 135.409 177.39C135.409 177.39 131.904 186.322 134.266 193.077C136.636 199.832 143.762 200.758 143.762 200.758C143.762 200.758 130.8 199.956 126.106 207.413C121.42 214.871 121.783 223.062 121.783 223.062C121.783 223.062 118.757 211.119 106.181 208.725C93.605 206.332 91.9298 209.196 91.9298 209.196L91.9375 209.204Z" fill="#070819"/>
<path d="M178.733 297.652C178.733 297.652 187.828 284.127 175.313 278.352C175.313 278.352 183.435 280.66 187.195 275.156C190.954 269.644 191.564 263.445 191.564 263.445C191.564 263.445 194.629 273.512 201.314 274.261C210.501 275.295 214.137 271.752 214.137 271.752C214.137 271.752 211.281 279.024 213.211 284.528C215.141 290.025 220.946 290.781 220.946 290.781C220.946 290.781 210.393 290.125 206.572 296.201C202.75 302.276 203.051 308.939 203.051 308.939C203.051 308.939 200.589 299.219 190.352 297.266C180.115 295.313 178.749 297.644 178.749 297.644L178.733 297.652Z" fill="#070819"/>
<path d="M130.445 103.772C130.445 103.772 139.539 90.2468 127.025 84.4723C127.025 84.4723 135.146 86.7805 138.906 81.2762C142.666 75.7641 143.276 69.5649 143.276 69.5649C143.276 69.5649 146.34 79.6318 153.026 80.3807C162.213 81.4151 165.849 77.8717 165.849 77.8717C165.849 77.8717 162.992 85.1439 164.922 90.6483C166.852 96.1449 172.658 96.9015 172.658 96.9015C172.658 96.9015 162.105 96.2453 158.283 102.321C154.462 108.397 154.763 115.059 154.763 115.059C154.763 115.059 152.3 105.339 142.063 103.386C131.827 101.433 130.46 103.765 130.46 103.765L130.445 103.772Z" fill="#070819"/>
<path d="M116.008 220.707C112.372 222.405 108.535 223.687 104.776 225.1C101.75 226.235 98.3218 227.277 95.6816 229.207C94.2225 230.272 93.6667 231.947 95.6816 232.704C98.5303 233.769 102.081 233.607 105.061 233.623C109.616 233.646 114.217 233.422 118.726 232.727C118.494 232.326 118.263 231.924 118.031 231.531C114.202 236.178 111.338 241.482 109.578 247.248C109.385 247.889 110.095 248.322 110.635 248.059C115.723 245.565 120.833 243.11 125.944 240.663C126.778 240.262 126.052 239.027 125.218 239.42C120.108 241.868 114.997 244.323 109.91 246.816C110.265 247.086 110.612 247.357 110.967 247.627C112.65 242.107 115.383 236.996 119.05 232.542C119.521 231.971 119.073 231.229 118.355 231.345C114.85 231.886 111.284 232.094 107.733 232.171C104.452 232.241 101.062 232.287 97.8123 231.747C97.4417 231.685 95.8437 231.531 95.6816 231.121C95.6353 231.013 96.8936 230.118 97.2024 229.932C99.9353 228.296 103.062 227.261 106.034 226.157C109.624 224.822 113.26 223.571 116.726 221.95C117.56 221.556 116.834 220.321 116.001 220.707H116.008Z" fill="white"/>
<path d="M272.392 177.151C274.152 176.487 275.913 175.815 277.673 175.151C278.769 174.734 279.865 174.318 280.961 173.901C281.502 173.692 282.197 173.522 282.668 173.175C283.64 172.457 283.664 170.967 282.729 170.211C282.212 169.794 281.417 169.624 280.807 169.4C278.854 168.69 276.901 167.979 274.948 167.277C275.056 167.678 275.156 168.08 275.264 168.474C278.043 165.47 280.73 162.375 283.332 159.217C285.231 156.909 287.099 154.554 288.782 152.084C289.809 150.579 291.445 148.525 291.615 146.626C291.901 143.507 286.373 145.344 285.014 145.754C280.213 147.213 275.573 149.258 271.003 151.304C267.853 152.717 264.719 154.168 261.623 155.697C261.978 155.844 262.325 155.983 262.681 156.129C261.963 153.057 261.144 150.015 260.218 146.996C259.793 145.615 259.43 144.14 258.836 142.82C258.527 142.133 258.002 141.492 257.168 141.546C255.246 141.67 254.505 145.167 254.08 146.556C253.208 149.374 252.791 152.316 252.768 155.272C252.768 156.199 254.196 156.199 254.204 155.272C254.219 153.126 254.443 150.995 254.93 148.903C255.161 147.915 255.447 146.935 255.779 145.97C256.049 145.198 256.667 142.542 257.663 143.777C258.188 144.426 258.419 146.062 258.674 146.858C258.998 147.892 259.307 148.926 259.608 149.961C260.226 152.123 260.789 154.307 261.306 156.5C261.422 156.978 261.963 157.125 262.364 156.932C268.872 153.721 275.519 150.64 282.343 148.17C284.134 147.521 285.956 146.888 287.832 146.502C288.427 146.379 289.06 146.248 289.662 146.294C289.847 146.309 289.994 146.333 290.171 146.379C290.256 146.402 290.225 146.433 290.202 146.363C290.496 147.267 288.535 149.891 287.94 150.787C286.373 153.149 284.621 155.38 282.837 157.581C280.081 160.962 277.225 164.266 274.261 167.462C273.875 167.879 274.068 168.474 274.577 168.659C276.129 169.222 277.68 169.786 279.24 170.349C279.942 170.604 280.877 170.782 281.517 171.176C282.274 171.646 281.849 171.955 281.293 172.249C279.657 173.106 277.711 173.607 275.982 174.264C274.662 174.765 273.35 175.259 272.029 175.761C271.173 176.085 271.543 177.475 272.408 177.143L272.392 177.151Z" fill="white"/>
<path d="M168.721 114.588C167.161 113.175 165.795 111.593 164.699 109.794C163.849 108.404 161.549 104.814 163.564 103.618C165.162 102.668 167.13 104.066 168.381 104.992C169.778 106.026 171.106 106.945 172.89 107.03C173.384 107.053 173.669 106.551 173.584 106.119C172.851 102.552 172.797 98.8314 172.944 95.203C173.09 91.5668 173.445 87.8535 174.449 84.3486C174.727 83.3836 175.576 79.9714 177.166 81.0136C178.085 81.6158 178.656 83.1057 179.104 84.0476C179.884 85.7074 180.501 87.4366 181.065 89.1814C182.408 93.3656 183.497 97.7351 183.867 102.12C183.921 102.745 184.608 103.062 185.095 102.63C186.515 101.356 187.99 100.144 189.542 99.0321C190.53 98.3218 192.105 96.9168 193.378 96.8473C193.548 96.8628 193.548 96.8242 193.378 96.7392C193.44 96.8473 193.525 96.9322 193.633 96.994C193.865 97.1098 193.865 97.0866 193.618 96.9245C193.649 97.0403 193.672 97.1561 193.679 97.2719C193.571 97.8741 193.679 98.5612 193.61 99.1788C193.409 101.001 192.992 102.938 192.135 104.575C191.711 105.393 192.946 106.119 193.378 105.301C194.428 103.301 194.907 100.947 195.092 98.7156C195.146 97.9976 195.247 97.1021 194.961 96.415C194.845 96.1216 194.699 95.9981 194.475 95.7897C194.166 95.4963 194.39 95.8051 194.552 95.9209C194.405 95.8206 194.382 95.6739 194.212 95.589C192.846 94.9173 191.047 96.2683 189.974 96.9863C187.889 98.3604 185.936 99.9508 184.076 101.618C184.485 101.788 184.894 101.958 185.303 102.128C184.933 97.7274 183.883 93.3579 182.555 89.1582C181.945 87.2205 181.258 85.3059 180.401 83.4608C179.845 82.2565 179.197 80.8978 178.178 80.0023C176.433 78.466 174.688 79.9637 173.901 81.6544C172.38 84.9045 171.994 88.7568 171.693 92.2848C171.291 96.9786 171.245 101.858 172.195 106.497C172.426 106.196 172.658 105.895 172.89 105.586C170.396 105.463 168.837 103.054 166.582 102.259C164.992 101.695 162.877 101.703 161.858 103.263C160.592 105.2 161.927 107.733 162.884 109.508C164.127 111.809 165.772 113.847 167.709 115.599C168.396 116.217 169.408 115.205 168.721 114.588Z" fill="white"/>
<path d="M236.525 262.789C236.525 262.789 250.738 307.341 257.825 317.083C263.414 324.772 328.417 299.667 331.227 294.232C332.639 291.499 312.853 237.583 309.889 237.305C301.35 236.51 246.708 256.883 236.525 262.789Z" fill="white"/>
<path d="M235.838 262.974C238.285 270.648 240.895 278.275 243.612 285.864C245.782 291.932 248.028 297.969 250.506 303.921C252.32 308.29 254.142 312.845 256.767 316.798C258.288 319.091 260.828 319.299 263.406 319.237C267.714 319.129 272.022 318.172 276.191 317.161C287.446 314.428 298.463 310.552 309.201 306.26C313.903 304.384 318.581 302.408 323.136 300.184C325.815 298.88 328.872 297.544 331.088 295.498C332.608 294.086 331.86 292.117 331.42 290.334C330.37 286.103 328.972 281.95 327.583 277.827C324.016 267.274 320.141 256.783 315.732 246.554C314.451 243.589 313.239 240.308 311.324 237.668C310.753 236.88 310.282 236.556 309.294 236.556C307.858 236.556 306.399 236.85 305.002 237.127C300.184 238.1 295.452 239.559 290.774 241.034C284.652 242.964 278.584 245.056 272.547 247.225C261.685 251.139 250.769 255.177 240.3 260.071C238.903 260.72 237.513 261.391 236.178 262.163C235.375 262.627 236.101 263.87 236.904 263.406C240.123 261.546 243.612 260.11 247.032 258.658C252.398 256.381 257.825 254.25 263.267 252.189C274.701 247.858 286.25 243.689 298.023 240.362C301.497 239.382 305.172 238.216 308.8 238.015C309.047 238 309.294 238 309.541 238C309.58 238 309.858 238.023 309.78 238C309.78 238 309.603 237.907 309.734 238C309.742 238 310.066 238.378 310.213 238.579C310.954 239.636 311.525 240.833 312.089 241.991C316.535 251.093 320.009 260.743 323.429 270.269C325.166 275.11 326.849 279.981 328.378 284.891C329.227 287.639 330.377 290.658 330.586 293.522C330.593 293.669 330.601 293.808 330.586 293.954C330.586 293.893 330.655 293.846 330.539 294.001C330.47 294.093 330.084 294.487 329.845 294.688C328.903 295.467 327.814 296.093 326.757 296.687C323.121 298.748 319.284 300.478 315.447 302.13C305.04 306.631 294.325 310.529 283.455 313.718C278.684 315.115 273.851 316.396 268.942 317.215C266.077 317.693 262.41 318.419 259.577 317.392C258.481 316.999 258.087 316.196 257.477 315.192C256.373 313.362 255.424 311.432 254.528 309.495C252.035 304.145 249.896 298.625 247.82 293.097C244.245 283.571 240.941 273.944 237.791 264.263C237.606 263.7 237.429 263.144 237.251 262.58C236.973 261.7 235.583 262.078 235.869 262.959L235.838 262.974Z" fill="#070819"/>
<path d="M238.224 268.787C260.18 257.825 313.316 241.319 313.424 242.277C313.424 242.277 312.544 238.525 311 236.24C309.117 233.453 245.504 256.651 236.533 262.781L238.232 268.779L238.224 268.787Z" fill="#070819"/>
<path d="M243.134 262.465C243.566 263.538 243.041 264.758 241.968 265.19C240.895 265.622 239.675 265.097 239.243 264.024C238.811 262.951 239.335 261.731 240.409 261.299C241.482 260.867 242.701 261.392 243.134 262.465Z" fill="#A0D2F4"/>
<path d="M249.07 260.079C249.503 261.152 248.978 262.372 247.905 262.804C246.831 263.236 245.612 262.711 245.179 261.638C244.747 260.565 245.272 259.346 246.345 258.913C247.418 258.481 248.638 259.006 249.07 260.079Z" fill="#A0D2F4"/>
<path d="M266.51 193.023C259.4 180.077 242.91 157.249 241.165 157.48C240.424 157.581 235.846 160.422 229.971 164.328C227.3 162.213 222.977 159.935 218.167 161.904C215.704 162.915 213.767 164.891 212.616 167.292C211.497 169.624 210.594 173.044 211.852 176.904C204.387 182.323 198.566 186.948 199.045 187.681C199.431 188.268 202.233 192.552 206 198.18C203.924 200.411 199.786 205.9 202.526 211.906C203.63 214.323 205.684 216.183 208.123 217.241C210.756 218.376 214.709 219.209 219.009 217.094C219.225 217.395 219.441 217.696 219.657 217.997C224.428 224.629 227.3 229.817 228.597 230.164C242.57 221.803 252.876 213.852 264.587 205.591C268.787 202.627 269.412 198.304 266.51 193.023Z" fill="#3E224A"/>
<path opacity="0.2" d="M244.16 209.961C243.713 209.359 243.273 208.741 242.848 208.108C243.026 207.892 243.265 207.668 243.628 207.436C244.299 207.838 244.817 206.965 245.426 207.251C246.044 209.204 245.125 209.938 244.16 209.953V209.961ZM241.621 197.254C240.061 197.146 238.579 198.651 240.107 199.786C242.061 200.465 243.195 198.751 241.621 197.254ZM258.96 207.83C258.056 207.05 256.111 206.61 256.003 208.316C256.142 210.378 259.276 209.876 258.96 207.83ZM241.242 192.969C241.211 193.015 241.173 193.085 241.134 193.139C241.482 193.1 241.79 192.961 241.999 192.722L241.659 192.429C241.659 192.429 241.489 192.614 241.242 192.969ZM245.488 201.368C244.778 199.423 240.285 201.245 244.168 203.661C244.469 203.298 244.855 203.021 244.817 202.835C244.546 202.048 245.473 202.017 245.488 201.368ZM250.568 213.736C249.85 214.037 249.595 214.608 249.364 215.334C249.51 215.674 249.68 215.905 249.865 216.098L251.919 214.508C251.548 214.06 251.093 213.829 250.568 213.728V213.736ZM254.25 210.409C253.749 211.065 252.876 211.057 252.483 211.698C252.691 212.64 253.309 212.964 253.949 212.933L255.648 211.621C255.671 211.165 255.316 210.694 254.25 210.401V210.409ZM240.362 203.769C240.694 204.511 241.096 205.275 241.551 206.055C241.682 205.483 241.806 204.92 241.937 204.341C241.42 203.87 240.91 203.769 240.362 203.762V203.769ZM248.291 212.755C248.576 212.323 248.823 211.945 249.155 211.451C248.414 210.856 247.673 210.64 246.855 210.602C246.515 211.018 246.214 211.397 245.882 211.814C246.191 212.146 246.515 212.524 246.801 212.864C247.356 212.825 247.843 212.794 248.298 212.763L248.291 212.755ZM249.811 209.575C251.286 209.706 252.552 209.59 252.066 207.822C250.483 206.942 248.762 207.622 249.811 209.575ZM242.825 194.637C243.35 195.401 243.11 196.381 244.207 196.605C244.84 196.273 245.21 195.949 245.349 195.571L243.574 194.058C243.249 194.22 242.956 194.436 242.825 194.637ZM252.143 201.639C252.058 201.7 251.973 201.754 251.888 201.816C251.61 201.407 251.325 200.998 251.039 200.581C247.434 201.145 251.649 205.367 252.143 201.639ZM247.279 206.749C248.576 206.224 248.8 205.313 248.128 204.163C246.036 203.484 245.774 205.761 247.279 206.749ZM252.544 205.028C252.869 205.553 253.077 206.17 253.834 206.541C254.304 206.286 254.737 206.047 255.161 205.815C255.115 205.213 255.069 204.688 255.022 204.101C254.111 204.256 253.123 203.978 252.544 205.02V205.028ZM248.808 198.628C248.769 198.551 248.731 198.481 248.684 198.404L247.38 197.292C245.619 197.678 246.353 200.844 248.808 198.628Z" fill="#421C3A"/>
<path d="M301.922 253.293C301.536 253.324 273.388 280.591 274.099 284.899C274.377 286.605 277.696 290.473 281.873 294.603C284.366 297.073 280.722 300.061 282.027 303.28C283.919 307.943 287.856 311.363 289.438 311.942C289.438 311.942 321.994 301.35 331.227 294.217L323.213 269.32C314.266 260.921 304.994 253.046 301.922 253.286V253.293Z" fill="#3E224A"/>
<path d="M300.825 191.973C297.035 191.077 294.557 192.838 294.163 194.567C293.869 195.864 294.649 205.221 294.649 205.221C294.649 205.221 287.06 189.904 279.155 186.554C275.017 184.801 270.239 187.681 270.239 187.681C270.239 187.681 265.097 184.014 260.882 184.014C256.072 184.014 253.617 187.565 254.714 190.583C254.714 190.583 244.284 186.137 241.659 192.436C239.034 198.736 247.966 202.951 250.576 204.333C253.085 205.661 261.916 210.763 263.414 215.473C264.904 220.182 259.979 229.477 256.505 230.148C253.038 230.828 252.483 226.736 252.483 226.736C252.483 226.736 251.44 219.387 249.479 216.399L237.413 224.652C237.93 226.08 239.428 229.616 239.521 233.831C239.613 238.038 238.656 251.209 246.206 257.554C261.059 270.038 278.653 283.64 280.506 282.405C287.199 277.943 298.903 266.71 301.983 259.06L285.74 247.673C285.74 247.673 306.198 218.746 307.063 212.477C307.928 206.216 304.6 192.861 300.81 191.965L300.825 191.973Z" fill="#FFBFBF"/>
<path d="M254.065 191.286C260.01 193.926 266.024 196.983 270.401 201.932C274.585 206.672 276.909 213.396 274.855 219.572C274.562 220.452 275.952 220.831 276.237 219.95C278.298 213.736 276.237 206.965 272.285 201.955C267.83 196.312 261.23 192.907 254.791 190.043C253.957 189.673 253.224 190.908 254.065 191.286Z" fill="#421C3A"/>
<path d="M268.617 187.712C274.184 190.622 278.916 195.802 281.942 201.26C283.363 203.816 284.737 206.564 285.563 209.374C286.574 212.84 286.258 216.229 284.968 219.572C284.636 220.437 286.026 220.807 286.35 219.951C287.624 216.662 288.002 213.234 287.161 209.791C286.397 206.68 284.876 203.7 283.378 200.89C280.282 195.077 275.21 189.541 269.343 186.469C268.525 186.044 267.799 187.279 268.617 187.712Z" fill="#421C3A"/>
<path d="M292.673 200.573C294.279 204.009 295.228 207.699 295.29 211.497C295.321 213.612 294.927 215.689 294.896 217.797C294.881 218.723 296.317 218.723 296.332 217.797C296.363 215.542 296.788 213.327 296.718 211.057C296.595 207.151 295.576 203.383 293.916 199.848C293.522 199.014 292.287 199.74 292.673 200.573Z" fill="#421C3A"/>
<path d="M243.319 189.881C242.979 191.201 243.411 192.583 244.346 193.556C245.28 194.536 246.623 195.054 247.943 195.162C249.255 195.27 250.622 194.876 251.595 193.965C252.552 193.07 252.992 191.803 252.814 190.514C252.76 190.128 252.266 189.92 251.934 190.012C251.517 190.128 251.378 190.506 251.432 190.892C251.541 191.68 251.108 192.475 250.537 192.992C249.842 193.618 248.854 193.795 247.943 193.726C246.237 193.587 244.207 192.197 244.701 190.259C244.932 189.364 243.543 188.978 243.319 189.881Z" fill="#421C3A"/>
<path d="M258.527 184.253C257.115 186.87 260.118 189.534 262.364 190.29C264.95 191.163 267.915 190.282 269.66 188.19C270.246 187.488 269.235 186.469 268.648 187.179C267.328 188.762 265.213 189.557 263.19 189.04C262.248 188.8 261.384 188.314 260.697 187.627C260.064 186.994 259.284 185.897 259.778 184.979C260.218 184.168 258.975 183.443 258.535 184.253H258.527Z" fill="#421C3A"/>
<path d="M276.36 186.399C275.697 187.364 275.758 188.638 276.268 189.657C276.777 190.676 277.765 191.425 278.761 191.927C279.865 192.483 281.131 192.799 282.359 192.506C283.393 192.267 284.374 191.572 284.814 190.584C284.968 190.228 284.914 189.812 284.559 189.603C284.25 189.426 283.733 189.503 283.579 189.858C282.861 191.487 280.846 191.363 279.487 190.684C278.267 190.066 276.584 188.607 277.603 187.117C278.128 186.353 276.885 185.635 276.36 186.392V186.399Z" fill="#421C3A"/>
<path d="M300.431 192.32C299.868 192.915 299.312 193.571 299.065 194.366C298.803 195.223 299.034 196.095 299.59 196.782C300.655 198.095 302.578 198.496 304.168 198.164C304.539 198.087 304.786 197.632 304.67 197.284C304.546 196.898 304.183 196.698 303.79 196.782C303.257 196.891 302.639 196.867 302.076 196.705C301.512 196.543 301.095 196.281 300.694 195.872C300.555 195.733 300.74 195.956 300.632 195.802C300.594 195.748 300.555 195.686 300.524 195.624C300.509 195.601 300.431 195.439 300.478 195.547C300.455 195.486 300.431 195.416 300.416 195.354C300.408 195.308 300.393 195.262 300.385 195.223C300.385 195.285 300.393 195.285 300.385 195.238C300.385 195.169 300.385 195.092 300.385 195.022C300.385 194.968 300.385 194.976 300.385 195.038C300.385 194.999 300.401 194.968 300.408 194.93C300.424 194.845 300.455 194.768 300.478 194.69C300.516 194.559 300.447 194.729 300.516 194.59C300.547 194.521 300.586 194.459 300.617 194.389C300.694 194.258 300.779 194.135 300.864 194.011C300.918 193.942 300.926 193.926 300.895 193.972C300.91 193.949 300.926 193.934 300.941 193.911C300.987 193.849 301.041 193.795 301.088 193.733C301.203 193.602 301.327 193.471 301.443 193.339C301.705 193.054 301.721 192.606 301.443 192.328C301.165 192.05 300.694 192.042 300.431 192.328V192.32Z" fill="#421C3A"/>
<path d="M280.159 255.192C285.315 248.962 290.079 242.431 294.904 235.946C295.421 235.252 294.255 234.58 293.738 235.267C288.944 241.713 284.088 248.105 279.626 254.791C279.417 255.1 279.904 255.486 280.151 255.192H280.159Z" fill="#421C3A"/>
<path d="M278.707 257.593C279.418 257.593 279.418 256.497 278.707 256.497C277.997 256.497 277.997 257.593 278.707 257.593Z" fill="#421C3A"/>
<path d="M274.168 284.713C287.979 281.278 299.752 267.645 303.589 254.32C303.836 253.455 302.585 253.154 302.269 253.957C299.513 260.967 296.039 267.127 290.805 272.616C285.941 277.711 280.058 280.915 274.021 284.366C273.828 284.474 273.96 284.775 274.168 284.721V284.713Z" fill="#070819"/>
<path opacity="0.2" d="M322.279 280.29C323.367 279.842 325.058 279.819 324.88 281.44C325.236 283.671 322.51 283.038 322.124 281.44C322.588 281.131 322.202 280.707 322.279 280.29ZM326.363 279.124L325.761 277.256C325.498 277.928 325.598 278.785 326.363 279.124ZM314.906 264.68C314.335 264.341 314.335 263.924 314.134 263.275C312.289 263.036 311.926 264.194 312.567 265.622C313.038 265.869 313.401 266.062 313.764 266.255C314.698 266.101 314.783 265.36 314.906 264.68ZM322.101 274.832C322.688 276.654 324.17 276.461 325.058 275.048L324.788 274.214C324.286 273.898 323.414 273.782 323.028 273.527C322.711 273.967 322.456 274.33 322.101 274.832ZM315.57 268.262C316.597 269.907 317.477 268.826 318.488 267.946C317.963 266.085 315.74 266.463 315.57 268.262ZM318.897 271.644C319.013 271.922 319.129 272.138 319.307 272.338C320.3 272.431 321.051 272.266 321.561 271.844C321.491 271.234 321.105 270.679 320.889 270.007C319.422 269.891 319.453 270.748 318.897 271.644ZM313.192 272.609C314.32 272.639 314.497 272.508 315.215 271.096C314.057 268.695 311.934 270.748 313.192 272.609ZM315.748 274.23C316.141 274.809 316.419 275.218 316.767 275.728C317.068 275.712 317.469 275.697 317.871 275.673C318.859 274.207 317.508 274.268 317.616 272.956C316.504 273.126 315.941 273.736 315.748 274.23ZM321.244 277.897C321.422 276.77 320.634 276.847 319.808 276.785C319.724 277.735 319.075 277.573 318.527 278.221C319.484 279.356 321.7 279.997 321.244 277.897ZM312.328 277.511C312.459 280.969 315.74 279.518 313.833 276.785C313.223 277.079 312.776 277.295 312.328 277.511ZM323.151 269.258C322.92 269.042 322.696 268.834 322.464 268.617C322.657 268.98 322.896 269.173 323.151 269.258ZM311.077 282.861C311.255 282.853 311.425 282.83 311.579 282.784C311.648 282.066 311.648 282.066 311.394 281.44C311.803 281.085 311.695 280.769 311.432 280.491C311.332 281.286 311.216 282.073 311.085 282.861H311.077ZM316.435 282.822C317.307 282.691 318.581 282.374 318.55 281.433C318.524 280.686 318.033 280.195 317.076 279.958C316.443 280.305 315.423 280.514 315.524 281.433C315.84 281.911 316.157 282.39 316.442 282.822H316.435ZM305.704 303.99C305.766 304.484 305.812 304.878 305.858 305.257C306.159 305.504 306.445 305.689 306.731 305.812C307.348 305.581 307.974 305.341 308.599 305.094C308.298 303.55 306.808 302.431 305.696 303.99H305.704ZM318.959 292.449C319.399 292.657 319.839 292.874 320.256 293.074C321.044 292.634 321.237 291.816 321.962 291.214C320.364 289.276 318.542 290.017 318.959 292.449ZM302.292 301.25C303.017 303.635 304.407 303.373 305.241 301.173C304.284 299.822 303.033 299.482 302.292 301.25ZM302.392 307.426C302.963 307.217 303.542 307.001 304.129 306.785C303.512 306.438 302.817 306.584 302.392 307.426ZM316.906 296.108C320.658 295.691 315.887 291.33 315.57 294.665C315.794 295.39 315.902 296.24 316.906 296.108ZM326.208 286.095C327.884 286.752 328.764 284.629 327.59 283.579C325.676 282.807 324.934 284.76 326.208 286.095ZM292.68 310.429C292.68 310.568 292.68 310.715 292.68 310.854C293.267 310.653 293.908 310.437 294.618 310.19C293.985 309.819 293.367 309.997 292.688 310.429H292.68ZM326.085 296.811C326 297.05 325.907 297.297 325.815 297.537C326.293 297.282 326.756 297.027 327.204 296.78C326.949 296.71 326.602 296.741 326.077 296.811H326.085ZM314.667 292.356C314.729 291.129 315.192 290.411 313.725 289.909C311.17 290.72 312.181 293.453 314.667 292.356ZM313.37 299.366C313.841 299.119 314.235 298.911 314.628 298.702C314.729 298.401 314.829 298.108 314.953 297.745C314.072 296.185 312.019 296.417 312.142 298.432C312.536 298.733 312.961 299.057 313.37 299.374V299.366ZM331.203 294.124C330.902 293.731 330.454 293.483 329.659 293.522C328.818 293.985 329.003 294.842 329.119 295.653C329.906 295.159 330.616 294.68 331.226 294.209L331.195 294.117L331.203 294.124ZM315.91 289.376C316.913 289.708 317.655 289.4 318.257 288.705C318.195 288.218 318.141 287.74 318.079 287.261C317.153 286.729 315.809 287.454 315.385 288.357C315.57 288.72 315.748 289.075 315.91 289.376ZM326.363 290.148C326.054 290.612 325.753 291.067 325.444 291.53C326.926 294.889 330.423 289.33 326.363 290.148ZM324.734 295.468C324.402 294.047 324.456 292.387 322.503 293.761C321.592 294.472 323.004 295.128 322.734 295.993C323.568 296.332 324.132 295.838 324.734 295.468ZM296.015 306.824C296.355 307.657 295.382 308.236 295.923 308.885C296.262 309.217 296.61 309.364 296.942 309.387C297.258 309.279 297.575 309.163 297.907 309.047C298.192 308.777 298.401 308.375 298.463 307.874C297.598 307.364 297.034 306.152 296.023 306.816L296.015 306.824ZM289.075 307.534C289.253 308.059 289.368 308.391 289.492 308.738C289.947 308.954 290.387 309.155 290.773 309.34C292.317 308.924 291.978 307.241 290.735 306.777C290.434 306.862 290.133 306.932 289.855 306.993C289.615 307.163 289.353 307.341 289.075 307.534ZM300.061 306.013C302.222 305.766 302.068 303.751 300.215 303.164C299.119 303.782 298.849 305.372 300.061 306.013ZM284.096 306.993C284.451 307.488 284.814 307.951 285.176 308.383C285.176 307.503 284.675 307.032 284.096 306.993ZM310.158 287.091C309.973 287.786 309.772 288.481 309.549 289.153C310.197 289.338 311.116 289.199 311.602 288.782C311.942 287.655 311.046 287.006 310.158 287.091ZM329.682 289.392L329.103 287.593C329.011 287.794 328.949 288.002 328.957 288.164C328.895 288.851 329.227 289.253 329.682 289.392ZM323.213 287.022C322.827 287.47 322.541 287.809 322.225 288.172C322.95 290.195 324.294 289.415 325.205 287.979C324.703 286.844 323.854 287.037 323.213 287.022ZM310.483 299.853C309.549 300.1 309.186 300.756 308.908 301.59C310.305 304.338 312.706 301.065 310.483 299.853ZM293.622 305.766C294.085 305.82 294.533 305.635 294.788 305.226C294.386 305.419 294 305.604 293.622 305.766ZM306.136 296.88C305.58 297.946 305.835 299.003 306.955 299.451C309.132 298.787 308.205 296.463 306.136 296.88ZM312.32 284.845C312.868 285.316 313.339 285.725 313.887 286.188C315.462 285.146 314.798 284.25 313.879 283.146C312.976 283.478 312.536 284.088 312.32 284.845ZM320.851 283.741C320.055 283.525 318.936 283.532 319.145 284.66H319.137C318.759 287.57 323.445 284.613 320.851 283.741ZM311.038 296C311.424 295.043 311.448 294.773 311.262 293.754C309.965 293.298 309.649 294.479 308.939 295.058C309.494 295.846 310.066 296.402 311.038 296ZM287.747 310.244C287.577 310.359 287.384 310.398 287.191 310.421C287.639 310.815 288.072 311.147 288.45 311.402C288.388 310.838 288.303 310.753 287.747 310.244ZM321.298 298.077C321.028 297.498 321.09 296.656 320.117 296.463C319.654 296.965 318.99 297.282 318.828 298.239C319.731 298.301 320.827 299.142 321.291 298.085L321.298 298.077ZM316.574 300.285C315.725 300.462 316.28 301.435 316.805 301.783C317.168 301.628 317.523 301.474 317.878 301.319C317.855 300.841 317.168 300.262 316.574 300.285ZM318.959 296.278C318.789 296.348 318.905 296.44 318.959 296.548C319.013 296.44 319.121 296.355 318.959 296.278Z" fill="#070819"/>
<path d="M274.847 47.7944C274.847 47.7944 250.182 92.9873 247.557 106.088C245.481 116.433 300.578 138.574 306.746 136.729C309.85 135.802 339.317 82.1253 337.472 79.5314C332.145 72.0275 286.52 51.5618 274.847 47.7944Z" fill="white"/>
<path d="M274.222 47.4318C270.817 53.6773 267.513 59.9768 264.279 66.3072C258.929 76.7678 253.548 87.3288 249.294 98.2912C248.538 100.237 247.82 102.205 247.264 104.22C246.916 105.471 246.592 106.683 246.978 107.964C247.897 111.037 251 113.376 253.447 115.213C262.017 121.636 272.168 126.168 282.019 130.237C286.798 132.213 291.654 134.05 296.602 135.571C299.505 136.467 302.786 137.632 305.866 137.563C307.843 137.517 308.792 135.718 309.819 134.243C312.127 130.924 314.188 127.426 316.234 123.945C321.739 114.573 326.957 105.008 331.829 95.2881C333.674 91.6057 335.503 87.8924 337.04 84.071C337.704 82.4112 338.97 80.1569 337.626 78.5898C335.171 75.7179 331.458 73.703 328.262 71.8116C323.12 68.7699 317.794 66.0293 312.436 63.3813C301.79 58.124 290.936 53.1446 279.85 48.86C278.26 48.2424 276.662 47.6403 275.033 47.1153C274.153 46.8297 273.774 48.2116 274.654 48.4972C284.165 51.5852 293.368 55.947 302.415 60.1621C312.629 64.9176 323.159 69.7581 332.469 76.1657C333.805 77.0844 335.148 78.0493 336.268 79.2305C336.445 79.4158 336.623 79.6088 336.785 79.8172C336.924 80.0025 336.823 79.7632 336.831 79.8327C336.87 80.1646 336.808 80.2882 336.708 80.6664C335.974 83.5846 334.538 86.3792 333.257 89.089C328.864 98.4147 323.939 107.501 318.874 116.472C316.543 120.602 314.173 124.709 311.672 128.747C310.213 131.101 308.784 133.68 306.885 135.718C306.654 135.965 306.399 136.104 306.546 136.057C306.252 136.15 305.913 136.15 305.511 136.135C304.245 136.096 302.979 135.81 301.752 135.517C297.567 134.537 293.476 133.116 289.454 131.626C279.279 127.859 269.181 123.404 259.878 117.792C256.404 115.692 252.791 113.407 250.074 110.342C249.294 109.462 248.468 108.397 248.252 107.216C248.028 105.965 248.646 104.521 249.008 103.356C250.452 98.7312 252.428 94.2536 254.42 89.8455C256.867 84.4106 259.477 79.0529 262.14 73.7184C266.209 65.5661 270.424 57.4833 274.755 49.4699C274.986 49.0376 275.218 48.613 275.449 48.1807C275.889 47.3701 274.654 46.6444 274.207 47.455L274.222 47.4318Z" fill="#421C3A"/>
<path d="M271.374 53.708C295.167 63.1804 336.739 85.3368 336.067 86.1551C336.067 86.1551 338.368 82.6116 339.063 79.624C339.912 75.9956 285.856 50.4192 274.848 47.7944L271.374 53.708Z" fill="#421C3A"/>
<path d="M278.738 52.8824C278.314 53.9323 277.117 54.4418 276.067 54.0172C275.017 53.5926 274.508 52.396 274.932 51.3461C275.357 50.2962 276.554 49.7867 277.604 50.2113C278.653 50.6359 279.163 51.8325 278.738 52.8824Z" fill="#A0D2F4"/>
<path d="M284.536 55.2291C284.112 56.279 282.915 56.7885 281.865 56.3639C280.815 55.9393 280.306 54.7427 280.73 53.6928C281.155 52.6429 282.352 52.1333 283.401 52.5579C284.451 52.9825 284.961 54.1791 284.536 55.2291Z" fill="#A0D2F4"/>
<path d="M195.486 115.306C191.827 111.685 186.021 111.469 182.084 114.781C171.137 124.014 161.958 133.348 150.741 145.623C150.864 146.966 156.284 152.115 161.981 157.975C162.027 158.021 162.074 158.067 162.112 158.114C160.321 161.016 158.237 166.042 161.155 170.844C162.537 173.114 164.799 174.727 167.346 175.484C170.11 176.31 174.171 176.672 178.208 174.017C183.736 179.344 188.106 183.451 188.654 183.968C189.271 184.555 194.583 179.768 200.967 173.476C197.192 169.091 197.447 164.436 198.304 161.356C199.014 158.793 200.581 156.508 202.828 155.087C208.579 151.443 214.786 155.134 217.117 156.832C221.726 151.883 225.092 148.039 225.308 147.344C225.841 145.669 205.977 125.713 195.478 115.322L195.486 115.306Z" fill="#5EEAA5"/>
<path opacity="0.2" d="M209.235 152.362C208.239 152.825 207.421 153.188 206.927 153.42C206.217 152.825 206.386 151.32 207.753 150.563C208.764 150.71 209.328 151.544 209.235 152.362ZM217.249 137.076L216.191 136.019C216.423 136.582 216.785 136.976 217.249 137.076ZM208.772 138.119C207.622 137.3 206.664 137.239 206.155 138.713C206.664 141.23 210.285 140.62 208.772 138.119ZM205.784 148.077C205.36 147.645 204.858 147.483 204.395 147.522C204.657 148.386 204.904 149.189 205.128 149.915C205.329 149.745 205.537 149.591 205.792 149.513V148.077H205.784ZM206.085 128.885C205.638 126.678 202.503 127.982 203.229 129.619C204.194 131.217 205.846 130.399 206.085 128.885ZM188.947 133.124C190.506 132.498 188.893 130.777 187.511 130.97C185.411 132.607 186.623 134.205 188.947 133.124ZM185.89 135.069C185.488 134.228 184.307 134.181 183.589 134.953C184.099 135.038 184.662 135.092 185.319 135.1C185.504 135.1 185.697 135.077 185.89 135.069ZM211.621 134.344C211.111 134.529 210.687 134.621 210.115 134.722C209.39 136.274 209.598 136.744 211.242 137.339C212.339 136.899 212.979 134.915 211.621 134.344ZM208.965 146.248C209.999 143.97 206.379 143.623 206.441 145.993C206.896 147.46 208.247 147.668 208.965 146.248ZM204.063 137.285C205.12 137.679 205.422 136.536 206.093 135.996C205.715 134.838 205.082 134.529 203.484 134.76C203.353 135.046 203.206 135.37 203.082 135.664C203.422 136.227 203.731 136.729 204.071 137.293L204.063 137.285ZM201.492 137.748C201.708 138.489 201.932 139.246 202.156 140.01C202.912 138.667 202.395 137.818 201.492 137.748ZM213.937 133.757L213.458 133.278C213.528 133.425 213.605 133.564 213.69 133.734C213.782 133.749 213.859 133.749 213.944 133.757H213.937ZM188.839 126.747L187.72 127.311C187.859 127.372 188.005 127.434 188.183 127.511C188.422 127.241 188.638 126.986 188.839 126.747ZM202.009 126.886C204.14 125.273 199.57 123.049 199.94 125.743C199.346 126.925 201.307 127.396 202.009 126.886ZM193.973 127.148C195.47 127.496 195.795 126.423 195.91 125.157C193.795 124.207 191.719 125.157 193.973 127.148ZM215.357 144.341C213.852 143.87 213.35 145.028 213.064 146.279C213.551 147.012 215.697 147.522 215.403 146.109C215.813 145.468 215.651 145.028 215.357 144.341ZM199.022 121.652L196.814 122.756C196.675 124.979 200.782 123.227 199.022 121.652ZM210.54 140.967C210.108 141.461 209.884 141.986 209.706 142.542C211.652 145.777 214.245 141.315 210.54 140.967ZM220.792 145.808C221.193 145.36 221.448 144.912 221.61 144.48C221.479 144.418 221.332 144.356 221.155 144.287C218.97 145.121 219.225 144.812 220.167 146.394C220.414 146.186 220.63 145.993 220.792 145.808ZM200.712 133.672C202.141 133.487 202.889 133.27 202.465 131.688C201.075 130.453 200.867 131.387 199.84 132.082C199.933 132.398 200.025 132.73 200.126 133.07C200.265 133.309 200.442 133.517 200.712 133.672ZM190.615 127.805C190.352 128.322 190.097 128.824 189.843 129.341C192.29 132.545 194.15 127.534 190.615 127.805ZM217.272 147.707C216.685 148.085 216.415 148.463 216.361 148.803C216.947 148.479 217.503 148.162 218.021 147.846C217.766 147.707 217.511 147.645 217.272 147.707ZM182.57 133.34C183.08 130.97 180.362 130.507 180.084 132.622C180.177 132.884 180.316 133.162 180.532 133.433C181.15 133.888 181.821 133.803 182.57 133.332V133.34ZM193.347 131.997C193.764 131.703 194.158 131.41 194.536 131.117C193.926 131.101 193.456 131.479 193.347 131.997ZM184.686 130.198C186.145 130.399 186.284 129.078 185.743 128.283L183.474 129.418C183.327 129.943 184.276 130.275 184.693 130.19L184.686 130.198ZM203.136 142.504C203.53 144.565 205.46 143.553 206.348 142.226C205.198 141.276 203.661 140.697 203.136 142.504ZM216.083 142.604C217.349 144.117 218.986 143.53 219.032 141.716C218.592 141.129 217.804 140.906 217.156 141.021C216.793 141.546 216.662 142.148 216.083 142.596V142.604ZM203.932 123.844C203.932 123.844 203.97 123.829 203.993 123.813L203.183 123.003C203.329 123.265 203.569 123.551 203.932 123.837V123.844ZM210.47 147.892C210.192 148.309 209.969 148.649 209.768 148.95C210.102 149.902 210.694 150.314 211.543 150.185C212.501 148.857 212.516 148.788 211.999 147.892H210.47ZM208.787 133.131C208.934 132.576 209.058 132.112 209.212 131.503C206.194 129.65 205.476 134.807 208.787 133.131ZM215.627 138.466C215.241 138.088 214.909 137.578 214.238 137.54C213.844 137.902 213.45 138.265 213.018 138.659C213.35 139.246 213.589 139.663 213.813 140.064C215.403 140.257 215.542 139.879 215.62 138.466H215.627ZM197.979 128.075C197.532 127.998 197.123 128.299 196.675 128.947C196.721 129.032 196.752 129.14 196.791 129.233C197.292 128.77 197.686 128.376 197.987 128.075H197.979ZM198.86 128.654C198.921 128.862 198.991 129.094 199.06 129.349C199.099 129.248 199.137 129.156 199.184 129.04C199.068 128.893 198.96 128.762 198.86 128.654ZM215.882 147.707C216.067 147.653 215.928 147.552 215.89 147.437C215.72 147.498 215.836 147.599 215.882 147.707Z" fill="#421C3A"/>
<path d="M271.235 75.8184C271.235 75.8184 284.714 123.204 289.261 123.682C293.291 124.099 320.125 113.762 321.044 112.975C324.464 107.2 335.326 85.4838 335.326 85.4838C336.06 86.1478 311.363 70.7927 307.017 69.6038C299.197 67.4654 270.131 73.8421 271.227 75.8184H271.235Z" fill="#5EEAA5"/>
<path d="M271.868 75.3476C279.935 76.1891 286.605 82.7125 289.909 90.417C293.213 98.1216 293.669 106.876 293.46 115.391C293.375 118.688 292.835 122.617 290.002 124.123C286.96 125.736 283.463 123.405 281.132 120.88C272.03 111.022 260.674 81.5236 271.497 75.1777" fill="#421C3A"/>
<path d="M276.947 76.6752C275.743 76.3432 219.842 93.7827 212.385 97.0097C199.948 102.391 179.899 119.652 178.857 126.13C177.815 132.607 183.18 133.348 186.5 131.989C189.819 130.63 206.348 117.066 206.348 117.066C206.348 117.066 195.262 132.383 191.958 141.763C188.653 151.15 197.555 151.289 198.674 151.59C199.793 151.891 202.912 157.797 210.238 150.972C217.565 144.148 226.396 125.975 226.396 125.975C226.396 125.975 215.465 149.073 216.708 154.894C217.958 160.723 224.08 161.24 227.809 156.261C231.538 151.281 237.135 132.591 237.135 132.591C237.135 132.591 239.536 129.434 245.897 130.098C252.266 130.754 266.332 128.554 271.103 119.915C274.021 114.642 273.504 109.871 273.504 109.871C273.504 109.871 293.113 106.428 293.213 104.884C293.591 99.2948 289.554 80.1492 276.924 76.6675L276.947 76.6752Z" fill="#FFAE7A"/>
<path d="M183.474 120.571C184.423 121.22 184.632 122.301 184.593 123.381C184.554 124.439 184.423 125.527 184.022 126.516C183.25 128.438 181.405 129.403 179.382 129.21C178.463 129.117 178.471 130.553 179.382 130.646C182.068 130.908 184.423 129.395 185.404 126.909C185.89 125.659 186.075 124.207 186.037 122.872C185.998 121.428 185.404 120.162 184.199 119.328C183.435 118.803 182.717 120.046 183.474 120.571Z" fill="#421C3A"/>
<path d="M221.178 113.662C212.748 125.612 204.966 138.011 197.871 150.803C197.423 151.613 198.659 152.339 199.114 151.528C206.209 138.736 213.99 126.338 222.421 114.387C222.953 113.631 221.71 112.913 221.178 113.662Z" fill="#421C3A"/>
<path d="M230.967 119.961C229.361 121.984 228.033 124.223 226.728 126.446C225.424 128.685 224.173 130.962 222.93 133.24C222.49 134.05 223.725 134.776 224.173 133.965C225.385 131.742 226.597 129.526 227.871 127.342C229.137 125.172 230.411 122.949 231.978 120.973C232.549 120.255 231.538 119.236 230.967 119.961Z" fill="#421C3A"/>
<path d="M272.246 75.5867C290.99 79.2923 294.703 101.101 292.727 117.097C292.704 117.313 293.067 117.36 293.105 117.151C296.155 101.395 292.441 76.2892 272.261 75.4478C272.184 75.4478 272.161 75.5713 272.246 75.5867Z" fill="#421C3A"/>
<path d="M192.637 141.354C194.513 141.307 195.524 143.229 195.686 144.858C195.779 145.785 195.771 146.796 195.586 147.715C195.447 148.386 194.999 149.382 194.142 149.104C193.262 148.819 192.884 150.201 193.764 150.486C194.999 150.888 196.219 150.054 196.705 148.942C197.215 147.769 197.238 146.279 197.145 145.021C197.045 143.716 196.682 142.45 195.825 141.431C195.038 140.497 193.88 139.887 192.652 139.918C191.734 139.941 191.726 141.377 192.652 141.354H192.637Z" fill="#421C3A"/>
<path d="M202.403 146.04C203.02 145.731 203.746 145.908 204.302 146.256C204.966 146.665 205.344 147.367 205.529 148.109C205.73 148.927 205.715 149.83 205.56 150.656C205.429 151.359 205.105 152.385 204.232 152.424C203.314 152.47 203.306 153.906 204.232 153.86C207.073 153.729 207.436 149.838 206.911 147.723C206.626 146.588 205.962 145.553 204.935 144.959C203.924 144.372 202.727 144.272 201.677 144.797C200.851 145.214 201.577 146.449 202.403 146.04Z" fill="#421C3A"/>
<path d="M217.426 152.362C218.816 152.316 220.182 153.018 220.9 154.215C221.657 155.481 221.564 157.102 220.769 158.322C220.267 159.102 221.502 159.819 222.012 159.047C223.077 157.411 223.147 155.172 222.143 153.489C221.17 151.868 219.31 150.864 217.426 150.926C216.508 150.957 216.5 152.393 217.426 152.362Z" fill="#421C3A"/>
<path d="M204.055 121.089C206.278 116.928 209.004 113.06 212.192 109.586C212.817 108.906 211.806 107.887 211.181 108.574C207.915 112.141 205.097 116.109 202.82 120.371C202.388 121.189 203.623 121.915 204.063 121.096L204.055 121.089Z" fill="#421C3A"/>
<path opacity="0.2" d="M311.934 115.978C311.741 116.202 311.525 116.449 311.324 116.688L309.85 117.252C308.916 116.765 308.692 115.677 309.363 114.642C309.749 114.542 310.213 114.426 310.66 114.311C311.317 114.704 311.71 115.237 311.934 115.986V115.978ZM302.848 75.2782C303.55 75.8649 304.26 76.4825 304.971 77.1464C305.063 77.0924 305.148 77.0538 305.249 76.992C305.774 75.3013 303.851 74.1588 302.848 75.2782ZM318.226 83.4768C319.021 81.2071 315.13 80.7285 315.933 82.6353C315.717 82.8592 315.508 83.0754 315.2 83.3919C316.311 84.4804 317.292 84.7583 318.218 83.4768H318.226ZM310.985 110.597C312.907 109.177 310.583 106.938 308.931 108.629C308.645 109.956 309.61 111.392 310.985 110.597ZM323.298 97.643C324.039 97.3883 324.541 96.9714 324.881 96.3538C324.703 95.9369 324.603 95.5972 324.479 95.1572C322.256 93.5283 321.021 97.1258 323.298 97.643ZM312.382 79.2771C311.865 80.1649 313.092 80.2807 313.277 81.1685C317.238 80.2885 313.795 76.4053 312.382 79.2771ZM308.36 114.033C308.622 112.944 308.082 111.562 307.186 111.323C306.785 112.018 306.391 112.682 305.99 113.322C306.299 113.979 307.071 114.102 308.36 114.04V114.033ZM331.381 83.361C331.381 83.361 331.381 83.2993 331.381 83.2684L329.073 81.9714C328.401 83.3533 330.007 85.3682 331.373 83.3533L331.381 83.361ZM310.375 81.5082C309.935 81.5854 309.618 81.7707 309.387 82.0409C309.904 82.7511 310.398 83.4768 310.838 84.2257C311.703 83.7239 312.158 82.2879 310.367 81.5082H310.375ZM333.419 87.4449C334.762 87.553 335.056 85.8855 334.523 85.0285L333.658 84.5422C333.334 84.5576 332.94 84.7197 332.485 85.1135C331.867 86.6883 332.184 86.8505 333.419 87.4449ZM325.043 102.553C324.711 100.739 322.04 101.395 322.163 103.248C323.09 104.383 324.996 104.159 325.043 102.553ZM326.54 81.1145C326.787 81.0605 326.996 80.991 327.173 80.9138L325.583 80.0183C325.768 80.4506 325.992 80.8752 326.54 81.1145ZM317.94 96.9791C318.01 96.624 318.087 96.238 318.18 95.7902C317.701 95.4583 317.701 94.694 316.914 94.5164C316.512 94.7866 316.057 95.0877 315.601 95.3965C315.076 97.0409 316.674 98.0831 317.94 96.9791ZM317.462 110.52C318.396 109.555 318.689 108.243 317.06 107.887C316.512 108.181 316.08 108.412 315.64 108.652C315.779 109.192 315.725 109.663 315.416 110.119C316.08 110.613 316.705 110.806 317.462 110.528V110.52ZM325.753 85.9781C326.27 87.4681 326.378 87.5453 327.698 87.3137C327.374 86.6266 328.038 86.4336 328.385 86.1093C328.03 84.3183 325.876 83.9477 325.761 85.9781H325.753ZM300.177 71.7347C299.821 72.0203 299.513 72.2751 299.212 72.5144C299.775 72.9081 300.377 73.3405 301.003 73.8191C301.474 73.5026 301.875 73.0625 302.029 72.5993C301.612 71.8659 300.779 72.1593 300.177 71.7347ZM315.593 102.978C315.756 103.356 315.856 103.634 316.18 103.958C320.743 104.19 316.782 98.6543 315.593 102.978ZM314.142 100.584C315.593 100.847 314.443 99.2951 315.261 98.7161C313.231 96.292 310.923 100.384 314.142 100.584ZM322.873 81.5314C322.634 81.8865 322.418 82.2185 322.202 82.5427C322.487 82.8283 322.742 83.0754 322.958 83.2838C322.889 83.5772 322.835 83.7856 322.773 84.0481C323.066 84.1871 323.344 84.3183 323.63 84.4573C324.078 84.0867 324.487 83.7393 324.827 83.4537C324.811 82.149 324.34 80.9833 322.881 81.5314H322.873ZM313.826 111.23C312.969 111.377 312.745 112.103 312.49 112.851C312.837 113.291 313.169 113.708 313.563 114.202C316.111 114.519 314.968 112.342 313.826 111.23ZM317.199 114.256C316.659 114.349 316.28 114.596 316.026 114.897L317.361 114.388C317.307 114.341 317.253 114.295 317.191 114.256H317.199ZM314.868 106.66C314.891 106.235 314.922 105.795 314.945 105.309C314.474 105.039 314.003 104.769 313.455 104.444C313.046 104.769 312.691 105.046 312.274 105.363C312.235 105.749 312.189 106.181 312.158 106.536C313.108 107.2 313.972 106.976 314.868 106.652V106.66ZM310.738 77.4707C311.888 76.9303 311.61 75.0389 310.274 74.8381C308.244 75.3785 308.599 78.1423 310.738 77.4707ZM305.696 118.541C305.696 118.649 305.712 118.734 305.72 118.827L307.642 118.093C307.094 117.723 306.314 117.761 305.696 118.541ZM322.711 109.802L323.653 107.988C322.511 108.521 322.263 109.215 322.711 109.802ZM306.623 77.9802C306.515 78.1114 306.407 78.2735 306.299 78.4279C306.955 79.0919 307.588 79.7944 308.198 80.5201C308.244 80.5123 308.283 80.5123 308.321 80.4969C308.414 78.6518 308.259 78.4279 306.623 77.9802ZM320.835 97.9595C320.202 98.1294 319.731 98.2606 319.175 98.4073C319.322 98.94 319.307 99.4341 319.145 99.959C319.515 100.561 320.31 101.603 320.743 100.476C321.322 99.5113 322.171 98.8087 320.835 97.9673V97.9595ZM319.268 105.672C319.191 105.873 319.006 106.035 318.813 106.289C319.623 107.772 321.754 107.61 321.453 105.741C321.715 104.406 319.507 104.645 319.26 105.672H319.268ZM329.505 96.7321L330.593 94.6399C330.431 94.5627 330.269 94.4855 330.099 94.4006C328.455 95.0877 328.764 96.1917 329.505 96.7243V96.7321ZM329.258 88.6878C327.783 89.8227 329.875 90.8803 331.041 90.5252C332.716 89.0738 330.794 87.8927 329.258 88.6878ZM305.241 69.6889C305.241 69.6889 305.225 69.6657 305.218 69.6426L302.168 69.6889C302.168 69.6889 302.168 69.6889 302.161 69.6966C302.778 71.0245 304.878 71.1248 305.241 69.6812V69.6889ZM301.705 120.108C301.751 119.908 301.744 119.707 301.705 119.522C301.327 120.016 301.033 120.371 300.879 120.564C301.165 120.525 301.45 120.386 301.697 120.108H301.705ZM304.376 117.507C305.156 116.557 305.125 115.739 304.755 115.276C304.307 115.947 303.882 116.572 303.481 117.136C303.782 117.26 304.075 117.383 304.376 117.507ZM298.324 69.7584L295.923 69.797C296.749 71.3333 298.254 70.9704 298.324 69.7584ZM318.952 111.948C318.774 112.635 319.029 113.129 319.484 113.593L321.067 112.99L321.484 112.188C321.183 111.863 320.843 111.5 320.503 111.138C320.195 111.493 319.677 111.763 318.952 111.948ZM319.037 80.0414C319.716 81.5005 320.673 80.6359 321.623 79.9333C321.515 79.3929 321.476 79.061 321.499 78.5129C320.449 78.1963 318.99 78.7753 319.037 80.0414ZM313.339 93.8525C313.54 93.9374 313.741 94.0146 313.926 94.0995C315.941 92.9184 314.513 91.3898 313.339 91.6523C313.393 92.3239 313.409 93.0033 313.355 93.6904C313.355 93.7444 313.339 93.8062 313.339 93.8602V93.8525ZM315.956 90.7336C316.867 90.9112 317.639 90.8649 318.326 90.0697C317.678 87.4526 315.022 88.2941 315.956 90.7336ZM306.507 71.6035C306.252 71.8659 305.974 72.1593 305.665 72.4758C305.82 73.0548 305.928 73.4794 306.028 73.8654C307.14 74.0816 308.151 74.1433 308.367 72.8232C307.866 72.2211 307.41 71.6729 306.499 71.5957L306.507 71.6035ZM311.479 102.19C311.278 102.754 311.069 103.309 310.853 103.865C311.525 103.495 311.888 102.73 311.479 102.19ZM322.858 90.448C323.097 90.5329 323.391 90.6333 323.661 90.7336C325.189 89.9848 325.259 89.5679 324.132 88.1629C323.514 88.1165 322.948 88.361 322.433 88.8963C323.105 89.29 322.541 89.9307 322.858 90.448ZM321.005 87.3909C321.242 86.9894 321.337 86.3409 321.291 85.4454C318.651 83.2838 318.234 87.7228 321.005 87.3909ZM318.697 92.8875C319.098 93.5746 319.785 93.7444 320.303 94.1304C320.858 93.7907 321.476 93.6981 321.916 93.0882C321.129 91.1273 319.978 91.799 318.697 92.8875ZM312.992 87.4603C313.563 86.8196 314.59 86.8041 314.991 85.8777C314.875 85.6461 314.752 85.4068 314.574 85.0517C312.722 84.6657 311.479 86.0244 312.992 87.4603ZM312.536 73.5798C312.976 73.7265 313.316 73.85 313.64 73.9581C313.802 73.8268 313.949 73.7033 314.103 73.5798L312.513 72.692C312.475 72.9545 312.475 73.2478 312.536 73.5798ZM326.988 98.0367C326.579 98.1757 326.201 98.3069 325.861 98.4305C325.46 99.7815 326.88 100.785 327.691 100.283L328.185 99.326C328.185 99.326 328.2 99.2642 328.2 99.2256C328.03 98.7238 327.258 98.6389 326.988 98.0367ZM315.879 76.3744C316.381 76.7604 316.867 77.131 317.323 77.4861C318.133 76.9534 318.172 76.2355 317.894 75.7105L316.744 75.0697C316.358 75.1547 316.01 75.5252 315.871 76.3744H315.879ZM327.436 93.7135C328.308 93.7599 327.698 92.5478 327.683 91.9843C327.096 91.2895 325.668 91.9765 325.668 92.7949C325.83 93.7753 326.834 93.3275 327.436 93.7135Z" fill="#421C3A"/>
<path d="M72.3288 263.244C72.3288 263.244 59.8224 309.109 60.4786 321.337C60.9958 330.995 130.329 345.508 135.733 342.42C138.443 340.869 151.374 283.934 149.004 282.058C142.156 276.661 84.2793 263.831 72.3288 263.244Z" fill="white"/>
<path d="M71.6336 263.059C69.4797 270.964 67.4879 278.916 65.612 286.898C64.1143 293.275 62.6861 299.675 61.5049 306.113C60.6403 310.838 59.683 315.74 59.7371 320.565C59.7679 323.344 61.8755 324.935 64.0911 326.286C67.789 328.548 71.9578 330.099 76.034 331.527C87.1894 335.441 98.7771 338.228 110.357 340.521C115.406 341.517 120.486 342.405 125.596 343.03C128.592 343.393 131.896 343.933 134.907 343.416C136.991 343.053 137.431 340.9 138.041 339.132C139.469 334.971 140.565 330.694 141.654 326.432C144.449 315.447 146.958 304.338 148.841 293.151C149.389 289.917 150.192 286.404 149.984 283.108C149.829 280.714 146.78 279.973 144.881 279.224C140.233 277.387 135.401 276.021 130.591 274.685C124.307 272.94 117.969 271.373 111.615 269.891C100.174 267.22 88.6253 264.626 76.9835 263.028C75.4318 262.812 73.8801 262.611 72.3129 262.534C71.3865 262.487 71.3942 263.923 72.3129 263.97C76.1112 264.163 79.9094 264.881 83.6459 265.537C89.459 266.564 95.2491 267.737 101.024 268.988C113.136 271.605 125.257 274.423 137.107 278.082C140.658 279.178 144.464 280.22 147.706 282.089C147.923 282.212 148.123 282.351 148.332 282.475C148.563 282.614 148.478 282.559 148.432 282.475C148.594 282.791 148.54 282.992 148.556 283.378C148.594 284.698 148.424 286.033 148.27 287.338C147.035 297.521 144.665 307.634 142.326 317.616C141.129 322.719 139.878 327.806 138.458 332.855C137.663 335.673 137.022 338.954 135.532 341.525C135.493 341.587 135.262 341.919 135.378 341.772C135.27 341.895 135.362 341.826 135.324 341.834C134.976 341.949 134.629 342.027 134.305 342.065C133.038 342.22 131.726 342.142 130.452 342.065C126.175 341.81 121.922 341.147 117.699 340.429C106.397 338.506 95.1641 335.936 84.1863 332.662C79.3304 331.211 74.4668 329.636 69.8194 327.606C67.1174 326.425 63.6048 325.035 61.752 322.603C61.0263 321.654 61.1344 320.75 61.1653 319.546C61.2347 317.315 61.5049 315.084 61.8215 312.868C62.6629 306.993 63.8673 301.165 65.1411 295.367C67.3567 285.254 69.8657 275.195 72.5368 265.189C72.6912 264.61 72.8456 264.031 73.0077 263.452C73.2471 262.557 71.8652 262.179 71.6259 263.074L71.6336 263.059Z" fill="#421C3A"/>
<path d="M70.4526 269.304C95.2416 272.091 149.698 287.377 149.258 288.265C149.258 288.265 150.579 284.582 150.524 281.772C150.463 278.352 83.3682 262.974 72.3209 263.252L70.4526 269.312V269.304Z" fill="#421C3A"/>
<path d="M78.1418 266.626C77.9179 267.784 76.7985 268.533 75.6405 268.309C74.4825 268.085 73.7336 266.965 73.9575 265.807C74.1814 264.649 75.3008 263.901 76.4588 264.125C77.6168 264.348 78.3656 265.468 78.1418 266.626Z" fill="#A0D2F4"/>
<path d="M84.8351 267.961C84.6112 269.119 83.4918 269.868 82.3338 269.644C81.1758 269.42 80.427 268.301 80.6509 267.143C80.8748 265.985 81.9942 265.236 83.1522 265.46C84.3102 265.684 85.059 266.803 84.8351 267.961Z" fill="#A0D2F4"/>
<path d="M61.9839 308.02C61.9839 308.02 87.9463 282.505 96.3457 282.336C107.671 282.104 124.068 317.253 119.019 321.993C115.962 324.865 104.575 338.321 97.9051 336.985C51.6469 327.729 60.5249 317.655 61.9839 308.02Z" fill="#5EEAA5"/>
<path d="M132.777 260.874C133.711 260.774 181.876 239.551 188.168 243.311C194.722 247.225 191.603 250.908 186.747 253.857C183.844 255.617 159.326 266.641 159.326 266.641C159.326 266.641 192.251 263.097 198.898 267.251C205.877 271.613 199.053 276.391 199.053 276.391C199.053 276.391 206.356 282.552 196.883 286.18C192.136 288.002 166.374 286.945 166.374 286.945C166.374 286.945 189.881 297.629 192.221 302.477C194.56 307.325 191.001 309.78 185.28 309.016C183.049 308.723 161.935 299.829 161.935 299.829C161.935 299.829 133.572 311.633 128.747 312.367C123.922 313.1 120.911 311.533 120.911 311.533C120.911 311.533 113.847 318.867 112.442 318.249C109.061 316.767 92.0303 290.326 96.5851 287.253C102.46 283.293 124.408 271.227 126.384 267.884C128.361 264.541 132.777 260.866 132.777 260.866V260.874Z" fill="#944D4D"/>
<path d="M147.962 263.484C151.721 271.551 153.52 280.398 153.25 289.299C153.219 290.226 154.655 290.226 154.686 289.299C154.964 280.143 153.072 271.065 149.205 262.766C148.819 261.932 147.576 262.657 147.962 263.491V263.484Z" fill="#421C3A"/>
<path d="M154.462 287.13C158.507 287.176 162.545 287.23 166.59 287.276C167.516 287.284 167.516 285.856 166.59 285.841C162.545 285.794 158.507 285.74 154.462 285.694C153.535 285.686 153.535 287.114 154.462 287.13Z" fill="#421C3A"/>
<path d="M154.038 277.534C168.821 276.638 183.628 276.221 198.435 276.275C199.362 276.275 199.362 274.847 198.435 274.839C183.628 274.778 168.821 275.195 154.038 276.098C153.119 276.152 153.111 277.588 154.038 277.534Z" fill="#421C3A"/>
<path d="M157.828 265.745C155.736 266.803 153.428 267.397 151.088 267.498C150.17 267.536 150.162 268.972 151.088 268.934C153.69 268.818 156.222 268.154 158.554 266.981C159.38 266.564 158.654 265.329 157.828 265.738V265.745Z" fill="#421C3A"/>
<path d="M94.4233 284.768C95.0255 292.727 99.2715 299.598 103.386 306.206C107.208 312.359 111.299 318.535 117.437 322.611C118.209 323.121 118.927 321.878 118.162 321.368C112.249 317.431 108.319 311.409 104.629 305.48C100.669 299.111 96.4383 292.441 95.8593 284.768C95.7898 283.849 94.3539 283.841 94.4233 284.768Z" fill="#421C3A"/>
<path d="M106.984 326.417C105.664 327.737 103.649 327.86 102.483 326.695C101.317 325.529 101.441 323.514 102.761 322.194C104.081 320.874 106.096 320.75 107.262 321.916C108.427 323.082 108.304 325.097 106.984 326.417Z" fill="#421C3A"/>
<path d="M75.1309 296.919C75.7793 314.281 86.9811 329.629 103.301 335.558C104.174 335.874 104.544 334.484 103.679 334.176C87.9847 328.463 77.1921 313.602 76.5668 296.919C76.5359 296 75.1 295.993 75.1309 296.919Z" fill="#421C3A"/>
<path opacity="0.2" d="M84.4648 313.471C84.8971 314.374 85.3603 315.238 85.8544 316.064C84.4571 316.875 83.2064 315.169 83.8395 313.525C84.0556 313.509 84.2564 313.486 84.4648 313.471ZM83.4072 316.968C81.8323 315.941 80.2574 317.029 80.8055 318.82C80.9985 319.492 81.9481 319.222 82.4576 319.531C82.8282 319.592 83.2142 319.276 83.1524 318.89C82.9594 318.141 83.6079 317.732 83.3994 316.968H83.4072ZM87.9311 318.99C87.63 318.635 87.3366 318.257 87.051 317.871C87.0973 318.319 87.4447 318.736 87.9311 318.99ZM66.8092 315.671C67.1334 313.98 64.6476 311.818 64.1844 314.281C63.752 315.871 65.6434 316.829 66.8092 315.671ZM71.8194 313.023C71.4643 313.2 71.0552 313.401 70.6306 313.609C70.4916 314.042 70.399 314.343 70.2986 314.652C70.6151 316.35 73.2631 316.489 73.2631 314.605C72.7227 314.204 72.9002 313.123 71.8117 313.023H71.8194ZM78.5976 296.348C78.9218 296.255 79.1457 296.116 79.3387 295.954C79.1226 294.672 78.9913 293.73 78.9296 293.236C78.891 293.198 78.8601 293.159 78.8215 293.121C78.698 293.128 78.613 293.175 78.505 293.206L77.3161 294.317C77.0613 295.182 77.4782 296.216 78.6053 296.348H78.5976ZM63.9605 321.854C64.7428 322.323 65.417 322.521 65.9831 322.449C66.2996 322.001 66.6007 321.569 66.9558 321.067C66.647 319.955 65.9368 319.477 64.8097 320.094C63.7212 320.256 63.8987 320.982 63.9605 321.847V321.854ZM97.0947 332.732C96.8631 333.89 96.8477 335.704 98.245 336.052C98.5924 335.449 99.1019 335.009 99.7658 334.731C99.542 333.249 98.384 332.956 97.0947 332.732ZM74.1046 330.115C74.9152 330.462 75.7412 330.802 76.5827 331.142C76.4283 330.099 75.3784 329.026 74.1046 330.115ZM69.2487 326.008C69.7428 324.695 69.8972 322.873 67.9826 322.928C67.365 323.63 67.172 324.062 66.9481 325.051C67.7433 325.398 68.2682 326.124 69.2487 326.008ZM73.9888 311.371C74.0274 313.332 75.9496 313.077 76.876 311.872C76.8683 309.881 74.7839 309.587 73.9888 311.371ZM67.5503 316.674C67.3959 318.211 66.9867 319.376 69.0171 318.99C71.4643 318.265 69.4262 315.732 67.5503 316.674ZM75.1931 303.002C74.7453 303.164 74.3284 303.326 73.9038 303.481C74.0505 304.052 74.1432 304.554 74.1818 305.087C75.4942 305.982 75.6563 305.998 76.8297 305.287C77.0227 304.006 75.9033 303.682 75.1931 303.002ZM75.4556 316.288C73.8266 316.667 74.2204 317.469 73.9965 318.805C74.892 319.176 75.6872 318.975 76.4592 318.666C76.8297 317.508 76.436 316.759 75.4556 316.288ZM69.0016 312.876C69.6192 311.502 70.7309 310.645 68.5848 309.966C66.4695 309.649 67.1025 313.339 69.0016 312.876ZM94.7478 329.868C94.1688 330.408 93.8137 331.049 93.752 331.867C94.1457 332.292 94.6706 332.469 95.2033 332.732C95.597 332.323 96.1143 332.014 96.6161 331.806C97.0021 330.524 95.6048 330.269 94.7401 329.868H94.7478ZM80.4658 304.122C80.7978 304.801 81.1375 305.38 81.5466 305.696C81.3459 305.017 81.1606 304.345 80.9831 303.682C80.7824 303.782 80.6048 303.921 80.4658 304.122ZM65.875 309.641C67.1102 308.082 66.7937 307.611 65.9136 306.368C63.644 306.955 63.5436 309.024 65.875 309.641ZM61.9687 316.311C61.3588 316.806 61.2971 316.867 60.7644 318.149C60.7412 318.296 60.7258 318.442 60.7026 318.581C62.4551 320.696 64.7556 317.06 61.961 316.311H61.9687ZM73.4638 301.134C72.7381 300.509 71.943 300.123 71.0011 300.362C70.7309 300.771 70.5225 301.103 70.2909 301.466C70.592 301.844 70.9008 302.23 71.2636 302.693C72.5837 302.732 72.8153 302.57 73.4638 301.142V301.134ZM78.8524 329.451C79.1071 329.312 79.3078 329.204 79.5317 329.08C79.578 328.432 79.6861 327.853 79.8791 327.212C79.2384 326.942 78.6671 326.695 78.034 326.425C76.3048 328.301 77.4936 328.301 78.8446 329.451H78.8524ZM89.1817 323.429C88.3788 323.491 87.437 323.105 86.8271 324.209C86.9506 324.873 87.4679 325.182 87.877 325.575C89.4828 326.031 90.6254 324.626 89.1817 323.422V323.429ZM83.384 324.394C82.8822 323.476 82.0176 323.499 81.1066 323.128C80.8596 323.584 80.1416 323.823 80.1879 324.533C81.3845 325.985 82.5502 326.301 83.3763 324.394H83.384ZM79.331 319.832C78.806 320.025 77.8951 320.056 77.7716 320.681C77.8719 321.268 76.5441 321.646 77.4319 322.163C78.1112 322.542 80.1339 323.09 79.7942 321.669C79.6552 321.245 79.771 320.99 80.0181 320.704C79.7942 320.419 79.5703 320.141 79.331 319.832ZM70.2137 308.522C71.418 309.039 72.8771 309.41 73.541 307.912C72.2826 306.167 70.6537 306.283 70.2137 308.522ZM80.3423 330.617C79.9563 332.709 82.7664 332.608 83.4149 331.134C82.3958 329.752 81.8554 329.659 80.3423 330.617ZM72.8848 320.874C73.155 320.403 72.4756 320.117 72.1746 319.816C67.9208 320.812 72.8694 324.966 72.8848 320.874ZM79.138 299.798C78.119 300.184 77.455 300.887 77.1462 301.906C77.5554 303.056 79.5935 303.118 79.385 301.721C79.192 301.034 80.0953 300.161 79.138 299.798ZM86.4566 333.805C85.9239 333.573 85.3912 333.342 84.8354 333.102C84.4725 333.28 84.1637 333.558 83.9784 333.867C84.8199 334.145 85.646 334.415 86.4643 334.67C86.5415 334.43 86.5492 334.145 86.4643 333.805H86.4566ZM82.6274 310.236C82.2106 310.19 81.7628 310.143 81.207 310.081C78.1807 313.139 85.0361 313.077 82.6274 310.236ZM77.5477 308.823C78.5436 309.24 79.4159 309.147 80.1262 308.275C80.296 307.379 79.1689 306.847 78.3274 306.692C77.9568 307.055 77.5477 307.472 77.1076 307.912C77.2775 308.26 77.4087 308.545 77.54 308.823H77.5477ZM102.568 325.359C101.935 325.267 101.294 325.159 100.654 325.035C100.638 325.089 100.638 325.143 100.623 325.189C101.464 326.162 102.066 325.946 102.568 325.352V325.359ZM74.9229 299.281C75.6717 298.656 76.4283 298.88 76.7988 297.838C76.1812 296.68 75.031 296.602 74.367 297.035L74.0891 297.289C73.6954 297.776 73.7649 298.555 74.9152 299.281H74.9229ZM62.4937 310.352C62.4474 310.352 62.3933 310.344 62.347 310.336C62.1926 310.977 62.0228 311.687 61.8452 312.451C62.0845 312.521 62.3624 312.56 62.6867 312.567C63.3969 312.065 63.8756 310.313 62.4937 310.352ZM88.5641 329.605C88.0932 329.96 87.63 330.308 87.1977 330.632C87.3135 331.373 87.2749 332.107 88.1009 332.446C88.5024 332.346 88.9424 332.238 89.4056 332.122C89.5291 331.782 89.6449 331.45 89.753 331.149C89.5368 330.47 89.1817 329.96 88.5564 329.605H88.5641ZM71.8735 326.255C70.9857 326.432 70.8313 327.204 70.5534 327.876C72.6069 330.385 74.6141 327.22 71.8735 326.255ZM99.5188 327.282C98.6773 326.834 97.419 326.324 97.0021 327.56C97.226 328.084 97.4421 328.579 97.6506 329.065C98.9552 329.49 100.214 328.262 99.5188 327.282ZM79.8328 314.003C78.4123 312.243 76.4206 313.818 77.8488 315.624C79.3233 316.01 79.5549 315.316 79.8328 314.003ZM103.726 327.174C103.464 329.096 105.409 329.86 106.282 328.146C105.857 326.633 105.046 326.016 103.726 327.174ZM84.1637 320.025C83.9707 321.028 84.1637 322.688 85.4993 322.503C87.5374 321.252 86.1941 319.685 84.1637 320.025ZM69.3104 303.697C68.1988 303.095 67.6584 303.612 67.5271 304.739C67.6506 305.063 67.7742 305.388 67.9286 305.781C68.6774 305.488 69.4031 306.291 70.2677 305.612C69.9203 304.917 69.6115 304.307 69.3027 303.697H69.3104ZM91.0268 329.065C92.1385 329.528 92.6557 328.656 93.3582 328.115C92.208 325.506 90.278 326.579 91.0268 329.065ZM112.751 326.795C111.817 326.502 110.612 326.432 110.335 327.66C110.906 328.169 111.276 329.528 112.11 329.049C112.342 328.826 112.558 328.617 112.766 328.409C112.99 328.084 113.029 327.668 112.751 326.788V326.795ZM86.14 328.525C87.5374 326.942 83.1138 325.738 83.7468 328.378C84.6192 329.219 85.3912 328.81 86.14 328.525ZM90.7257 321.515C90.8184 322.24 91.243 322.379 91.8837 322.179C91.7602 322.117 91.629 322.055 91.5054 321.986C91.2352 321.847 90.9805 321.685 90.7257 321.515ZM61.7294 323.29C62.1617 323.692 62.7021 324.109 63.3352 324.541C63.3352 324.487 63.3352 324.433 63.3352 324.371C63.4432 323.507 62.5091 323.29 61.7294 323.29ZM94.8636 336.808C95.2033 336.87 95.5353 336.916 95.8518 336.962C95.5816 336.731 95.2419 336.692 94.8636 336.808ZM100.283 330.833C100.63 331.466 101.233 331.914 101.68 332.4C104.637 331.535 102.198 328.501 100.283 330.833ZM74.5446 325.807C75.1236 325.375 76.0423 325.483 76.49 324.649C76.0346 324.132 75.5945 323.63 75.1699 323.144C74.3053 323.236 74.3362 324.086 73.7649 324.479C74.1663 324.888 73.9193 325.529 74.5446 325.807ZM92.5168 335.426C93.9372 334.461 93.1344 333.898 92.0844 333.126C89.9537 333.519 90.5945 335.488 92.5168 335.426ZM96.3304 324.495C96.2687 324.294 96.2069 324.101 96.1529 323.908C95.7206 323.769 95.296 323.622 94.8714 323.468C92.7715 323.869 93.8909 326.679 96.3382 324.495H96.3304ZM105.185 333.427C104.629 333.759 104.135 334.06 103.587 334.384C103.68 334.762 103.888 335.048 104.151 335.241C104.799 334.863 105.448 334.453 106.081 334.013C105.795 333.82 105.494 333.627 105.185 333.427ZM108.736 330.447C108.381 330.323 108.011 330.192 107.687 330.084C107.023 330.424 107.162 330.933 107.208 331.535C107.771 331.69 108.235 331.983 108.767 331.991C108.814 331.952 108.86 331.921 108.906 331.883C108.667 331.443 108.667 331.365 108.729 330.447H108.736Z" fill="#421C3A"/>
<path d="M204.479 218.183C204.256 217.951 204.024 217.719 203.8 217.488C199.662 221.101 195.177 221.008 192.151 220.29C189.564 219.68 187.218 218.206 185.704 216.013C181.543 209.969 185.867 203.067 187.225 201.175C182.393 196.543 178.726 193.093 178.216 192.614C177.614 192.043 172.542 196.482 166.335 202.426L167.377 203.491C171.577 208.147 171.206 213.057 170.234 216.253C169.462 218.792 167.57 220.869 165.285 222.236C157.912 226.659 150.856 219.148 150.856 219.148C146 224.235 141.361 228.118 141.137 228.828C140.604 230.504 160.692 249.395 172.202 258.651C176.904 262.426 181.945 262.796 185.604 259.176C195.779 249.086 204.232 241.42 214.901 229.114C214.778 227.771 210.169 224.042 204.472 218.19L204.479 218.183Z" fill="#5EEAA5"/>
<path d="M71.6337 263.059C69.4644 271.018 67.465 279.024 65.5736 287.053C64.0836 293.376 62.6785 299.721 61.5051 306.114C60.6327 310.861 59.66 315.794 59.7372 320.65C59.7835 323.406 61.976 325.004 64.1608 326.332C67.9204 328.61 72.1433 330.177 76.2812 331.62C87.452 335.511 99.0475 338.306 110.643 340.583C115.669 341.571 120.725 342.452 125.813 343.061C128.762 343.417 132.081 343.98 135.038 343.401C135.401 343.332 135.756 343.231 136.088 343.054C136.899 342.614 136.173 341.371 135.362 341.811C134.884 342.073 133.757 342.12 132.985 342.135C131.417 342.158 129.843 342.042 128.283 341.896C123.636 341.463 119.019 340.691 114.433 339.85C103.062 337.758 91.7366 335.102 80.7125 331.59C76.1963 330.154 71.6646 328.586 67.4109 326.479C65.4655 325.514 61.8834 323.954 61.2426 321.631C60.8798 320.318 61.2195 318.28 61.3507 316.837C61.59 314.289 61.976 311.749 62.4006 309.225C63.4428 303.08 64.7552 296.973 66.1448 290.897C68.2138 281.857 70.5993 272.91 72.8767 263.924C72.9153 263.762 72.9616 263.599 73.0079 263.445C73.2472 262.55 71.8653 262.171 71.626 263.067L71.6337 263.059Z" fill="#421C3A"/>
<path d="M115.398 276.708C115.398 276.708 124.06 257.848 131.255 248.677C135.247 243.589 142.735 236.819 148.98 234.897C152.485 233.816 155.735 234.395 157.079 237.02C158.129 239.065 157.611 241.574 156.098 243.304L143.762 257.339C143.762 257.339 154.33 280.846 133.371 298.293L115.406 276.708H115.398Z" fill="#944D4D"/>
<path d="M135.578 300.563C142.472 294.603 146.603 285.91 146.734 276.785C146.78 273.304 146.518 269.065 144.835 265.947L141.886 260.481C141.847 260.774 141.808 261.06 141.77 261.353C146.749 255.447 151.659 249.464 156.747 243.643C157.357 242.949 156.345 241.93 155.735 242.632C150.64 248.445 145.738 254.428 140.759 260.342C140.542 260.597 140.488 260.913 140.643 261.214C141.561 262.913 142.472 264.611 143.391 266.309C144.981 269.251 145.298 272.979 145.298 276.276C145.313 285.239 141.314 293.715 134.559 299.559C133.857 300.162 134.876 301.173 135.571 300.571L135.578 300.563Z" fill="#421C3A"/>
<path d="M143.26 238.849C145.206 240.378 147.599 240.872 149.992 240.193C151.968 239.629 155.52 237.846 154.423 235.229C154.277 234.866 153.952 234.619 153.543 234.727C153.204 234.819 152.895 235.252 153.041 235.607C153.435 236.549 152.679 237.274 151.937 237.745C151.127 238.263 150.239 238.664 149.305 238.896C147.537 239.328 145.715 238.973 144.279 237.838C143.97 237.599 143.561 237.545 143.268 237.838C143.013 238.085 142.967 238.618 143.268 238.849H143.26Z" fill="#421C3A"/>
<path d="M178.386 192.46C177.884 191.912 173.893 187.689 168.713 182.285C164.421 185.527 160.028 185.172 157.087 184.3C154.539 183.543 152.277 181.93 150.895 179.66C147.529 174.117 150.818 168.288 152.64 165.756C152.617 165.733 152.601 165.71 152.578 165.694C146.819 159.904 141.755 154.392 140.419 154.253C127.936 164.714 118.471 175.344 109.06 186.137C105.679 190.012 105.803 195.826 109.362 199.547C119.575 210.216 139.199 229.354 140.882 228.852C141.616 228.636 145.9 224.976 151.327 220.059C153.489 221.742 159.758 225.849 165.733 222.267C168.01 220.9 169.632 218.646 170.411 216.106C171.33 213.095 171.708 208.54 168.211 204.125C174.356 198.049 178.95 193.085 178.394 192.467L178.386 192.46Z" fill="#3E224A"/>
<path d="M65.8828 68.6542C65.8828 68.6542 68.5462 118.332 72.7073 130.368C75.9883 139.871 144.426 130.615 148.186 125.883C150.069 123.505 147.035 64.4082 144.442 63.258C136.945 59.9384 76.382 65.6048 65.8905 68.6465L65.8828 68.6542Z" fill="white"/>
<path d="M65.1646 68.6541C65.5969 76.7524 66.1759 84.8507 66.8398 92.9335C67.3879 99.5496 67.9978 106.158 68.7929 112.743C69.426 117.946 70.059 123.219 71.3483 128.314C71.6725 129.596 71.935 131.016 72.9231 131.966C73.8573 132.861 75.1388 133.363 76.3586 133.741C80.3344 134.969 84.7039 135.116 88.8341 135.193C100.638 135.417 112.527 134.197 124.192 132.514C129.31 131.773 134.428 130.924 139.47 129.758C142.241 129.117 145.599 128.561 148.016 126.956C149.699 125.836 149.374 123.065 149.428 121.297C149.575 116.642 149.436 111.979 149.289 107.331C148.919 95.9135 148.317 84.457 147.081 73.0931C146.75 70.0592 146.641 66.5775 145.53 63.7056C144.704 61.5826 140.967 61.8065 139.107 61.6907C127.565 60.9805 115.8 62.069 104.305 63.0185C92.8253 63.9681 81.2453 64.9949 69.9046 67.0484C68.4919 67.3031 67.0714 67.5733 65.6818 67.9671C64.794 68.2218 65.1723 69.6037 66.0601 69.3489C69.4955 68.3608 73.1239 67.9207 76.6519 67.4189C82.4419 66.6006 88.2551 65.9599 94.0682 65.3809C106.405 64.1534 118.826 63.1343 131.232 62.9799C135.038 62.9336 139.076 62.7638 142.828 63.5435C143.214 63.6207 143.816 63.7365 144.086 63.8986C143.885 63.7828 144.109 64.0067 144.21 64.2923C144.619 65.4349 144.781 66.6933 144.974 67.8899C146.557 77.9876 146.997 88.3324 147.491 98.5228C147.753 103.904 147.954 109.292 148.023 114.681C148.062 117.946 148.27 121.482 147.769 124.686C147.738 124.856 147.707 125.026 147.676 125.203C147.645 125.388 147.576 125.512 147.606 125.458C147.63 125.419 147.614 125.489 147.46 125.597C147.483 125.581 147.19 125.782 147.066 125.852C146.047 126.446 144.889 126.801 143.77 127.141C139.747 128.376 135.579 129.171 131.441 129.905C120.023 131.927 108.42 133.232 96.832 133.664C91.8912 133.85 86.9041 133.896 81.9864 133.348C79.5392 133.078 75.4939 132.807 73.7569 130.746C72.9617 129.804 72.7533 128.021 72.4754 126.786C71.9427 124.454 71.549 122.092 71.1861 119.73C70.2443 113.561 69.5958 107.354 69.0091 101.14C68.0441 90.9186 67.303 80.6742 66.7086 70.4297C66.6777 69.8353 66.6391 69.2409 66.6082 68.6541C66.5619 67.7355 65.1259 67.7277 65.1723 68.6541H65.1646Z" fill="#070819"/>
<path d="M95.8286 166.443C106.289 158.893 114.827 169.848 121.359 173.198L129.465 164.868C127.141 160.993 121.868 157.11 118.996 154.84C113.646 150.617 108.906 147.861 108.906 147.861C107.91 141.925 101.642 136.613 101.642 136.613C101.642 136.613 110.404 123.798 112.334 120.015C120.085 104.784 82.3109 102.221 82.3109 102.221C73.8729 114.241 48.9991 173.677 45.1082 185.442C41.2173 197.208 46.0114 221.487 52.805 221.827C59.5986 222.166 59.56 218.685 58.9733 214.724C58.3866 210.764 57.2054 196.899 57.2054 196.899C57.2054 196.899 60.8493 205.939 70.2677 198.852C70.2677 198.852 76.5054 202.928 81.6161 198.358C81.6161 198.358 87.1667 209.946 99.4801 210.231C109.246 210.455 119.205 208.826 117.344 201.029C115.862 194.83 104.066 199.045 98.4765 195.941C90.5327 191.533 84.6269 174.542 95.8286 166.451V166.443Z" fill="#CC8770"/>
<path d="M80.9677 198.644C79.1689 196.544 77.3702 194.436 76.1659 191.927C74.6682 188.808 74.3439 185.319 74.4597 181.907C74.4906 180.98 73.0547 180.98 73.0238 181.907C72.9003 185.527 73.3017 189.164 74.838 192.475C76.0887 195.162 78.0341 197.432 79.9487 199.663C80.5508 200.365 81.5622 199.346 80.96 198.651L80.9677 198.644Z" fill="#421C3A"/>
<path d="M69.9587 198.543C66.2762 194.405 63.1033 189.665 62.3776 184.045C62.2618 183.142 60.8259 183.126 60.9417 184.045C61.7214 190.074 64.9793 195.1 68.9396 199.555C69.5572 200.249 70.5685 199.23 69.9509 198.543H69.9587Z" fill="#421C3A"/>
<path d="M58.8575 200.658C55.9548 196.327 52.8591 191.649 53.1293 186.207C53.1756 185.28 51.7397 185.288 51.6934 186.207C51.4155 191.912 54.5729 196.845 57.6146 201.384C58.1241 202.148 59.3671 201.43 58.8575 200.658Z" fill="#421C3A"/>
<path d="M108.312 209.227C108.204 207.421 108.953 205.607 110.396 204.487C111.848 203.352 113.832 203.082 115.561 203.669C116.441 203.962 116.812 202.58 115.939 202.287C113.762 201.554 111.284 201.986 109.478 203.399C107.733 204.773 106.737 207.019 106.876 209.235C106.93 210.154 108.366 210.162 108.312 209.235V209.227Z" fill="#421C3A"/>
<path d="M47.7636 213.767C49.7168 212.81 52.2798 213.142 53.8933 214.624C55.5145 216.114 56.0858 218.499 55.391 220.576C55.0976 221.456 56.4795 221.827 56.7729 220.954C57.6375 218.391 56.8578 215.319 54.812 213.52C52.689 211.659 49.5624 211.289 47.0379 212.524C46.2042 212.925 46.9376 214.168 47.7636 213.767Z" fill="#421C3A"/>
<path d="M125.165 160.854C123.389 163.085 123.034 166.173 124.308 168.736C124.478 169.084 124.972 169.176 125.288 168.991C125.643 168.782 125.721 168.358 125.543 168.01C124.586 166.08 124.825 163.564 126.176 161.865C126.415 161.564 126.469 161.147 126.176 160.854C125.929 160.607 125.404 160.553 125.165 160.854Z" fill="#421C3A"/>
<path d="M82.2952 198.813C85.4064 195.424 89.691 193.193 94.269 192.676C95.1799 192.575 95.1876 191.14 94.269 191.24C89.305 191.803 84.6576 194.112 81.2762 197.802C80.6509 198.481 81.6622 199.5 82.2875 198.813H82.2952Z" fill="#A0D2F4"/>
<path d="M82.4499 196.52C83.4844 197.377 83.9939 199.23 83.137 200.264C82.2801 201.299 80.3732 201.121 79.3387 200.264C78.3043 199.408 78.1653 197.871 79.0222 196.837C79.8791 195.802 81.4154 195.663 82.4499 196.52Z" fill="#A0D2F4"/>
<path d="M87.5911 68.5691C87.5911 68.5691 70.3601 94.7013 73.7415 99.1712C79.4465 106.706 111.994 122.038 122.424 120.262C130.692 118.857 146.248 79.4698 145.746 78.2809C145.746 78.2809 146.302 65.7745 142.681 65.4734C125.18 64.0143 87.5911 68.5768 87.5911 68.5768V68.5691Z" fill="#3E224A"/>
<path d="M83.8391 101.881C78.1726 101.788 73.7259 112.921 75.4552 113.337C77.1768 113.747 80.6122 112.095 94.4078 117.491C108.203 122.879 106.945 128.353 110.28 127.048C113.615 125.743 118.425 115.121 118.425 115.121C118.425 115.121 109.886 102.313 83.8391 101.881Z" fill="#3E224A"/>
<path d="M78.381 104.992C92.5858 101.773 108.242 107.956 116.394 120.03C116.912 120.795 118.154 120.077 117.637 119.305C109.114 106.675 92.8715 100.236 78.0028 103.61C77.0995 103.811 77.4855 105.2 78.381 104.992Z" fill="#070819"/>
<path d="M102.429 121.382C105.37 118.688 107.501 115.183 108.558 111.338C108.806 110.443 107.416 110.064 107.177 110.96C106.181 114.573 104.181 117.831 101.417 120.371C100.738 120.996 101.749 122.007 102.429 121.382Z" fill="#070819"/>
<path d="M90.5632 104.76C88.0774 107.393 86.6801 110.936 86.711 114.557C86.7187 115.483 88.1546 115.483 88.1469 114.557C88.116 111.315 89.3512 108.142 91.5746 105.779C92.2076 105.108 91.1963 104.089 90.5632 104.768V104.76Z" fill="#070819"/>
<path opacity="0.2" d="M126.291 83.3451C125.527 83.044 124.732 82.7507 123.875 82.465C123.999 81.9401 124.184 81.4691 124.794 81.6235V81.9014C126.052 81.8165 126.515 82.6735 126.291 83.3451ZM126.191 76.2427C125.859 75.6328 125.427 75.2082 124.794 75.0075H124.361C123.767 75.7718 123.211 77.5319 124.794 77.2154V77.4933C125.481 77.6246 125.728 76.6596 126.191 76.2427ZM138.582 94.3461C138.582 94.3461 138.559 94.3538 138.543 94.3615C138.821 95.5581 138.721 96.307 138.721 96.307L139.253 94.9097C139.091 94.7089 138.875 94.5159 138.589 94.3461H138.582ZM143.152 72.9849C142.758 72.5603 142.704 72.182 142.612 71.5412C137.98 70.9313 141.554 76.8063 143.152 72.9849ZM135.139 87.7532C135.995 87.1665 136.134 86.464 136.358 85.4604C135.509 83.9395 134.212 84.6266 133.633 85.9544C133.857 86.7728 134.274 87.4213 135.139 87.7532ZM143.306 76.2581C143.546 76.5901 143.785 76.9143 144.001 77.2077C144.603 77.2926 145.167 77.3698 145.877 77.4702L146.271 76.4434C146.402 74.7064 144.217 74.2046 143.314 76.2659L143.306 76.2581ZM130.02 69.2407C130.73 70.9313 132.336 71.5335 133.348 69.8969C132.761 68.2834 131.271 68.0981 130.02 69.2407ZM143.754 83.044L144.256 81.7239C143.777 81.9787 143.484 82.4419 143.754 83.044ZM137.323 88.4557C136.436 89.4362 137.3 91.0111 138.566 90.764C140.265 89.9071 139.469 87.1356 137.323 88.4557ZM143.685 69.7579C143.916 70.6225 144.742 71.0626 145.414 70.8927L144.781 68.4609C144.194 68.5767 143.669 69.0013 143.677 69.7579H143.685ZM134.668 78.1881C134.421 78.6513 134.212 79.0451 133.942 79.5546C134.212 80.1181 134.197 80.8593 135.046 81.1217C135.393 80.8901 135.965 81.0059 136.273 80.5196C136.134 79.4079 136.304 77.7249 134.66 78.1959L134.668 78.1881ZM133.95 72.3287C133.903 72.7919 133.857 73.2782 133.803 73.8109C134.668 74.1274 135.424 74.0579 136.212 73.5021C136.304 72.9694 136.343 72.5139 136.351 72.0199C135.584 71.5824 134.783 71.6879 133.95 72.3364V72.3287ZM138.697 74.8763C137.871 75.1619 136.883 75.1465 136.737 76.3276C137.231 76.4434 137.478 76.8063 137.663 77.254H139.045C139.377 76.8603 139.686 76.482 140.048 76.042C139.562 75.6251 139.122 75.2468 138.697 74.884V74.8763ZM130.692 75.2931C130.784 76.235 130.453 77.4084 131.796 77.5242C132.159 77.3389 132.56 77.1382 132.977 76.9298C133.679 75.5479 131.325 74.1815 130.684 75.2931H130.692ZM140.705 85.6611C140.774 86.1011 140.427 86.3559 140.272 86.7187C140.828 87.3981 141.639 87.4213 142.226 87.0507L142.828 85.4604C142.11 84.9277 140.365 84.3333 140.705 85.6611ZM142.357 67.1562L140.936 67.2875C141.044 67.3801 141.176 67.4728 141.338 67.5963C141.778 67.5731 142.117 67.4033 142.357 67.164V67.1562ZM130.738 83.8932C132.197 84.2483 133.633 83.183 132.622 81.8088C131.163 81.7934 129.819 82.1948 130.738 83.8932ZM143.183 79.7167C142.434 79.3384 142.403 78.7594 142.087 78.1881C141.044 77.2849 140.55 79.4156 140.875 80.149C142.025 80.8129 142.071 80.8129 143.183 79.7167ZM140.033 69.8737C138.983 67.4342 135.486 68.8238 138.342 70.6611C138.898 70.4064 139.415 70.1671 140.033 69.8737ZM127.673 78.2576C127.534 78.6822 127.403 79.0605 127.28 79.4465C127.581 80.095 128.075 80.4192 128.723 80.5427C130.043 79.57 129.518 77.5937 127.681 78.2576H127.673ZM138.697 81.8088C137.316 82.1253 136.482 82.5577 137.269 83.5072C137.933 83.2679 138.52 83.4455 139.13 83.816C139.3 83.6307 139.446 83.4763 139.616 83.2833C139.13 82.8201 139.276 82.1176 138.697 81.8088ZM129.341 72.043C128.716 71.9272 128.183 71.7419 127.627 72.3055C127.558 72.7533 127.48 73.1933 127.704 73.6024C129.071 74.4208 130.26 73.3477 129.341 72.0507V72.043ZM124.778 70.5994V70.8773C126.307 70.8773 126.801 69.287 125.867 68.6617L123.705 68.8547C123.744 69.6653 123.396 70.7692 124.778 70.5994ZM99.9354 76.4666C99.6111 75.4553 98.6693 74.3745 97.519 74.6755C97.1948 74.7913 96.9169 74.5675 96.6467 74.1429V72.2514C94.3384 70.9854 92.1305 72.5448 94.7398 74.5057C97.7892 73.6025 96.8783 80.7203 99.9277 76.4666H99.9354ZM86.7187 75.7486C82.8124 72.5525 82.851 79.8325 86.7187 77.1073C86.7728 76.5746 86.7573 76.3122 86.7187 75.7486ZM84.1943 81.4923C83.569 82.1871 84.0245 82.9128 83.9781 83.7157C84.7193 84.1891 85.378 84.4207 85.9545 84.4104C87.2051 82.8587 86.2864 80.8979 84.202 81.4923H84.1943ZM93.0723 76.9915C92.9565 76.428 92.8253 75.8181 92.6786 75.1233C91.15 74.3667 90.4475 75.2159 90.3549 76.7677C91.4279 78.0801 92.0687 78.1109 93.0723 76.9915ZM87.7687 84.8891C87.5448 85.0821 87.3827 85.306 87.2591 85.5376C87.8613 85.3446 88.4712 85.1516 89.0965 84.9663C88.7645 84.8968 88.3245 84.8659 87.7687 84.8891ZM79.1377 84.1094C79.3693 83.4454 80.0409 82.9128 79.8171 82.079L78.6668 84.1634C78.8135 84.1634 78.9679 84.148 79.1377 84.1094ZM93.1109 83.0903C93.8906 82.1562 92.308 81.7548 91.7136 81.1758C89.8917 82.0481 90.5479 82.1871 90.7177 83.7774C92.1073 84.5726 92.3543 84.0245 93.1109 83.0903ZM90.0229 72.5139C89.9303 72.3518 89.8067 72.1511 89.6832 71.9427L87.622 72.1279C86.2864 74.7605 89.7913 75.3935 90.0229 72.5062V72.5139ZM115.885 72.0893C115.785 70.8696 113.646 71.4795 113.53 72.4059C113.005 74.4439 115.638 74.8531 116.178 73.0157C116.225 72.6297 115.815 72.4985 115.893 72.0893H115.885ZM81.6313 84.5957C80.9596 85.0203 80.8284 85.7306 80.4115 86.4254C80.7049 87.0893 81.06 87.429 81.4151 87.5525C81.8088 87.4058 82.218 87.2591 82.6426 87.1047C83.2139 86.3636 83.2216 85.0435 81.6313 84.5957ZM89.9689 80.6894C89.2741 79.1917 89.4516 77.3467 87.1279 78.5741C86.7882 80.5041 88.3245 81.2221 89.9689 80.6894ZM104.228 74.9534C102.506 76.4588 103.579 77.0687 104.977 77.5242C105.741 77.6941 106.706 76.5361 105.918 75.9416C105.54 74.8222 105.363 74.9071 104.228 74.9534ZM95.1567 78.1032C91.5592 79.0296 95.1027 82.1022 96.6621 79.8402C96.3919 79.0219 95.9519 78.4275 95.1567 78.1032ZM81.9092 80.5196C83.762 81.0831 83.183 78.2653 82.025 78.0646L80.8052 80.2803C81.0445 80.481 81.4074 80.5968 81.9015 80.5196H81.9092ZM102.753 79.2458C102.421 78.7749 102.468 78.3039 102.051 77.8639C100.962 78.2576 100.275 78.8598 100.267 80.1259C101.047 81.0986 103.664 80.6663 102.753 79.2458ZM112.395 70.5376C112.55 70.3137 112.712 70.0744 112.882 69.8274L110.442 70.0512C110.72 70.445 111.315 70.6997 112.395 70.5376ZM77.3853 89.0965C77.9257 88.8803 78.5664 88.6256 79.3075 88.3322C78.5201 87.7301 77.6632 88.2936 77.3853 89.0965ZM118.162 77.7327C118.487 77.5551 118.849 77.3698 119.181 77.1845C119.297 76.7136 119.397 76.2813 119.521 75.7486C118.834 75.4707 118.178 75.2082 117.537 74.9457C116.286 75.4784 117.298 77.4161 118.162 77.7249V77.7327ZM113.515 79.5623C113.963 82.6889 117.383 78.8752 115.653 78.5047C114.696 78.6436 113.422 77.8948 113.515 79.5623ZM97.0327 82.7584C97.0327 82.7584 97.0481 82.8124 97.0558 82.8356C97.8973 82.6426 98.7388 82.4573 99.5957 82.2874C99.5957 82.2411 99.6111 82.1871 99.6111 82.1408C98.2987 81.2453 98.0363 82.0559 97.0327 82.7584ZM105.803 70.4759L104.683 70.5762C105.1 70.7229 105.532 70.7075 105.803 70.4759ZM120.154 78.991C120.648 79.7013 120.941 80.6663 122.184 80.2031C122.864 78.6822 122.864 78.3116 121.104 77.9334C120.725 78.219 120.339 78.5124 120.154 78.991ZM119.32 69.2484L117.182 69.4414C117.097 70.9776 119.629 71.1861 119.32 69.2484ZM123.142 72.6452C122.208 71.8423 120.972 72.2823 120.224 73.008C120.224 75.0693 122.485 73.8418 123.142 72.6452ZM110.689 77.2386C112.434 76.9993 113.978 75.5942 111.577 74.9921C110.543 74.7141 110.365 76.5283 110.689 77.2386ZM102.776 73.4867C101.973 72.4367 102.83 71.4486 100.924 72.1665C100.715 72.5989 100.545 72.9617 100.399 73.2782C100.785 74.1429 101.58 73.919 102.174 74.1892C102.383 73.9421 102.56 73.7414 102.776 73.4867ZM109.307 73.8881C109.099 73.0235 109.045 72.429 109.014 71.5258C108.203 71.5258 107.91 72.1588 107.486 72.6374V73.8727C108.088 73.9035 108.589 74.5983 109.307 73.8881ZM109.331 79.6549C109.47 77.9488 107.763 78.165 106.93 78.8366C107.277 80.0255 108.396 80.1104 109.331 79.6549ZM107.918 80.4424V80.3574L107.817 80.4038L107.918 80.4424Z" fill="#421C3A"/>
<path d="M66.0527 75.278C88.2863 70.5302 146.611 68.3609 146.487 69.3799C146.487 69.3799 146.549 65.296 145.677 62.5014C144.619 59.1046 75.3475 65.0181 65.8828 68.6542L66.0449 75.2857L66.0527 75.278Z" fill="#070819"/>
<path d="M73.163 70.615C73.3097 71.8734 72.4064 73.0159 71.1481 73.1703C69.8897 73.317 68.7472 72.4138 68.5928 71.1554C68.4461 69.897 69.3493 68.7545 70.6077 68.6001C71.866 68.4534 73.0086 69.3566 73.163 70.615Z" fill="#5EEAA5"/>
<path d="M80.1337 69.7966C80.2804 71.055 79.3771 72.1976 78.1188 72.352C76.8604 72.4986 75.7179 71.5954 75.5635 70.337C75.4168 69.0787 76.32 67.9361 77.5784 67.7817C78.8367 67.635 79.9793 68.5383 80.1337 69.7966Z" fill="#5EEAA5"/>
<path d="M141.076 229.84C144.403 226.536 147.738 223.224 151.065 219.92H150.054C155.342 224.359 163.302 225.416 168.621 220.421C173.577 215.759 173.191 207.599 168.335 203.005V204.016C171.786 200.388 175.121 196.582 178.734 193.116C179.398 192.475 178.387 191.464 177.723 192.105C174.11 195.571 170.782 199.377 167.324 203.005C167.061 203.283 167.038 203.746 167.324 204.016C171.624 208.085 172.017 215.265 167.609 219.402C162.9 223.826 155.751 222.83 151.073 218.901C150.772 218.654 150.355 218.607 150.062 218.901C146.734 222.205 143.399 225.517 140.072 228.829C139.416 229.477 140.427 230.496 141.083 229.84H141.076Z" fill="#421C3A"/>
</g>
</svg>
