<svg width="82" height="64" viewBox="0 0 82 64" fill="none" xmlns="http://www.w3.org/2000/svg">
<path d="M44.6772 41.269C44.6772 24.6283 53.7742 9.76257 67.5305 0L79.7337 9.98444C72.6337 13.7563 64.4242 23.0751 62.4274 31.0627C63.093 30.6189 65.0899 30.3971 66.8649 30.3971C75.2962 30.3971 81.9525 36.8315 81.9525 46.3722C81.9525 55.9129 73.9649 63.9004 64.4242 63.9004C53.996 63.9004 44.6772 55.691 44.6772 41.269Z" fill="url(#paint0_linear_149_1742)"/>
<path d="M0 41.269C0 24.6283 9.09693 9.76257 22.8533 0L35.0565 9.98444C27.9564 13.7563 19.747 23.0751 17.7501 31.0627C18.4157 30.6189 20.4126 30.3971 22.1876 30.3971C30.6189 30.3971 37.2752 36.8315 37.2752 46.3722C37.2752 55.9129 29.2877 63.9004 19.747 63.9004C9.3188 63.9004 0 55.691 0 41.269Z" fill="url(#paint1_linear_149_1742)"/>
<defs>
<linearGradient id="paint0_linear_149_1742" x1="62.8865" y1="152.5" x2="58.3308" y2="-23.4047" gradientUnits="userSpaceOnUse">
<stop offset="0.424" stop-color="#556690" stop-opacity="0"/>
<stop offset="1" stop-color="#5CAE8E"/>
</linearGradient>
<linearGradient id="paint1_linear_149_1742" x1="18.2092" y1="152.5" x2="13.6536" y2="-23.4047" gradientUnits="userSpaceOnUse">
<stop offset="0.424" stop-color="#556690" stop-opacity="0"/>
<stop offset="1" stop-color="#5CAE8E"/>
</linearGradient>
</defs>
</svg>
