<?xml version="1.0" encoding="UTF-8"?>
<svg id="Layer_1" data-name="Layer 1" xmlns="http://www.w3.org/2000/svg" xmlns:xlink="http://www.w3.org/1999/xlink" viewBox="0 0 101 101">
  <defs>
    <style>
      .cls-1 {
        fill: url(#New_Gradient_Swatch_1);
      }
    </style>
    <linearGradient id="New_Gradient_Swatch_1" data-name="New Gradient Swatch 1" x1="3.81" y1="46.2" x2="97.6" y2="46.2" gradientTransform="translate(0 101.28) scale(1 -1)" gradientUnits="userSpaceOnUse">
      <stop offset="0" stop-color="#67447e"/>
      <stop offset=".2" stop-color="#3e224a"/>
      <stop offset=".89" stop-color="#34ad88"/>
      <stop offset="1" stop-color="#5eeaa7"/>
    </linearGradient>
  </defs>
  <path class="cls-1" d="m43.52,29.88c-.57-.57-.57-1.5,0-2.07s1.5-.57,2.07,0l4.02,4.02,6.22-6.21c.57-.57,1.5-.57,2.07,0s.57,1.5,0,2.07l-7.25,7.25c-.29.29-.66.43-1.04.43s-.75-.14-1.04-.43l-5.05-5.05Zm-5.11,7.49c-1.9-3.28-2.4-7.11-1.42-10.78.98-3.66,3.33-6.73,6.62-8.62s7.11-2.4,10.78-1.42c3.66.98,6.73,3.33,8.62,6.62,1.9,3.29,2.4,7.11,1.42,10.78-.98,3.66-3.33,6.73-6.62,8.62-2.19,1.26-4.62,1.91-7.08,1.91-1.23,0-2.48-.16-3.7-.49-3.66-.98-6.73-3.33-8.62-6.62h0Zm2.54-1.46c1.5,2.61,3.94,4.47,6.84,5.25,2.91.78,5.95.38,8.56-1.12,2.61-1.51,4.47-3.94,5.25-6.84.78-2.91.38-5.95-1.12-8.56-1.51-2.61-3.94-4.47-6.84-5.25-.97-.26-1.96-.39-2.94-.39-1.95,0-3.88.51-5.62,1.52-2.61,1.51-4.47,3.94-5.25,6.84-.78,2.91-.38,5.95,1.12,8.56h0Zm-12.86,10.85H6.63c-1.56,0-2.82-1.27-2.82-2.82v-4.27c0-4.41,2.55-8.31,6.42-10.14-.88-1.34-1.39-2.93-1.39-4.65,0-4.7,3.82-8.52,8.52-8.52s8.52,3.82,8.52,8.52c0,1.71-.51,3.31-1.39,4.65,3.87,1.83,6.42,5.73,6.42,10.14v4.27c0,1.56-1.27,2.82-2.83,2.82ZM11.77,24.88c0,3.08,2.51,5.59,5.59,5.59s5.59-2.51,5.59-5.59-2.51-5.59-5.59-5.59-5.59,2.51-5.59,5.59Zm16.21,14.79c0-3.6-2.3-6.74-5.67-7.86-1.4,1-3.1,1.59-4.95,1.59s-3.55-.59-4.95-1.59c-3.37,1.12-5.68,4.26-5.68,7.86v4.16h3.37v-2.28c0-.81.66-1.46,1.46-1.46s1.46.66,1.46,1.46v2.28h8.65v-2.28c0-.81.66-1.46,1.46-1.46s1.46.66,1.46,1.46v2.28h3.37v-4.16h0Zm69.62,0v4.27c0,1.56-1.27,2.82-2.82,2.82h-21.46c-1.56,0-2.82-1.27-2.82-2.82v-4.27c0-4.41,2.55-8.31,6.42-10.14-.88-1.34-1.39-2.93-1.39-4.65,0-4.7,3.82-8.52,8.52-8.52s8.52,3.82,8.52,8.52c0,1.71-.51,3.31-1.39,4.65,3.87,1.83,6.42,5.73,6.42,10.14h0Zm-19.14-14.79c0,3.08,2.51,5.59,5.59,5.59s5.59-2.51,5.59-5.59-2.51-5.59-5.59-5.59-5.59,2.51-5.59,5.59Zm16.21,14.79c0-3.6-2.3-6.74-5.68-7.86-1.4,1-3.1,1.59-4.95,1.59s-3.55-.59-4.95-1.59c-3.37,1.12-5.68,4.26-5.68,7.86v4.16h3.37v-2.28c0-.81.66-1.46,1.46-1.46s1.46.66,1.46,1.46v2.28h8.65v-2.28c0-.81.66-1.46,1.46-1.46s1.46.66,1.46,1.46v2.28h3.37v-4.16h0Zm-.03,37.9c.13.63.01,1.28-.33,1.82-.35.54-.89.92-1.53,1.05l-9.36,2c-.17.04-.34.05-.5.05-1.1,0-2.1-.76-2.36-1.87l-6.06,1.29c-6.76,4.89-12.87,7.73-18.63,8.66l-2.63,2.32c-.88.77-1.99,1.19-3.15,1.19-.1,0-.21,0-.31,0-1.28-.08-2.45-.65-3.29-1.61-.44-.5-.76-1.07-.96-1.68-.79.55-1.73.84-2.7.84-.1,0-.21,0-.31,0-1.28-.08-2.45-.65-3.29-1.61-.44-.5-.75-1.06-.95-1.65-.84.66-1.87,1.03-2.95,1.03-.1,0-.2,0-.3,0-1.28-.08-2.45-.65-3.29-1.61-.5-.57-.84-1.22-1.03-1.9-.6.26-1.25.39-1.89.39-1.33,0-2.65-.55-3.59-1.62-.83-.94-1.24-2.13-1.19-3.39-1.09-.32-2.15-.56-3.18-.73v.07c-.27,1.14-1.28,1.91-2.39,1.91-.16,0-.33-.02-.5-.05l-9.36-2c-1.3-.28-2.14-1.56-1.86-2.87l5.56-26.01c.13-.63.51-1.17,1.05-1.52.54-.35,1.19-.47,1.82-.34h0l9.36,2c1.29.27,2.12,1.54,1.86,2.83l2.84.61c1.07-.32,2.13-.66,3.25-1.01,3.5-1.1,7.12-2.23,10.93-3.02h0s0,0,0,0c10.56-2.11,19.76-.75,28.12,4.15l3.43-.73c-.12-.62,0-1.25.34-1.78.35-.54.89-.92,1.53-1.05l9.35-2c.63-.14,1.28-.01,1.82.34.54.35.91.89,1.05,1.52l5.56,26.01ZM23.43,54.46l-8.36-1.79-5.34,25.01,8.36,1.79.18-.86s0-.04.01-.06l5.15-24.09Zm8.73,26.54l2.28-2.01c.76-.68.83-1.85.15-2.62-.33-.37-.78-.59-1.28-.62-.04,0-.08,0-.12,0-.46,0-.89.16-1.23.46l-4.37,3.85c-.37.33-.59.78-.62,1.28-.03.5.13.98.46,1.35.68.77,1.86.84,2.63.16l2.08-1.83s.02-.01.03-.02h0Zm8.78,1.11c.36-.32.57-.77.6-1.26.03-.5-.13-.98-.46-1.35s-.78-.59-1.28-.62c-.04,0-.08,0-.12,0-.45,0-.89.16-1.23.46l-2.08,1.84s-.01.01-.02.02l-2.28,2.01c-.76.68-.83,1.85-.15,2.62.33.37.78.59,1.28.62s.97-.13,1.34-.46l3.1-2.73s0,0,0,0l1.29-1.14Zm7.49,2.26c.37-.32.59-.78.62-1.28.03-.5-.13-.98-.46-1.35-.37-.41-.88-.63-1.4-.63-.44,0-.88.15-1.23.46l-3.06,2.7s-.03.02-.04.04l-1.27,1.12c-.77.68-.84,1.85-.16,2.62.33.37.78.59,1.28.62.5.03.97-.13,1.35-.46l4.38-3.86Zm5.75,1.31c-.33-.37-.78-.59-1.28-.62-.04,0-.08,0-.12,0-.45,0-.88.16-1.22.46l-2.7,2.38c-.37.33-.59.78-.62,1.28-.03.5.13.97.46,1.34.33.37.78.59,1.28.62s.97-.13,1.34-.46h0l2.71-2.38c.77-.68.84-1.85.16-2.62h0Zm17.58-5.41c-3.18-3.49-7.47-5.65-11.62-7.74-5.03-2.53-10.21-5.13-13.48-10.08-4.37,3.62-9.77,5.04-12.66,4.22-1.72-.49-2.22-1.6-2.37-2.21-.34-1.44.45-3.07,2.37-4.85l4.58-4.27c-1.76.5-3.5,1.05-5.2,1.58-1.2.38-2.44.77-3.65,1.13-.14.04-.28.06-.42.06-.1,0-.21-.01-.31-.03l-3.21-.69-4.33,20.26c1.17.2,2.36.48,3.59.84.18-.22.37-.43.59-.62l4.37-3.85c1.98-1.75,5.01-1.56,6.76.42.5.56.84,1.21,1.02,1.9.68-.29,1.42-.42,2.19-.38,1.28.08,2.45.65,3.29,1.61.43.49.75,1.05.95,1.65,1.98-1.56,4.87-1.31,6.55.6.62.7.99,1.54,1.13,2.39.38-.07.77-.09,1.17-.07,1.28.08,2.45.65,3.29,1.61.88,1,1.27,2.26,1.18,3.49,4.4-1.09,9.08-3.38,14.2-6.97h0Zm8.19-2.52l-4.35-20.36-3.99.85c-.36.08-.75.01-1.06-.18-7.73-4.68-16.28-6.05-26.13-4.16l-8.42,7.85c-1.24,1.14-1.46,1.78-1.5,1.97.14.09.55.24,1.31.24h.06c2.54,0,6.76-1.51,10.11-4.85.33-.33.8-.48,1.26-.41.46.07.86.36,1.08.77,2.71,5.19,7.79,7.74,13.16,10.44,4.64,2.33,9.43,4.74,13.02,9.01l5.47-1.17Zm11.72-.07l-5.35-25.01-8.35,1.78,5.15,24.1s0,.01,0,.02,0,.01,0,.02l.19.87,8.36-1.78Z"/>
</svg>