<?xml version="1.0" encoding="UTF-8"?>
<svg id="Layer_1" data-name="Layer 1" xmlns="http://www.w3.org/2000/svg" xmlns:xlink="http://www.w3.org/1999/xlink" viewBox="0 0 101 101">
  <defs>
    <style>
      .cls-1 {
        fill: url(#New_Gradient_Swatch_1);
        fill-rule: evenodd;
      }
    </style>
    <linearGradient id="New_Gradient_Swatch_1" data-name="New Gradient Swatch 1" x1="-366.91" y1="348.88" x2="-366.91" y2="349.07" gradientTransform="translate(-183871.19 35090.75) rotate(90) scale(95.5 -527.03)" gradientUnits="userSpaceOnUse">
      <stop offset="0" stop-color="#67447e"/>
      <stop offset=".2" stop-color="#3e224a"/>
      <stop offset=".89" stop-color="#34ad88"/>
      <stop offset="1" stop-color="#5eeaa7"/>
    </linearGradient>
  </defs>
  <path class="cls-1" d="m35.38,49.07L5.18,9.27c-.65-.86-.48-2.09.38-2.74.86-.65,2.09-.48,2.74.38l32,42.17h20.4L92.7,6.9c.65-.86,1.88-1.03,2.74-.38.86.65,1.03,1.88.38,2.74l-30.2,39.81h25.93c2.11,0,4.13.84,5.62,2.33,1.49,1.49,2.33,3.51,2.33,5.62v6.96c0,2.11-.84,4.13-2.33,5.62s-3.51,2.33-5.62,2.33h-39.09v9.46c3.2.75,5.71,3.31,6.4,6.54h30.82c1.08,0,1.96.88,1.96,1.96s-.88,1.96-1.96,1.96h-30.91c-.95,3.68-4.3,6.4-8.27,6.4s-7.32-2.72-8.27-6.4H11.32c-1.08,0-1.96-.88-1.96-1.96s.88-1.96,1.96-1.96h30.82c.68-3.23,3.19-5.79,6.4-6.54v-9.46H9.45c-2.11,0-4.13-.84-5.62-2.33-1.49-1.49-2.33-3.51-2.33-5.62v-6.96c0-2.11.84-4.13,2.33-5.62,1.49-1.49,3.51-2.33,5.62-2.33h25.93Zm15.12,36.01c2.55,0,4.62,2.07,4.62,4.62s-2.07,4.62-4.62,4.62-4.62-2.07-4.62-4.62,2.07-4.62,4.62-4.62Zm45.08-28.06c0-1.07-.42-2.1-1.18-2.85s-1.78-1.18-2.85-1.18H9.45c-1.07,0-2.09.42-2.85,1.18s-1.18,1.78-1.18,2.85v6.96c0,1.07.43,2.09,1.18,2.85s1.78,1.18,2.85,1.18h82.1c1.07,0,2.1-.43,2.85-1.18s1.18-1.78,1.18-2.85v-6.96Zm-80.34,5.44h48.97c1.08,0,1.96-.88,1.96-1.96s-.88-1.96-1.96-1.96H15.24c-1.08,0-1.96.88-1.96,1.96s.88,1.96,1.96,1.96Zm58.77-3.92c1.08,0,1.96.88,1.96,1.96s-.88,1.96-1.96,1.96-1.96-.88-1.96-1.96.88-1.96,1.96-1.96Zm9.79,0c1.08,0,1.96.88,1.96,1.96s-.88,1.96-1.96,1.96-1.96-.88-1.96-1.96.88-1.96,1.96-1.96Zm-44.15-26.41c2.31-3.79,6.42-6.1,10.85-6.1s8.55,2.31,10.85,6.1c.56.92,1.77,1.22,2.69.65.92-.56,1.22-1.77.65-2.69-3.02-4.95-8.4-7.98-14.2-7.98s-11.18,3.02-14.2,7.98c-.56.92-.27,2.13.65,2.69.92.56,2.13.27,2.69-.65Zm-5.51-7.16c3.47-4.95,9.69-7.94,16.36-7.94s12.89,2.98,16.36,7.94c.62.89,1.84,1.1,2.73.48.89-.62,1.1-1.84.48-2.73-4.16-5.94-11.57-9.6-19.57-9.6s-15.41,3.67-19.57,9.6c-.62.89-.41,2.11.48,2.73.89.62,2.11.41,2.73-.48h0Zm-6.12-7.27c4.77-6.88,13.3-11.05,22.48-11.05s17.71,4.16,22.48,11.05c.62.89,1.84,1.11,2.73.49.89-.62,1.11-1.84.49-2.73-5.47-7.88-15.19-12.73-25.7-12.73s-20.24,4.85-25.7,12.73c-.62.89-.4,2.11.49,2.73.89.62,2.11.39,2.73-.49Z"/>
</svg>