<?xml version="1.0" encoding="UTF-8"?>
<svg id="Layer_1" data-name="Layer 1" xmlns="http://www.w3.org/2000/svg" xmlns:xlink="http://www.w3.org/1999/xlink" viewBox="0 0 101 101">
  <defs>
    <style>
      .cls-1 {
        fill: url(#New_Gradient_Swatch);
      }
    </style>
    <linearGradient id="New_Gradient_Swatch" data-name="New Gradient Swatch" x1="-90.34" y1="130.26" x2="-21.21" y2="199.38" gradientTransform="translate(117.66 -128.98) scale(1.14)" gradientUnits="userSpaceOnUse">
      <stop offset="0" stop-color="#67447e"/>
      <stop offset=".2" stop-color="#3e224a"/>
      <stop offset=".89" stop-color="#34ad88"/>
      <stop offset="1" stop-color="#5eeaa7"/>
    </linearGradient>
  </defs>
  <path class="cls-1" d="m38.24,34.61c-.6,0-1.06-.47-1.06-1.06v-6.61H10.8v6.61c0,.6-.47,1.06-1.06,1.06s-1.06-.47-1.06-1.06v-7.68c0-.6.47-1.06,1.06-1.06h28.52c.6,0,1.06.47,1.06,1.06v7.68c-.02.57-.49,1.06-1.08,1.06Zm-2.77-7.68c-.26,0-.51-.09-.72-.28l-10.76-9.95-10.76,9.95c-.43.4-1.11.38-1.51-.06-.4-.43-.38-1.11.06-1.51l11.49-10.61c.4-.38,1.04-.38,1.45,0l11.49,10.61c.43.4.47,1.06.06,1.51-.21.23-.49.34-.79.34h0Zm-15.29,24.01h-7.38c-.6,0-1.06-.47-1.06-1.06v-9.93c0-.6.47-1.06,1.06-1.06h7.38c.6,0,1.06.47,1.06,1.06v9.93c0,.6-.47,1.06-1.06,1.06Zm-6.32-2.13h5.25v-7.81h-5.25v7.81Zm21.33,2.13h-7.38c-.6,0-1.06-.47-1.06-1.06v-9.93c0-.6.47-1.06,1.06-1.06h7.38c.6,0,1.06.47,1.06,1.06v9.93c0,.6-.49,1.06-1.06,1.06Zm-6.34-2.13h5.25v-7.81h-5.25v7.81Zm-8.68,18.46h-7.38c-.6,0-1.06-.47-1.06-1.06v-9.93c0-.6.47-1.06,1.06-1.06h7.38c.6,0,1.06.47,1.06,1.06v9.93c0,.6-.47,1.06-1.06,1.06Zm-6.32-2.13h5.25v-7.81h-5.25v7.81Zm21.33,2.13h-7.38c-.6,0-1.06-.47-1.06-1.06v-9.93c0-.6.47-1.06,1.06-1.06h7.38c.6,0,1.06.47,1.06,1.06v9.93c0,.6-.49,1.06-1.06,1.06Zm-6.34-2.13h5.25v-7.81h-5.25v7.81Zm2.36,24.86c-.6,0-1.06-.47-1.06-1.06v-15.27h-12.34v15.27c0,.6-.47,1.06-1.06,1.06s-1.06-.47-1.06-1.06v-16.34c0-.6.47-1.06,1.06-1.06h14.44c.6,0,1.06.47,1.06,1.06v16.34c.02.6-.47,1.06-1.04,1.06Zm35.69-44.41c-.06,0-.13,0-.19-.02l-25.61-4.89c-.57-.11-.96-.66-.85-1.23s.66-.96,1.23-.85l25.61,4.89c.57.11.96.66.85,1.23-.11.53-.55.87-1.04.87h0Zm-4.62,12.63h-5.7c-.6,0-1.06-.47-1.06-1.06v-5.7c0-.6.47-1.06,1.06-1.06h5.7c.6,0,1.06.47,1.06,1.06v5.7c0,.57-.49,1.06-1.06,1.06Zm-4.64-2.13h3.57v-3.57h-3.57v3.57Zm-6.04,2.13h-5.7c-.6,0-1.06-.47-1.06-1.06v-5.7c0-.6.47-1.06,1.06-1.06h5.7c.6,0,1.06.47,1.06,1.06v5.7c0,.57-.47,1.06-1.06,1.06Zm-4.64-2.13h3.57v-3.57h-3.57v3.57Zm15.31,14.55h-5.7c-.6,0-1.06-.47-1.06-1.06v-5.7c0-.6.47-1.06,1.06-1.06h5.7c.6,0,1.06.47,1.06,1.06v5.7c0,.6-.49,1.06-1.06,1.06Zm-4.64-2.13h3.57v-3.57h-3.57v3.57Zm-6.04,2.13h-5.7c-.6,0-1.06-.47-1.06-1.06v-5.7c0-.6.47-1.06,1.06-1.06h5.7c.6,0,1.06.47,1.06,1.06v5.7c0,.6-.47,1.06-1.06,1.06Zm-4.64-2.13h3.57v-3.57h-3.57v3.57Zm15.31,14.57h-5.7c-.6,0-1.06-.47-1.06-1.06v-5.7c0-.6.47-1.06,1.06-1.06h5.7c.6,0,1.06.47,1.06,1.06v5.7c0,.57-.49,1.06-1.06,1.06Zm-4.64-2.13h3.57v-3.57h-3.57v3.57Zm-6.04,2.13h-5.7c-.6,0-1.06-.47-1.06-1.06v-5.7c0-.6.47-1.06,1.06-1.06h5.7c.6,0,1.06.47,1.06,1.06v5.7c0,.57-.47,1.06-1.06,1.06Zm-4.64-2.13h3.57v-3.57h-3.57v3.57Zm-22.99,9.04c-.6,0-1.06-.47-1.06-1.06v-16.34c0-.6.47-1.06,1.06-1.06s1.06.47,1.06,1.06v16.34c0,.6-.47,1.06-1.06,1.06Zm17.31,0c-.6,0-1.06-.47-1.06-1.06v-54.34H7.74v54.34c0,.6-.47,1.06-1.06,1.06s-1.06-.47-1.06-1.06v-55.41c0-.6.47-1.06,1.06-1.06h34.63c.6,0,1.06.47,1.06,1.06v55.41c0,.6-.47,1.06-1.06,1.06Zm52.28,0c-.6,0-1.06-.47-1.06-1.06v-47.41h-24.55v47.41c0,.6-.47,1.06-1.06,1.06s-1.06-.47-1.06-1.06v-48.47c0-.6.47-1.06,1.06-1.06h26.67c.6,0,1.06.47,1.06,1.06v48.47c0,.6-.47,1.06-1.06,1.06Zm-4.38-37.9h-17.91c-.6,0-1.06-.47-1.06-1.06v-5.49c0-.6.47-1.06,1.06-1.06h17.91c.6,0,1.06.47,1.06,1.06v5.49c0,.6-.49,1.06-1.06,1.06h0Zm-16.85-2.13h15.78v-3.36h-15.78v3.36Zm16.85,13.12h-17.91c-.6,0-1.06-.47-1.06-1.06v-5.49c0-.6.47-1.06,1.06-1.06h17.91c.6,0,1.06.47,1.06,1.06v5.49c0,.6-.49,1.06-1.06,1.06Zm-16.85-2.13h15.78v-3.36h-15.78v3.36Zm16.85,13.12h-17.91c-.6,0-1.06-.47-1.06-1.06v-5.49c0-.6.47-1.06,1.06-1.06h17.91c.6,0,1.06.47,1.06,1.06v5.49c0,.57-.49,1.06-1.06,1.06Zm-16.85-2.13h15.78v-3.36h-15.78v3.36Zm13.4,18.04c-.6,0-1.06-.47-1.06-1.06v-9.76h-8.89v9.76c0,.6-.47,1.06-1.06,1.06s-1.06-.47-1.06-1.06v-10.83c0-.6.47-1.06,1.06-1.06h11.02c.6,0,1.06.47,1.06,1.06v10.83c0,.6-.49,1.06-1.06,1.06Zm10.74-73.47c-.28,0-.55-.11-.74-.32-2.28-2.25-5.27-3.49-8.47-3.49s-6.19,1.23-8.47,3.51c-.43.43-1.08.43-1.51,0s-.43-1.08,0-1.51c2.66-2.66,6.19-4.13,9.95-4.13s7.3,1.47,9.95,4.13c.43.43.43,1.08,0,1.51-.17.19-.45.3-.72.3Zm-2.77,2.74c-.28,0-.55-.11-.74-.32-1.51-1.51-3.55-2.34-5.7-2.34s-4.17.83-5.7,2.36c-.43.43-1.08.43-1.51,0s-.43-1.08,0-1.51c1.91-1.91,4.49-2.98,7.21-2.98s5.27,1.06,7.21,2.98c.43.43.43,1.08,0,1.51-.21.21-.49.3-.77.3Zm-2.74,2.77c-.28,0-.55-.11-.74-.32-1.62-1.62-4.25-1.62-5.89,0-.43.43-1.08.43-1.51,0s-.43-1.08,0-1.51c2.45-2.45,6.44-2.45,8.89,0,.43.43.43,1.08,0,1.51-.21.21-.47.32-.74.32h0Zm-.19,19.48c-.6,0-1.06-.47-1.06-1.06v-2.79h-4.89v2.79c0,.6-.47,1.06-1.06,1.06s-1.06-.47-1.06-1.06v-3.85c0-.6.47-1.06,1.06-1.06h7.02c.6,0,1.06.47,1.06,1.06v3.85c0,.6-.47,1.06-1.06,1.06Zm-3.51-3.85c-.6,0-1.06-.47-1.06-1.06v-11.1c0-.6.47-1.06,1.06-1.06s1.06.47,1.06,1.06v11.1c0,.57-.47,1.06-1.06,1.06Zm-10.57,3.85c-.6,0-1.06-.47-1.06-1.06v-2.79h-4.89v2.79c0,.6-.47,1.06-1.06,1.06s-1.06-.47-1.06-1.06v-3.85c0-.6.47-1.06,1.06-1.06h7.02c.6,0,1.06.47,1.06,1.06v3.85c0,.6-.49,1.06-1.06,1.06Zm-3.51-3.85c-.6,0-1.06-.47-1.06-1.06v-6.68c0-.6.47-1.06,1.06-1.06s1.06.47,1.06,1.06v6.68c0,.57-.49,1.06-1.06,1.06Zm6.44-12.78c-.28,0-.55-.11-.74-.32-1.53-1.53-3.55-2.36-5.7-2.36s-4.17.83-5.7,2.36c-.43.43-1.08.43-1.51,0s-.43-1.08,0-1.51c1.91-1.91,4.49-2.98,7.21-2.98s5.27,1.06,7.21,2.98c.43.43.43,1.08,0,1.51-.23.23-.49.32-.77.32Zm-2.77,2.77c-.28,0-.55-.11-.74-.32-1.62-1.62-4.25-1.62-5.89,0-.43.43-1.08.43-1.51,0s-.43-1.08,0-1.51c2.45-2.45,6.44-2.45,8.89,0,.43.43.43,1.08,0,1.51-.19.21-.47.32-.74.32h0Zm18.36,68.04H5.02c-.6,0-1.06-.47-1.06-1.06v-5.7c0-.6.47-1.06,1.06-1.06h90.2c.6,0,1.06.47,1.06,1.06v5.7c.02.6-.47,1.06-1.04,1.06Zm-89.16-2.13h88.08v-3.57H6.08v3.57Z"/>
</svg>