<?xml version="1.0" encoding="UTF-8"?>
<svg id="Layer_1" data-name="Layer 1" xmlns="http://www.w3.org/2000/svg" xmlns:xlink="http://www.w3.org/1999/xlink" viewBox="0 0 101 101">
  <defs>
    <style>
      .cls-1 {
        fill: url(#New_Gradient_Swatch);
      }
    </style>
    <linearGradient id="New_Gradient_Swatch" data-name="New Gradient Swatch" x1="28.82" y1="106.41" x2="28.82" y2="18.88" gradientTransform="translate(20.48 115.8) scale(1.04 -1.04)" gradientUnits="userSpaceOnUse">
      <stop offset="0" stop-color="#67447e"/>
      <stop offset=".2" stop-color="#3e224a"/>
      <stop offset=".89" stop-color="#34ad88"/>
      <stop offset="1" stop-color="#5eeaa7"/>
    </linearGradient>
  </defs>
  <path id="Layer_1-2" data-name="Layer_1" class="cls-1" d="m19.04,81.14c.25,0,.52.1.71.29,8.23,8.19,19.16,12.71,30.77,12.71,23.7,0,43.05-19.02,43.59-42.59h-7.73c-.54,19.31-16.4,34.86-35.83,34.86-9.54,0-18.52-3.71-25.28-10.43-.19-.19-.29-.44-.29-.71s.1-.52.29-.71l3.21-3.21-15.41-2.12,2.12,15.41,3.21-3.21c.12-.19.39-.29.64-.29h0Zm31.48,14.99c-11.82,0-22.94-4.46-31.46-12.59l-3.94,3.92c-.27.27-.66.35-1.02.25-.35-.12-.62-.44-.66-.81l-2.57-18.7c-.04-.31.06-.62.29-.83.23-.23.54-.33.83-.29l18.7,2.57c.37.04.68.31.81.66s.02.75-.25,1.02l-3.92,3.92c6.3,5.91,14.5,9.17,23.16,9.17,18.68,0,33.86-15.2,33.86-33.86,0-.56.44-1,1-1h9.73c.56,0,1,.46,1,1,0,12.17-4.75,23.62-13.35,32.25-8.59,8.59-20.03,13.33-32.2,13.33h0ZM6.93,49.56h7.73c.54-19.33,16.4-34.86,35.85-34.86,9.54,0,18.52,3.71,25.28,10.43.19.19.29.44.29.71s-.1.52-.29.71l-3.21,3.21,15.41,2.12-2.12-15.41-3.21,3.21c-.39.39-1.02.39-1.41,0-8.23-8.19-19.16-12.71-30.77-12.71-23.68-.02-43.03,19-43.55,42.59h0Zm8.71,1.99H5.92c-.56,0-1-.44-1-1,0-12.17,4.75-23.62,13.35-32.25,8.61-8.61,20.05-13.35,32.25-13.35s22.94,4.46,31.46,12.59l3.94-3.94c.27-.27.66-.35,1.02-.25.35.12.62.44.66.81l2.57,18.7c.04.31-.06.62-.29.83-.23.23-.54.33-.83.29l-18.7-2.57c-.37-.04-.68-.31-.81-.66s-.02-.75.25-1.02l3.92-3.92c-6.3-5.91-14.5-9.17-23.16-9.17-18.68,0-33.86,15.2-33.86,33.86-.04.58-.48,1.04-1.04,1.04h0Zm41.06-17.83c-1.53,3.01-3.67,6.53-5.74,9.95-2.26,3.71-4.4,7.22-5.7,10-1.85,3.86-1.74,7.86.31,11.28,2.28,3.79,6.66,6.41,11.16,6.64,4.5-.23,8.88-2.84,11.16-6.64,2.05-3.42,2.16-7.42.31-11.28-1.33-2.78-3.46-6.28-5.7-10-2.12-3.42-4.25-6.95-5.79-9.95h0Zm0,39.88h-.04c-5.16-.25-10.2-3.24-12.82-7.61-2.41-4-2.53-8.69-.39-13.17,1.37-2.86,3.53-6.41,5.81-10.16,2.51-4.13,5.1-8.4,6.53-11.63.17-.35.52-.6.91-.6s.75.23.91.6c1.45,3.26,4.04,7.53,6.53,11.63,2.28,3.75,4.44,7.3,5.81,10.16,2.14,4.48,1.99,9.15-.39,13.17-2.61,4.38-7.65,7.36-12.82,7.61h-.04Zm7.18-9.56c-.19,0-.37-.04-.54-.15-.46-.29-.6-.91-.31-1.37,1.24-1.97,1.31-4.15.21-6.47-.33-.71-.73-1.45-1.14-2.24-.27-.48-.08-1.08.39-1.35s1.08-.08,1.35.39c.44.83.83,1.6,1.18,2.32,1.41,2.94,1.29,5.85-.31,8.4-.19.29-.5.46-.83.46Zm-23.37-4.75h-.04c-3.84-.19-7.55-2.41-9.5-5.64-1.78-2.99-1.89-6.45-.29-9.79,1-2.09,2.55-4.67,4.21-7.38,1.8-2.99,3.67-6.06,4.71-8.4.17-.35.52-.6.91-.6s.75.23.91.6c1.04,2.34,2.9,5.41,4.71,8.4,1.64,2.72,3.19,5.27,4.19,7.34.23.5.02,1.1-.48,1.33s-1.1.02-1.33-.48c-.95-1.99-2.49-4.5-4.11-7.18-1.41-2.3-2.84-4.67-3.92-6.74-1.08,2.07-2.53,4.44-3.92,6.74-1.62,2.68-3.17,5.21-4.13,7.2-1.66,3.46-.79,6.22.21,7.9,1.6,2.68,4.67,4.5,7.84,4.67.73-.04,1.47-.17,2.2-.39.52-.17,1.08.15,1.24.66s-.15,1.08-.66,1.24c-.89.27-1.82.44-2.74.48.02.04,0,.04-.02.04h0Zm-3.28-6.2c-.23,0-.46-.08-.64-.23-2.03-1.72-2.59-4.42-1.43-6.84.5-1.04,1.06-2.12,1.74-3.32.27-.48.89-.64,1.37-.37s.64.87.37,1.37c-.66,1.16-1.2,2.2-1.68,3.17-.77,1.6-.39,3.34.93,4.46.41.35.48.97.12,1.41-.21.23-.5.35-.79.35Z"/>
</svg>