<svg enable-background="new 0 0 512 512" height="512" viewBox="0 0 512 512" width="512" xmlns="http://www.w3.org/2000/svg" xmlns:xlink="http://www.w3.org/1999/xlink"><linearGradient id="SVGID_1_" gradientUnits="userSpaceOnUse" x1="256" x2="256" y1="505.817" y2="6.183"><stop offset="0" stop-color="#923edc"/><stop offset=".682" stop-color="#3e63e3"/><stop offset="1" stop-color="#1675e7"/></linearGradient><g id="_x30_9_Budget"><path d="m41.982 505.817h430.629c17.174 0 31.146-13.972 31.146-31.143v-260.244c0-17.138-13.972-31.08-31.146-31.08h-69.641v-143.429c0-18.602-15.136-33.738-33.738-33.738h-263.26c-1.3 0-2.922.767-3.68 1.525-126.862 126.889-83.04 83.057-92.534 92.553-.953.953-1.515 2.571-1.515 3.703v368.118c.001 18.602 15.137 33.735 33.739 33.735zm61.656-10.409c-3.888 0-7.049-3.138-7.049-6.996v-19.161c0-3.858 3.161-6.996 7.049-6.996h94.927c3.858 0 6.999 3.138 6.999 6.996v19.161c0 3.858-3.141 6.996-6.999 6.996zm7.787-94.121v-19.164c0-3.858 3.166-6.996 7.055-6.996h94.927c3.858 0 6.994 3.138 6.994 6.996v19.164c0 3.855-3.136 6.994-6.994 6.994-24.386 0-71.482 0-94.927 0-3.889 0-7.055-3.139-7.055-6.994zm58.266 17.403c3.858 0 6.999 3.138 6.999 6.996v19.164c0 3.858-3.141 6.996-6.999 6.996-24.908 0-61.381 0-94.927 0-3.888 0-7.049-3.138-7.049-6.996v-19.164c0-3.858 3.161-6.996 7.049-6.996zm323.656-204.26v260.244c0 11.433-9.301 20.734-20.737 20.734h-194.376c-11.431 0-20.727-9.299-20.727-20.729v-260.254c0-11.337 9.223-20.666 20.716-20.666h194.387c11.436 0 20.737 9.273 20.737 20.671zm-100.787-174.509v143.417h-114.326c-17.149 0-31.156 13.933-31.156 31.092v260.244c0 7.872 3.113 15.36 7.939 20.734h-40.537c.947-2.145 1.493-4.504 1.493-6.996v-19.161c0-9.598-7.807-17.405-17.408-17.405h-12.96c.947-2.145 1.493-4.504 1.493-6.996v-19.164c0-2.492-.546-4.851-1.493-6.996h27.801c9.596 0 17.403-7.807 17.403-17.403v-19.164c0-9.598-7.807-17.405-17.403-17.405h-94.927c-9.631 0-17.464 7.807-17.464 17.405v19.164c0 2.49.548 4.849 1.497 6.994h-27.748c-9.626 0-17.459 7.807-17.459 17.405v19.164c0 9.598 7.832 17.405 17.459 17.405h12.913c-.95 2.145-1.498 4.504-1.498 6.996v19.161c0 2.492.548 4.851 1.498 6.996h-45.695c-12.864 0-23.329-10.465-23.329-23.326v-362.937h58.795c18.602 0 33.733-15.133 33.733-33.733v-58.82h258.051c12.863 0 23.328 10.465 23.328 23.329zm-291.788-15.954v51.446c0 12.861-10.465 23.324-23.324 23.324h-51.417c7.642-7.646-27.684 27.694 74.741-74.77zm62.164 39.176c0-2.874 2.328-5.205 5.205-5.205h184.933c2.877 0 5.205 2.33 5.205 5.205s-2.328 5.205-5.205 5.205h-184.933c-2.877-.001-5.205-2.331-5.205-5.205zm0 40.797c0-2.874 2.328-5.205 5.205-5.205h184.933c2.877 0 5.205 2.33 5.205 5.205 0 2.874-2.328 5.205-5.205 5.205h-184.933c-2.877 0-5.205-2.33-5.205-5.205zm254.747 375.814c0 2.874-2.328 5.205-5.205 5.205h-74.124c-2.877 0-5.205-2.33-5.205-5.205s2.328-5.205 5.205-5.205h74.124c2.877 0 5.205 2.331 5.205 5.205zm-140.034-182.761c0 7.291 5.931 13.225 13.225 13.225h169.086c7.293 0 13.225-5.934 13.225-13.225v-69.847c0-7.291-5.931-13.225-13.225-13.225h-169.086c-7.293 0-13.225 5.934-13.225 13.225zm10.409-69.847c0-1.553 1.266-2.816 2.816-2.816h169.086c1.55 0 2.816 1.263 2.816 2.816v69.847c0 1.553-1.266 2.816-2.816 2.816h-169.086c-1.55 0-2.816-1.263-2.816-2.816zm31.456 100.177h-28.64c-7.293 0-13.225 5.934-13.225 13.225v28.643c0 7.293 5.931 13.225 13.225 13.225h28.64c7.293 0 13.225-5.931 13.225-13.225v-28.643c0-7.291-5.932-13.225-13.225-13.225zm2.816 41.868c0 1.553-1.266 2.816-2.816 2.816h-28.64c-1.55 0-2.816-1.263-2.816-2.816v-28.643c0-1.553 1.266-2.816 2.816-2.816h28.64c1.55 0 2.816 1.263 2.816 2.816zm38.764 13.225h28.645c7.293 0 13.225-5.931 13.225-13.225v-28.643c0-7.291-5.931-13.225-13.225-13.225h-28.645c-7.293 0-13.225 5.934-13.225 13.225v28.643c.001 7.293 5.932 13.225 13.225 13.225zm-2.815-41.868c0-1.553 1.266-2.816 2.816-2.816h28.645c1.55 0 2.816 1.263 2.816 2.816v28.643c0 1.553-1.266 2.816-2.816 2.816h-28.645c-1.55 0-2.816-1.263-2.816-2.816zm101.681-13.225h-28.645c-7.288 0-13.22 5.934-13.22 13.225v100.84c0 7.291 5.931 13.225 13.22 13.225h28.645c7.293 0 13.225-5.934 13.225-13.225v-100.84c0-7.291-5.932-13.225-13.225-13.225zm2.816 114.065c0 1.553-1.266 2.816-2.816 2.816h-28.645c-1.55 0-2.811-1.263-2.811-2.816v-100.84c0-1.553 1.26-2.816 2.811-2.816h28.645c1.55 0 2.816 1.263 2.816 2.816zm-143.262-41.867h-28.64c-7.293 0-13.225 5.934-13.225 13.225v28.643c0 7.293 5.931 13.225 13.225 13.225h28.64c7.293 0 13.225-5.931 13.225-13.225v-28.643c0-7.291-5.932-13.225-13.225-13.225zm2.816 41.867c0 1.553-1.266 2.816-2.816 2.816h-28.64c-1.55 0-2.816-1.263-2.816-2.816v-28.643c0-1.553 1.266-2.816 2.816-2.816h28.64c1.55 0 2.816 1.263 2.816 2.816zm25.54 0c0 7.293 5.931 13.225 13.225 13.225h28.645c7.293 0 13.225-5.931 13.225-13.225v-28.643c0-7.291-5.931-13.225-13.225-13.225h-28.645c-7.293 0-13.225 5.934-13.225 13.225zm10.409-28.642c0-1.553 1.266-2.816 2.816-2.816h28.645c1.55 0 2.816 1.263 2.816 2.816v28.643c0 1.553-1.266 2.816-2.816 2.816h-28.645c-1.55 0-2.816-1.263-2.816-2.816zm-229.64-223.409v-13.789c0-2.874 2.328-5.205 5.205-5.205s5.205 2.33 5.205 5.205v13.789h31.558c2.877 0 5.205 2.33 5.205 5.205s-2.328 5.205-5.205 5.205h-48.579c-10.882 0-19.736 8.856-19.736 19.741s8.854 19.738 19.736 19.738h23.634c16.625 0 30.15 13.525 30.15 30.15 0 16.622-13.525 30.147-30.15 30.147h-6.612v13.789c0 2.874-2.328 5.205-5.205 5.205s-5.205-2.33-5.205-5.205v-13.789h-31.553c-2.877 0-5.205-2.33-5.205-5.205s2.328-5.205 5.205-5.205h48.574c10.887 0 19.741-8.854 19.741-19.738s-8.854-19.741-19.741-19.741h-23.634c-16.62 0-30.145-13.525-30.145-30.147 0-16.625 13.525-30.15 30.145-30.15z" fill="url(#SVGID_1_)"/></g></svg>