<svg id="Layer_1" viewBox="0 0 512 512" xmlns="http://www.w3.org/2000/svg" xmlns:xlink="http://www.w3.org/1999/xlink" data-name="Layer 1"><linearGradient id="linear-gradient" gradientUnits="userSpaceOnUse" x1=".551" x2="511.448" y1="256" y2="256"><stop offset="0" stop-color="#57ffd9"/><stop offset="1" stop-color="#2a6eff"/></linearGradient><path d="m378.247 1h-244.494c-20.474 0-37.131 15.676-37.131 34.943v440.113c0 19.268 16.657 34.943 37.131 34.943h244.494c20.474 0 37.131-15.676 37.131-34.943v-440.113c0-19.268-16.657-34.943-37.131-34.943zm-244.494 16h244.494c11.652 0 21.131 8.498 21.131 18.943v23.535h-286.756v-23.535c0-10.445 9.479-18.943 21.131-18.943zm-21.131 58.479h286.757v328.316h-286.757zm265.625 419.521h-244.494c-11.652 0-21.131-8.498-21.131-18.943v-56.262h286.757v56.262c0 10.445-9.479 18.943-21.131 18.943zm-151.494-456.764c0-4.418 3.582-8 8-8h42.494c4.418 0 8 3.582 8 8s-3.582 8-8 8h-42.494c-4.418 0-8-3.582-8-8zm45.841 396.952h-33.188c-12.245 0-22.208 9.963-22.208 22.208s9.962 22.207 22.208 22.207h33.188c12.245 0 22.208-9.962 22.208-22.207s-9.962-22.208-22.208-22.208zm0 28.416h-33.188c-3.423 0-6.208-2.784-6.208-6.207s2.785-6.208 6.208-6.208h33.188c3.423 0 6.208 2.785 6.208 6.208s-2.785 6.207-6.208 6.207zm116.306-151.087-118.367-197.529c-3.086-5.149-8.519-8.225-14.533-8.225s-11.447 3.075-14.532 8.225l-118.368 197.53c-3.726 6.217-3.822 13.684-.259 19.973 3.563 6.288 10.018 10.043 17.266 10.043h231.787c7.249 0 13.703-3.755 17.266-10.044s3.466-13.755-.26-19.973zm-13.661 12.086c-.409.721-1.387 1.931-3.345 1.931h-231.787c-1.959 0-2.937-1.21-3.345-1.931-.409-.721-.944-2.182.063-3.861l118.368-197.53c.073-.123.268-.448.807-.448s.734.326.808.448 118.367 197.53 118.367 197.53c1.007 1.68.472 3.141.063 3.861zm-119.239-170.14c-11.853 0-23.852 7.864-23.852 22.894 0 .184.006.367.019.55l6.013 87.312c.149 8.91 6.631 15.751 15.517 16.769-10.3 1.15-18.336 9.901-18.336 20.502 0 11.381 9.259 20.64 20.64 20.64s20.64-9.259 20.64-20.64c0-10.601-8.037-19.352-18.336-20.502 8.886-1.017 15.368-7.859 15.517-16.769l6.013-87.312c.013-.183.019-.366.019-.55 0-15.029-11.999-22.894-23.852-22.894zm4.64 148.026c0 2.559-2.081 4.64-4.64 4.64s-4.64-2.081-4.64-4.64 2.081-4.639 4.64-4.639 4.64 2.081 4.64 4.639zm-2.798-38.134c-.013.184-.019.366-.019.55 0 .429 0 1.228-1.822 1.228s-1.822-.799-1.822-1.228c0-.184-.006-.366-.019-.55l-6.008-87.232c.154-6.336 6.554-6.66 7.849-6.66s7.695.324 7.849 6.659l-6.007 87.233zm-213.372 40.392c3.319 3.319 3.32 8.701 0 12.021-1.66 1.659-3.835 2.489-6.01 2.489s-4.351-.83-6.01-2.489c-42.531-42.53-42.531-111.732 0-154.264 3.319-3.318 8.701-3.318 12.021 0 3.319 3.319 3.32 8.701 0 12.021-35.902 35.902-35.902 94.319 0 130.221zm34.71-104.358c-10.483 10.483-16.257 24.422-16.257 39.248s5.773 28.765 16.257 39.248c3.32 3.32 3.319 8.702 0 12.021-1.66 1.659-3.835 2.489-6.01 2.489s-4.351-.83-6.01-2.489c-13.694-13.695-21.236-31.903-21.236-51.27s7.542-37.575 21.236-51.27c3.319-3.319 8.701-3.318 12.021 0 3.32 3.32 3.319 8.702 0 12.021zm386.897 39.248c0 19.366-7.542 37.574-21.237 51.27-1.66 1.659-3.835 2.489-6.01 2.489s-4.351-.83-6.01-2.489c-3.319-3.319-3.319-8.701 0-12.021 10.484-10.483 16.257-24.422 16.257-39.248s-5.773-28.765-16.257-39.248c-3.319-3.319-3.319-8.701 0-12.021s8.701-3.319 12.021 0c13.695 13.694 21.237 31.902 21.237 51.27zm13.474 77.132c-1.66 1.659-3.835 2.489-6.01 2.489s-4.351-.83-6.01-2.489c-3.32-3.32-3.32-8.702 0-12.021 35.902-35.901 35.902-94.318 0-130.221-3.32-3.32-3.319-8.702 0-12.021 3.319-3.32 8.701-3.318 12.021 0 42.53 42.531 42.53 111.733 0 154.264z" fill="url(#linear-gradient)"/></svg>