<svg xmlns="http://www.w3.org/2000/svg" xmlns:xlink="http://www.w3.org/1999/xlink" id="Layer_1" data-name="Layer 1" viewBox="0 0 101 101">
  <defs fill="#11d974">
    <style>
      .cls-1 {
        fill: url(#New_Gradient_Swatch-2);
        opacity: .95;
      }

      .cls-1, .cls-2, .cls-3 {
        fill-rule: evenodd;
        isolation: isolate;
      }

      .cls-2 {
        fill: url(#New_Gradient_Swatch-3);
        opacity: .95;
      }

      .cls-3 {
        fill: url(#New_Gradient_Swatch);
        opacity: .94;
      }
    </style>
    <linearGradient id="New_Gradient_Swatch" data-name="New Gradient Swatch" x1="-.86" y1="44.39" x2="49.05" y2="26.22" gradientUnits="userSpaceOnUse" fill="#11d974">
      <stop offset="0" stop-color="#0bd4aa" fill="#11d974"/>
      <stop offset=".2" stop-color="#1bd9a5" fill="#11d974"/>
      <stop offset=".89" stop-color="#a970bd" fill="#11d974"/>
      <stop offset="1" stop-color="#d913ff" fill="#11d974"/>
    </linearGradient>
    <linearGradient id="New_Gradient_Swatch-2" data-name="New Gradient Swatch" x1="55.48" y1="44.69" x2="91.26" y2="31.67" xlink:href="#New_Gradient_Swatch" fill="#11d974"/>
    <linearGradient id="New_Gradient_Swatch-3" data-name="New Gradient Swatch" x1="21.33" y1="82.16" x2="70.91" y2="64.11" xlink:href="#New_Gradient_Swatch" fill="#11d974"/>
  </defs>
  <path class="cls-3" d="m12.58,6.23h1.39c1.44,1.19,2.95,2.29,4.53,3.31,2.77-1.97,5.85-3.07,9.24-3.31h7.32c2.16.23,4.19.89,6.1,2,2.46,2.16,3.57,4.89,3.31,8.19-.08,1.31-.11,2.62-.09,3.92,3.4,1.6,4.51,4.22,3.31,7.84-.91,1.61-2.25,2.71-4.01,3.31-.45,2.66-1.76,4.78-3.92,6.36.46.83.89,1.67,1.31,2.53.12.46.12.93,0,1.39-2.17,3.93-4.29,7.88-6.36,11.85-.15.06-.2.18-.17.35-.71,1.17-1.41,2.36-2.09,3.57-.7.35-1.39.35-2.09,0-2.65-4.69-5.24-9.43-7.75-14.2-.16-.32-.39-.55-.7-.7-5.25,1.13-8.85,4.21-10.8,9.24-1.23,3.26-1.84,6.63-1.83,10.11,8.54-.03,17.08,0,25.62.09.32.09.52.29.61.61.16.65.07,1.26-.26,1.83-9.4.29-18.81.35-28.23.17-.32-.12-.55-.32-.7-.61v-4.7c.36-4.82,1.9-9.23,4.62-13.24,2.9-3.61,6.64-5.82,11.24-6.62.27-.57.56-1.12.87-1.66-2.16-1.58-3.47-3.7-3.92-6.36-4.24-1.69-5.46-4.65-3.66-8.89.27-.21.47-.48.61-.78-2.02-1.57-3.27-3.63-3.75-6.19-.55-2.7-.73-5.44-.52-8.19.09-.54.35-.94.78-1.22Zm18.65,2.79c2.11.06,4.2.32,6.27.78,2.47.73,3.78,2.38,3.92,4.97.1,1.69.07,3.37-.09,5.05-2.81-.47-5.36-1.52-7.67-3.14-.51-.53-.92-1.14-1.22-1.83-.7-.35-1.39-.35-2.09,0-1.31,2.17-3.17,3.68-5.58,4.53-1.46.42-2.94.68-4.44.78-2.22-.24-3.73-1.4-4.53-3.49-.73-1.97-1.08-4-1.05-6.1,1.02.78,2.03,1.57,3.05,2.35.56.26,1.14.32,1.74.17.99-1.45,2.32-2.44,4.01-2.96,2.53-.69,5.09-1.07,7.67-1.13Zm0,9.58c2.91,2.29,6.22,3.69,9.93,4.18,0,2.44-.08,4.88-.26,7.32-.27,3.19-1.93,5.25-4.97,6.19-3.39.78-6.76.67-10.11-.35-2.41-1.18-3.72-3.13-3.92-5.84-.18-2.38-.27-4.76-.26-7.14,3.8-.19,6.99-1.64,9.58-4.36Zm-12.55,4.88c.2,1.48.23,2.99.09,4.53-1.48-1.48-1.51-2.99-.09-4.53Zm25.27,0c1.11.77,1.48,1.81,1.13,3.14-.21.56-.56,1.03-1.05,1.39-.09-1.51-.12-3.02-.09-4.53Zm-18.3,15.51c.41.1.73.33.96.7.54,1.06,1.15,2.08,1.83,3.05-.34,1.03-.72,2.05-1.13,3.05-.87-1.59-1.71-3.18-2.53-4.79.32-.66.61-1.33.87-2Zm11.33,0c.41.62.76,1.29,1.05,2-.82,1.61-1.66,3.21-2.53,4.79-.42-1-.79-2.01-1.13-3.05.68-.97,1.29-1.99,1.83-3.05.21-.31.47-.54.78-.7Zm-6.8.7c.82-.06,1.63,0,2.44.17-.36.67-.77,1.31-1.22,1.92-.5-.65-.91-1.35-1.22-2.09Zm1.05,3.66c.17,0,.29.08.35.26.58,1.98,1.16,3.95,1.74,5.92-.52,1.25-1.16,2.44-1.92,3.57-.75-1.13-1.39-2.32-1.92-3.57.63-2.05,1.22-4.11,1.74-6.19Z" fill="#11d974"/>
  <path class="cls-1" d="m67.65,6.23h5.58c5.99,1.08,10.14,4.45,12.46,10.11,2.3,6.42,3.22,13.05,2.79,19.87-.09.32-.29.52-.61.61-2.67.06-5.34.12-8.02.17-.35.29-.7.58-1.05.87.31.54.6,1.09.87,1.66,7.27,1.43,12.06,5.67,14.38,12.72.69,2.37,1.18,4.75,1.48,7.14v4.7c-.14.29-.37.49-.7.61-9.42.17-18.83.11-28.23-.17-.34-.57-.42-1.18-.26-1.83.09-.32.29-.52.61-.61,8.54-.09,17.08-.12,25.62-.09.12-5.57-1.48-10.56-4.79-14.99-2.28-2.51-5.09-3.94-8.45-4.27-2.61,3.08-5.23,6.16-7.84,9.24-.56.26-1.14.32-1.74.17-2.99-3.28-5.92-6.62-8.8-10.02-.26-.56-.32-1.14-.17-1.74.41-.86.85-1.7,1.31-2.53-.35-.29-.7-.58-1.05-.87-2.67-.06-5.34-.12-8.02-.17-.32-.09-.52-.29-.61-.61-.4-6.49.42-12.82,2.44-18.99,2.19-6.13,6.46-9.79,12.81-10.98Zm2.79,2.79c4.78-.12,8.47,1.8,11.07,5.75,2.28,4.17,3.56,8.65,3.83,13.42.2,1.97.28,3.94.26,5.92-1.23.06-2.45,0-3.66-.17.51-1.17.83-2.39.96-3.66.17-3.27.11-6.52-.17-9.76-2.98-.37-5.33-1.8-7.06-4.27-.7-.35-1.39-.35-2.09,0-2.51,2.27-5.47,3.55-8.89,3.83-2.17,0-4.31.12-6.45.35-.11.13-.2.28-.26.44-.12,3.14-.12,6.27,0,9.41.13,1.27.45,2.49.96,3.66-1.21.17-2.43.23-3.66.17-.2-5.3.52-10.47,2.18-15.51,2.2-6.12,6.52-9.32,12.98-9.58Zm3.83,10.63c.98.72,1.96,1.45,2.96,2.18.92.48,1.88.86,2.88,1.13.09,2.38.03,4.77-.17,7.14-.27,3.19-1.93,5.25-4.97,6.19-3.39.78-6.76.67-10.11-.35-2.15-.89-3.39-2.49-3.75-4.79-.32-2.66-.46-5.33-.44-8.02,4.97.41,9.5-.75,13.59-3.49Zm-9.58,19.34c1.87.58,3.78.82,5.75.7,1.94.12,3.83-.11,5.66-.7.3.62.62,1.23.96,1.83-2.18,2.56-4.39,5.08-6.62,7.58-2.23-2.5-4.44-5.02-6.62-7.58.36-.58.65-1.19.87-1.83Z" fill="#11d974"/>
  <path class="cls-2" d="m75.31,95.45H26.52c-.29-.14-.49-.37-.61-.7-.4-5.44.59-10.61,2.96-15.51,2.84-5.01,7.11-8.03,12.81-9.06.27-.57.56-1.12.87-1.66-2.16-1.58-3.47-3.7-3.92-6.36-3.86-1.45-5.23-4.18-4.1-8.19.15-.06.2-.18.17-.35.52-.66,1.1-1.27,1.74-1.83.56-.45,1.2-.71,1.92-.78.64-7.67,4.82-11.44,12.55-11.33,7.72-.12,11.91,3.66,12.55,11.33,2.19.48,3.56,1.81,4.1,4.01.46,3.56-1,5.94-4.36,7.14-.45,2.66-1.76,4.78-3.92,6.36.31.54.6,1.09.87,1.66,7.27,1.43,12.06,5.67,14.38,12.72,1.2,3.86,1.67,7.81,1.39,11.85-.12.32-.32.55-.61.7Zm-24.57-52.97c2.14.04,4.18.53,6.1,1.48.12.12.23.23.35.35-3.02,3.31-6.74,5.46-11.15,6.45-1.54.33-3.08.59-4.62.78-.19-4.16,1.64-6.98,5.49-8.45,1.29-.3,2.57-.5,3.83-.61Zm8.36,4.01c.34.34.61.74.78,1.22.31.97.48,1.96.52,2.96-1.35-.28-2.54-.86-3.57-1.74.76-.82,1.51-1.63,2.27-2.44Zm-5.05,4.18c1.86,1.73,4.07,2.71,6.62,2.96,0,2.38-.08,4.77-.26,7.14-.27,3.19-1.93,5.25-4.97,6.19-3.39.78-6.76.67-10.11-.35-2.41-1.18-3.72-3.13-3.92-5.84-.16-2.09-.24-4.18-.26-6.27,4.63-.26,8.93-1.53,12.89-3.83Zm-15.86,3.49c.2,1.48.23,2.99.09,4.53-1.48-1.48-1.51-2.99-.09-4.53Zm25.27,0c1.11.77,1.48,1.81,1.13,3.14-.21.56-.56,1.03-1.05,1.39-.09-1.51-.12-3.02-.09-4.53Zm-18.3,15.51c.41.1.73.33.96.7.54,1.06,1.15,2.08,1.83,3.05-.34,1.03-.72,2.05-1.13,3.05-.87-1.59-1.71-3.18-2.53-4.79.32-.66.61-1.33.87-2Zm11.33,0c.41.62.76,1.29,1.05,2-.82,1.61-1.66,3.21-2.53,4.79-.42-1-.79-2.01-1.13-3.05.68-.97,1.29-1.99,1.83-3.05.21-.31.47-.54.78-.7Zm-6.8.7c.82-.06,1.63,0,2.44.17-.36.67-.77,1.31-1.22,1.92-.5-.65-.91-1.35-1.22-2.09Zm-8.54,2.96c.49,0,.81.22.96.7,2.51,4.73,5.07,9.44,7.67,14.11.76.46,1.51.46,2.27,0,2.68-4.92,5.38-9.83,8.1-14.72,3.91.64,7.02,2.58,9.32,5.84,2.45,4.13,3.64,8.6,3.57,13.42H28.79c-.12-5.48,1.42-10.41,4.62-14.81,2.14-2.3,4.72-3.81,7.75-4.53Zm9.58.7c.17,0,.29.08.35.26.58,1.98,1.16,3.95,1.74,5.92-.52,1.25-1.16,2.44-1.92,3.57-.75-1.13-1.39-2.32-1.92-3.57.63-2.05,1.22-4.11,1.74-6.19Z" fill="#11d974"/>
</svg>