<?xml version="1.0" encoding="UTF-8"?>
<svg id="Layer_1" data-name="Layer 1" xmlns="http://www.w3.org/2000/svg" xmlns:xlink="http://www.w3.org/1999/xlink" viewBox="0 0 101 101">
  <defs>
    <style>
      .cls-1 {
        fill: url(#linear-gradient-2);
      }

      .cls-2 {
        fill: url(#linear-gradient-6);
      }

      .cls-3 {
        fill: url(#linear-gradient-5);
      }

      .cls-4 {
        fill: url(#linear-gradient-3);
      }

      .cls-5 {
        fill: url(#linear-gradient);
      }

      .cls-6 {
        fill: url(#linear-gradient-4);
      }
    </style>
    <linearGradient id="linear-gradient" x1="-324.06" y1="305.55" x2="-312.35" y2="317.26" gradientTransform="translate(2590 2539.2) scale(8 -8)" gradientUnits="userSpaceOnUse">
      <stop offset="0" stop-color="#67447e"/>
      <stop offset=".3" stop-color="#3e224a"/>
      <stop offset=".76" stop-color="#34ad88"/>
      <stop offset="1" stop-color="#5eeaa7"/>
    </linearGradient>
    <linearGradient id="linear-gradient-2" x1="-323.69" y1="305.18" x2="-311.98" y2="316.89" xlink:href="#linear-gradient"/>
    <linearGradient id="linear-gradient-3" x1="-324.08" y1="305.57" x2="-312.37" y2="317.28" xlink:href="#linear-gradient"/>
    <linearGradient id="linear-gradient-4" x1="-324.34" y1="305.83" x2="-312.63" y2="317.54" xlink:href="#linear-gradient"/>
    <linearGradient id="linear-gradient-5" x1="-324.6" y1="306.09" x2="-312.89" y2="317.8" xlink:href="#linear-gradient"/>
    <linearGradient id="linear-gradient-6" x1="-324.24" y1="305.73" x2="-312.53" y2="317.44" xlink:href="#linear-gradient"/>
  </defs>
  <path class="cls-5" d="m93.18,11.68H7.82c-2.44,0-4.42,1.98-4.42,4.42v51.51c0,2.44,1.98,4.42,4.42,4.42h30.91v11.77c-1.63,0-2.94,1.32-2.94,2.94v2.94c0,1.63,1.32,2.94,2.94,2.94h23.55c1.63,0,2.94-1.32,2.94-2.94v-2.94c0-1.63-1.32-2.94-2.94-2.94v-11.77h30.91c2.44,0,4.42-1.98,4.42-4.42V16.09c0-2.44-1.98-4.42-4.42-4.42ZM7.82,14.62h85.37c.81,0,1.47.66,1.47,1.47v47.1H6.35V16.09c0-.81.66-1.47,1.47-1.47Zm54.46,75.06h-23.55v-2.94h23.55v2.94Zm-2.94-5.89h-17.66v-11.77h3.68v3.68c0,2.85,2.31,5.15,5.15,5.15s5.15-2.31,5.15-5.15v-3.68h3.68v11.77Zm-11.04-11.77h4.42v3.68c0,1.22-.99,2.21-2.21,2.21s-2.21-.99-2.21-2.21v-3.68Zm44.89-2.94H7.82c-.81,0-1.47-.66-1.47-1.47v-1.47h88.31v1.47c0,.81-.66,1.47-1.47,1.47Z"/>
  <path class="cls-1" d="m50.5,43.32c-2.44,0-4.42,1.98-4.42,4.42s1.98,4.42,4.42,4.42,4.42-1.98,4.42-4.42h0c0-2.44-1.98-4.42-4.42-4.42Zm0,5.89c-.81,0-1.47-.66-1.47-1.47s.66-1.47,1.47-1.47,1.47.66,1.47,1.47-.66,1.47-1.47,1.47Z"/>
  <path class="cls-4" d="m50.5,37.43c-2.74-.01-5.36,1.08-7.29,3.03-.57.58-.57,1.51,0,2.08.58.57,1.51.57,2.08,0h0c2.86-2.87,7.51-2.87,10.38,0,0,0,0,0,0,0,.57.58,1.5.58,2.08,0s.58-1.5,0-2.08h0c-1.92-1.95-4.55-3.04-7.29-3.03Z"/>
  <path class="cls-6" d="m50.5,31.55c-4.3-.01-8.42,1.7-11.45,4.74-.56.58-.55,1.52.04,2.08.57.55,1.47.55,2.04,0,5.17-5.17,13.56-5.17,18.73,0,.58.56,1.52.55,2.08-.04.55-.57.55-1.47,0-2.05-3.03-3.05-7.15-4.75-11.45-4.74Z"/>
  <path class="cls-3" d="m36.97,34.21c7.47-7.47,19.59-7.48,27.06,0,0,0,0,0,0,0,.58.57,1.51.57,2.08,0,.57-.58.57-1.51,0-2.08h0c-8.62-8.62-22.6-8.62-31.22,0-.58.57-.58,1.51,0,2.08s1.51.58,2.08,0Z"/>
  <path class="cls-2" d="m34.31,58.04h32.38c3.25,0,5.89-2.64,5.89-5.89v-26.49c0-3.25-2.64-5.89-5.89-5.89h-32.38c-3.25,0-5.89,2.64-5.89,5.89v26.49c0,3.25,2.64,5.89,5.89,5.89Zm-2.94-32.38c0-1.63,1.32-2.94,2.94-2.94h32.38c1.63,0,2.94,1.32,2.94,2.94v26.49c0,1.63-1.32,2.94-2.94,2.94h-32.38c-1.63,0-2.94-1.32-2.94-2.94v-26.49Z"/>
</svg>