<svg xmlns="http://www.w3.org/2000/svg" xmlns:xlink="http://www.w3.org/1999/xlink" id="Layer_1" data-name="Layer 1" viewBox="0 0 101 101">
  <defs fill="#000000">
    <style>
      .cls-1 {
        fill: url(#New_Gradient_Swatch);
        fill-rule: evenodd;
      }
    </style>
    <linearGradient id="New_Gradient_Swatch" data-name="New Gradient Swatch" x1="3.7" y1="50.29" x2="99.02" y2="50.29" gradientTransform="translate(0 101.28) scale(1 -1)" gradientUnits="userSpaceOnUse" fill="#000000">
      <stop offset="0" stop-color="#55d499" fill="#000000"/>
      <stop offset=".2" stop-color="#17ae9b" fill="#000000"/>
      <stop offset=".89" stop-color="#9d6acc" fill="#000000"/>
      <stop offset="1" stop-color="#a721b9" fill="#000000"/>
    </linearGradient>
  </defs>
  <g id="Layer_1-2" data-name="Layer_1">
    <path class="cls-1" d="m29.99,36.01c-.29,0-.58-.12-.79-.33-.24-.23-.35-.56-.32-.89l1.16-12.43c.03-.31.19-.59.44-.78.25-.19.56-.27.87-.21,6.94,1.23,11.03,5.32,12.18,12.19.05.31-.03.62-.22.87-.19.25-.47.4-.78.43l-12.43,1.16s-.07,0-.1,0h0Zm65.7,38.82h-35.26v8.77h7.82c2.86,0,5.18,2.32,5.18,5.18v4.06c0,.62-.5,1.12-1.12,1.12H30.41c-.62,0-1.12-.5-1.12-1.12v-4.06c0-2.86,2.32-5.18,5.18-5.18h7.82v-8.77H7.03c-1.84,0-3.33-1.5-3.33-3.33V11.33c0-1.84,1.5-3.33,3.33-3.33h88.66c1.84,0,3.33,1.5,3.33,3.33v60.16c0,1.84-1.5,3.33-3.33,3.33h0Zm-37.49,0h-13.68v8.77h13.68v-8.77ZM7.03,10.24c-.61,0-1.1.49-1.1,1.1v49.12h90.86V11.33c0-.61-.49-1.1-1.1-1.1,0,0-88.66,0-88.66,0Zm-1.1,52.45v8.81c0,.61.49,1.1,1.1,1.1h88.66c.61,0,1.1-.49,1.1-1.1v-8.81H5.93Zm25.59,29.04h39.67v-2.95c0-1.63-1.32-2.95-2.95-2.95h-33.78c-1.63,0-2.95,1.32-2.95,2.95v2.95Zm40.59-20.16c-2.16,0-3.92-1.76-3.92-3.92s1.76-3.92,3.92-3.92,3.92,1.76,3.92,3.92-1.76,3.92-3.92,3.92Zm0-5.61c-.93,0-1.69.76-1.69,1.69s.76,1.69,1.69,1.69,1.69-.76,1.69-1.69-.76-1.69-1.69-1.69Zm10.65,5.61c-2.16,0-3.92-1.76-3.92-3.92s1.76-3.92,3.92-3.92,3.92,1.76,3.92,3.92-1.76,3.92-3.92,3.92Zm0-5.61c-.93,0-1.69.76-1.69,1.69s.76,1.69,1.69,1.69,1.69-.76,1.69-1.69-.76-1.69-1.69-1.69Zm6.03-9.64h-39.71c-.62,0-1.12-.5-1.12-1.12V15.49c0-.62.5-1.12,1.12-1.12s1.12.5,1.12,1.12v38.59h5.24v-13.53c0-.62.5-1.12,1.12-1.12h5.88c.62,0,1.12.5,1.12,1.12v13.53h1.33v-21.53c0-.62.5-1.12,1.12-1.12h5.88c.62,0,1.12.5,1.12,1.12v21.53h1.33v-28.86c0-.62.5-1.12,1.12-1.12h5.88c.62,0,1.12.5,1.12,1.12v28.86h6.35c.62,0,1.12.5,1.12,1.12s-.5,1.12-1.12,1.12Zm-21.68-2.23h3.65v-20.42h-3.65v20.42Zm9.45,0h3.65v-27.74h-3.65v27.74Zm-18.89,0h3.64v-12.42h-3.64v12.42Zm-3.66-21.45c-.39,0-.76-.2-.97-.56-.31-.53-.13-1.22.41-1.53l21.04-12.15-1.21-.18c-.61-.09-1.03-.66-.94-1.27.09-.61.66-1.03,1.27-.94l4.38.66c.07.01.15.03.22.05h0s0,0,0,0h.01s0,0,0,0h.01s.01.01.01.01h.02s0,.01,0,.01h.01s0,0,0,0h0s.01.01.01.01h0s.01,0,.01,0h.01s0,0,0,0h.01s0,.01,0,.01h0s.01.01.01.01h.01s.01.02.01.02h.01s0,.01,0,.01h0s.01.01.01.01h.01s.01.02.01.02l.02.02h.01s.01.02.01.02h.01s.01.02.01.02h.01s0,.01,0,.01h.01s.01.02.01.02h.01s.01.02.01.02h.01s0,.01,0,.01h0s.02.03.02.03h0s0,.01,0,.01h.01s0,.02,0,.02h0s.01.02.01.02h0s0,.01,0,.01h0s0,.03,0,.03h0s0,.01,0,.01h0s0,.02,0,.02h0s0,.02,0,.02h0s0,.01,0,.01l.02.03h0s0,.01,0,.01h0s0,.02,0,.02h0s0,.03,0,.03h0s0,.02,0,.02h0s0,.01,0,.01h0s0,.03,0,.03h0s0,.01,0,.01v.02s0,0,0,0h0s0,.02,0,.02h0s0,.01,0,.01h0s0,.03,0,.03h0s0,.01,0,.01v.02s0,0,0,0h0s0,.02,0,.02h0s0,.01,0,.01h0v.02h0s0,.02,0,.02h0s0,.02,0,.02h0s0,.01,0,.01v.02s0,.01,0,.01h0s0,.02,0,.02h0s0,.02,0,.02h0v.02h0v.03h0v.02h0v.02h0v.02h0v.03h0s0,.02,0,.02h0s0,.03,0,.03h0s0,.05,0,.08h0s0,.01,0,.01v.02s0,0,0,0h0s0,.03,0,.03h0s0,.02,0,.02h0s0,.01,0,.01v.02s0,0,0,0c0,.02-.01.05-.02.07h0s0,.01,0,.01h0s0,.03,0,.03h0s0,.01,0,.01h0v.02l-1.72,4.03c-.18.43-.59.68-1.03.68-.15,0-.29-.03-.44-.09-.57-.24-.83-.9-.59-1.47l.41-.96-20.92,12.08c-.18.1-.37.15-.56.15Zm-28.51,18.59c-6.99,0-12.68-5.69-12.68-12.68s5.69-12.68,12.68-12.68c.42,0,.84.02,1.26.06.61.06,1.06.6,1,1.21l-1.03,11.01,10.22-.95c.31-.03.62.07.85.28.23.21.37.5.37.81,0,.08,0,.17,0,.26,0,6.99-5.69,12.68-12.68,12.68h0Zm-.07-23.13c-5.73.04-10.38,4.71-10.38,10.45s4.69,10.45,10.45,10.45c5.43,0,9.9-4.16,10.4-9.45l-10.3.96c-.33.03-.66-.09-.89-.32-.24-.23-.35-.56-.32-.89l1.04-11.19Zm6.72-4.28l-.92,9.84,9.85-.92c-1.14-4.8-4.07-7.74-8.93-8.92Z" fill="#000000"/>
  </g>
</svg>