<?xml version="1.0" encoding="UTF-8"?>
<svg id="Layer_1" data-name="Layer 1" xmlns="http://www.w3.org/2000/svg" xmlns:xlink="http://www.w3.org/1999/xlink" viewBox="0 0 101 101">
  <defs>
    <style>
      .cls-1 {
        fill: url(#New_Gradient_Swatch_1);
      }
    </style>
    <linearGradient id="New_Gradient_Swatch_1" data-name="New Gradient Swatch 1" x1="10.62" y1="50.61" x2="89.64" y2="50.61" gradientUnits="userSpaceOnUse">
      <stop offset="0" stop-color="#67447e"/>
      <stop offset=".2" stop-color="#3e224a"/>
      <stop offset=".89" stop-color="#34ad88"/>
      <stop offset="1" stop-color="#5eeaa7"/>
    </linearGradient>
  </defs>
  <path class="cls-1" d="m85.34,7.83c.51.51.51,1.35,0,1.86,0,0,0,0,0,0l-5.32,5.33c-.25.25-.58.39-.93.39-.35,0-.68-.14-.93-.39l-2.19-2.19c-.51-.51-.51-1.35,0-1.86.51-.51,1.35-.51,1.86,0h0l1.25,1.25,4.39-4.39c.51-.51,1.35-.52,1.86,0,0,0,0,0,0,0Zm-.87,11.71c1.25,2.78,1.9,5.8,1.9,8.86,0,.73-.59,1.32-1.32,1.32h-5.77c-.73,2.4-3.26,3.76-5.67,3.03-1.45-.44-2.59-1.58-3.03-3.03h-5.77c-.73,0-1.32-.59-1.32-1.32v-5.77c-2.4-.73-3.75-3.27-3.02-5.67.44-1.45,1.57-2.58,3.02-3.02v-5.77c0-.73.59-1.32,1.32-1.32,2.55,0,5.08.45,7.48,1.33,1.79-4.62,6.99-6.91,11.61-5.12,4.62,1.79,6.91,6.99,5.12,11.61-.83,2.15-2.47,3.9-4.56,4.88h0Zm-.78,7.54c-.16-2.35-.76-4.65-1.77-6.78-4.9.7-9.44-2.7-10.14-7.6-.06-.43-.09-.86-.09-1.29,0-.22.01-.43.03-.64-1.78-.7-3.66-1.12-5.58-1.25v5.53c0,.73-.59,1.32-1.32,1.32-1.05,0-1.91.85-1.91,1.91,0,1.05.85,1.9,1.91,1.91.73,0,1.32.59,1.32,1.32v5.58h5.58c.73,0,1.32.59,1.32,1.32,0,1.05.85,1.91,1.91,1.91s1.91-.85,1.91-1.91c0-.73.59-1.32,1.32-1.32h5.53Zm3.3-15.66c0-3.5-2.84-6.34-6.34-6.34-3.5,0-6.34,2.84-6.34,6.34,0,3.5,2.84,6.33,6.34,6.34,3.5,0,6.34-2.84,6.34-6.34Zm-44.14,41.69c-3.45-4.13-7.35-8.8-7.35-16.89.01-11.9,9.66-21.54,21.55-21.55.73,0,1.32.59,1.32,1.32v6.89c0,.73-.59,1.32-1.32,1.32-1.05-.01-1.91.83-1.93,1.89s.83,1.91,1.89,1.93c.01,0,.03,0,.04,0,.73,0,1.32.59,1.32,1.32v5.58h5.58c.73,0,1.32.59,1.32,1.32,0,1.05.85,1.91,1.9,1.91,1.05,0,1.91-.85,1.91-1.9h0c0-.73.59-1.32,1.32-1.32h6.89c.73,0,1.32.59,1.32,1.32,0,8.08-3.91,12.76-7.35,16.89-1.71,2.05-3.34,4-4.43,6.23v7.6c0,2.18-1.77,3.95-3.96,3.96h-.77c-.21,2.78-2.63,4.87-5.42,4.66-2.49-.19-4.48-2.17-4.66-4.66h-.77c-2.18,0-3.95-1.77-3.96-3.96v-7.6c-1.1-2.24-2.72-4.18-4.43-6.23h0Zm16.59,17.79h-4.77c.21,1.32,1.44,2.22,2.76,2.01,1.04-.16,1.85-.98,2.01-2.01Zm4.75-5.32h-14.27v1.36c0,.73.6,1.31,1.32,1.32h11.62c.73,0,1.31-.6,1.32-1.32v-1.36Zm0-5.21h-14.27v2.58h14.27v-2.58Zm-26.05-24.14c0,7.13,3.43,11.23,6.74,15.2,1.63,1.96,3.32,3.98,4.54,6.31h15.28c1.23-2.33,2.91-4.35,4.54-6.31,3.1-3.72,6.31-7.55,6.7-13.88h-4.42c-.73,2.4-3.26,3.76-5.66,3.03-1.45-.44-2.59-1.58-3.03-3.03h-5.77c-.73,0-1.32-.59-1.32-1.32v-5.77c-2.4-.73-3.76-3.26-3.03-5.66.44-1.45,1.58-2.59,3.03-3.03v-4.41c-9.91.7-17.59,8.94-17.6,18.87h0Zm-19.83,38.19c-.23-.69-.97-1.06-1.66-.83,0,0,0,0,0,0-.69.23-1.07.98-.84,1.67.23.69.98,1.07,1.67.84.69-.23,1.07-.98.84-1.67v-.02Zm60.47,2.88c1.13,4.07-1.93,5.58-3.76,6.49-.23.12-.47.23-.69.35l-.03.02-24.61,12.16c-1.07.53-2.25.81-3.45.8-1.83,0-3.6-.59-5.3-1.24l-10.85-4.13-2.08.52.4,1.44c.19.67.1,1.39-.24,1.99-.34.62-.92,1.07-1.6,1.26l-6.26,1.74c-1.4.39-2.86-.43-3.25-1.84l-6.36-22.88c-.39-1.4.43-2.86,1.83-3.25l6.26-1.74c1.4-.39,2.85.43,3.25,1.83l.28,1.02,7.7-2.38c2.26-.7,5.01-1.22,8.19.25l12.7,5.88c1.85.86,2.93,2.64,3.34,4.44l18.72-6.31s.05-.01.07-.02c2.42-.67,4.99.95,5.74,3.62h0Zm-52.91,17.1l-6.36-22.89-6.26,1.74,6.36,22.89,6.26-1.74Zm50.38-16.4c-.35-1.23-1.47-2.05-2.47-1.79l-19.4,6.54c-.07.48-.2.95-.38,1.4-.88,2.24-2.82,3.49-5.1,3.49-.89,0-1.78-.18-2.61-.51l-8.56-3.34c-.68-.26-1.01-1.03-.75-1.71s1.03-1.01,1.71-.75l8.55,3.34c1.49.58,3.51.54,4.3-1.49.18-.45.27-.94.27-1.42h0c.02-1.69-.81-3.25-2.01-3.81l-12.7-5.88c-1.91-.88-3.74-.92-6.3-.12l-7.77,2.4,4.27,15.36,2.55-.63c.26-.07.54-.05.79.05l11.24,4.28c2.83,1.08,4.73,1.48,6.65.54l24.59-12.16c.24-.12.48-.25.73-.37,2.17-1.07,2.89-1.61,2.39-3.41h0Z"/>
</svg>