<?xml version="1.0" encoding="UTF-8"?>
<svg id="Layer_1" data-name="Layer 1" xmlns="http://www.w3.org/2000/svg" xmlns:xlink="http://www.w3.org/1999/xlink" viewBox="0 0 101 101">
  <defs>
    <style>
      .cls-1 {
        fill: url(#New_Gradient_Swatch_1);
      }
    </style>
    <linearGradient id="New_Gradient_Swatch_1" data-name="New Gradient Swatch 1" x1="2.42" y1="50.19" x2="98.3" y2="50.19" gradientUnits="userSpaceOnUse">
      <stop offset="0" stop-color="#67447e"/>
      <stop offset=".2" stop-color="#3e224a"/>
      <stop offset=".89" stop-color="#34ad88"/>
      <stop offset="1" stop-color="#5eeaa7"/>
    </linearGradient>
  </defs>
  <g id="connection">
    <path class="cls-1" d="m98.3,50.11c0-4.3-3.31-7.77-7.44-8.27-.99-5.29-3.14-10.08-6.12-14.71,2.64-3.31,2.64-8.1-.5-11.08-1.49-1.49-3.64-2.31-5.79-2.31-1.98,0-3.8.66-5.29,1.98-4.46-2.98-9.42-4.96-14.71-6.12-.33-4.13-3.8-7.44-8.1-7.44s-7.77,3.31-8.27,7.44c-5.29.99-10.08,3.14-14.71,6.12-3.31-2.64-8.1-2.64-11.08.5-2.98,2.98-3.14,7.93-.5,11.08-2.98,4.46-4.96,9.42-6.12,14.71-3.97.33-7.27,3.8-7.27,8.1s3.31,7.77,7.44,8.27c.99,5.29,3.14,10.08,6.12,14.71-2.64,3.31-2.64,8.1.5,11.08,1.65,1.65,3.8,2.48,5.79,2.48,1.82,0,3.8-.66,5.29-1.98,4.46,2.98,9.42,4.96,14.71,6.12.5,4.13,3.97,7.44,8.27,7.44s7.77-3.31,8.27-7.44c5.29-.99,10.08-3.14,14.71-6.12,1.49,1.32,3.31,1.98,5.29,1.98,2.15,0,4.3-.83,5.79-2.48,2.98-2.98,3.14-7.93.5-11.08,2.98-4.46,4.96-9.42,6.12-14.71,3.8-.5,7.11-3.97,7.11-8.27Zm-19.84,19.84c-1.65,0-3.14.5-4.63,1.32l-3.64-3.64c3.8-4.3,6.12-9.75,6.61-15.87h5.29c.66,2.98,2.81,5.29,5.62,6.12-.99,4.63-2.81,8.93-5.29,12.89-1.32-.5-2.64-.83-3.97-.83Zm-26.45,11.74v-5.29c6.12-.33,11.57-2.81,15.87-6.61l3.8,3.8c-1.65,2.48-1.82,5.62-.5,8.27-3.97,2.64-8.27,4.46-12.89,5.29-.99-2.64-3.31-4.79-6.28-5.46Zm-9.42,5.62c-4.63-.99-8.93-2.81-12.89-5.29,1.32-2.64,1.16-5.79-.5-8.27l3.8-3.8c4.3,3.8,9.75,6.12,15.87,6.61v5.29c-3.14.5-5.46,2.64-6.28,5.46Zm-24.14-16.37c-2.64-3.97-4.46-8.27-5.29-12.89,2.81-.83,4.96-3.31,5.62-6.12h5.29c.33,6.12,2.81,11.57,6.61,15.87l-3.8,3.8c-2.48-1.98-5.79-1.98-8.43-.66Zm3.8-40.67c1.65,0,3.14-.5,4.63-1.32l3.8,3.8c-3.8,4.3-6.12,9.75-6.61,15.87h-5.29c-.66-2.98-2.81-5.29-5.62-6.12.99-4.63,2.81-8.93,5.29-12.89,1.32.33,2.48.66,3.8.66Zm26.45-11.74v5.29c-6.12.33-11.57,2.81-15.87,6.61l-3.8-3.8c1.65-2.48,1.82-5.62.5-8.27,3.97-2.64,8.27-4.46,12.89-5.29.99,2.64,3.31,4.79,6.28,5.46Zm9.42-5.62c4.63.99,8.93,2.81,12.89,5.29-1.32,2.64-1.16,5.79.5,8.27l-3.64,3.8c-4.3-3.8-9.75-6.12-15.87-6.61v-5.29c2.98-.5,5.29-2.64,6.12-5.46Zm24.14,16.37c2.64,3.97,4.46,8.27,5.29,12.89-2.81.83-4.96,3.31-5.62,6.12h-5.29c-.33-6.12-2.81-11.57-6.61-15.87l3.8-3.8c1.49,1.16,2.98,1.65,4.63,1.65,1.32,0,2.64-.33,3.8-.99Zm-31.9,43.97c-1.82,0-4.13-3.97-5.46-10.91,1.82-.5,3.64-.66,5.46-.66s3.64.33,5.46.66c-1.32,6.94-3.64,10.91-5.46,10.91Zm0-14.88c-1.98,0-4.13.33-5.95.66-.33-2.15-.5-4.63-.5-7.27h13.22c0,2.64-.33,5.12-.5,7.27-2.15-.33-4.3-.66-6.28-.66Zm-6.61-9.92c0-2.64.33-5.12.5-7.27,1.98.5,3.97.66,5.95.66s4.13-.33,5.95-.66c.33,2.15.5,4.63.5,7.27h-12.89Zm6.61-9.92c-1.82,0-3.64-.33-5.46-.66,1.32-6.94,3.64-10.91,5.46-10.91s4.13,3.97,5.46,10.91c-1.82.33-3.64.66-5.46.66Zm5.46-10.91c3.64.83,6.94,2.64,9.75,5.12-1.98,1.82-4.13,3.14-6.61,4.13-.66-3.64-1.65-6.94-3.14-9.26Zm-14.05,9.26c-2.31-.99-4.63-2.31-6.61-4.13,2.81-2.48,6.12-4.13,9.75-5.12-1.49,2.31-2.48,5.62-3.14,9.26Zm-8.93-1.82c2.48,2.15,5.29,3.97,8.27,5.12-.33,2.64-.66,5.46-.66,8.27h-13.22c.5-5.12,2.48-9.75,5.62-13.39Zm7.6,16.7c0,2.81.33,5.62.66,8.27-2.98,1.16-5.79,2.81-8.27,5.12-3.14-3.64-5.12-8.27-5.46-13.39h13.06Zm1.32,11.57c.66,3.64,1.82,6.94,3.14,9.26-3.64-.83-6.94-2.64-9.75-5.12,1.98-1.82,4.13-3.14,6.61-4.13Zm17.19,0c2.31.99,4.63,2.31,6.61,4.13-2.81,2.48-6.12,4.13-9.75,5.12,1.49-2.31,2.48-5.62,3.14-9.26Zm8.93,1.82c-2.48-2.15-5.29-3.97-8.27-5.12.33-2.64.66-5.46.66-8.27h13.22c-.5,5.12-2.48,9.75-5.62,13.39Zm-7.6-16.7c0-2.81-.33-5.62-.66-8.27,2.98-1.16,5.79-2.81,8.27-5.12,3.14,3.64,5.12,8.27,5.46,13.39h-13.06Zm34.71,1.65c0,2.81-2.15,4.96-4.96,4.96s-4.96-2.15-4.96-4.96,2.15-4.96,4.96-4.96,4.96,2.15,4.96,4.96Zm-13.06-31.57c.99.99,1.49,2.15,1.49,3.47s-.5,2.64-1.49,3.47c-1.82,1.82-5.12,1.82-6.94,0-.99-.83-1.49-2.15-1.49-3.47s.5-2.64,1.49-3.47c.99-.99,2.15-1.49,3.47-1.49s2.64.5,3.47,1.49Zm-31.57-13.06c2.81,0,4.96,2.15,4.96,4.96s-2.15,4.96-4.96,4.96-4.96-2.15-4.96-4.96,2.15-4.96,4.96-4.96Zm-31.57,13.06c.99-.99,2.31-1.49,3.47-1.49,1.32,0,2.48.5,3.47,1.49,1.98,1.98,1.98,5.12,0,6.94-1.98,1.98-5.12,1.98-6.94,0-1.98-1.82-1.98-5.12,0-6.94Zm-13.06,31.57c0-2.81,2.15-4.96,4.96-4.96s4.96,2.15,4.96,4.96-2.15,4.96-4.96,4.96-4.96-2.15-4.96-4.96Zm13.06,31.57c-1.98-1.98-1.98-5.12,0-6.94,1.98-1.98,5.12-1.98,6.94,0,1.98,1.98,1.98,5.12,0,6.94-1.82,1.98-5.12,1.98-6.94,0Zm31.57,13.06c-2.81,0-4.96-2.15-4.96-4.96s2.15-4.96,4.96-4.96,4.96,2.15,4.96,4.96-2.15,4.96-4.96,4.96Zm31.57-13.06c-1.82,1.82-5.12,1.82-6.94,0-.99-.83-1.49-2.15-1.49-3.47s.5-2.64,1.49-3.47c.99-.99,2.15-1.49,3.47-1.49s2.64.5,3.47,1.49c.99.99,1.49,2.15,1.49,3.47s-.5,2.64-1.49,3.47Z"/>
  </g>
</svg>