<?xml version="1.0" encoding="UTF-8"?>
<svg id="Layer_1" data-name="Layer 1" xmlns="http://www.w3.org/2000/svg" xmlns:xlink="http://www.w3.org/1999/xlink" viewBox="0 0 100.36 98.22">
  <defs>
    <style>
      .cls-1 {
        fill: url(#New_Gradient_Swatch_1-3);
      }

      .cls-2 {
        fill: url(#New_Gradient_Swatch_1-5);
      }

      .cls-3 {
        fill: url(#New_Gradient_Swatch_1-6);
      }

      .cls-4 {
        fill: url(#New_Gradient_Swatch_1);
      }

      .cls-5 {
        fill: url(#New_Gradient_Swatch_1-2);
      }

      .cls-6 {
        fill: url(#New_Gradient_Swatch_1-4);
      }
    </style>
    <linearGradient id="New_Gradient_Swatch_1" data-name="New Gradient Swatch 1" x1="3.04" y1="45.72" x2="97.27" y2="45.72" gradientUnits="userSpaceOnUse">
      <stop offset="0" stop-color="#67447e"/>
      <stop offset=".2" stop-color="#3e224a"/>
      <stop offset=".89" stop-color="#34ad88"/>
      <stop offset="1" stop-color="#5eeaa7"/>
    </linearGradient>
    <linearGradient id="New_Gradient_Swatch_1-2" data-name="New Gradient Swatch 1" x1="32.81" y1="24.56" x2="67.48" y2="24.56" xlink:href="#New_Gradient_Swatch_1"/>
    <linearGradient id="New_Gradient_Swatch_1-3" data-name="New Gradient Swatch 1" x1="28.11" y1="89.48" x2="72.35" y2="89.48" xlink:href="#New_Gradient_Swatch_1"/>
    <linearGradient id="New_Gradient_Swatch_1-4" data-name="New Gradient Swatch 1" x1="43.79" y1="53.58" x2="56.54" y2="53.58" xlink:href="#New_Gradient_Swatch_1"/>
    <linearGradient id="New_Gradient_Swatch_1-5" data-name="New Gradient Swatch 1" x1="45.39" y1="25.3" x2="55.01" y2="25.3" xlink:href="#New_Gradient_Swatch_1"/>
    <linearGradient id="New_Gradient_Swatch_1-6" data-name="New Gradient Swatch 1" x1="45.35" y1="70.78" x2="55.15" y2="70.78" xlink:href="#New_Gradient_Swatch_1"/>
  </defs>
  <path class="cls-4" d="m7.74,12.75c.26,0,.51,0,.77,0,.28,0,.56,0,.85,0,.3,0,.6,0,.89,0,.81,0,1.62,0,2.42,0,.67,0,1.35,0,2.02,0,1.59,0,3.18,0,4.77,0,1.64,0,3.28,0,4.93,0,1.41,0,2.82,0,4.23,0,.84,0,1.68,0,2.53,0,.79,0,1.58,0,2.37,0,.29,0,.58,0,.87,0,.4,0,.79,0,1.19,0,.22,0,.44,0,.67,0,.64.08.9.21,1.35.66.22.78.28,1.19-.07,1.93q-.32.42-.51.61c-.37.02-.75.03-1.12.03-.24,0-.49,0-.74,0-.27,0-.55,0-.82,0-.29,0-.57,0-.86,0-.62,0-1.23,0-1.85,0-.98,0-1.95,0-2.93.01-2.78.01-5.55.03-8.33.04-1.53,0-3.06.01-4.6.02-.97,0-1.94,0-2.91.01-.6,0-1.21,0-1.81,0-.28,0-.56,0-.84,0-.38,0-.77,0-1.15,0-.21,0-.43,0-.65,0-.61.05-1.02.13-1.56.44-.54.85-.45,1.85-.45,2.82,0,.19,0,.37,0,.56,0,.62,0,1.25,0,1.87,0,.45,0,.9,0,1.34,0,1.22,0,2.43-.01,3.65,0,1.27,0,2.54-.01,3.81,0,2.13-.01,4.27-.02,6.4,0,2.2-.01,4.39-.02,6.59q0,.2,0,.41c0,.68,0,1.36,0,2.04-.02,5.64-.04,11.27-.05,16.91h14.1c.13-.58.26-1.16.39-1.76.89-2.5,2.88-4.37,5.21-5.55,2.35-.95,5.31-.78,7.72-.13.08-.13.17-.25.25-.38,1.25-1.85,2.78-3.72,5.04-4.32.61-.08,1.16-.11,1.76,0,.6.5.75.8.88,1.57-.13.77-.3,1.03-.88,1.57-.49.27-.99.51-1.49.75-1.45.7-2.27,1.97-2.8,3.47q-.07.23-.14.47c-.16.52-.26.78-.61,1.2-.68.28-1.08.29-1.81.18-.31-.18-.62-.37-.92-.56-1.36-.87-2.8-1.15-4.39-.91-1.61.41-2.88,1.25-3.84,2.6-.33.58-.57,1.2-.83,1.81h52.5c-1.22-2.43-1.82-3.33-4.31-4.31-1.41-.39-2.95-.24-4.23.48-.17.11-.33.21-.5.32-.81.52-1.34.77-2.31.56-.8-.54-1.06-1.13-1.36-2.02-.68-1.99-1.72-2.88-3.54-3.86-.66-.36-.95-.54-1.37-1.18-.09-.71-.04-1.09.28-1.74.63-.52.98-.56,1.78-.51,2.22.42,3.96,2.14,5.21,3.92.19.29.38.58.56.87.24-.06.48-.13.73-.2,2.95-.58,5.98-.46,8.53,1.24.31.24.62.48.92.72.12.09.24.19.37.28,1.51,1.3,2.44,3.48,2.76,5.4h13.91c-.02-5.88-.03-11.76-.05-17.65,0-.69,0-1.39,0-2.08q0-.21,0-.42c0-2.24-.01-4.48-.02-6.72,0-2.3-.01-4.59-.02-6.89,0-1.29,0-2.58-.01-3.87,0-1.21,0-2.43-.01-3.64,0-.45,0-.89,0-1.34,0-.61,0-1.21,0-1.82q0-.27,0-.54.04-.92-.45-1.65c-.66-.23-1.29-.22-1.98-.22q-.37,0-.74,0c-.27,0-.54,0-.82,0-.29,0-.57,0-.86,0-.62,0-1.23,0-1.85,0-.98,0-1.95,0-2.93-.01-2.77-.01-5.55-.02-8.32-.03-1.53,0-3.06,0-4.6-.02-.81,0-1.62,0-2.43,0-.76,0-1.52,0-2.29,0-.28,0-.56,0-.84,0-.38,0-.76,0-1.14,0q-.32,0-.65,0-.53-.07-.88-.33c-.38-.55-.4-1.04-.43-1.7.22-.47.42-.81.78-1.18.39-.02.78-.03,1.17-.03.26,0,.51,0,.77,0,.29,0,.57,0,.86,0,.3,0,.6,0,.9,0,.81,0,1.63,0,2.44,0,.51,0,1.02,0,1.52,0,1.59,0,3.18,0,4.77,0,1.84,0,3.67,0,5.51-.01,1.42,0,2.84,0,4.26,0,.85,0,1.69,0,2.54,0,.8,0,1.6,0,2.39,0,.29,0,.58,0,.88,0,1.79-.02,3.15.03,4.55,1.26.11.13.21.26.32.39.11.13.22.25.33.38.54.79.72,1.48.73,2.43,0,.21,0,.41,0,.63,0,.23,0,.45,0,.69,0,.24,0,.48,0,.73,0,.67,0,1.34,0,2.01,0,.72,0,1.44,0,2.17,0,1.41,0,2.83,0,4.24,0,1.15,0,2.3,0,3.45,0,3.26,0,6.52,0,9.78,0,.18,0,.35,0,.53,0,.18,0,.35,0,.53,0,2.85,0,5.7,0,8.55,0,2.93,0,5.86,0,8.78,0,1.64,0,3.29,0,4.93,0,1.4,0,2.8,0,4.2,0,.71,0,1.43,0,2.14,0,.77,0,1.55,0,2.32,0,.22,0,.45,0,.68-.01,1.52-.24,2.58-1.27,3.75-.13.11-.26.21-.39.32-.13.11-.25.22-.38.33-.93.64-1.77.73-2.87.73-.15,0-.3,0-.45,0-.5,0-1,0-1.49,0-.36,0-.72,0-1.08,0-.99,0-1.98,0-2.97,0-1.07,0-2.14,0-3.2,0-2.09,0-4.19,0-6.28,0-1.7,0-3.4,0-5.1,0-4.82,0-9.64,0-14.46,0-.13,0-.26,0-.39,0-.26,0-.53,0-.79,0-4.09,0-8.18,0-12.27,0-4.59,0-9.19,0-13.78,0-2.43,0-4.86,0-7.3,0-2.07,0-4.14,0-6.21,0-1.06,0-2.11,0-3.17,0-.97,0-1.93,0-2.9,0-.35,0-.7,0-1.05,0q-3.52.02-4.99-1.27c-.11-.13-.21-.26-.32-.39-.11-.13-.22-.25-.33-.38-.54-.79-.72-1.48-.73-2.43,0-.21,0-.41,0-.63,0-.23,0-.45,0-.69,0-.24,0-.48,0-.73,0-.67,0-1.34,0-2.01,0-.72,0-1.44,0-2.17,0-1.41,0-2.83,0-4.24,0-1.15,0-2.3,0-3.45,0-3.26,0-6.52,0-9.78,0-.18,0-.35,0-.53,0-.18,0-.35,0-.53,0-2.85,0-5.7,0-8.55,0-2.93,0-5.86,0-8.78,0-1.64,0-3.29,0-4.93,0-1.4,0-2.8,0-4.2,0-.71,0-1.43,0-2.14,0-.77,0-1.55,0-2.32,0-.22,0-.45,0-.68.01-1.52.24-2.58,1.27-3.75.13-.11.26-.21.39-.32.13-.11.25-.22.38-.33.87-.6,1.61-.72,2.66-.73Zm-1.46,53.33q-.38,4.66.59,9.01c.57.29,1.15.22,1.78.22.15,0,.29,0,.44,0,.49,0,.98,0,1.47,0,.35,0,.71,0,1.06,0,.98,0,1.95,0,2.93,0,1.05,0,2.1,0,3.15,0,2.54,0,5.08,0,7.62,0,1.19,0,2.39,0,3.58,0,3.97,0,7.94,0,11.91,0,1.03,0,2.06,0,3.09,0q.38,0,.78,0c4.15,0,8.31,0,12.46.01,4.26,0,8.52.01,12.78.01,2.39,0,4.79,0,7.18,0,2.04,0,4.07,0,6.11,0,1.04,0,2.08,0,3.12,0,.95,0,1.9,0,2.85,0,.35,0,.69,0,1.04,0,.47,0,.93,0,1.4,0q.2,0,.41,0c.99-.01,1.04-.12,1.81-.89v-8.42H6.28Z"/>
  <path class="cls-5" d="m50.94,3.4c.61.37,1.08.86,1.57,1.37.16.16.33.33.5.5,4.24,4.41,8.17,11.19,8.12,17.5q0,.32-.02.64-.17,2.56.7,4.85c.48.49,1.03.89,1.57,1.31,2.65,2.36,3.74,7.5,4.02,10.84.04.79.06,1.57.07,2.36,0,.2.01.4.02.6q0,1.4-.44,2.06c-.66.4-1.27.43-2,.26q-.51-.39-.98-.98c-.1-.13-.21-.26-.31-.39q-.82-1.06-1.06-1.76c-.26-.14-.52-.27-.78-.39-.47-.34-.93-.68-1.39-1.03-.74-.45-1.51-.68-2.34-.93-.06.1-.11.21-.17.32-.26.47-.51.95-.77,1.42-.09.16-.18.33-.27.5-.09.16-.17.32-.26.48-.08.15-.16.29-.24.44q-.25.37-.83.76-.48.05-1.06.06-.32,0-.66,0c-.23,0-.47,0-.71,0-.24,0-.48,0-.73,0-.51,0-1.02,0-1.53,0-.78,0-1.56.01-2.34.02-.49,0-.99,0-1.48,0-.23,0-.47,0-.71.01q-1.61,0-2.39-.57-.6-.88-.8-1.27-.1-.19-.2-.39c-.07-.13-.13-.26-.2-.4-.07-.14-.14-.27-.21-.41-.17-.33-.34-.66-.51-1-1.39.42-2.45.92-3.55,1.86q-.37.29-.95.49c-.14.26-.27.52-.39.78-.26.38-.52.75-.78,1.11q-.21.29-.42.58-.37.46-.76.66-1.38.11-2-.27c-.55-.82-.45-1.63-.43-2.6,0-.2,0-.4,0-.61.12-5,1.53-10.17,5.17-13.76.18-.13.35-.25.54-.38.72-.96.56-1.99.55-3.15.13-8.23,3.79-15.34,9.57-21.07.67-.59,1.41-.64,2.26-.47Zm-1.7,4.77q-1.43,1.37-2.22,3.06h6.27q-.99-1.5-2.11-2.85c-.15-.17-.3-.33-.45-.5-.67-.65-.92-.28-1.5.29Zm-4.17,6.19q-.94,2.16-1.71,4.35c-.08.24-.15.48-.23.73-.57,2.06-.68,4.06-.66,6.19,0,.15,0,.3,0,.45.01,2.28.11,4.48.65,6.7.04.17.08.33.12.5.59,2.41,1.41,4.58,2.62,6.75q.1.26.21.52.36.54,1.13.57c.31,0,.62,0,.94-.02q.25,0,.5,0c.53,0,1.05-.02,1.57-.03.36,0,.71,0,1.07-.01.87-.01,1.74-.03,2.62-.05,2.67-4.57,3.95-9.34,3.96-14.66,0-.42,0-.84.01-1.26.02-2.68-.39-5.19-1.33-7.71q-.09-.24-.18-.49c-.32-.88-.67-1.67-1.1-2.52h-10.19Zm-5.68,17.63c-1.44,1.6-2.39,4.18-2.74,6.27q.08.42.2.78c.18-.11.36-.21.55-.32.24-.14.49-.28.73-.42.12-.07.24-.14.36-.21q.18-.1.36-.21t.33-.19c.58-.3,1.18-.54,1.78-.8-.39-1.62-.78-3.23-1.18-4.9h-.39Zm21.15,0c-.39,1.62-.78,3.23-1.18,4.9.49.25.99.49,1.49.75l2.82,1.41c-.14-2.24-1.02-4.85-2.35-6.66-.26-.13-.52-.26-.78-.39Z"/>
  <path class="cls-1" d="m41.24,81.44c.81.15,1.14.26,1.66.91.27,1.17.04,1.79-.59,2.82-.61.93-1.26,1.8-1.95,2.67h19.59c-.58-.78-1.16-1.55-1.76-2.35-.65-.93-.93-1.62-.87-2.74q.09-.4.49-.9c.73-.36,1.14-.43,1.95-.28.7.64,1.12,1.4,1.62,2.2.72,1.15,1.56,2.12,2.5,3.09.14.18.28.36.42.54.8.63,1.48.56,2.48.55,1.61-.02,2.77.17,4,1.25,1.33,1.61,1.55,3.02,1.57,5.1q0,.2.01.4c0,1-.19,1.67-.65,2.54-.64.32-1.34.22-2.04.22-.17,0-.35,0-.52,0-.58,0-1.16,0-1.74,0-.42,0-.83,0-1.25,0-1.13,0-2.26,0-3.39,0-.71,0-1.41,0-2.12,0-2.21,0-4.42,0-6.62,0-2.55,0-5.1,0-7.66.01-1.97,0-3.94,0-5.91,0-1.18,0-2.36,0-3.53,0-1.11,0-2.22,0-3.32,0-.41,0-.81,0-1.22,0-.55,0-1.11,0-1.66,0-.16,0-.32,0-.49,0-.71,0-1.12-.04-1.7-.47-.39-.56-.39-.92-.4-1.6,0-.23,0-.46,0-.69q0-.36,0-.72c0-.24,0-.47,0-.71,0-1.62.19-2.75,1.28-3.99.13-.11.26-.21.39-.32q.19-.16.38-.33c.94-.64,1.65-.69,2.75-.66,1.36.02,2.53.02,3.58-.93,1.06-1.12,1.9-2.42,2.69-3.75q1.11-1.76,2.06-1.93Zm-9.3,10.11q-.59.77-.39,2.74h37.41q.05-1.4-.39-2.55c-.73-.73-1.57-.61-2.57-.61-.14,0-.28,0-.43,0-.47,0-.94,0-1.42,0-.34,0-.68,0-1.01,0-.92,0-1.84,0-2.76,0-.77,0-1.53,0-2.3,0-1.81,0-3.62,0-5.43,0-1.87,0-3.73,0-5.6,0-1.6,0-3.2,0-4.81,0-.96,0-1.91,0-2.87,0-.9,0-1.8,0-2.7,0-.33,0-.66,0-.99,0-.45,0-.9,0-1.35,0q-.38,0-.76,0c-.64.05-1.07.14-1.64.44Z"/>
  <path class="cls-6" d="m45.56,47.19q.22,0,.45,0c.52.11.67.27,1,.67q.11.37.15.79c.02.15.04.31.06.47.02.16.04.33.06.49.34,2.41,1.05,4.24,2.67,6.08,1.28-.5,1.88-1.92,2.4-3.11.49-1.36.68-2.68.81-4.11q.12-.62.37-.99c.43-.27.7-.3,1.21-.3.15,0,.3,0,.45-.01.63.14.85.36,1.22.88.49,3.1-.59,6.23-2.39,8.75q-2.11,2.8-3.85,3.17c-1.39-.1-2.39-1.28-3.25-2.26-1.89-2.39-3.07-5.11-3.14-8.17,0-.13,0-.27-.01-.41,0-.65.06-1.02.44-1.55.5-.34.74-.41,1.34-.39Z"/>
  <path class="cls-2" d="m52.39,20.93c1.1.66,2.14,1.78,2.46,3.04.33,1.41.14,2.69-.53,3.97-.96,1.14-1.91,2.01-3.44,2.17-1.67.02-2.82-.04-4.05-1.22-1.25-1.35-1.47-2.42-1.44-4.25.14-1.54.85-2.35,2-3.33,1.38-.95,3.47-1.06,5-.38Zm-3.4,3.24c-.33.61-.29,1.07-.21,1.75q.29.5.78.78c.72.12,1.04.1,1.64-.32.41-.6.44-.92.32-1.64q-.28-.49-.78-.78c-.68-.08-1.14-.13-1.75.21Z"/>
  <path class="cls-3" d="m48.04,69.11c.18,0,.35,0,.53,0,.37,0,.74,0,1.11,0,.57,0,1.13,0,1.7,0,.36,0,.72,0,1.08,0q.25,0,.51,0,1.17.02,1.79.48c.31.44.39.66.38,1.19,0,.13,0,.26,0,.39-.16.6-.39.8-.89,1.18-.6.12-1.19.11-1.81.1q-.26,0-.53,0c-.37,0-.74,0-1.11,0-.57,0-1.13,0-1.7,0-.36,0-.72,0-1.08,0q-.25,0-.51,0-1.17-.02-1.79-.48c-.31-.44-.39-.66-.38-1.19q0-.19,0-.39c.36-1.37,1.52-1.29,2.69-1.28Z"/>
</svg>