<svg height="440pt" viewBox="-2 0 440 440.6" width="440pt" xmlns="http://www.w3.org/2000/svg" xmlns:xlink="http://www.w3.org/1999/xlink"><linearGradient id="a"><stop offset="0" stop-color="#6094ea"/><stop offset="1" stop-color="#f02fc2"/></linearGradient><linearGradient id="b" gradientUnits="userSpaceOnUse" x1="291.4868" x2="16.4868" xlink:href="#a" y1="383.7908" y2="90.7908"/><linearGradient id="c" gradientUnits="userSpaceOnUse" x1="251.3406" x2="-23.6594" xlink:href="#a" y1="421.4707" y2="128.4707"/><linearGradient id="d" gradientUnits="userSpaceOnUse" x1="294.6662" x2="19.6662" xlink:href="#a" y1="380.8067" y2="87.8067"/><linearGradient id="e" gradientUnits="userSpaceOnUse" x1="322.3245" x2="47.3245" xlink:href="#a" y1="354.8476" y2="61.8476"/><linearGradient id="f" gradientUnits="userSpaceOnUse" x1="369.698" x2="94.698" xlink:href="#a" y1="310.3844" y2="17.3844"/><linearGradient id="g" gradientUnits="userSpaceOnUse" x1="271.4192" x2="-3.5808" xlink:href="#a" y1="402.6256" y2="109.6256"/><linearGradient id="h" gradientUnits="userSpaceOnUse" x1="241.6677" x2="-33.3323" xlink:href="#a" y1="430.5493" y2="137.5493"/><linearGradient id="i" gradientUnits="userSpaceOnUse" x1="205.6807" x2="-69.3193" xlink:href="#a" y1="464.3255" y2="171.3255"/><linearGradient id="j" gradientUnits="userSpaceOnUse" x1="190.7508" x2="-84.2492" xlink:href="#a" y1="478.3383" y2="185.3383"/><linearGradient id="k" gradientUnits="userSpaceOnUse" x1="351.0397" x2="76.0397" xlink:href="#a" y1="327.8964" y2="34.8964"/><linearGradient id="l" gradientUnits="userSpaceOnUse" x1="345.4119" x2="70.4119" xlink:href="#a" y1="333.1785" y2="40.1785"/><linearGradient id="m" gradientUnits="userSpaceOnUse" x1="395.8749" x2="120.8749" xlink:href="#a" y1="285.8157" y2="-7.1844"/><path d="m329.910156 345.480469c-3.3125 0-6 2.6875-6 6v50.859375c0 14.480468-11.777344 26.257812-26.257812 26.257812h-259.09375c-14.480469 0-26.257813-11.777344-26.257813-26.257812v-364.082032c0-14.480468 11.777344-26.257812 26.257813-26.257812h201.761718v45.324219c0 21.097656 17.160157 38.261719 38.257813 38.261719h45.332031v104.992187c0 3.3125 2.6875 6 6 6s6-2.6875 6-6v-111c0-.070313-.007812-.140625-.011718-.210937 0-.058594-.003907-.117188-.007813-.175782-.035156-.550781-.144531-1.082031-.320313-1.582031-.007812-.027344-.015624-.050781-.027343-.078125-.191407-.53125-.457031-1.027344-.785157-1.476562-.015624-.023438-.03125-.042969-.046874-.0625-.191407-.253907-.398438-.496094-.625-.714844l-83.523438-83.523438c-.03125-.03125-.066406-.054687-.09375-.082031-.152344-.144531-.308594-.277344-.472656-.40625-.074219-.058594-.152344-.117187-.226563-.171875-.191406-.132812-.386719-.257812-.59375-.371094-.066406-.035156-.136719-.066406-.207031-.101562-.160156-.078125-.324219-.148438-.492188-.214844-.085937-.035156-.175781-.066406-.265624-.097656-.207032-.070313-.414063-.128906-.628907-.171875-.097656-.023438-.199219-.035157-.296875-.0507815-.160156-.0273437-.320312-.0507813-.484375-.0625-.117187-.0078125-.234375-.015625-.355469-.015625-.042968-.00390625-.082031-.0078125-.125-.0078125h-207.761718c-21.09375 0-38.257813 17.164062-38.257813 38.257812v364.085938c0 21.09375 17.164063 38.257812 38.257813 38.257812h259.09375c21.097656 0 38.257812-17.164062 38.257812-38.257812v-50.863281c0-3.316407-2.6875-6-6-6zm-77.589844-325 63.105469 63.105469h-36.851562c-14.476563 0-26.257813-11.78125-26.257813-26.261719v-36.84375zm0 0" fill="url(#b)"/><path d="m55.15625 266.464844c0 3.3125 2.6875 6 6 6h37.03125c3.316406 0 6-2.6875 6-6v-55.792969c0-3.3125-2.683594-6-6-6h-37.03125c-3.3125 0-6 2.6875-6 6zm12-49.792969h25.03125v43.792969h-25.03125zm0 0" fill="url(#c)"/><path d="m157.859375 158.175781h-37.03125c-3.3125 0-6 2.683594-6 6v102.269531.019532c0 3.3125 2.6875 6 6 6h37.03125c3.316406 0 6-2.6875 6-6 0-.007813 0-.015625 0-.019532v-102.269531c0-3.316406-2.683594-6-6-6zm-6 102.289063h-25.03125v-90.289063h25.03125zm0 0" fill="url(#d)"/><path d="m217.53125 174.472656h-37.03125c-3.3125 0-6 2.6875-6 6v85.992188c0 3.3125 2.6875 6 6 6h37.03125c3.3125 0 6-2.6875 6-6 0-.015625 0-.027344 0-.039063v-85.953125c0-3.316406-2.6875-6-6-6zm-6 85.992188h-25.03125v-73.992188h25.03125zm0 0" fill="url(#e)"/><path d="m283.203125 117.753906c0-3.316406-2.6875-6-6-6h-37.03125c-3.3125 0-6 2.683594-6 6v148.710938c0 3.3125 2.6875 6 6 6h37.03125c3.3125 0 6-2.6875 6-6zm-12 142.710938h-25.03125v-136.710938h25.03125zm0 0" fill="url(#f)"/><path d="m283.203125 293.695312c0-3.3125-2.6875-6-6-6h-216.046875c-3.3125 0-6 2.6875-6 6s2.6875 6 6 6h216.046875c3.3125 0 6-2.6875 6-6zm0 0" fill="url(#g)"/><path d="m227.449219 323.613281c0-3.3125-2.6875-6-6-6h-160.292969c-3.3125 0-6 2.6875-6 6 0 3.316407 2.6875 6 6 6h160.292969c3.3125 0 6-2.683593 6-6zm0 0" fill="url(#h)"/><path d="m142.238281 347.535156h-81.082031c-3.3125 0-6 2.6875-6 6s2.6875 6 6 6h81.082031c3.3125 0 6-2.6875 6-6s-2.6875-6-6-6zm0 0" fill="url(#i)"/><path d="m142.238281 377.457031h-81.082031c-3.3125 0-6 2.6875-6 6s2.6875 6 6 6h81.082031c3.3125 0 6-2.6875 6-6s-2.6875-6-6-6zm0 0" fill="url(#j)"/><path d="m61.15625 66.691406h78.1875c3.3125 0 6-2.683594 6-6 0-3.3125-2.6875-6-6-6h-78.1875c-3.3125 0-6 2.6875-6 6 0 3.316406 2.6875 6 6 6zm0 0" fill="url(#k)"/><path d="m61.15625 93.292969h106.949219c3.3125 0 6-2.6875 6-6s-2.6875-6-6-6h-106.949219c-3.3125 0-6 2.6875-6 6s2.6875 6 6 6zm0 0" fill="url(#l)"/><path d="m433.152344 79.765625-30.179688-13.082031c-3.039062-1.320313-6.574218.078125-7.890625 3.117187l-5.726562 13.203125c-4.589844.804688-8.542969 3.855469-10.441407 8.234375-1.941406 4.476563-1.347656 9.425781 1.136719 13.242188l-110.398437 254.640625c-.019532.046875-.03125.09375-.050782.140625-.050781.121093-.097656.246093-.140624.371093-.019532.0625-.035157.121094-.054688.183594-.035156.125-.070312.253906-.101562.382813-.015626.070312-.027344.136719-.039063.203125-.023437.125-.042969.246094-.0625.371094-.007813.082031-.011719.167968-.019531.25-.007813.109374-.019532.21875-.023438.332031-.003906.105469.003906.207031.003906.3125.003907.078125 0 .152343.003907.230469l2.355469 35.929687c0 .023437.003906.050781.007812.078125.007812.109375.023438.214844.035156.324219.011719.085937.023438.171875.039063.253906.015625.101563.039062.203125.0625.300781.023437.09375.042969.183594.066406.269532.027344.089843.054687.179687.085937.269531.03125.097656.0625.191406.097657.285156.03125.082031.070312.160156.105469.242187.042968.097657.085937.195313.132812.292969.039062.070313.078125.144531.117188.214844.058593.101563.117187.199219.175781.296875.042969.066406.085937.128906.132812.195312.066407.097657.140625.195313.214844.289063.027344.035156.046875.070313.074219.101563.019531.027343.042968.046874.066406.070312.097656.117188.199219.226562.304688.332031.046874.046875.089843.097657.136718.140625.148438.140625.296875.273438.457032.394532.050781.039062.105468.074218.15625.109374.113281.085938.230468.164063.351562.242188.070312.042969.144531.085938.222656.125.105469.0625.210938.121094.320313.171875.074219.039063.148437.070313.222656.105469.121094.050781.242187.097656.367187.144531.066407.023437.132813.046875.203126.070313.136718.042968.28125.082031.421874.117187.054688.011719.113282.027344.167969.039063.164063.035156.332031.0625.503907.082031.035156.007812.070312.011719.109374.015625.203126.023437.410157.035156.621094.035156h.007813.003906.003906c.128907 0 .253907-.003906.382813-.011719.207031-.011719.410156-.035156.609375-.070312.007812 0 .015625-.003907.019531-.003907.304688-.054687.59375-.132812.875-.226562.046875-.015625.097656-.03125.144531-.046875.285157-.105469.558594-.230469.820313-.371094.046875-.023437.089844-.050781.132812-.074219.273438-.15625.53125-.332031.773438-.527343.011718-.011719.027344-.019531.039062-.03125l27.832032-22.839844c.023437-.019531.042968-.042969.066406-.0625.0625-.050781.121094-.109375.179687-.160156.140625-.132813.277344-.269531.402344-.410157.046875-.050781.097656-.101562.144531-.15625.164063-.199218.320313-.410156.457032-.625.023437-.035156.042968-.074218.066406-.109374.128906-.214844.242187-.433594.34375-.660157.011718-.023437.027344-.042969.039062-.070312l110.390625-254.636719c4.589844-.808594 8.542969-3.859375 10.441407-8.234375 1.941406-4.480469 1.347656-9.425781-1.132813-13.242187l5.726563-13.210938c1.316406-3.039062-.078126-6.574219-3.121094-7.890625zm-43.019532 31.628906 4.078126 1.765625-107.082032 247-4.078125-1.769531zm-107.398437 273.992188-.949219-14.464844 6.074219 2.632813v.003906h.003906l6.074219 2.632812zm19.488281-18.683594-4.082031-1.769531 107.082031-247 4.078125 1.769531zm118.445313-257.367187c-.390625.90625-1.25 1.226562-1.867188 1.226562-.136719 0-.269531-.015625-.402343-.042969 0 0-.003907 0-.007813 0-.132813-.027343-.261719-.070312-.394531-.128906l-27.011719-11.707031c-.125-.054688-.238281-.121094-.347656-.195313-.015625-.011719-.03125-.023437-.046875-.035156-.746094-.550781-1.046875-1.558594-.664063-2.441406.390625-.90625 1.25-1.230469 1.863281-1.230469.085938 0 .167969.015625.253907.027344.078125.015625.15625.027344.238281.042968.105469.027344.210938.054688.316406.101563l27.015625 11.710937c.113281.050782.214844.109376.3125.175782.046875.035156.09375.074218.144531.109375.695313.5625.96875 1.53125.597657 2.386719zm-.203125-15.382813-19.175782-8.308594 2.414063-5.566406 19.171875 8.3125zm0 0" fill="url(#m)"/></svg>