<?xml version="1.0" encoding="UTF-8"?>
<svg id="Layer_1" data-name="Layer 1" xmlns="http://www.w3.org/2000/svg" xmlns:xlink="http://www.w3.org/1999/xlink" viewBox="0 0 101 101">
  <defs>
    <style>
      .cls-1 {
        fill: url(#New_Gradient_Swatch_1);
      }
    </style>
    <linearGradient id="New_Gradient_Swatch_1" data-name="New Gradient Swatch 1" x1="-1.25" y1="34.31" x2="103.95" y2="72.6" gradientTransform="translate(0 101.28) scale(1 -1)" gradientUnits="userSpaceOnUse">
      <stop offset="0" stop-color="#67447e"/>
      <stop offset=".2" stop-color="#3e224a"/>
      <stop offset=".89" stop-color="#34ad88"/>
      <stop offset="1" stop-color="#5eeaa7"/>
    </linearGradient>
  </defs>
  <path class="cls-1" d="m89.67,58.54h-2.17l8.67-49.98c.02-.29.02-.57,0-.86-.06-2.83-2.41-5.08-5.24-5.02-2.32.05-4.32,1.65-4.87,3.91l-11.58,51.95H25.82L14.23,6.59c-.83-2.7-3.7-4.21-6.39-3.38-2.31.71-3.8,2.94-3.59,5.35l8.67,49.98h-2.17c-3.66,0-6.62,2.96-6.62,6.62v15.49c.02,3,2.06,5.61,4.96,6.36v3.31c0,2.74,2.22,4.96,4.96,4.96h6.62c2.74,0,4.96-2.22,4.96-4.96v-3.11h48.97v3.09c0,2.74,2.22,4.96,4.96,4.96h6.62c2.74,0,4.96-2.22,4.96-4.96v-3.31c3.01-.68,5.15-3.34,5.16-6.42v-15.44c-.02-3.66-3-6.61-6.65-6.59,0,0-.01,0-.02,0Zm-.3-51.22c.22-.97,1.18-1.58,2.16-1.37.93.21,1.54,1.1,1.39,2.04l-8.77,50.54h-6.14l11.37-51.22Zm-81.86.7c-.19-.98.45-1.93,1.42-2.12s1.93.45,2.12,1.42h0l11.37,51.3h-6.14L7.51,8.01Zm14.75,82.29c0,.91-.74,1.65-1.65,1.65h-6.62c-.91,0-1.65-.74-1.65-1.65v-3.09h9.85l.08,3.09Zm63.88,1.65h-6.62c-.91,0-1.65-.74-1.65-1.65v-3.09h9.93v3.09c0,.91-.74,1.65-1.65,1.65Zm6.8-11.34c0,1.83-1.48,3.31-3.31,3.31H10.76c-1.83,0-3.31-1.48-3.31-3.31v-15.49c0-1.83,1.48-3.31,3.31-3.31h78.91c1.83,0,3.31,1.48,3.31,3.31l-.03,15.49Zm-51.01-13.89h-22.95c-1.83,0-3.31,1.48-3.31,3.31v5.66c0,1.83,1.48,3.31,3.31,3.31h22.95c1.83,0,3.31-1.48,3.31-3.31v-5.66c0-1.83-1.48-3.31-3.31-3.31Zm-23,8.97v-5.66h23v5.64l-23,.02Zm43.03-9.42c-3.66,0-6.62,2.96-6.62,6.62s2.96,6.62,6.62,6.62c3.66,0,6.62-2.97,6.61-6.63,0-3.66-2.97-6.62-6.63-6.61h.02Zm0,9.93c-1.83,0-3.31-1.48-3.31-3.31s1.48-3.31,3.31-3.31c1.81.26,3.06,1.94,2.8,3.75-.21,1.46-1.36,2.6-2.82,2.8l.02.07Zm15.99-9.93c-3.66,0-6.62,2.96-6.62,6.62s2.96,6.62,6.62,6.62c3.66,0,6.62-2.97,6.61-6.63,0-3.66-2.97-6.62-6.63-6.61h.02Zm0,9.93c-1.83,0-3.31-1.48-3.31-3.31s1.48-3.31,3.31-3.31c1.81.26,3.06,1.94,2.8,3.75-.21,1.46-1.36,2.6-2.82,2.8l.02.07Zm-36.58-41.59c-.53.76-1.58.94-2.34.41-.76-.53-.94-1.58-.41-2.34,4.68-6.36,13.63-7.73,19.99-3.05,1.16.86,2.19,1.88,3.05,3.05.5.76.3,1.79-.47,2.29-.72.48-1.68.32-2.21-.36-3.62-4.86-10.49-5.87-15.35-2.26-.86.64-1.62,1.4-2.26,2.26Zm-6.62-7.12c-.62.67-1.67.71-2.34.09-.64-.59-.71-1.58-.16-2.26,8.95-10.79,26.96-10.79,35.91,0,.58.71.47,1.75-.24,2.33-.68.55-1.67.48-2.26-.16-7.55-8.54-20.59-9.34-29.13-1.78-.63.56-1.23,1.15-1.78,1.78Zm-8.92-9.4c12.64-13.97,36.11-13.97,48.76,0,.63.67.59,1.72-.07,2.34-.67.63-1.72.59-2.34-.07-11.29-12.61-32.64-12.61-43.92,0-.63.67-1.67.7-2.34.07-.67-.63-.7-1.67-.07-2.34h0Zm17.76,24.2c0,3.66,2.96,6.62,6.62,6.62s6.62-2.96,6.62-6.62-2.96-6.62-6.62-6.62-6.62,2.96-6.62,6.62Zm9.93,0c0,1.83-1.48,3.31-3.31,3.31s-3.31-1.48-3.31-3.31,1.48-3.31,3.31-3.31,3.31,1.48,3.31,3.31Z"/>
</svg>