<svg width="73" height="73" viewBox="0 0 73 73" fill="none" xmlns="http://www.w3.org/2000/svg">
<path d="M69.5782 14.7141C69.5782 14.1437 69.0079 13.6875 68.4376 13.6875C47.9063 13.6875 43.3438 4.22031 43.2298 4.10625C43.1157 3.65 42.6595 3.42188 42.2032 3.42188H30.797C30.3407 3.42188 29.9985 3.65 29.7704 4.10625C29.6563 4.22031 25.0938 13.6875 4.56259 13.6875C3.99228 13.6875 3.42196 14.1437 3.42196 14.7141C3.42196 15.1703 1.4829 60.225 36.1579 69.4641C36.272 69.4641 36.386 69.4641 36.5001 69.4641C36.6142 69.4641 36.7282 69.4641 36.8423 69.4641C71.5173 60.3391 69.5782 15.1703 69.5782 14.7141ZM36.5001 67.2969C6.84384 59.0844 5.58915 22.6984 5.70321 15.9688C23.9532 15.6266 29.9985 8.09844 31.4813 5.70312H41.5188C43.0017 8.09844 49.047 15.6266 67.297 15.9688C67.411 22.6984 66.1563 59.0844 36.5001 67.2969Z" fill="black"/>
<path d="M37.4125 8.44063C37.1843 8.09844 36.8422 7.98438 36.5 7.98438C36.1578 7.98438 35.8156 8.09844 35.5875 8.44063C35.5875 8.44063 27.375 18.25 10.2656 18.25C9.69528 18.25 9.12497 18.7062 9.12497 19.2766C9.12497 19.6187 7.5281 56.1187 36.1578 63.7609C36.2718 63.7609 36.3859 63.7609 36.5 63.7609C36.614 63.7609 36.7281 63.7609 36.8422 63.7609C65.4718 56.2328 63.875 19.7328 63.875 19.2766C63.875 18.7062 63.3047 18.25 62.7343 18.25C45.739 18.25 37.4125 8.44063 37.4125 8.44063ZM36.5 61.5937C12.5468 54.9781 11.4062 26.4625 11.4062 20.5312C25.7781 20.1891 33.9906 13.3453 36.5 10.8359C39.1234 13.4594 47.2218 20.1891 61.5937 20.5312C61.5937 26.4625 60.4531 54.9781 36.5 61.5937Z" fill="black"/>
<path d="M36.5 37.6406C33.3063 37.6406 30.7969 40.15 30.7969 43.3438C30.7969 46.5375 33.3063 49.0469 36.5 49.0469C39.6937 49.0469 42.2031 46.5375 42.2031 43.3438C42.2031 40.15 39.6937 37.6406 36.5 37.6406ZM36.5 46.7656C34.5609 46.7656 33.0781 45.2828 33.0781 43.3438C33.0781 41.4047 34.5609 39.9219 36.5 39.9219C38.4391 39.9219 39.9219 41.4047 39.9219 43.3438C39.9219 45.2828 38.4391 46.7656 36.5 46.7656Z" fill="black"/>
<path d="M36.5002 33.0781C33.4205 33.0781 30.5689 34.5609 28.858 37.1844C28.5158 37.7547 28.6299 38.4391 29.2002 38.7812C29.7705 39.1234 30.4549 39.0094 30.7971 38.4391C32.0518 36.5 34.2189 35.3594 36.5002 35.3594C38.7814 35.3594 40.9486 36.5 42.2033 38.4391C42.4314 38.7813 42.7736 38.8953 43.1158 38.8953C43.3439 38.8953 43.5721 38.7813 43.8002 38.6672C44.3705 38.325 44.4846 37.6406 44.1424 37.0703C42.4314 34.5609 39.5799 33.0781 36.5002 33.0781Z" fill="black"/>
<path d="M36.5001 28.5156C32.1658 28.5156 28.2876 30.4547 25.6642 33.8766C25.322 34.3328 25.322 35.1313 25.8923 35.4734C26.3486 35.8156 27.147 35.8156 27.4892 35.2453C29.6564 32.3937 32.9642 30.7969 36.5001 30.7969C40.0361 30.7969 43.3439 32.3937 45.5111 35.2453C45.7392 35.5875 46.0814 35.7016 46.4236 35.7016C46.6517 35.7016 46.8798 35.5875 47.1079 35.4734C47.5642 35.1313 47.6783 34.3328 47.3361 33.8766C44.7126 30.4547 40.8345 28.5156 36.5001 28.5156Z" fill="black"/>
<path d="M22.4706 30.5687C22.0144 31.025 22.1284 31.8234 22.5847 32.1656C23.0409 32.6219 23.8394 32.5078 24.1816 32.0516C27.2613 28.4016 31.7097 26.2344 36.5003 26.2344C41.2909 26.2344 45.7394 28.4016 48.8191 32.0516C49.0472 32.2797 49.3894 32.5078 49.7316 32.5078C49.9597 32.5078 50.3019 32.3937 50.4159 32.2797C50.8722 31.8234 50.9863 31.1391 50.53 30.6828C47.1081 26.3484 41.9753 23.9531 36.5003 23.9531C31.0253 23.9531 25.8925 26.3484 22.4706 30.5687Z" fill="black"/>
</svg>
