<?xml version="1.0" encoding="UTF-8"?>
<svg id="Layer_1" data-name="Layer 1" xmlns="http://www.w3.org/2000/svg" xmlns:xlink="http://www.w3.org/1999/xlink" viewBox="0 0 101 101">
  <defs>
    <style>
      .cls-1 {
        fill: url(#New_Gradient_Swatch-3);
        opacity: .92;
      }

      .cls-1, .cls-2, .cls-3, .cls-4, .cls-5 {
        fill-rule: evenodd;
        isolation: isolate;
      }

      .cls-2 {
        fill: url(#New_Gradient_Swatch-5);
        opacity: .92;
      }

      .cls-3 {
        fill: url(#New_Gradient_Swatch-4);
        opacity: .93;
      }

      .cls-4 {
        fill: url(#New_Gradient_Swatch);
        opacity: .93;
      }

      .cls-5 {
        fill: url(#New_Gradient_Swatch-2);
        opacity: .93;
      }
    </style>
    <linearGradient id="New_Gradient_Swatch" data-name="New Gradient Swatch" x1="5.96" y1="51.4" x2="93.31" y2="51.4" gradientUnits="userSpaceOnUse">
      <stop offset="0" stop-color="#67447e"/>
      <stop offset=".2" stop-color="#3e224a"/>
      <stop offset=".89" stop-color="#34ad88"/>
      <stop offset="1" stop-color="#5eeaa7"/>
    </linearGradient>
    <linearGradient id="New_Gradient_Swatch-2" data-name="New Gradient Swatch" x1="30.28" y1="43.04" x2="86.4" y2="43.04" xlink:href="#New_Gradient_Swatch"/>
    <linearGradient id="New_Gradient_Swatch-3" data-name="New Gradient Swatch" x1="37.99" y1="43.07" x2="48.38" y2="43.07" xlink:href="#New_Gradient_Swatch"/>
    <linearGradient id="New_Gradient_Swatch-4" data-name="New Gradient Swatch" x1="54.89" y1="43.05" x2="61.73" y2="43.05" xlink:href="#New_Gradient_Swatch"/>
    <linearGradient id="New_Gradient_Swatch-5" data-name="New Gradient Swatch" x1="68.33" y1="42.99" x2="78.61" y2="42.99" xlink:href="#New_Gradient_Swatch"/>
  </defs>
  <path class="cls-4" d="m55.09,8.06c12.39-.69,22.6,3.65,30.64,13.03,8.19,11.03,9.74,22.96,4.67,35.79-6.31,13.5-16.95,20.57-31.9,21.2-6.83-.06-13.15-1.88-18.97-5.45-7.1,7.07-14.24,14.11-21.4,21.11-2.69,1.35-5.42,1.41-8.17.19-3.26-2.08-4.53-5.03-3.79-8.85.22-.82.54-1.6.97-2.33,7.07-7.23,14.17-14.43,21.3-21.59-6.55-11.46-6.84-23.07-.88-34.82,6.3-10.41,15.47-16.51,27.53-18.29Zm1.75,3.11c14.13.37,24.35,6.85,30.64,19.45,4,9.69,3.42,19.1-1.75,28.21-7.59,12.08-18.52,17.24-32.78,15.47-4.61-.84-8.82-2.6-12.64-5.25-.5-.24-1.02-.31-1.56-.19-7.26,7.06-14.46,14.2-21.59,21.4-2.57,1.87-4.94,1.64-7.1-.68-.95-1.61-1.02-3.23-.19-4.86,6.74-6.93,13.55-13.81,20.43-20.62.99,1.38,2.13,2.64,3.4,3.79,2.02.34,2.76-.47,2.24-2.43-8.78-9.58-11.24-20.6-7.39-33.07,4.01-10.03,11.17-16.68,21.5-19.94,2.27-.59,4.54-1.01,6.81-1.26Z"/>
  <path class="cls-5" d="m55.28,15.06c12.22-.81,21.46,3.99,27.72,14.4,5.3,11,4.39,21.44-2.72,31.32-7.78,8.9-17.47,12.05-29.08,9.44-11.65-3.54-18.56-11.29-20.72-23.25-1.25-12.57,3.51-22.07,14.3-28.5,3.33-1.74,6.83-2.87,10.5-3.4Zm2.72,3.11c-1.54.14-3.1.37-4.67.68-9.63,2.31-15.96,8.18-18.97,17.61-2.34,10.16.35,18.69,8.07,25.58,8.93,6.7,18.4,7.54,28.4,2.53,10.07-6.79,13.86-16.16,11.38-28.11-3.91-11.59-11.98-17.69-24.22-18.29Z"/>
  <path class="cls-1" d="m46.14,34.32c1.82-.03,2.5.81,2.04,2.53l-6.13,6.13c2.11,2.05,4.16,4.16,6.13,6.32.5,1.35.05,2.19-1.36,2.53-.37-.06-.72-.15-1.07-.29l-7.49-7.49c-.37-.65-.37-1.3,0-1.95,2.61-2.64,5.23-5.23,7.88-7.78Z"/>
  <path class="cls-3" d="m59.56,34.32c1.78-.06,2.46.78,2.04,2.53-1.16,4.87-2.42,9.7-3.79,14.49-1.47.85-2.45.46-2.92-1.17,1.22-5.04,2.48-10.06,3.79-15.08.27-.31.56-.56.88-.78Z"/>
  <path class="cls-2" d="m69.29,34.32c.71-.07,1.35.1,1.95.49,2.37,2.37,4.73,4.73,7.1,7.1.29.62.35,1.27.19,1.95-2.56,2.56-5.12,5.12-7.68,7.68-2.15.51-2.9-.3-2.24-2.43,2.01-1.98,3.99-3.99,5.93-6.03-1.94-2.04-3.92-4.05-5.93-6.03-.53-1.12-.3-2.03.68-2.72Z"/>
</svg>