<?xml version="1.0" encoding="UTF-8"?>
<svg id="Layer_1" data-name="Layer 1" xmlns="http://www.w3.org/2000/svg" xmlns:xlink="http://www.w3.org/1999/xlink" viewBox="0 0 101 101">
  <defs>
    <style>
      .cls-1 {
        fill: url(#linear-gradient);
      }
    </style>
    <linearGradient id="linear-gradient" x1="3.74" y1="49.87" x2="97" y2="49.87" gradientUnits="userSpaceOnUse">
      <stop offset="0" stop-color="#67447e"/>
      <stop offset=".2" stop-color="#3e224a"/>
      <stop offset=".88" stop-color="#34ad88"/>
      <stop offset="1" stop-color="#5eeaa7"/>
    </linearGradient>
  </defs>
  <path class="cls-1" d="m95.63,73.33h-13.3v-11.78c0-1.56-1.27-2.83-2.83-2.83h-.09v-15.01c1.7-.57,2.92-2.18,2.92-4.06,0-2.36-1.92-4.29-4.29-4.29s-4.29,1.92-4.29,4.29c0,1.89,1.22,3.49,2.92,4.06v15.01h-.09c-1.56,0-2.83,1.27-2.83,2.83v11.78h-1.49c-.75,0-1.37.61-1.37,1.37s.61,1.37,1.37,1.37h1.49v3.01c0,1.56,1.27,2.83,2.83,2.83h.15v1.55c0,2.47-2.01,4.47-4.47,4.47h-36.5c-2.47,0-4.47-2.01-4.47-4.47v-7.39h35.14c.75,0,1.37-.61,1.37-1.37s-.61-1.37-1.37-1.37h-15.74l-14.63-7.31c-1.49-.75-3.12-1.21-4.77-1.38v-6.01h0v-14.04l7.89-7.89c1.35.92,2.93,1.39,4.5,1.39,2.05,0,4.09-.78,5.65-2.34,4.07-4.07,3.86-13.42,3.85-13.82-.02-.73-.6-1.31-1.33-1.33-.4-.01-9.75-.22-13.82,3.85-2.81,2.81-3.09,7.22-.82,10.34l-5.93,5.93v-10.34c0-1.92-.75-3.73-2.11-5.1l-2.11-2.11c2.2-3.12,1.9-7.46-.88-10.25-4.07-4.07-13.42-3.86-13.82-3.85-.73.02-1.31.6-1.33,1.33-.01.4-.22,9.75,3.85,13.82,1.26,1.26,2.87,2.05,4.64,2.28.06,0,.12.01.17.01.68,0,1.27-.5,1.35-1.19.09-.75-.43-1.43-1.18-1.53-1.16-.15-2.22-.67-3.05-1.5-1.3-1.3-2.24-3.71-2.72-6.99-.2-1.35-.28-2.6-.31-3.48.89.03,2.13.11,3.48.31,3.27.48,5.69,1.42,6.99,2.72,1.72,1.72,1.99,4.33.84,6.34l-4.22-4.22c-.53-.53-1.4-.53-1.93,0-.53.53-.53,1.4,0,1.93l8.3,8.3c.85.85,1.31,1.97,1.31,3.16v13.64h0v11.3l-6.38-6.38c2.67-3.61,2.38-8.74-.89-12.01-4.75-4.75-15.75-4.51-16.22-4.5-.73.02-1.31.6-1.33,1.33-.01.47-.25,11.47,4.5,16.22,1.8,1.8,4.16,2.7,6.53,2.7,1.93,0,3.86-.6,5.49-1.8l8.31,8.31v5.44c-1.65.17-3.28.64-4.77,1.38l-14.63,7.31h-4.06c-.75,0-1.37.61-1.37,1.37s.61,1.37,1.37,1.37h23.46v7.39c0,3.97,3.23,7.21,7.21,7.21h36.5c3.97,0,7.21-3.23,7.21-7.21v-1.55h.03c1.56,0,2.83-1.27,2.83-2.83v-3.01h13.3c.75,0,1.37-.61,1.37-1.37s-.61-1.37-1.37-1.37ZM39.97,26.39c1.3-1.3,3.71-2.24,6.99-2.72,1.35-.2,2.6-.28,3.49-.31-.11,2.97-.76,8.18-3.04,10.47-1.69,1.69-4.24,1.98-6.24.9l4.32-4.32c.53-.53.53-1.4,0-1.93-.53-.53-1.4-.53-1.93,0l-4.37,4.37c-1.22-2.02-.97-4.7.78-6.44Zm-19.75,20.6l-2.47-2.47-4.38-4.38c-.53-.53-1.4-.53-1.93,0-.53.53-.53,1.4,0,1.93l2.05,2.05h-1.08c-.75,0-1.37.61-1.37,1.37s.61,1.37,1.37,1.37h3.81l2.07,2.07c-2.52,1.63-5.92,1.34-8.12-.86-1.58-1.58-2.72-4.5-3.3-8.44-.26-1.76-.35-3.37-.38-4.44,3.51.1,10.03.85,12.87,3.69,2.2,2.2,2.49,5.6.86,8.12Zm-4.94,26.33l9.73-4.86c1.55-.77,3.2-1.17,4.92-1.17,1.69,0,3.39.4,4.92,1.17l9.73,4.86H15.28Zm61.22-33.68c0-.86.7-1.55,1.55-1.55s1.55.7,1.55,1.55-.7,1.55-1.55,1.55-1.55-.7-1.55-1.55Zm0,21.9c0-.05.04-.09.09-.09h2.92c.05,0,.09.04.09.09v11.78h-3.11v-11.78Zm3.11,17.52c0,.05-.04.09-.09.09h-2.92c-.05,0-.09-.04-.09-.09v-3.01h3.11v3.01Z"/>
</svg>