<svg id="Bahan_copy_5" viewBox="0 0 64 64" xmlns="http://www.w3.org/2000/svg" xmlns:xlink="http://www.w3.org/1999/xlink" data-name="Bahan copy 5"><linearGradient id="linear-gradient" gradientUnits="userSpaceOnUse" x1="4.18" x2="59.82" y1="32.01" y2="32.01"><stop offset="0" stop-color="#ff81ff"/><stop offset="1" stop-color="#a93aff"/></linearGradient><path d="m55.84 37.81h-1.31l5.24-30.2a3.15 3.15 0 0 0 0-.52 3.1 3.1 0 0 0 -6.11-.67l-7 31.39h-29.4l-7-31.39a3.09 3.09 0 0 0 -6.03 1.19l5.24 30.2h-1.31a4 4 0 0 0 -4 4v9.36a4 4 0 0 0 3 3.84v2a3 3 0 0 0 3 3h4a3 3 0 0 0 3-3v-1.88h29.59v1.87a3 3 0 0 0 3 3h4a3 3 0 0 0 3-3v-2a4 4 0 0 0 3.12-3.88v-9.33a4 4 0 0 0 -4.03-3.98zm-.18-30.95a1.09 1.09 0 0 1 2.14.41l-5.3 30.54h-3.71zm-49.46.42a1.09 1.09 0 0 1 2.14-.42l6.87 31h-3.71zm8.91 49.72a1 1 0 0 1 -1 1h-4a1 1 0 0 1 -1-1v-1.87h5.95zm38.6 1h-4a1 1 0 0 1 -1-1v-1.87h6v1.87a1 1 0 0 1 -1 1zm4.11-6.85a2 2 0 0 1 -2 2h-47.66a2 2 0 0 1 -2-2v-9.36a2 2 0 0 1 2-2h39.41 8.27a2 2 0 0 1 2 2zm-30.82-8.39h-13.87a2 2 0 0 0 -2 2v3.42a2 2 0 0 0 2 2h13.87a2 2 0 0 0 2-2v-3.42a2 2 0 0 0 -2-2zm-13.9 5.42v-3.42h13.9v3.41zm26-5.69a4 4 0 0 0 0 8 4 4 0 0 0 -.01-8zm0 6a2 2 0 0 1 0-4 2 2 0 0 1 -.01 3.96zm9.66-6a4 4 0 0 0 0 8 4 4 0 0 0 -.01-8zm0 6a2 2 0 0 1 0-4 2 2 0 0 1 -.01 3.96zm-22.1-25.13a1 1 0 0 1 -1.66-1.17 8.64 8.64 0 0 1 13.92 0 1 1 0 0 1 -1.62 1.17 6.63 6.63 0 0 0 -10.64 0zm-4-4.3a1 1 0 0 1 -1.51-1.31c5.41-6.52 16.29-6.52 21.7 0a1 1 0 0 1 -1.51 1.31 12.47 12.47 0 0 0 -18.68 0zm-5.39-5.68c7.64-8.44 21.82-8.44 29.46 0a1 1 0 0 1 -1.46 1.37c-6.82-7.62-19.72-7.62-26.54 0a1 1 0 0 1 -1.46-1.37zm10.73 14.62a4 4 0 0 0 8 0 4 4 0 0 0 -8 0zm6 0a2 2 0 0 1 -4 0 2 2 0 0 1 4 0z" fill="url(#linear-gradient)"/></svg>